<?xml version="1.0" encoding="utf-8"?>
<!-- Generator: Adobe Illustrator 21.0.2, SVG Export Plug-In . SVG Version: 6.00 Build 0)  -->
<svg version="1.1" id="Layer_2" xmlns="http://www.w3.org/2000/svg" xmlns:xlink="http://www.w3.org/1999/xlink" x="0px" y="0px"
	 viewBox="0 0 95 100" style="enable-background:new 0 0 95 100;" xml:space="preserve">
<style type="text/css">
	.st0{fill:#717171;}
</style>
<g>
	<path class="st0" d="M90.1,55.3H85c-0.4,0-0.8-0.1-0.8-0.5s0.4-0.5,0.8-0.5c1,0,7.4,0,7.4,0v-2.1c0,0-5.5,0-7.9,0
		c-2,0-2.5,1-2.5,2.6c0,1.5,0.5,2.6,2.5,2.6h5.1c0.4,0,0.8,0.1,0.8,0.5c0,0.4-0.4,0.5-0.8,0.5c-1,0-7.4,0-7.4,0v2.1c0,0,5.5,0,7.9,0
		c2,0,2.5-1,2.5-2.6C92.6,56.3,92.1,55.3,90.1,55.3L90.1,55.3z"/>
	<path class="st0" d="M70.6,56.2c0,2.5,0.6,4.3,3.4,4.3c2.4,0,6.7,0,6.7,0v-2.1c0,0-5.2,0-6.2,0c-1.5,0-1.5-1.2-1.5-2.2
		c0-1.1,0.1-1.9,1.4-1.9h6.3V52h-6.3C71.7,52,70.6,53.6,70.6,56.2L70.6,56.2z"/>
	<polygon class="st0" points="66.5,52 66.5,60.5 68.9,60.5 68.9,52 	"/>
	<polygon class="st0" points="57.5,57.9 54.7,52 51.1,52 51.1,60.5 53.3,60.5 53.3,54 56.5,60.5 58.5,60.5 61.8,54 61.8,60.5 
		64,60.5 64,52 60.3,52 	"/>
	<path class="st0" d="M42.3,52l-4.8,8.5h2.6l0.9-1.7h5.6l0.9,1.7h2.6L45.4,52H42.3L42.3,52z M42.3,56.7l1.6-2.9l1.6,2.9H42.3
		L42.3,56.7z"/>
	<polygon class="st0" points="34.3,58.2 29.5,52 26.3,52 26.3,60.5 28.5,60.5 28.5,54.2 33.3,60.5 36.5,60.5 36.5,52 34.3,52 	"/>
	<polygon class="st0" points="19.7,55.6 16.6,52 13.5,52 18.4,57.5 18.4,60.5 20.8,60.5 20.8,57.5 25.7,52 22.6,52 	"/>
	<path class="st0" d="M10,52H3v2.3v6.2c0,0,5.1,0,7.4,0c2.9,0,3.4-1.8,3.4-4.3S12.8,52,10,52L10,52z M10,58.4c-1,0-4.7,0-4.7,0v-4.2
		h4.8c1.3,0,1.4,0.8,1.4,1.9C11.5,57.2,11.5,58.4,10,58.4L10,58.4z"/>
	<polygon class="st0" points="81.5,37.3 79.2,37.3 79.2,45.8 87.7,45.8 87.7,43.7 81.5,43.7 	"/>
	<path class="st0" d="M70.4,37.3l-4.8,8.5h2.6l0.9-1.7h5.6l0.9,1.7h2.6l-4.8-8.5H70.4L70.4,37.3z M70.3,42l1.6-2.9l1.6,2.9H70.3
		L70.3,42z"/>
	<path class="st0" d="M65.2,40.3c0-1.2,0-3-2.8-3h-7.8v8.5h2.3v-2.5h3.5l2,2.5h2.9L63.3,43C64.8,42.8,65.2,41.7,65.2,40.3L65.2,40.3
		z M61.7,41.2h-4.8v-1.6h4.9c0.6,0,1.1,0.2,1.1,0.7C62.9,40.8,62.8,41.2,61.7,41.2L61.7,41.2z"/>
	<polygon class="st0" points="43,45.8 52.5,45.8 52.5,43.7 45.4,43.7 45.4,42.7 52.5,42.7 52.5,40.6 45.4,40.6 45.4,39.7 52.5,39.7 
		52.5,37.3 43,37.3 	"/>
	<polygon class="st0" points="38.4,43.5 33.7,37.3 30.4,37.3 30.4,45.8 32.6,45.8 32.6,39.5 37.4,45.8 40.6,45.8 40.6,37.3 
		38.4,37.3 	"/>
	<polygon class="st0" points="18.8,45.8 28.3,45.8 28.3,43.7 21.2,43.7 21.2,42.7 28.3,42.7 28.3,40.6 21.2,40.6 21.2,39.7 
		28.3,39.7 28.3,37.3 18.8,37.3 	"/>
	<path class="st0" d="M5.8,41.4c0,2,0.4,4.3,3.4,4.3c2.4,0,7.4,0,7.4,0v-5.3h-5.8v2.2h3.6v1c0,0-3.7,0-4.7,0c-1.8,0-1.5-1.7-1.5-2.2
		c0-1.3,0.2-1.9,1.4-1.9h7.1v-2.3h-7C6.9,37.3,5.8,38.9,5.8,41.4L5.8,41.4z"/>
</g>
</svg>
