<?xml version="1.0" encoding="utf-8"?>
<!-- Generator: Adobe Illustrator 21.0.2, SVG Export Plug-In . SVG Version: 6.00 Build 0)  -->
<svg version="1.1" id="Layer_2" xmlns="http://www.w3.org/2000/svg" xmlns:xlink="http://www.w3.org/1999/xlink" x="0px" y="0px"
	 viewBox="0 0 95 100" style="enable-background:new 0 0 95 100;" xml:space="preserve">
<style type="text/css">
	.st0{fill:#717171;}
</style>
<path class="st0" d="M51.8,36c-0.4-0.3-0.8-0.6-1.2-0.7l-0.7,14l3.4-9.6C53.7,38.1,52.8,36.9,51.8,36L51.8,36z M48.1,34.3
	c2.5,0.1,3.4-1.7,3.5-3.4c0.1-2.6-1.5-3.7-3.5-3.7c-2,0-3.5,1.1-3.4,3.7C44.7,32.2,45.3,34.2,48.1,34.3L48.1,34.3z M40.7,33.4
	c0.2-4.3-6.4-4.1-6.2,0C34.3,37.7,41.1,37.8,40.7,33.4L40.7,33.4z M61,35.6c0.1-4.2-6.2-4.3-6.1,0C54.8,39.6,61.2,39.7,61,35.6
	L61,35.6L61,35.6z M61,35.6L61,35.6L61,35.6L61,35.6z M63.4,56.4v-2.8c-2.3,1-4.3,1.8-6.5,2.8H63.4L63.4,56.4z M32,56.4h7.1l-7.1-3
	V56.4L32,56.4z M63.4,53v-2.9c-2.3,1.5-4.6,3-6.7,4.5L63.4,53L63.4,53z M32,52.8c2.4,0.5,5.1,1.2,7.3,1.7L32,49.7L32,52.8L32,52.8z
	 M63.4,49.4v-3.8L55.8,53C58.4,51.8,60.8,50.6,63.4,49.4L63.4,49.4z M32.1,49.1l8,3.7c-2.7-2.7-5.4-5.2-8-7.9V49.1L32.1,49.1z
	 M62.9,42.3c-0.2-0.4-0.4-0.7-0.7-1l-7.6,10.3c3-2.3,5.9-4.5,8.8-6.8C63.5,43.9,63.4,43,62.9,42.3L62.9,42.3z M32,44.3
	c3.1,2.4,6.2,4.8,9.3,7.2L33,39.7C32.2,41,31.9,42.6,32,44.3L32,44.3z M58.1,39.3l-5,11.2l8.8-9.6C60.9,39.9,59.5,39.4,58.1,39.3
	L58.1,39.3z M53.1,42.3l-1.5,7.6c2-3.5,4-7,6-10.5C55.6,39.5,53.7,40.2,53.1,42.3L53.1,42.3z M33.3,39.3l9.5,11l-5.8-13
	C35.3,37.4,34,38.2,33.3,39.3L33.3,39.3z M37.4,37.3c2.3,4,4.7,8.4,7,12.3c-0.8-3.4-1.6-9-2.8-10.6C40.2,37.1,37.4,37.3,37.4,37.3
	L37.4,37.3z M44.4,36c-1.1,0.9-1.9,2.1-1.6,3.6l3.4,9.6l-0.7-13.9C45.2,35.4,44.7,35.7,44.4,36L44.4,36z M46,35.2l2,13.9l2-13.9
	C48.9,34.7,47.4,34.7,46,35.2L46,35.2z"/>
<path class="st0" d="M12.9,73.4h1.2v-7.1h-1.2V73.4L12.9,73.4z M19.6,71.4c0-1-0.6-1.7-1.9-2.1c-1-0.3-1.4-0.6-1.4-1.2
	c0-0.4,0.4-0.9,1.3-0.9c0.6,0,1.2,0.2,1.5,0.4v-1c-0.3-0.2-0.9-0.3-1.5-0.3c-1.5,0-2.6,0.9-2.6,2c0,1.1,0.8,1.7,2,2.1
	c0.9,0.3,1.3,0.6,1.3,1.2c0,0.6-0.5,1-1.4,1c-0.6,0-1.5-0.2-1.9-0.5v1.1c0.4,0.2,1.1,0.4,1.9,0.4C18.7,73.5,19.6,72.5,19.6,71.4
	L19.6,71.4z M26.6,70.4h0.6c0.5,0.9,1.8,3,1.8,3h1.4l-1.9-3.1c0.4-0.1,0.7-0.3,1-0.5c0.4-0.3,0.7-0.9,0.7-1.5c0-0.7-0.3-1.2-0.7-1.5
	c-0.4-0.4-1-0.5-2-0.5h-2.1v3l0,0v3.1h-3.8v-2h2.2v-1h-2.2v-2c0.3,0,2.7,0,2.7,0v-1c-0.7,0-3.9,0-3.9,0v7.1h6.2L26.6,70.4L26.6,70.4
	z M26.6,69.3v-2h1.1c0.9,0,1.3,0.4,1.3,1c0,0.7-0.4,1-1.3,1L26.6,69.3L26.6,69.3L26.6,69.3z M10.6,71.4l0.7,2h1.3l-2.5-7.1H8.6
	l-2.1,6l-2-2.6l2.7-3.5H5.7l-2.5,3.4v-3.4H2v7.1h1.2v-3.5l2.6,3.5h0.3l0,0h1.2l0.7-2H10.6L10.6,71.4z M9.3,67.4L9.3,67.4l1,2.9h-2
	L9.3,67.4L9.3,67.4z"/>
<path class="st0" d="M54.7,71.4l-1.2-5.2h-2.2v7.1c0.6,0,1.2,0,1.2,0v-6.1l1.5,6.1c0,0,0.5,0,1.3,0l1.5-6.1v6.1H58v-7.1h-2.1
	L54.7,71.4L54.7,71.4z M38.9,66.8c-0.4-0.4-1-0.5-2-0.5h-2.1v7.1H36v-2.9h0.9c1,0,1.6-0.2,2-0.5c0.4-0.4,0.7-0.9,0.7-1.6
	C39.6,67.7,39.3,67.2,38.9,66.8L38.9,66.8z M37.1,69.4h-1v-2.1h1c1,0,1.3,0.4,1.3,1C38.4,69,38,69.4,37.1,69.4L37.1,69.4z
	 M49.5,69.8c0.4-0.4,0.7-0.9,0.7-1.5c0-0.6-0.3-1.2-0.7-1.5c-0.4-0.4-1-0.5-2.1-0.5h-2v3l0,0v3h-3.8v-2h2.2v-1.1h-2.2v-2
	c0.3,0,2.7,0,2.7,0v-1.1c-0.7,0-3.9,0-3.9,0v7.1h6.2v-3h0.6c0.6,0.9,1.8,3,1.8,3h1.4l-1.9-3.1C48.9,70.2,49.2,70.1,49.5,69.8
	L49.5,69.8z M46.6,69.4v-2h1c1,0,1.3,0.4,1.3,1c0,0.7-0.4,1.1-1.3,1.1H46.6L46.6,69.4z M82.2,66.3L82.2,66.3H82v5.5l-2.8-5.5h-1.7
	v6.1h-3.7v-2H76v-1.1h-2.2v-2c0.3,0,2.7,0,2.7,0v-1.1c-0.7,0-3.9,0-3.9,0v7.1h6l0,0c0.1,0,0.1,0,0.1,0V68l2.8,5.4h1.7v-6.1
	c0.7,0,1.5,0,2.2,0v6.1h1.2v-6.1h2.1l-0.1-1.1L82.2,66.3L82.2,66.3z M93.5,72.3h-2.9v-2h2.1v-1.1h-2.1v-2c0.3,0,2.7,0,2.7,0v-1.1
	c-0.7,0-3.9,0-3.9,0v7.1h4.2L93.5,72.3L93.5,72.3z M70.1,71.8l-2.8-5.5h-1.7v7.1c0.6,0,1.2,0,1.2,0V68l2.8,5.4h1.7v-7.1h-1.2V71.8
	L70.1,71.8z M61.1,66.3l-2.5,7.1h1.2l0.6-2.1h2.6l0.7,2.1h1.3l-2.5-7.1H61.1L61.1,66.3z M60.8,70.4l1-3l0,0l1,3H60.8L60.8,70.4z"/>
</svg>
