<?xml version="1.0" encoding="utf-8"?>
<!-- Generator: Adobe Illustrator 21.0.2, SVG Export Plug-In . SVG Version: 6.00 Build 0)  -->
<svg version="1.1" id="Layer_3" xmlns="http://www.w3.org/2000/svg" xmlns:xlink="http://www.w3.org/1999/xlink" x="0px" y="0px"
	 viewBox="0 0 95 100" style="enable-background:new 0 0 95 100;" xml:space="preserve">
<style type="text/css">
	.st0{fill:#717171;}
</style>
<title>Asset 1</title>
<g id="Layer_2">
	<g id="Layer_3_1_">
		<path id="path11521" class="st0" d="M76.7,51.3c-1.7,0.3-3.4,0.4-5.1,0.5l-0.5,1.5c1.1-0.1,2.1-0.1,3.2,0c0.3,0,0.5,0.2,0.5,0.4
			c0,0,0,0,0,0c0,0.4,0,0.7,0,1.1c-0.1,0.2-0.3,0.4-0.5,0.4c-0.5,0.1-4,0.2-4,0.2l-0.6,1.9c0,0-0.2,0.4,0.3,0.3
			c1.5-0.4,3-0.6,4.5-0.8c0.6,0.2,1,0.8,0.9,1.5c-0.2,0.8-3.9,3.1-6.1,2.9c0,0-1.2,0.1-2.2-1.5c-1-1.6,0.3-4.4,0.3-4.4
			s-0.6-1.3-0.1-1.8c0.3-0.2,0.6-0.3,0.9-0.3l0.9-1.9c-0.6,0-1.2-0.2-1.6-0.7c-0.6-0.7-0.6-1-0.2-1.2c2.5-0.6,5.1-1,7.6-0.9
			c0,0,1-0.1,1.9,1.7C77.1,50.3,77.5,51,76.7,51.3 M65.7,58.4c-0.3,1-1.3,1.6-2.3,1.3c-0.1,0-0.1,0-0.2-0.1
			c-1.2-0.6-3.2-4.5-3.2-4.5s-0.7-1.5-0.9-1.4c0,0-0.2-0.3-0.2,1.3c-0.1,1.6,0,4.7-0.6,5.2c-0.5,0.4-1.2,0.3-1.7-0.2
			c0,0-0.1-0.1-0.1-0.1c-0.3-0.6-0.5-1.9-0.3-4.3s0.8-4.9,1.5-5.7c0.3-0.4,0.9-0.5,1.3-0.2c0.1,0.1,0.1,0.1,0.2,0.2
			c1,1,1.8,2.1,2.5,3.3l0.3,0.5c0.5,0.8,1,1.6,1.6,2.4c0,0,0.1,0.1,0.2,0c0.1-0.1,0.1-0.8,0.1-0.8c-0.3-2.3-0.9-4.6-1.6-6.9
			c-0.1-0.4-0.1-0.7-0.1-1.1c0.1-0.5,0.6-0.2,0.6-0.2s2,0.9,3,4.2C66.5,53.6,66.5,56.1,65.7,58.4 M55.9,50c-0.2,0.3-0.3,0.8-1.1,0.9
			c0,0-8.1,0.6-8.5,1.1c0,0-0.3,0.3,0.2,0.4c0.4,0.1,2.3,0.3,3.2,0.4c0.9,0,4.1,0,5.3,1.5c0.5,0.6,0.7,1.4,0.6,2.2
			c0,1.6-0.3,2.1-0.9,2.7c-0.6,0.6-6.1,3-9.7-0.8c-0.8-0.8-0.7-2.1,0-2.8c0.2-0.1,0.3-0.3,0.5-0.4c0,0,1.6-0.9,5.6,0.2
			c0,0,1.2,0.4,1.2,0.9c-0.1,0.4-1,0.9-2.4,0.9c-0.7,0-1.4-0.2-2.1-0.6c0.2,0.1-1.4-0.8-1.9-0.2c-0.5,0.6-0.4,0.8,0.1,1.2
			c1.2,0.7,6,0.4,7.4-1.1c0,0,0.6-0.6-0.3-1.2c-1.4-0.5-2.8-0.8-4.3-0.8c-0.9,0-4.3,0-4.8-0.9c0,0-0.5-0.6,0-2.4s4.5-2.5,6.2-2.7
			c0,0,4.7-0.2,5.6,0.8C55.9,49.7,55.9,49.9,55.9,50 M42.5,60.7c-0.7,0.4-1.6,0.3-2.1-0.2C40,60,39.9,58.3,40,55.7
			c0.1-2.6,0.1-6,0.7-6.5c0.6-0.5,0.9-0.1,1.2,0.3c0.4,0.5,0.6,1,0.6,1.6c0.1,0.8,0.3,5.2,0.3,5.2S43.1,60.2,42.5,60.7 M43.7,46.5
			c-1.2,0.5-2.6,0.5-3.8,0c-0.4,0.8-0.7,0.9-0.9,1c-0.5,0-0.9-0.7-0.9-0.9c-0.2-0.4-0.3-0.8,0-1.2c-0.8-0.7-1.1-1.7-0.8-2.7
			c0.2-0.9,1.8-4.3,6.6-4.7c0,0,2.4-0.2,2.8,1.1h0.1c0,0,2.3,0,2.2,2.1C48.8,43.2,46.3,45.7,43.7,46.5 M45.9,40.7
			c-1.5,0.2-3.9,2.3-5,4c1.7,0.3,4.7,0.2,6.1-2.5C47,42.1,47.6,40.4,45.9,40.7 M39.2,42c-0.5,0.8-0.5,1.3-0.3,1.6
			c0.8-1.3,1.9-2.3,3.1-3.2C40.8,40.4,39.8,41.1,39.2,42 M80.4,60.6c-1.3,3.1-2.2,6.3-2.6,9.6c0,0-0.1,0.8-0.8,0.5
			c-1.1-0.6-1.8-1.6-2-2.8c-0.2-2,0.7-5.4,2.5-9.3c-0.7-1.2-0.9-2.5-0.6-3.9c0.6-2.4,1.9-4.6,3.8-6.2c0,0,0.4-0.3,0.6-0.2
			s0.1,1.1-0.1,1.7s-1.6,3-1.6,3c-0.5,0.9-0.7,2-0.7,3.1c1.7-2.6,5.6-8,8-6.3c1.5,1.1,1.5,4.6,0.4,6.6
			C86.3,58.1,83.8,61.4,80.4,60.6 M85.4,52.4c-1.5,1.6-2.8,3.4-3.8,5.3c1.1-0.1,2.1-0.6,3-1.3c1.2-1,2-2.5,1.9-4.1
			C86.5,52.3,86.4,51.2,85.4,52.4 M31.2,62c-3.4,1-7.1,1-10.5,0.1c-0.1,0.9-0.2,1.3-0.3,1.4c-0.1,0.1-1.6,0.9-2.4-0.1
			c-0.4-0.8-0.6-1.6-0.6-2.4c-2.9-1.2-5.4-3.2-7.3-5.7c-0.8-0.7-0.8-1.9-0.1-2.7c1-1.3,4.5-2.6,7.7-3.1c0-1.9,0.3-3.8,0.8-5.6
			c0.4-1.1,1-0.1,1.5,0.6c0.4,0.5,0.7,2.8,0.7,4.7c1.9-0.1,3.7,0.1,5.5,0.5c3,0.5,5,2,4.8,3.8c-0.1,1.2-1.1,2.2-2.3,2.4
			c-0.5,0-1.1-0.2-1.6-0.4c-0.7-0.3-0.1-0.6,0.7-0.9c0.8-0.3,0.7-0.8,0.7-0.8c-0.3-0.9-4.2-1.6-8-1.6c0,2.1,0.1,5.6,0.1,7.7
			c1.6,0.3,3.1,0.4,4.7,0.4c0,0,9.8-0.3,10.1-6.5s-9.9-12.3-17.3-14.1c-7.4-1.9-11.6-0.6-12-0.4c-0.4,0.2,0,0.3,0,0.3
			c0.4,0.1,0.8,0.2,1.1,0.3c0.7,0.2,0.1,0.6,0.1,0.6c-1.3,0.4-2.7,0.1-3-0.4s0.2-1.1,0.7-1.9s1.1-0.7,1.1-0.7
			c9.2-3.2,20.4,2.6,20.4,2.6C37.2,45,39,51.2,38.8,53.7C38.6,56.1,37.7,60.1,31.2,62 M11,53.4c-0.4,0.1-0.6,0.5-0.5,0.9
			c0,0.1,0.1,0.3,0.2,0.4c1.8,1.9,4.1,3.4,6.6,4.2c0.3-3.6,0.2-4.9,0.2-6.7C15.4,52.2,13.1,52.6,11,53.4"/>
	</g>
</g>
</svg>
