<?xml version="1.0" encoding="utf-8"?>
<!-- Generator: Adobe Illustrator 21.0.2, SVG Export Plug-In . SVG Version: 6.00 Build 0)  -->
<svg version="1.1" id="Layer_2_1_" xmlns="http://www.w3.org/2000/svg" xmlns:xlink="http://www.w3.org/1999/xlink" x="0px" y="0px"
	 viewBox="0 0 95 100" style="enable-background:new 0 0 95 100;" xml:space="preserve">
<style type="text/css">
	.st0{fill:#487838;}
	.st1{fill:#EC7A8C;}
	.st2{fill:#EF5F7F;}
	.st3{fill:#EE437F;}
	.st4{fill:#C01B7D;}
	.st5{fill:#CC3387;}
	.st6{fill:#952A8B;}
	.st7{fill:#6B1A89;}
	.st8{fill:#7B2C89;}
	.st9{fill:#E23F96;}
	.st10{fill:#542DAA;}
	.st11{fill:#02559F;}
	.st12{fill:#9D5BFC;}
	.st13{fill:#7534AD;}
	.st14{fill:#1277B8;}
	.st15{fill:#B180FF;}
	.st16{fill:#FDDA00;}
	.st17{fill:#C5D82E;}
	.st18{fill:#FAB615;}
	.st19{fill:#8BC53F;}
	.st20{fill:#75A341;}
	.st21{fill:#21407F;}
	.st22{fill:#FF9022;}
	.st23{fill:#ED6B0A;}
	.st24{fill:#FF6D50;}
	.st25{fill:#C13729;}
	.st26{fill:#E82A2A;}
	.st27{fill:#FF5043;}
	.st28{fill:#FF5850;}
	.st29{fill:#D31C1C;}
	.st30{fill:#FF8969;}
	.st31{fill:#B53535;}
	.st32{fill:#A5190A;}
	.st33{fill:#717171;}
	.st34{fill:#10BABB;}
</style>
<g id="Layer_2-2">
	<path id="path3067" class="st0" d="M47.6,56.2l-1.8-3.5l12.8-1L47.6,56.2z"/>
	<path id="path2999" class="st1" d="M24,23.3l3.4-6.8l6.4,3.7L24,23.3z"/>
	<path id="path3001" class="st2" d="M33.7,20.2l-6.4-3.7l7.5,2.2L33.7,20.2z"/>
	<path id="path3009" class="st3" d="M34.8,18.7l-1.1,1.6l4,6.1L34.8,18.7z"/>
	<path id="path3011" class="st4" d="M37.7,26.3l-4-6.2l-2.1,10L37.7,26.3z"/>
	<path id="path3019" class="st5" d="M24,30.5l-1.8-7.8l1.8,0.7V30.5z"/>
	<path id="path2995" class="st3" d="M24,23.3l-1.8-0.7l5.2-6.1L24,23.3z"/>
	<path id="path3015" class="st6" d="M31.5,30.2L24,23.3v7.2L31.5,30.2z"/>
	<path id="path3021" class="st7" d="M24,30.5l8.1,1.4l-0.6-1.7L24,30.5z"/>
	<path id="path3023" class="st8" d="M32.1,31.9l-0.5-1.7l6.2-3.8L32.1,31.9z"/>
	<path id="path3013" class="st9" d="M31.5,30.2L24,23.3l9.7-3.1L31.5,30.2z"/>
	<path id="path3039" class="st10" d="M36.7,51.3l-4.6-10.5h2L36.7,51.3z"/>
	<path id="path3041" class="st11" d="M34.1,40.8l2.8,11.1l9,0.8L34.1,40.8z"/>
	<path id="path3053" class="st12" d="M34.1,40.8L36.2,30l9.6-1.1L34.1,40.8z"/>
	<path id="path3025" class="st13" d="M32.1,40.8l4-10.7l-2.1,10.7H32.1z"/>
	<path id="path3055" class="st14" d="M34.1,40.8h11l0.8,12L34.1,40.8z"/>
	<path id="path3059" class="st15" d="M36.2,30l11.5-4.8l-1.9,3.7L36.2,30z"/>
	<path id="path3061" class="st16" d="M45.8,29l1.9-3.7l10.6,4.5L45.8,29z"/>
	<path id="path3063" class="st17" d="M45.8,29L58,40.9l-12.9-0.1L45.8,29z"/>
	<path id="path3065" class="st18" d="M58.3,29.8l-0.4,11.1L45.8,29L58.3,29.8z"/>
	<path id="path3069" class="st19" d="M45.1,40.8h12.8l-12,11.8L45.1,40.8z"/>
	<path id="path3071" class="st20" d="M58.5,51.7l-12.7,1l12-11.8L58.5,51.7z"/>
	<path id="path3057" class="st21" d="M47.6,56.1l-1.7-3.5l-9-0.7L47.6,56.1z"/>
	<path id="path3073" class="st22" d="M57.9,40.9c0-0.1,0.4-11.1,0.4-11.1l4.8,11L57.9,40.9z"/>
	<path id="path3075" class="st23" d="M58.5,51.7l-0.7-10.8l5.2-0.1L58.5,51.7z"/>
	<path id="path3081" class="st24" d="M71,23.8l1.9-0.7L67.8,17L71,23.8z"/>
	<path id="path3083" class="st25" d="M72.9,23.1l-2,0.7l-0.2,7.3L72.9,23.1z"/>
	<path id="path3085" class="st26" d="M70.7,31.1l-7.4-0.8l7.7-6.6L70.7,31.1z"/>
	<path id="path3087" class="st27" d="M63.3,30.3l-2-9.9l9.7,3.3L63.3,30.3z"/>
	<path id="path3077" class="st28" d="M67.9,16.9l-6.6,3.4l-1.1-1.6L67.9,16.9z"/>
	<path id="path3091" class="st29" d="M57,26.3l6.4,4.1l-2.1-10L57,26.3z"/>
	<path id="path3079" class="st30" d="M61.3,20.4l6.6-3.4l3.1,6.8L61.3,20.4z"/>
	<path id="path3089" class="st31" d="M60.2,18.8l1.1,1.6L57,26.3L60.2,18.8z"/>
	<path id="path3093" class="st32" d="M57,26.3l6.3,4.1l-0.7,1.8L57,26.3z"/>
	<path id="path3095" class="st25" d="M62.6,32.1l0.7-1.8l7.4,0.8L62.6,32.1z"/>
	<g id="g10326">
		<path id="path10342" class="st33" d="M32.9,61.1c-1.3,0-2.3,0.2-2.5,0.5c-0.2,0.3-0.5,0.4-0.5,0.7s0.3,0.3,0.5,0.3s0.4,0,0.4-0.1
			s-0.3-0.1-0.3-0.3s1.1-0.3,1.6-0.3c4.5,0,9.7,3.2,9.8,6c0,2.1-2.7,2.6-4.2,2.6c-0.5,0-1-0.1-1.5-0.2c0-0.7-0.1-2.1-0.1-3h0.5
			c1.1,0,2.5,0.4,2.5,0.7s-0.4,0.4-0.4,0.6c0,0.2,0.4,0.1,0.7,0.2c0.4-0.2,0.6-0.5,0.7-0.9c0-0.7-0.9-1.6-3.9-1.6h-0.1
			c0-0.8-0.1-2.2-0.6-2.2s-0.5,1.4-0.6,2.2c-1.7,0.3-3.1,0.9-3.1,1.6c0,0.6,1.2,2,3.1,2.8c0,0.6,0.2,1.1,0.7,1.1
			c0.4,0,0.5-0.3,0.6-0.6c0.7,0.2,1.3,0.3,2,0.3c2.8,0,5-1.5,5-3.6C43.2,65,37.7,61,32.9,61.1L32.9,61.1z M32.1,68.2
			c0-0.5,1.4-0.7,2.8-0.7c0,0.8,0,1.9,0,2.6C33.2,69.4,32.1,68.5,32.1,68.2z"/>
		<path id="path10344" class="st33" d="M44.2,66.3c-0.5,0-0.5,2-0.5,2.7c0,1.6,0.2,1.8,0.6,1.8s0.5,0,0.5-1.4
			C44.7,66.8,44.5,66.3,44.2,66.3z"/>
		<path id="path10346" class="st33" d="M44.4,65.5c1,0,2.7-1.2,2.7-2.2c0-0.5-0.2-0.7-0.8-0.8C46,62.2,45.6,62,45.2,62
			c-1.3,0-2.4,0.8-2.7,2.1c0,0.3,0.1,0.6,0.3,0.9c0,0.6,0.1,0.7,0.3,0.7c0.2,0,0.3-0.1,0.4-0.3C43.8,65.5,44.1,65.5,44.4,65.5z
			 M44.5,64.7c-0.2,0-0.4,0-0.6-0.1c0.5-0.5,1.6-1.5,2.1-1.5c0.2,0,0.4,0.2,0.4,0.4c0,0,0,0,0,0C46.4,64.2,45.1,64.8,44.5,64.7
			L44.5,64.7z M44.6,62.9c-0.5,0.3-1,0.7-1.3,1.1c0-0.1,0-0.1,0-0.2C43.2,63.6,43.7,63.1,44.6,62.9L44.6,62.9z"/>
		<path id="path10348" class="st33" d="M49.8,66.7c0-0.4-1.1-0.4-1.8-0.4c-0.5,0-2.9,0.1-2.9,1.5c0,0.9,1.3,0.7,2.2,0.8
			c0.7,0.1,1.6,0.3,1.6,0.6c0,0.6-1.9,0.8-2.3,0.8c-0.8,0-0.8-0.2-0.8-0.4c0-0.2,0.2-0.4,0.4-0.3c0.3,0,0.9,0.4,1.4,0.4
			s0.8-0.2,0.8-0.4c0-0.4-1.4-0.6-1.9-0.5c-0.4,0-1.2,0.2-1.2,0.9c0,0.4,0.6,1.3,2.3,1.3c1.7,0,2.1-1,2.1-1.5c0-1.2-1.1-1.4-2.1-1.4
			c-0.7-0.1-1.5-0.1-1.5-0.3C46.2,67,49.8,67.5,49.8,66.7L49.8,66.7z"/>
		<path id="path10350" class="st33" d="M52.5,65.6c-0.1,0-0.2,0.2-0.2,0.3c0,0.5,0.6,2.1,0.6,2.8c0,0.1,0,0.4-0.1,0.4
			c-0.1,0-1.5-2.5-2-2.5c-0.6,0-0.9,2.5-0.9,3.1s0.1,1,0.5,1c0.7,0,0.3-2.5,0.6-2.5c0.3,0,1.3,2.3,1.9,2.3c0.6,0,1-1,1-1.6
			C54,67.4,53.1,65.7,52.5,65.6L52.5,65.6z"/>
		<path id="path10352" class="st33" d="M57,69.5c-0.5,0.1-1.1,0.2-1.6,0.2c-0.1-0.1,0.1-0.9,0.2-0.9c0.2,0,1.2,0,1.3,0
			c0.5,0,0.4-0.7,0.1-0.7c-0.4,0-0.7-0.1-1.1-0.2c0-0.1,0-0.5,0.1-0.6c0.1,0,1.6-0.1,1.7-0.2c0.2,0,0.3-0.1,0.3-0.3
			c0-0.2-0.5-0.8-1.1-0.7c-1.1,0.1-2.5,0.1-2.5,0.5s0.7,0.5,0.7,0.6c0,0.2-0.1,0.4-0.1,0.6c0,0.1-0.5,0.2-0.6,0.5
			c0,0.1,0.1,0.2,0.1,0.3c-0.1,0.4-0.2,0.7-0.3,1.1c0,0.4,0.3,1.2,1,1.2c0.9,0,1.7-0.4,2.3-1.1C57.5,69.7,57.2,69.5,57,69.5L57,69.5
			z"/>
		<path id="path10354" class="st33" d="M61.6,66.6c-0.6,0-1.9,1.5-2.6,2.4c0-0.1-0.1-0.2-0.1-0.3c0.2-0.7,0.5-1.3,0.9-1.9
			c0.1-0.3,0-0.7-0.2-0.6c-0.8,0.8-1.3,1.8-1.5,2.9c0,0.3,0.1,0.7,0.2,0.9c-0.4,1.2-0.7,2.5-0.8,3.8c0,0.6,0.6,1.2,0.9,1.1
			c0.1,0,0.2-0.8,0.3-1.3c0.2-0.7,0.6-2.1,0.8-2.7h0.2c1.5-0.1,2.7-1.3,2.9-2.8C62.6,66.9,61.9,66.5,61.6,66.6L61.6,66.6z M60,69.8
			c0.5-1,1.3-2.3,1.6-2.3c0.3,0,0.3,0.2,0.3,0.5C61.8,69,61,69.7,60,69.8L60,69.8z"/>
	</g>
	<path id="path3334" class="st33" d="M12,85.3v-9.1h1.5v9.1H12z"/>
	<path id="path3336" class="st33" d="M16.4,85.3v-9.1h1.4l1.8,4.9c0.1,0.2,0.2,0.5,0.2,0.7c0.1,0.3,0.1,0.6,0.2,0.9h0
		c-0.1-0.4-0.1-0.7-0.2-1c0-0.3,0-0.5,0-0.8v-4.7h1.3v9.1h-1.2L18,80.1c-0.1-0.3-0.2-0.5-0.2-0.8c-0.1-0.3-0.1-0.5-0.2-0.8h0
		c0.1,0.3,0.1,0.7,0.2,1c0,0.3,0,0.7,0,1.1v4.8L16.4,85.3z"/>
	<path id="path3338" class="st33" d="M25.3,85.3v-7.7h-1.5v-1.4h4.6v1.4h-1.5v7.7H25.3z"/>
	<path id="path3340" class="st33" d="M30.9,85.3v-9.1h4.2v1.4h-2.7v2.3h2v1.4h-2v2.6h2.8v1.4L30.9,85.3z"/>
	<path id="path3342" class="st33" d="M39.7,80.3h0.1h0.2c0.4,0,0.9-0.1,1.2-0.3c0.3-0.3,0.4-0.7,0.4-1.2c0-0.4-0.1-0.8-0.4-1.1
		c-0.3-0.3-0.7-0.4-1.1-0.3h-0.4h0L39.7,80.3z M43.2,85.3h-1.5l-1.1-3.8h-0.3h-0.3h-0.2v3.8h-1.5v-9.1h2c0.4,0,0.9,0,1.3,0.1
		c0.7,0.2,1.2,0.6,1.4,1.3c0.2,0.4,0.2,0.9,0.2,1.3c0,0.5-0.1,1-0.3,1.4c-0.2,0.4-0.5,0.7-0.9,1L43.2,85.3z"/>
	<path id="path3344" class="st33" d="M47,81.9h1.2l-0.6-4.2L47,81.9z M44.9,85.3l1.7-9.1h1.9l1.6,9.1h-1.5l-0.3-2h-1.7l-0.3,2H44.9z
		"/>
	<path id="path3346" class="st33" d="M56.1,79.1c0-0.5-0.1-0.9-0.3-1.3c-0.1-0.3-0.4-0.5-0.7-0.5c-0.4,0-0.7,0.3-0.9,0.8
		C54,79,53.9,79.9,54,80.7c0,0.9,0.1,1.8,0.3,2.6c0.2,0.5,0.5,0.8,0.9,0.8c0.3,0,0.7-0.2,0.8-0.5c0.2-0.5,0.3-1,0.3-1.5V82h1.4v0.1
		c0.1,0.9-0.2,1.7-0.7,2.4c-0.4,0.6-1.1,0.9-1.8,0.9c-0.8,0-1.6-0.4-2-1.2c-0.5-1.1-0.8-2.3-0.7-3.6c-0.1-1.2,0.2-2.4,0.7-3.5
		c0.4-0.8,1.2-1.2,2-1.2c0.7,0,1.3,0.3,1.8,0.8c0.5,0.7,0.7,1.5,0.6,2.3L56.1,79.1z"/>
	<path id="path3348" class="st33" d="M61.1,85.3v-7.7h-1.5v-1.4h4.6v1.4h-1.5v7.7H61.1z"/>
	<path id="path3350" class="st33" d="M66.8,85.3v-9.1h1.5v9.1H66.8z"/>
	<path id="path3352" class="st33" d="M72.8,85.3L71,76.2h1.5l0.9,4.9c0,0.3,0.1,0.6,0.1,1s0.1,0.8,0.1,1.3c0-0.5,0-0.9,0.1-1.3
		c0.1-0.4,0.1-0.7,0.1-1l0.9-4.9h1.4l-1.7,9.1H72.8z"/>
	<path id="path3354" class="st33" d="M78.7,85.3v-9.1h4.2v1.4h-2.7v2.3h2v1.4h-2v2.6H83v1.4L78.7,85.3z"/>
	<path id="path3049" class="st34" d="M34.1,40.8L45.8,29l-0.7,11.9H34.1z"/>
</g>
</svg>
