<?xml version="1.0" encoding="utf-8"?>
<!-- Generator: Adobe Illustrator 21.0.2, SVG Export Plug-In . SVG Version: 6.00 Build 0)  -->
<svg version="1.1" id="Layer_3" xmlns="http://www.w3.org/2000/svg" xmlns:xlink="http://www.w3.org/1999/xlink" x="0px" y="0px"
	 viewBox="0 0 95 100" style="enable-background:new 0 0 95 100;" xml:space="preserve">
<style type="text/css">
	.st0{fill:#717171;}
</style>
<title>Asset 1</title>
<g id="Layer_2">
	<g id="Layer_1-2">
		<path class="st0" d="M61.1,60.6h-2c-0.4,0-0.7-0.2-0.8-0.6l0-0.8C57,60.4,55.2,61,53.4,61c-3.5,0-4.9-2.2-4.9-5.6v-9.2
			c0-0.5,0.3-0.7,0.8-0.7h2.2c0.5,0,0.8,0.2,0.8,0.7v8.5c0,1.7,0.4,2.9,2.3,2.9c1.2,0,2.7-0.7,3.6-1.5v-9.9c0-0.5,0.3-0.7,0.8-0.7
			h2.2c0.5,0,0.8,0.2,0.8,0.7v13.5C61.9,60.4,61.8,60.6,61.1,60.6z"/>
		<path class="st0" d="M10.5,46.1c0-0.4,0.2-0.6,0.6-0.6h2.6c0.4,0,0.6,0.2,0.6,0.6v13.7c0,0.6-0.3,0.8-0.8,0.8h-2.2
			c-0.6,0-0.8-0.2-0.8-0.8V46.1z"/>
		<path class="st0" d="M65.8,46.1c0-0.4,0.2-0.6,0.6-0.6H69c0.4,0,0.6,0.2,0.6,0.6v13.7c0,0.6-0.2,0.8-0.8,0.8h-2.2
			c-0.6,0-0.8-0.2-0.8-0.8L65.8,46.1z"/>
		<path class="st0" d="M31,60.6h-2.2c-0.6,0-0.8-0.3-0.8-0.8v-8.5c0-1.7-0.5-2.9-2.4-2.9c-1.2,0-2.7,0.7-3.7,1.5v9.9
			c0,0.5-0.2,0.8-0.8,0.8h-2.3c-0.5,0-0.8-0.2-0.8-0.8V46.3c0-0.5,0.2-0.8,0.8-0.8h2c0.4,0,0.7,0.1,0.8,0.6l0,0.8
			c1.4-1.2,3.2-1.8,5-1.8c3.5,0,4.9,2.2,4.9,5.6v9.1C31.7,60.4,31.5,60.6,31,60.6z"/>
		<path class="st0" d="M42,41.3c0-1.3-1-2.3-2.3-2.3s-2.3,1-2.3,2.3s1,2.3,2.3,2.3C41,43.6,42,42.5,42,41.3C42,41.3,42,41.3,42,41.3
			z"/>
		<path class="st0" d="M45.3,45.5c0.4,0,0.6,0.1,0.6,0.5v2.2c0,0.3-0.2,0.6-0.5,0.6c0,0-0.1,0-0.1,0h-3.6v11c0,0.6-0.2,0.8-0.8,0.8
			h-2.2c-0.6,0-0.8-0.2-0.8-0.8v-11h-3.6c-0.3,0-0.6-0.2-0.6-0.5c0,0,0-0.1,0-0.1V46c0-0.4,0.2-0.5,0.6-0.5H45.3z"/>
		<path class="st0" d="M80.7,41.3c0-1.3-1-2.3-2.3-2.3c-1.3,0-2.3,1-2.3,2.3c0,1.3,1,2.3,2.3,2.3C79.6,43.6,80.7,42.5,80.7,41.3z"/>
		<path class="st0" d="M83.9,45.5c0.4,0,0.6,0.1,0.6,0.5v2.2c0,0.3-0.2,0.6-0.5,0.6c0,0-0.1,0-0.1,0h-3.6v11c0,0.6-0.2,0.8-0.8,0.8
			h-2.2c-0.6,0-0.8-0.2-0.8-0.8v-11h-3.6c-0.3,0-0.6-0.2-0.6-0.5c0,0,0-0.1,0-0.1V46c0-0.4,0.2-0.5,0.6-0.5H83.9z"/>
	</g>
</g>
</svg>
