<?xml version="1.0" encoding="utf-8"?>
<!-- Generator: Adobe Illustrator 21.0.2, SVG Export Plug-In . SVG Version: 6.00 Build 0)  -->
<svg version="1.1" id="Layer_3" xmlns="http://www.w3.org/2000/svg" xmlns:xlink="http://www.w3.org/1999/xlink" x="0px" y="0px"
	 viewBox="0 0 95 100" style="enable-background:new 0 0 95 100;" xml:space="preserve">
<style type="text/css">
	.st0{fill:#717171;}
</style>
<title>Asset 1</title>
<g id="Layer_2">
	<g id="svg2645">
		<path class="st0" d="M25.6,57.9c0-0.9-0.1-1.8-0.5-2.6c-0.5-0.6-1.3-0.7-2.7-0.7h-3v3.6h1c1.5,0,1.7-0.4,1.7-2.2h1.2v6.1H22
			c0-2.1-0.2-2.6-1.7-2.6h-1v3.2c0,1.1,0.1,1.1,1.2,1.1h1.3v1.5h-7.5v-1.4h0.7c1,0,1.3-0.1,1.3-1.1v-7.3c0-1-0.4-1.1-1.3-1.1h-0.7
			v-1.3h12.5v4.8H25.6z"/>
		<path class="st0" d="M53.8,61.9h-1.1c0,1.3,0,2-0.7,2c-0.4,0-0.7-0.4-0.7-1.1v-0.6c-0.1-1.7-0.5-2.4-2.6-3.1
			c2.3-0.2,3.6-1.3,3.6-3.1c0-2.1-1.5-2.9-4.5-2.9h-8.5v1.3h1c1.1,0,1.2,0.1,1.2,1.1v7.3c0,0.9-0.5,1.1-1.2,1.1h-0.9
			c-0.7,0-1.1-0.2-1.5-1.1l-3.9-9.7h-2.9l-4.2,9.7c-0.4,0.9-0.6,1.1-1.6,1.1h-0.5v1.5h6.4v-1.5h-1.4c-0.6,0-1,0-1-0.4
			c0-0.2,0.1-0.4,0.2-0.6l0.6-1.5h4.6l0.6,1.3c0.1,0.2,0.1,0.4,0.1,0.6c0,0.5-0.4,0.5-1,0.5h-1.3v1.5h13.9v-1.5h-1.1
			c-1.1,0-1.2,0-1.2-1.1v-3.2h1.2c2.1,0,2.7,0.4,2.8,2.4v1.3c0.1,1.7,1.2,2.2,2.9,2.2c1.5,0,2.4-0.9,2.4-3.2
			C53.8,62.3,53.8,62,53.8,61.9z M30.2,59.9l2-4.7l1.8,4.7H30.2z M46.9,58.1l-2.6,0.1v-3.8h2.6c1.7,0,2.6,0.5,2.6,1.8v0.1
			C49.5,57.6,48.6,58.1,46.9,58.1L46.9,58.1z"/>
		<path class="st0" d="M64.7,57c-0.5-1.7-2-2.8-3.8-2.7c-2,0-3.6,1.6-3.6,4.8s1.2,4.8,3.6,4.9c1.6,0,3.1-0.9,3.1-2.2V61
			c0-0.9-0.1-0.9-1.3-0.9H62v-1.3h5.8v1.3h-0.5c-0.9,0-1,0-1,1v4.1h-1.1l-0.6-1c-1.2,0.9-2.7,1.4-4.2,1.3c-1.6,0-3.1-0.6-4.2-1.8
			c-1.3-1.2-2-2.9-2-4.7c-0.1-1.7,0.6-3.4,1.8-4.7c1.2-1.1,2.8-1.7,4.4-1.6c1.4-0.1,2.8,0.4,3.8,1.3l0.6-1.3h1V57H64.7z"/>
		<path class="st0" d="M75.8,65.4c-4,0-7.3-2.4-7.3-6.4s3.2-6.2,7.3-6.2c4.1,0,7.1,2.4,7.1,6.4S79.9,65.4,75.8,65.4z M80,59.2
			c0-4.4-2.9-4.9-4.2-4.9c-2.3,0-4.2,1.7-4.2,4.9s1.8,4.9,4.2,4.9C77.1,64.1,80,63.5,80,59.2z"/>
		<path class="st0" d="M56.6,44.6c-0.4,0.7-1.2,0.9-2.7,0.9h-3.1v-8.2c0-1,0.2-1.1,1.5-1.1h0.9v-1.5h-7.4v1.5h0.6
			c1.1,0,1.7,0,1.7,1.1v7.3c0,1-0.5,1.1-1.6,1.1h-0.6V47h12.6v-4.9h-1.5C57.1,43,56.9,43.8,56.6,44.6z"/>
		<path class="st0" d="M40.5,45.5h-3.9v-4.2h0.9c1.5,0,1.7,0.2,1.8,2.3h1.3v-6.1h-1.4c-0.1,1.8-0.4,2.3-1.8,2.3h-0.9v-3.6H40
			c2.4,0,3.2,0.5,3.3,3.3h1.3v-4.8H26.4v1.5h0.9c0.7,0,1,0.1,1,0.5c0,0.3,0,0.7-0.1,1l-2.3,6.1h-0.1c-1.1-3.1-2.6-6.6-2.6-6.6
			C23,37,23,36.8,23,36.6c0-0.4,0.2-0.5,0.9-0.5h1v-1.5h-6.5v1.5h0.9c1,0,1.3,0.5,1.5,1.5l-2.4,6.1h-0.1C17,40.5,15.5,37,15.5,37
			s0-0.2,0-0.4c-0.1-0.4,0.2-0.5,1-0.5H17v-1.5h-6.1v1.5h0.2c0.9,0,1.8,0.7,2,1.6l3.6,9.2h2.2l2.7-6.7l2.8,6.7h2.2l3.4-9.3
			c0.5-1.1,0.7-1.5,1.8-1.5H32c1.1,0,1.7,0,1.7,1.1v7.3c0,1-0.6,1.1-1.7,1.1h-0.7V47h13.5v-4.9h-1.5C43.2,44.5,42.7,45.5,40.5,45.5z
			"/>
		<path class="st0" d="M70.2,42c0,0.9-0.1,1.8-0.5,2.6c-0.4,0.7-1.2,0.9-2.7,0.9h-2.9v-8.2c0-1,0.2-1.1,1.3-1.1h1v-1.5h-7.5v1.5h0.9
			c1,0,1.5,0,1.5,1.1v7.3c0,1-0.4,1.1-1.5,1.1h-0.2V47h12.1v-4.9L70.2,42z"/>
		<path class="st0" d="M84.2,43.4c0,2.8-2.2,3.8-5.4,3.8c-1.5,0-3-0.6-4.3-1.5L74,46.9h-1.3v-4.9h1.5c0.4,2.3,2,3.3,4.2,3.4
			c2,0.1,3.3-0.4,3.4-1.7c0.2-1.6-1.5-1.5-2.9-1.7l-2-0.4c-3.1-0.7-4.2-1.5-4.2-3.6s2-3.6,4.7-3.6c1.5-0.1,3,0.3,4.3,1.2l0.6-1h1.1
			V39H82c-0.2-2.3-2.7-3.1-4.7-3.1C75.8,36,75,36.8,75,37.7s0.9,1.1,2,1.3l2.6,0.4C82.2,39.9,84.2,40.5,84.2,43.4z"/>
	</g>
</g>
</svg>
