<?xml version="1.0" encoding="utf-8"?>
<!-- Generator: Adobe Illustrator 21.0.2, SVG Export Plug-In . SVG Version: 6.00 Build 0)  -->
<svg version="1.1" id="Layer_3" xmlns="http://www.w3.org/2000/svg" xmlns:xlink="http://www.w3.org/1999/xlink" x="0px" y="0px"
	 viewBox="0 0 95 100" style="enable-background:new 0 0 95 100;" xml:space="preserve">
<style type="text/css">
	.st0{fill:#717171;}
</style>
<title>Asset 1</title>
<g id="Layer_2">
	<g id="svg10602">
		<g id="layer1">
			<g id="g10522">
				<g id="g10524">
					<g id="g10530">
						<path id="path10532" class="st0" d="M40,52.1c0,0.4,0.4,0.7,0.8,0.8H46L44.8,51h-3v-7.2H40V52.1z"/>
					</g>
					<g id="g10534">
						<path id="path10536" class="st0" d="M20.9,48.5c0-4.3-3.5-7.9-7.9-7.9s-7.9,3.5-7.9,7.9s3.5,7.9,7.9,7.9c0.4,0,0.9,0,1.3-0.1
							l0,3.1h2.2v-3.8C19.2,54.2,20.9,51.5,20.9,48.5 M16.6,52.2v-2.5l-2.2,0.6v3.1c-2.7,0.7-5.5-0.9-6.2-3.6s0.9-5.5,3.6-6.2
							s5.5,0.9,6.2,3.6C18.4,49,17.9,50.9,16.6,52.2"/>
					</g>
					<g id="g10538">
						<path id="path10540" class="st0" d="M28.1,52.9H23c-0.4,0-0.7-0.4-0.8-0.8v-8.3H24V51h3.1v-7.2h1.8v8.3
							C28.9,52.5,28.5,52.8,28.1,52.9"/>
					</g>
					<g id="g10542">
						<path id="path10544" class="st0" d="M52.1,44.1c-2.3-1.3-5.3-0.6-6.6,1.7c-1.3,2.3-0.6,5.3,1.7,6.6c1.5,0.9,3.3,0.9,4.7,0.1
							l-0.9-1.6c-0.4,0.2-0.9,0.4-1.4,0.4c-1.7,0-3-1.4-3-3c0-1.7,1.4-3,3-3c0.5,0,1.1,0.1,1.6,0.4L52.1,44.1z"/>
					</g>
					<g id="g10546">
						<path id="path10548" class="st0" d="M56.2,43.5c-2.7,0-4.8,2.2-4.8,4.8c0,2.7,2.2,4.8,4.8,4.8c2.7,0,4.8-2.2,4.8-4.8
							C61.1,45.6,58.9,43.5,56.2,43.5 M56.2,51.3c-1.7,0-3-1.4-3-3c0-1.7,1.4-3,3-3c1.7,0,3,1.4,3,3C59.3,50,57.9,51.3,56.2,51.3
							C56.3,51.3,56.2,51.3,56.2,51.3"/>
					</g>
				</g>
			</g>
			<g id="g10550">
				<path id="path10552" class="st0" d="M35.3,43.8h-1.8l-4,9h1.9l0.9-2h4.1l0.1,0.2l0.8,1.8h1.9L35.3,43.8z M33,49.3l1.4-3.3
					l1.4,3.3H33z"/>
			</g>
			<g id="g10554">
				<g id="g10556">
					<g id="g10562">
						<path id="path10564" class="st0" d="M89.8,51.7l-3.3-7.5c-0.2-0.4-0.5-0.5-1-0.5s-0.8,0.2-1,0.5l-2.4,5.5l-2.4-5.5
							c-0.2-0.4-0.5-0.5-1-0.5c-0.5,0-0.8,0.2-1,0.5l-2.4,5.5l-2.4-5.5c-0.2-0.4-0.5-0.5-1-0.5c-0.5,0-0.8,0.2-1,0.5l-2.4,5.5
							l-2.4-5.5c-0.2-0.4-0.5-0.5-1-0.5s-0.8,0.2-1,0.5l-3.3,7.5c-0.5,1.2,1.2,1.8,1.7,0.8l2.6-6l2.6,6c0.3,0.6,1.4,0.6,1.7,0l2.6-6
							l2.6,6c0.1,0.3,0.4,0.4,0.7,0.5c0,0,0.1,0,0.1,0c0,0,0.1,0,0.1,0c0.3,0,0.6-0.2,0.7-0.5l2.6-6l2.6,6c0.3,0.6,1.3,0.6,1.7,0
							l2.6-6l2.6,6C88.6,53.5,90.2,52.9,89.8,51.7"/>
					</g>
				</g>
			</g>
		</g>
	</g>
</g>
</svg>
