<?xml version="1.0" encoding="utf-8"?>
<!-- Generator: Adobe Illustrator 21.0.2, SVG Export Plug-In . SVG Version: 6.00 Build 0)  -->
<svg version="1.1" id="Layer_1" xmlns="http://www.w3.org/2000/svg" xmlns:xlink="http://www.w3.org/1999/xlink" x="0px" y="0px"
	 viewBox="0 0 95 100" style="enable-background:new 0 0 95 100;" xml:space="preserve">
<style type="text/css">
	.st0{fill:#717171;}
</style>
<g id="Layer_2">
	<g>
		<path class="st0" d="M50.2,45.7c-0.3-0.5-0.9-0.6-1.3-0.6h-4.5L39.8,55h2.3l1.8-3.9h1.3c0,0,0.4,0,0.5,0.3
			c0.2,0.2,0.1,0.6-0.1,1.1c-0.6,1.2-1,2.5-1,2.5H47c0,0,0.1-0.5,0.3-1c0.2-0.4,0.7-1.8,0.7-1.8c0.5-1.1-0.1-1.6-0.5-1.8
			c0.9-0.1,1.5-0.5,1.9-1.3c0.3-0.6,0.8-1.6,0.8-1.6C50.6,46.6,50.4,46,50.2,45.7 M47.9,47.4l-0.4,0.9l-0.2,0.5
			c-0.2,0.4-0.5,0.6-0.9,0.6h-1.6l1.2-2.7h1.8c0,0,0.2,0,0.2,0.1C48,47,48,47.2,47.9,47.4"/>
		<g>
			<path class="st0" d="M25.4,45.7c-0.3-0.5-0.9-0.6-1.3-0.6h-4.5L14.9,55h2.3l1.8-3.9h1.3c0,0,0.4,0,0.5,0.3
				c0.2,0.2,0.1,0.6-0.1,1.1c-0.6,1.2-1,2.5-1,2.5h2.4c0,0,0.1-0.5,0.3-1c0.2-0.4,0.7-1.8,0.7-1.8c0.5-1.1-0.1-1.6-0.5-1.8
				c0.9-0.1,1.5-0.5,1.9-1.3c0.3-0.6,0.8-1.6,0.8-1.6C25.7,46.6,25.6,46,25.4,45.7 M23,47.4l-0.4,0.9l-0.2,0.5
				c-0.2,0.4-0.5,0.6-0.9,0.6h-1.6l1.3-2.7h1.7c0,0,0.2,0,0.2,0.1C23.1,47,23.1,47.2,23,47.4"/>
			<path class="st0" d="M30.9,53c0.5-1,1.1-2.3,1.8-3.8l0.8-1.7c0.8-1.7-0.1-2.5-1.3-2.5h-2.8c-1.2,0-2,0.6-2.6,1.7
				c-0.3,0.6-0.8,1.6-1.3,2.8L24.3,52c-1.2,2.5,0.6,2.9,1.5,2.9h1.8C29.4,55,30.3,54.5,30.9,53 M27.8,53.1h-1c-0.2,0-0.6,0-0.3-0.6
				c0.4-0.9,2.1-4.5,2.4-5.2c0.2-0.5,0.5-0.6,0.8-0.6H31c0.2,0,0.5,0.1,0.3,0.5l-2.4,5.1C28.5,53,28.3,53.1,27.8,53.1"/>
			<path class="st0" d="M40.4,45H38c-1.2,0-2.2,0.6-2.7,1.7c-0.4,0.9-2.5,5.3-2.5,5.3c-0.8,1.6-0.3,2.9,1.8,2.9h1.9
				c1.5,0,2.2-0.2,2.9-1.7l1.7-3.8h-3.5L36.8,51H38l-0.7,1.5C37.1,52.9,37,53,36.5,53h-1.2c-0.4,0-0.5-0.2-0.3-0.6
				c0.3-0.6,2.5-5.2,2.5-5.2c0.2-0.5,0.4-0.6,0.8-0.6h1.3c0.3,0,0.5,0.1,0.3,0.5c0,0.1-0.6,1.2-0.6,1.2h2.2l0.5-1.1
				C42.6,45.8,41.9,45.1,40.4,45"/>
		</g>
		<polygon class="st0" points="68.7,54.9 73.3,45.1 70.9,45.1 66.3,54.9 		"/>
		<polygon class="st0" points="79.3,45.1 73.8,53.8 76.6,45.1 74.1,45.1 71.8,54.9 75,54.9 81.8,45.1 		"/>
		<path class="st0" d="M60.7,51.5l-0.2-3.7c0-0.4,0.1-1,0.9-1H63l0.8-1.8H61c-2.2,0-2.9,1.3-2.8,2.9c0.1,1,0.2,4.1,0.2,4.1
			c0,0.8-0.3,1.1-1,1.1h-1.8l-0.8,1.8h2.9C59.7,54.9,60.9,53.7,60.7,51.5"/>
		<path class="st0" d="M66.2,51.5L66,47.9c0-0.4,0.1-1,0.9-1h1.6l0.8-1.8h-2.8c-1.8,0-2.9,1-2.8,2.9c0.1,1,0.2,4.1,0.2,4.1
			c0,0.8-0.3,1.1-1,1.1h-1.8L60.3,55h2.9C65.4,54.9,66.3,53.4,66.2,51.5"/>
		<path class="st0" d="M52.7,45.1L48.1,55H54l0.8-1.8h-3.5l1.2-2.6h3l0.8-1.7h-3l1-2h3.1l0.8-1.8L52.7,45.1z"/>
		<path class="st0" d="M82.6,45.1L78,54.9h5.8l0.8-1.8h-3.5l1.2-2.6h3l0.8-1.7h-3l1-2h3.1L88,45L82.6,45.1z"/>
		<path class="st0" d="M9.4,55H7l4.6-9.9H16c1,0,2,0.8,1.2,2.5c-0.4,1-0.8,1.8-1,2.2c-0.6,1.3-1.4,1.7-2.9,1.7c-1,0-2.3,0-2.3,0
			L9.4,55z M13.3,49.8c0.4,0,0.7-0.2,0.9-0.6c0-0.1,0.4-0.8,0.8-1.7c0.3-0.6,0.1-0.8-0.3-0.8h-1.5l-1.4,3.1H13.3z"/>
	</g>
</g>
</svg>
