<?xml version="1.0" encoding="utf-8"?>
<!-- Generator: Adobe Illustrator 21.0.2, SVG Export Plug-In . SVG Version: 6.00 Build 0)  -->
<svg version="1.1" id="Layer_4" xmlns="http://www.w3.org/2000/svg" xmlns:xlink="http://www.w3.org/1999/xlink" x="0px" y="0px"
	 viewBox="0 0 95 100" style="enable-background:new 0 0 95 100;" xml:space="preserve">
<style type="text/css">
	.st0{fill:#717171;}
</style>
<g transform="matrix(1.25 0 0 -1.25 -583.58 681.86)">
	<g transform="translate(.90041 .75034)">
		<path class="st0" d="M477.1,501.2v-0.4h0.8c0.3,0,0.4-0.3,0.4-1.8v-3.7c0-2.4,1.9-2.9,3.1-2.9c1.7,0,3.5,0.8,3.5,3.4v4.9
			c0,0.1,0.1,0.1,0.3,0.1h0.6v0.4h-2.5v-0.4h0.8c0.3,0,0.4,0,0.4-2v-3c0-2.7-1.9-3-2.8-3c-0.8,0-2.5,0.3-2.5,2.6v5.1
			c0,0.1,0.1,0.1,0.3,0.1h0.5v0.4L477.1,501.2L477.1,501.2z M493.4,500.6c-0.3,0-0.5-0.2-0.5-0.5c0-0.3,0.2-0.5,0.5-0.5
			c0.3,0,0.5,0.2,0.5,0.5C493.9,500.3,493.7,500.6,493.4,500.6z M515.2,500.5c-0.3,0-0.5-0.2-0.5-0.5c0-0.3,0.2-0.5,0.5-0.5
			c0.3,0,0.5,0.2,0.5,0.5C515.7,500.3,515.4,500.5,515.2,500.5z M518,499.7l-1.1-1.3c-0.1-0.1-0.1-0.1-0.1-0.2
			c0-0.1,0.1-0.1,0.3-0.1h0.3v-4.4c0-0.7,0.4-1.2,1.2-1.2c0.5,0,1.2,0.2,1.6,0.5l-0.1,0.3c-0.3-0.1-0.6-0.2-0.9-0.2
			c-0.9,0-0.9,0.6-0.9,1.2v3.8h1.3c0.1,0,0.2,0,0.2,0.3h-1.5v1.3L518,499.7L518,499.7z M515.6,498.6c-0.2,0-0.5-0.1-0.9-0.1
			c-0.3,0-0.8-0.1-0.9-0.1v-0.3h0.7c0.2,0,0.4,0,0.4-1.2v-3.7c0-0.1-0.1-0.1-0.3-0.1h-0.5v-0.3h2.6v0.3h-0.5c-0.5,0-0.6,0-0.6,2
			L515.6,498.6L515.6,498.6z M487.3,498.6c-0.2,0-0.5-0.1-0.9-0.1c-0.3,0-0.8-0.1-0.9-0.1v-0.3h0.7c0.2,0,0.4,0,0.4-1.2v-3.7
			c0-0.1-0.1-0.1-0.3-0.1h-0.5v-0.3h2.6v0.3h-0.5c-0.5,0-0.6,0-0.6,2v2.1c0.6,0.5,1.2,0.9,2,0.9c0.6,0,1.1-0.3,1.1-1.4v-3.5
			c0-0.1-0.1-0.1-0.3-0.1h-0.5v-0.3h2.6v0.3h-0.5c-0.5,0-0.6,0-0.6,2v1.9c0,0.8-0.3,1.7-1.6,1.7c-0.9,0-1.6-0.5-2.3-1.1L487.3,498.6
			L487.3,498.6z M493.9,498.6c-0.2,0-0.5-0.1-0.9-0.1c-0.3,0-0.8-0.1-0.9-0.1v-0.3h0.7c0.2,0,0.4,0,0.4-1.2v-3.7
			c0-0.1-0.1-0.1-0.3-0.1h-0.5v-0.3h2.6v0.3h-0.5c-0.5,0-0.6,0-0.6,2L493.9,498.6L493.9,498.6z M503.1,498.6c-1.7,0-2.5-1.7-2.5-3.2
			c0-1.5,0.8-2.9,2.5-2.9c1,0,1.8,0.4,2.5,1.1l-0.2,0.2c-0.5-0.5-1-0.7-1.7-0.7c-1.6,0-2.2,1.2-2.2,2.6c1.6,0.4,2.6,0.7,4,1.1
			C504.9,497.7,504.2,498.6,503.1,498.6L503.1,498.6z M507.4,498.6c-0.2,0-0.5-0.1-0.9-0.1c-0.3,0-0.8-0.1-0.9-0.1v-0.3h0.7
			c0.2,0,0.4,0,0.4-1.2v-3.7c0-0.1-0.1-0.1-0.3-0.1h-0.5v-0.3h2.6v0.3h-0.5c-0.5,0-0.6,0-0.6,2v2c0.6,0.6,0.9,0.8,1.4,0.8
			c0.7,0,0.6-0.4,0.8-0.4c0.1,0,0.1,0,0.3,0.9c-0.1,0.2-0.4,0.3-0.6,0.3c-0.4,0-0.8-0.2-1.8-1.2L507.4,498.6L507.4,498.6z
			 M511.9,498.6c-1.2,0-2.1-0.8-2.1-1.7c0-2.1,3.4-1.2,3.4-2.7c0-0.8-0.8-1.2-1.5-1.2c-0.7,0-1.6,0.4-1.7,0.9c0,0.1-0.1,0.2-0.2,0.2
			c-0.1,0-0.1,0-0.1-0.1c0-0.1,0.1-0.6,0.2-1.2c0.5-0.2,1-0.3,1.5-0.3c1.1,0,2.5,0.5,2.5,1.9c0,2.1-3.4,1.3-3.4,2.8
			c0,0.7,0.8,1,1.3,1c1.2,0,1.4-0.6,1.5-0.7c0-0.1,0.1-0.1,0.1-0.1c0.1,0,0.1,0,0.1,0.1c0,0.1,0,0.5-0.1,0.9
			C513,498.5,512.4,498.6,511.9,498.6L511.9,498.6z M494.6,498.4v-0.3h0.4c0.3,0,0.4-0.2,0.6-0.8c0.4-0.9,1.7-4.1,1.8-4.5
			c0.1-0.3,0.1-0.3,0.2-0.3c0.1,0,0.1,0.1,0.1,0.1c0.7,1.7,1.8,4.3,2.3,5.3c0.1,0.2,0.1,0.2,0.3,0.2h0.4v0.3h-2.3v-0.3h0.6
			c0.2,0,0.3,0,0.3-0.2c0-0.5-0.5-2-1.5-4.1c-1.2,2.9-1.7,4.1-1.7,4.3c0,0.1,0.1,0.1,0.2,0.1h0.7v0.3L494.6,498.4L494.6,498.4z
			 M519.6,498.4v-0.3h0.4c0.3,0,0.4-0.2,0.6-0.8l1.9-4.4c-1.3-2.8-2.1-2.9-2.5-3.1c-0.2-0.1-0.2-0.1-0.2-0.2c0-0.1,0.1-0.2,0.2-0.2
			c0.5,0,0.9,0.1,1.4,0.2c0.6,0.8,3.4,7.5,3.6,8.1c0.2,0.4,0.1,0.4,0.4,0.4h0.5v0.3h-2.2v-0.3h0.6c0.2,0,0.3,0,0.3-0.2
			c0-0.2-0.1-1.1-1.5-4.1c-0.5,1.2-1.8,4.1-1.8,4.3c0,0.1,0.1,0.1,0.2,0.1h0.7v0.3L519.6,498.4L519.6,498.4z M502.9,498.2
			c0.7,0,1.3-0.8,1.5-1.4l-3-0.8C501.3,497,501.9,498.2,502.9,498.2L502.9,498.2z M488,491.6c-1.5,0-3-1-3-2.3c0-3,4.4-1.9,4.4-4.5
			c0-1.2-1.1-1.7-2.3-1.7c-0.6,0-1.9,0.3-2.1,1c0,0.1,0,0.2-0.2,0.2c-0.1,0-0.1-0.1-0.1-0.1c0-0.1,0.1-0.5,0.2-1.2
			c0.6-0.2,1.4-0.4,2-0.4c1.6,0,3.2,0.9,3.2,2.6c0,3-4.4,2-4.4,4.4c0,0.7,0.6,1.6,1.9,1.6c0.4,0,1.5-0.1,1.6-0.7
			c0-0.1,0-0.2,0.1-0.2c0.1,0,0.1,0.1,0.1,0.2v0.9C489,491.5,488.5,491.6,488,491.6L488,491.6z M503.5,491.3v-0.4h0.8
			c0.3,0,0.4-0.3,0.4-1.8v-5.9c0-0.1-0.1-0.1-0.3-0.1h-0.6v-0.4h3.4c3.4,0,4.4,2.7,4.4,4.4c0,2.1-1.4,4.1-4.1,4.1L503.5,491.3
			L503.5,491.3z M506.1,490.9h1.3c0.7,0,3.5-0.6,3.5-4c0-3.4-2.4-3.6-3.6-3.6h-1.1c-0.5,0-0.5,0-0.5,1.9v5.6
			C505.6,490.9,505.8,490.9,506.1,490.9L506.1,490.9z M513.3,490.7c-0.3,0-0.5-0.2-0.5-0.5c0-0.3,0.2-0.5,0.5-0.5s0.5,0.2,0.5,0.5
			C513.8,490.4,513.6,490.7,513.3,490.7z M483.5,489.4c-0.8,0-1.2-0.7-1.3-1.7l-0.1-0.4h-0.5l0-0.2h0.5c-0.1-1.1-0.3-2.5-0.3-2.8
			c-0.1-1.1-0.3-1.9-0.9-1.9h-0.1c-0.1,0.1-0.2,0.2-0.4,0.2c-0.1,0-0.2-0.1-0.2-0.2c0-0.2,0.3-0.3,0.5-0.3c0.3,0,1.3,0.2,1.5,1.9
			c0,0.2,0.1,1,0.3,3h0.6l0,0.2h-0.6l0.1,0.6c0.1,1,0.4,1.4,0.8,1.4c0.1-0.1,0.2-0.2,0.4-0.2c0.1,0,0.2,0.1,0.2,0.2
			C484,489.3,483.7,489.4,483.5,489.4L483.5,489.4z M525.4,488.8c-0.2,0,0-0.3-0.9-0.3c-0.4,0-0.8,0.1-1.2,0.1
			c-0.2,0-0.5,0.1-0.7,0.1c-1.3,0-2.2-1-2.2-2.3c0-0.8,0.4-1.3,1-1.6c-0.3-0.3-0.8-0.9-0.8-1.3c0-0.5,0.4-0.7,0.8-0.8
			c-0.8-0.3-1.5-0.8-1.5-1.7c0-1.3,1.4-1.5,2.4-1.5c1.5,0,3.3,0.5,3.3,2c0,1.7-1.6,1.7-2.3,1.8c-1.7,0.1-2.1,0.2-2.1,0.6
			c0,0.2,0.3,0.7,0.5,0.8c0.2-0.1,0.5-0.1,0.7-0.1c1.2,0,2.2,0.9,2.2,2.1c0,0.5-0.1,1-0.5,1.4c0.2,0,0.6-0.1,0.7-0.1
			c0.4,0,0.4,0.1,0.5,0.5c0,0.1,0.1,0.2,0.1,0.3C525.5,488.8,525.5,488.8,525.4,488.8L525.4,488.8z M493.1,488.7
			c-1,0-2.6-0.7-2.6-1.8c0-0.1,0.1-0.3,0.3-0.3c0.4,0,0.6,0.6,0.6,1.2c0.3,0.3,0.9,0.4,1.3,0.4c1,0,1-0.7,1-1v-0.9
			c-1.9-0.8-3.3-1.4-3.3-2.6c0-0.7,0.4-1.2,1.2-1.2c0.8,0,1.7,0.7,2.2,1.3c0.1-0.7,0.8-1.3,1.2-1.3l0.4,0.6
			c-0.9,0.2-0.9,0.8-0.9,1.7v2.1C494.5,488,494.5,488.7,493.1,488.7L493.1,488.7z M497.1,488.7c-0.2,0-0.5-0.1-0.9-0.1
			c-0.3,0-0.8-0.1-0.9-0.1v-0.3h0.7c0.2,0,0.4,0,0.4-1.2v-3.7c0-0.1-0.1-0.1-0.3-0.1h-0.5v-0.3h2.6v0.3h-0.5c-0.5,0-0.6,0-0.6,2v2.1
			c0.6,0.5,1.2,0.9,2,0.9c0.6,0,1.1-0.3,1.1-1.4v-3.5c0-0.1-0.1-0.1-0.3-0.1h-0.5v-0.3h2.6v0.3h-0.5c-0.5,0-0.6,0-0.6,2v1.9
			c0,0.8-0.3,1.7-1.6,1.7c-0.9,0-1.6-0.5-2.3-1.1V488.7L497.1,488.7z M513.8,488.7c-0.2,0-0.5-0.1-0.9-0.1c-0.3,0-0.8-0.1-0.9-0.1
			v-0.3h0.7c0.2,0,0.4,0,0.4-1.2v-3.7c0-0.1-0.1-0.1-0.3-0.1h-0.5v-0.3h2.6v0.3h-0.5c-0.5,0-0.6,0-0.6,2V488.7L513.8,488.7z
			 M517.4,488.7c-1.7,0-2.5-1.7-2.5-3.2c0-1.5,0.8-2.9,2.5-2.9c1,0,1.8,0.4,2.5,1.1l-0.2,0.2c-0.5-0.5-1-0.7-1.7-0.7
			c-1.6,0-2.2,1.2-2.2,2.6c1.6,0.4,2.6,0.7,4,1.1C519.2,487.8,518.6,488.7,517.4,488.7L517.4,488.7z M528.2,488.7
			c-1.1,0-3-0.8-3-3.3c0-1.6,1-2.9,2.6-2.9c1.1,0,3,0.8,3,3.3C530.9,487.4,529.9,488.7,528.2,488.7L528.2,488.7z M517.2,488.4
			c0.7,0,1.3-0.8,1.5-1.4l-3-0.8C515.7,487.1,516.3,488.4,517.2,488.4z M522.4,488.4c1,0,1.5-1,1.5-1.9c0-0.8-0.4-1.6-1.3-1.6
			c-1,0-1.5,1-1.5,1.9C521.2,487.6,521.5,488.4,522.4,488.4L522.4,488.4z M528,488.3c1.5,0,2.1-1.4,2.1-2.7c0-1.2-0.3-2.6-1.8-2.6
			c-1.5,0-2.1,1.4-2.1,2.7C526.1,486.9,526.5,488.3,528,488.3L528,488.3z M480.5,487.4c-1,0-1.8-1-1.8-2.4c0-0.6,0.2-1.1,1-1.1
			c1,0,1.8,1,1.8,2.4C481.4,486.8,481.2,487.4,480.5,487.4L480.5,487.4z M480.3,487.1c0.6,0,0.7-0.6,0.7-1.1c0-0.7-0.3-2-1.2-2
			c-0.6,0-0.7,0.6-0.7,1.1C479.1,485.9,479.4,487.1,480.3,487.1L480.3,487.1z M493.7,486v-1.7c-0.4-0.6-1-1.1-1.7-1.1
			c-0.5,0-0.8,0.3-0.8,0.8C491.2,485.1,492.5,485.6,493.7,486z M522.2,482.6l1.1-0.1c1.2-0.1,1.7-0.6,1.7-1.3c0-0.9-1.1-1.4-2.4-1.4
			c-0.8,0-2.1,0.3-2.1,1.3C520.6,482,521.5,482.5,522.2,482.6L522.2,482.6z"/>
		<path class="st0" d="M525.4,530c-0.1,0-0.1-0.1-0.1-0.1v-0.1h0c-0.1,0-0.1,0-0.1-0.1s0-0.1,0.1-0.1h0v-0.4
			c-0.3-0.1-0.6-0.3-0.7-0.7h-0.2v0c0,0.1,0,0.1-0.1,0.1c-0.1,0-0.1-0.1-0.1-0.1v0H524c-0.1,0-0.1-0.1-0.1-0.1
			c0-0.1,0.1-0.1,0.1-0.1h0.1v0c0-0.1,0.1-0.1,0.1-0.1c0.1,0,0.1,0.1,0.1,0.1v0h0.2c0.1-0.4,0.3-0.6,0.7-0.7V526c-0.2,0-0.4,0-0.4,0
			c0,0-0.2,0-0.2-0.1c-0.1-0.1-0.1-0.1-0.1-0.2c0-0.1,0-0.1,0-0.2c0-0.1,0-0.1,0-0.2c0-0.1,0-0.2,0-0.2c0,0,0-0.1,0-0.1
			c-0.2,0-0.3-0.1-0.4-0.2c-0.1-0.1-0.2-0.1-0.3-0.2c-0.1-0.1-0.2-0.1-0.3-0.2c-0.1-0.1-0.2-0.2-0.2-0.2c-0.1-0.1-0.1-0.2-0.2-0.3
			c-0.1-0.1-0.2-0.1-0.2-0.2c-0.1-0.1-0.1-0.2-0.2-0.3c-0.1-0.1-0.1-0.2-0.2-0.3c-0.1-0.1-0.1-0.2-0.1-0.3c0-0.1-0.1-0.2-0.1-0.4
			c0-0.1-0.1-0.2-0.1-0.4c0-0.1,0-0.3-0.1-0.4c0-0.1,0-0.3,0-0.4v0c0,0,0,0-0.1,0c-0.1,0-0.1,0-0.3,0c-0.1,0-0.2,0-0.2,0
			s0-0.1,0-0.3c0-0.1,0-0.1,0-0.3c0-0.1,0-0.1,0-0.3c0-0.1,0-0.1,0-0.3c0-0.1,0-0.1,0-0.3s0-0.3,0-0.3s0,0-0.1,0c-0.1,0-0.4,0-0.5,0
			c-0.1,0-0.2,0-0.2,0c0,0,0-0.1,0.1-0.2c0-0.1,0-0.1,0.1-0.2c0-0.1,0-0.1,0.1-0.2c0-0.1,0-0.1,0.1-0.2l0,0c0,0,0,0,0-0.1
			c0-0.1,0-0.2,0-0.3c0-0.1,0-0.2,0-0.3c0-0.1,0-0.2,0-0.3c0-0.1,0-0.2,0-0.3c0-0.1,0-0.2,0-0.3c0-0.1,0-0.2,0-0.3
			c0-0.1,0-0.2,0-0.3c0-0.1,0-0.2,0-0.3c0-0.1,0-0.2,0-0.3c0-0.1,0-0.2,0-0.3c0-0.1,0-0.2,0-0.3c0-0.1,0-0.2,0-0.3
			c0-0.1,0-0.2,0-0.3c0-0.1,0-0.2,0-0.3c0-0.1,0-0.2,0-0.3c0-0.1,0-0.2,0-0.3c0-0.1,0-0.2,0-0.3c0-0.1,0-0.2,0-0.3
			c0-0.1,0-0.2,0-0.3c0-0.2,0-0.3,0-0.3s-0.1,0-0.2,0c-0.1,0-0.3,0-0.4,0c-0.1,0-0.2,0-0.2,0c0,0,0-0.1,0.1-0.2c0-0.1,0-0.1,0.1-0.2
			c0-0.1,0-0.1,0.1-0.2c0-0.1,0-0.1,0.1-0.2l0,0v-0.1c0-0.2,0-0.2,0-0.3c0-0.2,0-0.2,0-0.3c0-0.2,0-0.2,0-0.3c0-0.2,0-0.2,0-0.3
			c0-0.2,0-0.2,0-0.3c0-0.1,0-0.2,0-0.3c0,0,0,0,0,0c-0.1,0.1-0.1,0.1-0.2,0.2c-0.1,0.1-0.2,0.1-0.2,0.2c-0.1,0.1-0.1,0.1-0.2,0.2
			c-0.1,0.1-0.2,0.1-0.2,0.2c-0.1,0.1-0.2,0.1-0.2,0.2c-0.1,0.1-0.2,0.1-0.2,0.2c-0.1,0.1-0.2,0.1-0.3,0.2c-0.1,0.1-0.2,0.1-0.3,0.2
			c-0.1,0.1-0.2,0.1-0.3,0.2c0,0,0,0,0,0c0,0-0.1,0.1-0.1,0.1c-0.1,0.1-0.2,0.1-0.3,0.1c-0.1,0.1-0.2,0.1-0.3,0.2
			c-0.1,0-0.2,0.1-0.3,0.1c-0.1,0-0.2,0.1-0.3,0.1c-0.1,0-0.2,0.1-0.3,0.1c-0.1,0-0.2,0.1-0.3,0.1c-0.1,0-0.2,0.1-0.2,0.1
			c0,0.1,0,0.3,0,0.3c0,0.1,0,0.1,0,0.2c0,0.1-0.1,0-0.1,0.1c0,0-0.1,0.1-0.1,0.1c0,0,0,0,0,0c0,0,0,0.2-0.1,0.3
			c0,0.1-0.1,0.2-0.1,0.3c-0.1,0.1-0.1,0.2-0.2,0.2c0,0.1,0,0.1,0,0.2c0,0,0,0.2-0.1,0.4c0,0,0,0.1,0,0.1c0,0.1,0,0.3,0,0.4
			c0.1,0.1,0.1,0.2,0.1,0.4c0,0,0,0,0,0.1c0,0.1,0,0.1,0,0.3c0,0.1,0,0.2,0,0.3c0,0.1,0,0.2,0,0.3c0,0.1,0.1,0.1,0.1,0.2
			c0,0.1,0.1,0.2,0.1,0.3c0,0,0,0.1,0,0.1c0,0.1-0.1,0.2-0.1,0.2c-0.1,0.1-0.1,0.1-0.2,0.2c-0.1,0.1-0.1,0.2-0.2,0.2
			c0,0.1,0.1,0.3,0.1,0.4c0,0.1,0,0.1,0,0.2c0,0.1,0,0.2-0.1,0.3c0,0.1-0.1,0.1-0.1,0.2c-0.1,0-0.1,0.1-0.2,0.1
			c-0.2,0-0.3,0-0.4-0.1c-0.1-0.1-0.1-0.1-0.2-0.2c-0.1-0.1-0.1-0.2-0.1-0.3c0,0,0,0,0,0c0-0.1-0.1-0.2-0.1-0.2c0-0.1,0-0.2-0.1-0.3
			c0,0-0.1-0.1-0.2-0.2c0-0.1-0.1-0.1-0.1-0.2c0-0.1-0.1-0.1-0.1-0.2c0-0.1-0.2-0.3-0.2-0.4c0-0.1,0-0.2,0.1-0.3
			c0-0.1,0.1-0.2,0.2-0.2c0-0.1,0-0.1,0-0.3s0.1-0.1,0.1-0.2c0-0.1,0-0.1,0-0.3v-0.3c0-0.1,0,0,0-0.2c-0.1-0.1-0.2-0.1-0.2-0.2
			c-0.1-0.1-0.1-0.3-0.1-0.4c0-0.1,0-0.1,0-0.2c0,0-0.2,0-0.2-0.1c-0.1-0.1,0-0.1,0-0.3c0-0.1,0-0.1,0-0.3c-0.1,0-0.1,0-0.1,0
			c-0.1-0.1-0.2,0-0.2-0.1c0-0.1,0-0.2,0-0.3c0,0,0.1-0.1,0.1-0.3c0-0.1-0.1-0.1-0.2-0.1c-0.1,0-0.2-0.1-0.3-0.1
			c-0.1,0-0.2-0.1-0.3-0.1c-0.1,0-0.2-0.1-0.3-0.1c-0.1,0-0.2-0.1-0.3-0.1c-0.1,0-0.2-0.1-0.3-0.1c-0.1,0-0.2-0.1-0.3-0.1
			c-0.1,0-0.2-0.1-0.3-0.2c-0.1,0-0.2-0.1-0.3-0.1c-0.1-0.1-0.2-0.1-0.3-0.2c-0.1-0.1-0.2-0.1-0.3-0.2c-0.1-0.1-0.2-0.1-0.3-0.2
			c-0.1-0.1-0.2-0.1-0.2-0.2c-0.1-0.1-0.2-0.1-0.2-0.2c-0.1-0.1-0.2-0.1-0.2-0.2c-0.1-0.1-0.1-0.1-0.2-0.2c-0.1-0.1-0.2-0.1-0.2-0.2
			c-0.1-0.1-0.1-0.1-0.2-0.2c-0.1-0.1-0.1-0.1-0.2-0.2c-0.1-0.1-0.1-0.1-0.2-0.2c-0.1-0.1-0.1-0.1-0.2-0.2c-0.1-0.1-0.1-0.2-0.2-0.2
			c-0.1-0.1-0.1-0.1-0.2-0.2c-0.1-0.1-0.1-0.2-0.2-0.2c-0.1-0.1-0.1-0.2-0.2-0.3c-0.1-0.1-0.1-0.2-0.2-0.2c-0.1-0.1-0.1-0.2-0.2-0.3
			c-0.1-0.1-0.1-0.2-0.2-0.3c-0.1-0.1-0.1-0.2-0.2-0.3c0-0.1-0.1-0.2-0.2-0.3c-0.1,0-0.2,0-0.3,0c-0.1,0-0.2-0.1-0.2-0.1
			c-0.1-0.1-0.1-0.1-0.2-0.2c-0.1-0.1-0.1-0.3-0.1-0.4c0-0.1,0-0.1,0-0.2c0-0.1,0.1-0.1,0.1-0.2c0-0.1,0-0.1,0-0.2
			c-0.1,0-0.3,0-0.3-0.2c0-0.1,0-0.1,0-0.2c0-0.1,0-0.2,0.1-0.2c-0.1-0.1-0.1-0.1-0.2-0.2c0-0.1-0.1-0.2-0.1-0.3c0-0.1,0-1.5,0-1.6
			c0-0.1,0-0.2,0-0.3c0,0,0-0.1,0-0.1h1c0,0.1,0,0.2,0,0.3c0,0.1,0,0.2,0,0.3c0,0.1,0,1.5,0,1.5c0,0.1-0.2,0.4-0.2,0.4
			c0.1,0.1,0.2-0.2,0.4-0.1c0.1,0-0.1,0.2-0.1,0.3c0,0.1,0.2,0.1,0.3,0.1c0.1-0.2,0-0.2,0-0.3c0-0.1,0.1,0,0.2-0.1
			c0.1-0.1,0.1-0.1,0.1-0.2c0-0.1,0-0.2,0-0.3c0-0.1,0-0.2,0-0.3c0-0.1,0-0.2,0-0.3c0-0.1,0-0.2,0-0.3c0-0.1,0-0.2,0-0.3
			c0,0,0-0.1,0-0.1c0,0,0,0,0,0c0,0,0-0.3-0.1-0.5h1.1c0,0,0,0,0,0c0,0.1,0,0.2,0,0.3c0,0.1,0,0.2,0,0.3c0,0.1,0,0.2,0,0.3
			c0,0.1,0,0.2,0,0.3c0,0.1,0,0.2,0,0.3c0,0.1,0,0.2,0.1,0.3c0,0.1,0,0.2,0.1,0.3c0,0.1,0,0.2,0.1,0.3c0,0.1,0,0.2,0,0.3
			c0,0.1,0,0.2,0.1,0.3c0,0.1,0.1,0.2,0.1,0.3c0,0.1,0,0.2,0.1,0.3c0,0.1,0.1,0.2,0.1,0.3c0,0.1,0.1,0.2,0.1,0.3
			c0,0.1,0.1,0.2,0.1,0.3c0,0.1,0.1,0.2,0.1,0.3c0,0.1,0.1,0.2,0.1,0.3c0,0.1,0.1,0.2,0.1,0.3c0,0.1,0.1,0.2,0.2,0.3
			c0,0.1,0.1,0.2,0.1,0.3c0,0.1,0.1,0.2,0.2,0.3c0,0.1,0.1,0.2,0.1,0.3c0.1,0.1,0.1,0.2,0.2,0.2c0.1,0.1,0.1,0.2,0.2,0.2
			c0.1,0.1,0.1,0.2,0.2,0.2c0.1,0.1,0.1,0.2,0.2,0.2c0.1,0.1,0.2,0.1,0.2,0.2c0.1,0.1,0.1,0.2,0.2,0.2c0.1,0.1,0.2,0.1,0.2,0.2
			c0.1,0.1,0.2,0.1,0.2,0.2c0.1,0.1,0.2,0.1,0.2,0.2c0.1,0.1,0.2,0.1,0.2,0.2c0.1,0.1,0.2,0.1,0.2,0.2c0.1,0.1,0.2,0.1,0.3,0.2
			c0.1,0.1,0.2,0.1,0.3,0.2c0,0,0,0,0,0c0,0,0.1,0.1,0.3,0.1c0.1,0,0.2,0,0.3,0.1c0.1,0,0.2,0.1,0.3,0.1c0.1,0,0.2,0,0.3,0
			c0.1,0,0.2,0,0.3,0c0.1-0.1,0-0.1,0-0.3c0-0.2,0-0.2,0-0.3s0-0.2,0-0.3c0-0.2,0-0.2,0-0.3c0-0.2,0-0.2,0-0.3c0-0.2,0-0.2,0-0.3
			c0-0.2,0-0.2,0-0.3c0-0.2,0-0.2,0-0.3s0-0.2,0-0.3c0-0.2,0-0.2,0-0.3c0-0.2,0-0.2,0-0.3c0-0.2,0-0.2,0-0.3c0-0.2,0-0.2,0-0.3
			s0-0.2,0-0.3c0-0.2,0-0.2,0-0.3c0-0.2,0-0.2,0-0.3c0-0.2,0-0.2,0-0.3c0-0.2,0-0.2,0-0.3c0-0.2,0-0.2,0-0.3c0-0.2,0-0.2,0-0.3
			c0-0.2,0-0.2,0-0.3c0-0.2,0-0.2,0-0.3c0-0.2,0-0.2,0-0.3c0-0.2,0-0.2,0-0.3s0-0.2,0-0.3s0-0.2,0-0.3c0-0.2,0-0.2,0-0.3
			c0-0.2,0-0.1,0-0.3c0-0.1,0-0.2,0-0.3c0-0.1,0-0.2,0-0.3c0-0.1,0-0.2,0-0.3v0h0.5v0c0,0.2,0,0.2,0,0.3s0,0.2,0,0.3s0,0.2,0,0.3
			c0,0.2,0,0.2,0,0.3c0,0.2,0,0.2,0,0.3c0,0.2,0,0.2,0,0.3c0,0.2,0,0.2,0,0.3c0,0.2,0,0.1,0,0.3c0,0.1,0,0.2,0,0.3
			c0,0.1,0,0.2,0,0.3c0,0.1,0,0.2,0,0.3c0,0.1,0,0.2,0,0.3c0,0.1,0,0.2,0,0.3c0,0.1,0,0.2,0,0.3c0,0.1,0,0.2,0,0.3
			c0,0.1,0,0.2,0,0.3c0,0.1,0,0.2,0,0.3c0,0.1,0,0.2,0,0.3c0,0.1,0,0.2,0,0.3c0,0.1,0,0.2,0,0.3c0,0.1,0,0.2,0,0.3
			c0,0.1,0,0.2,0,0.3c0,0.1,0,0.2,0,0.3c0,0.1,0,0.2,0,0.3c0,0.1,0,0.2,0,0.3c0,0.1,0,0.2,0,0.3c0,0.1,0,0.2,0,0.3
			c0,0.1,0,0.2,0,0.3c0,0.1,0,0.2,0,0.3c0,0.1,0,0.2,0,0.3c0,0.2,0,0.3,0.1,0.3c0.1,0.1,0.2,0,0.4,0c0.1,0,0.1-0.1,0.3-0.1
			c0.1,0,0.2-0.1,0.3-0.2c0.1,0,0.2-0.1,0.3-0.2c0.1-0.1,0.2-0.1,0.3-0.2c0.1-0.1,0.2-0.1,0.3-0.2c0.1-0.1,0.2-0.1,0.2-0.2
			c0.1-0.1,0.2-0.1,0.3-0.2c0.1-0.1,0.2-0.1,0.2-0.2c0.1-0.1,0.2-0.1,0.2-0.2c0.1-0.1,0.2-0.1,0.2-0.2c0.1-0.1,0.2-0.1,0.2-0.2
			c0.1-0.1,0.2-0.1,0.2-0.2c0.1-0.1,0.1-0.2,0.2-0.2c0.1-0.1,0.1-0.2,0.2-0.2c0,0,0.1-0.1,0.1-0.1c0,0,0,0,0,0
			c0.1-0.1,0.2-0.2,0.2-0.3c0.1-0.1,0.1-0.2,0.1-0.3c0.1-0.1,0.1-0.2,0.2-0.3c0.1-0.1,0.1-0.2,0.2-0.3s0.1-0.2,0.2-0.3
			c0.1-0.1,0.1-0.2,0.2-0.4c0.1-0.1,0.1-0.3,0.2-0.4c0.1-0.1,0.1-0.3,0.2-0.4c0.1-0.2,0.1-0.3,0.2-0.4c0.1-0.2,0.1-0.3,0.1-0.5
			c0-0.2,0.1-0.3,0.2-0.5c0,0,0,0,0,0c0-0.1,0-0.1,0-0.3c0-0.1,0-0.1,0-0.3c0,0,0-0.1,0-0.1c-0.1,0-0.2,0-0.2,0c-0.1,0-0.2,0-0.2,0
			c0,0,0-0.1,0.1-0.2c0-0.1,0-0.1,0.1-0.2s0-0.1,0.1-0.2c0-0.1,0.1-0.2,0.3-0.4c0-0.1,0-0.2,0-0.2l0-0.4l0-0.3c0,0,0-0.3,0-0.4
			c0-0.1,0-0.3,0-0.4c0-0.1,0.1-0.3,0.1-0.3s0.7,0,0.7,0c0,0,0.3-0.1,0.3,0.1c0,0.1,0,0.1,0,0.3s0,0,0,0.1s0,0,0,0.2v0.4
			c0,0.1,0,0.5,0,0.6c0,0.2,0.1,1.2,0,1.2c0,0,0,0.1,0,0.2c0,0.1,0,0.1,0,0.3c0,0.1,0,0.1,0,0.3c0,0.1,0,0.1,0,0.3
			c0,0.1,0,0.1,0,0.3c0,0.1,0,0.1,0,0.3c0,0.1,0,0.2,0,0.2c0,0,0.1,0,0.3,0c0.1,0,0.1,0,0.3,0c0.1,0,0.1,0,0.3,0c0.1,0,0.1,0,0.3,0
			c0.1,0,0.2,0,0.3,0c0.1,0,0.2,0,0.3,0c0.1,0,0.2,0,0.3,0h0.3c0,0,0.1,0.2,0,0.3c0,0.1-0.2,0.1-0.3,0.1c-0.1,0-0.1,0-0.3,0
			c-0.1,0-0.2,0-0.3,0c-0.1,0-0.2,0-0.3,0c-0.1,0-0.2,0-0.3,0c-0.1,0-0.2,0-0.3,0c-0.1,0-0.2,0-0.3,0c-0.2,0-0.2,0-0.3,0.1
			c-0.1,0.1,0,0.1,0,0.2s0,0.1,0,0.3c0,0.1,0,0.1,0,0.3c0,0.1,0,0.2,0,0.3c0,0.1,0,0.1,0,0.3c0,0.1,0,0.1,0,0.3c0,0.2,0,0.1,0,0.3
			c0,0.1,0,0.2,0,0.3c0,0.1,0,0.2,0,0.3v0.3c0,0.1,0,0.2,0,0.3c0,0.1,0,0.2,0,0.3c0,0.1,0,0.2,0,0.3c0,0.1,0,0.2,0,0.3
			c0,0.1,0,0.2,0,0.3c0,0.1,0,0.2,0,0.3c0,0.1,0,0.2,0,0.3c0,0.1,0,0.2,0,0.3c0,0.2-0.1,0.2,0,0.3c0.1,0.1,0.1,0,0.3,0s0.1,0,0.3,0
			s0.1,0,0.3,0s0.1,0,0.3,0c0.1,0,0.1,0,0.3,0c0.1,0,0.1,0,0.3,0c0.1,0,0.1,0,0.3,0c0.1,0,0.1,0,0.3,0c0.1,0,0.1,0,0.3,0
			c0.1,0,0.1,0,0.3,0c0.1,0,0.1,0,0.3,0c0.1,0,0.1,0,0.3,0c0.1,0,0.1,0,0.3,0c0.1,0,0.1,0,0.3,0c0.1,0,0.2,0,0.3,0
			c0.1,0,0.2,0,0.3,0c0.1,0,0.2,0,0.3,0h0.3c0.1,0,0.2,0,0.3,0c0.1,0,0.2,0,0.3,0h0.3c0.1,0,0.2,0,0.3,0c0.1,0,0.2,0,0.3,0
			c0.1,0,0.2,0,0.3,0c0.1,0,0.2,0,0.3,0c0.1,0,0.2,0,0.3,0c0.2,0,0.2,0,0.2,0c0-0.1,0-0.1,0-0.3c0-0.1,0-0.1,0-0.3
			c0-0.1,0-0.1,0-0.3c0-0.1,0-0.1,0-0.3s0-0.1,0-0.3c0-0.1,0-0.1,0-0.3c0-0.1,0-0.1,0-0.3c0-0.1,0-0.2,0-0.3c0-0.1,0-0.2,0-0.3
			c0-0.1,0-0.2,0-0.3c0-0.1,0-0.2,0-0.3c0-0.1,0-0.2,0-0.3c0-0.1,0-0.2,0-0.3c0-0.1,0-0.2,0-0.3c0-0.1,0-0.2,0-0.3
			c0-0.1,0-0.2,0-0.3c0-0.1,0-0.2,0-0.3c0-0.1,0-0.2,0-0.3c0-0.2,0-0.3,0-0.3s-0.1,0-0.2,0c-0.1,0-0.1,0-0.3,0s-0.1,0-0.3,0
			c-0.1,0-0.1,0-0.3,0c-0.1,0-0.1,0-0.3,0s-0.1,0-0.3,0s-0.3,0-0.3,0s-0.1-0.3,0-0.4c0.1,0,0.1,0,0.3,0c0.1,0,0.1,0,0.3,0
			s0.1,0,0.3,0s0.1,0,0.3,0c0.1,0,0.1,0,0.3,0s0.1,0,0.3,0s0.2,0,0.2,0c0,0,0-0.1,0-0.3c0-0.1,0-0.1,0-0.3v-0.3c0-0.1,0-0.1,0-0.3
			c0-0.1,0-0.1,0-0.3c0-0.1,0-0.1,0-0.3s0-0.3,0-0.3l0-0.3c0,0,0-0.7,0.1-0.8c0-0.1,0-1.1,0-1.3c0-0.2,0-0.9,0-1.1
			c0-0.2,0-2.3,0-2.5c0-0.2,0-3.1,0-3.3c0-0.2,0-1.9,0-1.9s0.3,0,0.4,0c0.1,0,0.2-0.1,0.2,0c0,0,0,1.7,0,1.9c0,0.2,0,3.1,0,3.3
			c0,0.2,0,2.3,0,2.5c0,0.2,0,0.9,0,1.1c0,0.2,0,1.1,0,1.3c0,0,0,0.2,0,0.4c0,0,0,0,0,0.1c0.1,0.1,0,0.1,0.1,0.3
			c0.1,0.1,0.1,0.1,0.1,0.2c0.1,0.1,0.1,0.2,0.1,0.3c0,0-0.1,0.1-0.3,0c-0.1,0-0.2,0-0.2,0l0,0.1c0,0.2,0,0.2,0,0.3s0,0.2,0,0.3
			c0,0.2,0,0.2,0,0.3c0,0.2,0,0.2,0,0.3c0,0.2,0,0.2,0,0.3s0,0.2,0,0.3c0,0.2,0,0.2,0,0.3c0,0.2,0,0.2,0,0.3c0,0.2,0,0.2,0,0.3
			c0,0.2,0,0.2,0,0.3c0,0.2,0,0.2,0,0.3c0,0.2,0,0.2,0,0.3s0,0.2,0,0.3s0,0.2,0,0.3s0,0.2,0,0.3c0,0.2,0,0.2,0,0.3v0.3
			c0,0.2,0,0.2,0,0.3s0,0.2,0,0.3c0,0.2,0,0.2,0,0.3c0,0.2,0,0.2,0,0.3c0,0.2,0,0.2,0,0.3c0,0.2,0,0.2,0,0.3c0,0.2,0,0.2,0,0.3
			c0,0.1,0,0.1,0,0.2c0,0,0,0,0,0.1c0,0.1,0,0.1,0.1,0.2c0,0.1,0,0.1,0.1,0.2c0,0.1,0.1,0.2,0.1,0.2c0,0-0.1,0.1-0.2,0
			c-0.1,0-0.2,0-0.2,0v0c-0.1,0-0.1,0-0.2,0c-0.1,0.1-0.1,0.1-0.1,0.3c0,0.1,0,0.1,0,0.3c0,0.1,0,0.1,0,0.3c0,0.1,0,0.2,0,0.3
			c0,0.1,0,0.2,0,0.3c0,0.1,0,0.2,0,0.3c0,0.1,0,0.2,0,0.3c0,0.1,0,0.2,0,0.3c0,0.1,0,0.2,0,0.3c0,0.1,0,0.2,0,0.3
			c0,0.1,0,0.2,0,0.3c0,0.1,0,0.2,0,0.3c0,0.1,0,0.2,0,0.3s0,0.2,0,0.3c0,0.1,0,0.2,0,0.3c0,0.1,0,0.2,0,0.3c0,0.1,0,0.2,0,0.3
			c0,0.1,0,0.2,0,0.3c0,0.1,0,0.2,0,0.3c0,0.1,0,0.2,0,0.3c0,0.1,0,0.1,0,0.2c0,0,0,0,0,0.1c0,0.1,0,0.1,0.1,0.2
			c0,0.1,0,0.1,0.1,0.2c0,0.1,0.1,0.2,0.1,0.2c0,0-0.1,0.1-0.2,0c-0.1,0-0.1,0-0.1,0c-0.1,0-0.1,0-0.2,0c-0.1,0-0.1,0-0.2,0
			c0,0,0,0.1,0,0.3c0,0.1,0,0.2,0,0.3c0,0.1,0,0.2,0,0.3c0,0.1,0,0.2,0,0.3c0,0.1,0,0.2,0,0.3c0,0.2,0,0.3,0,0.3s0,0,0,0l0,0
			c0,0-0.1,0-0.3,0c-0.1,0-0.3,0-0.3,0v0c0,0.1,0,0.2,0,0.3c0,0.1,0,0.3-0.1,0.4c0,0.1-0.1,0.3-0.1,0.4c0,0.1-0.1,0.2-0.1,0.4
			c0,0.1-0.1,0.2-0.1,0.3c-0.1,0.1-0.1,0.2-0.2,0.3c-0.1,0.1-0.1,0.2-0.2,0.3c-0.1,0.1-0.1,0.2-0.2,0.3c-0.1,0.1-0.1,0.1-0.2,0.2
			c-0.1,0.1-0.2,0.2-0.3,0.3c-0.1,0.1-0.2,0.2-0.2,0.2c-0.1,0.1-0.2,0.1-0.3,0.2c-0.1,0.1-0.2,0.1-0.3,0.1c-0.1,0.1-0.3,0.1-0.5,0.1
			c0,0,0,0,0,0.1c0,0.1,0,0.1,0,0.2c0,0.1,0,0.1,0,0.2c0,0.1,0,0.1,0,0.2c0,0.1,0,0.1,0,0.2c0,0.1-0.2,0-0.2,0.1c-0.1,0-0.2,0-0.3,0
			v1.5c0,0-0.1,0-0.1,0l0,0.3c0,0,0.1,0,0.1,0v0.4h0.4c0,0,0,0.1,0,0.1c0,0.1,0,0.1,0,0.1h-0.4v0.4c0,0-0.1,0-0.1,0l0,0.3
			c0,0,0.1,0,0.1,0v0.4h0c0.1,0,0.1,0.1,0.1,0.1c0,0.1-0.1,0.1-0.1,0.1h0v0.1C525.5,530,525.4,530,525.4,530L525.4,530z
			 M525.5,529.1v-0.3c0.2-0.1,0.3-0.2,0.4-0.4h0.3C526.1,528.8,525.8,529.1,525.5,529.1L525.5,529.1z M526.2,528.4c0,0,0-0.1,0-0.1
			c0,0,0-0.1,0-0.1h0.2v0.3C526.4,528.4,526.2,528.4,526.2,528.4z M526.4,528.4h0.2v0c0,0.1-0.1,0.1-0.1,0.1
			C526.5,528.6,526.4,528.5,526.4,528.4L526.4,528.4z M526.6,528.4v-0.3h0.1c0.1,0,0.1,0.1,0.1,0.1c0,0.1-0.1,0.1-0.1,0.1
			C526.7,528.4,526.6,528.4,526.6,528.4z M526.6,528.2h-0.2v0c0-0.1,0-0.1,0.1-0.1C526.6,528,526.6,528.1,526.6,528.2
			C526.6,528.1,526.6,528.2,526.6,528.2z M526.2,528.2h-0.3c0-0.2-0.2-0.3-0.4-0.4v-0.3C525.8,527.5,526.1,527.8,526.2,528.2
			L526.2,528.2z M525.2,528.8v-0.4h-0.4C524.9,528.6,525,528.8,525.2,528.8L525.2,528.8z M524.8,528.2h0.4v-0.4
			C525,527.8,524.9,528,524.8,528.2L524.8,528.2z M525.2,525.6c0.1,0,0.1,0,0.3,0c0.1,0,0.2,0.1,0.2,0c0.1-0.1,0-0.1,0-0.3
			c0-0.1,0-0.1,0-0.3c0-0.1,0-0.1,0-0.2l-0.5,0c0,0.1,0,0.1,0,0.2c0,0.1,0,0.1,0,0.3c0,0.1-0.1,0.1-0.2,0.2c0,0,0,0,0,0
			C525.1,525.6,525.1,525.6,525.2,525.6L525.2,525.6z M525.4,524.6c0.1,0,0.2,0,0.3,0c0.1,0,0.2,0,0.3,0c0.1,0,0.2-0.1,0.3-0.1
			c0.1,0,0.2-0.1,0.3-0.1c0.1-0.1,0.2-0.1,0.3-0.2c0.1-0.1,0.2-0.1,0.3-0.2c0.1-0.1,0.1-0.2,0.2-0.3c0.1-0.1,0.1-0.2,0.2-0.3
			c0.1-0.1,0.1-0.2,0.2-0.3c0.1-0.1,0.1-0.2,0.2-0.3c0-0.1,0.1-0.2,0.2-0.4c0-0.1,0.1-0.3,0.1-0.4c0-0.1,0.1-0.3,0.1-0.4
			c0-0.1,0-0.3,0-0.4c0,0,0,0-0.1,0l-0.1,0c0,0-0.1,0-0.1,0c-0.2,0-0.2,0-0.3,0s-0.2,0-0.3,0c-0.2,0-0.2,0-0.3,0c-0.2,0-0.2,0-0.3,0
			c-0.2,0-0.1,0-0.3,0c-0.1,0-0.2,0-0.3,0c-0.1,0-0.2,0-0.3,0c-0.1,0-0.2,0-0.3,0c-0.1,0-0.2,0-0.3,0c-0.1,0-0.2,0-0.3,0h-0.3
			c-0.1,0-0.2,0-0.3,0c-0.1,0-0.1,0-0.2,0c0,0-0.1,0.1-0.1,0.1c0,0.1,0,0.2,0,0.3c0,0.1,0,0.2,0,0.4c0,0.1,0,0.3,0,0.4
			c0,0.1,0,0.3,0.1,0.4c0,0.1,0.1,0.3,0.2,0.6c0.1,0.1,0.2,0.3,0.3,0.4c0,0,0.2,0.2,0.3,0.3c0.1,0.1,0.2,0.1,0.3,0.1l0-0.1
			c0-0.1,0-0.1,0-0.2c0-0.1,0-0.1,0-0.2s0-0.1,0-0.2c0-0.1,0-0.1,0-0.2c0-0.1,0-0.1,0-0.2s0-0.1,0-0.2c0-0.1,0-0.1,0-0.2
			s0-0.1,0-0.2s0-0.1,0-0.2c0-0.1,0-0.1,0-0.2c0-0.1,0-0.4,0-0.5c0,0,0.3,0,0.3,0c0,0,0,0.4,0,0.5c0,0.1,0,0.1,0,0.2
			c0,0.1,0,0.1,0,0.2c0,0.1,0,0.1,0,0.2c0,0.1,0,0.1,0,0.2v0.2c0,0.1,0,0.1,0,0.2c0,0.1,0,0.2,0,0.2c0,0.1,0,0.2,0,0.2
			c0,0.1,0,0.2,0,0.2c0,0.1,0,0.3,0,0.4c0,0.1-0.2,0.1-0.3,0.1c-0.1,0-0.2,0-0.3,0c-0.2,0-0.3,0-0.3-0.1c-0.1,0-0.2-0.1-0.3-0.1
			c-0.1,0-0.2-0.1-0.5-0.4c0,0-0.1,0-0.1-0.1c-0.1-0.1-0.2-0.2-0.2-0.3c-0.1-0.1-0.2-0.2-0.2-0.3c-0.1-0.1-0.1-0.2-0.2-0.4
			c-0.1-0.1-0.1-0.2-0.2-0.4c0-0.1-0.1-0.3-0.1-0.4c0-0.1-0.1-0.3-0.1-0.4c0-0.1,0-0.2,0-0.3c0,0,0,0,0,0c-0.1-0.1-0.2-0.1-0.3,0
			c0,0.1,0,0.3,0,0.4c0,0.1,0,0.3,0.1,0.4c0,0.1,0.1,0.3,0.1,0.4c0,0.1,0.1,0.3,0.1,0.4c0.1,0.1,0.1,0.2,0.2,0.4
			c0.1,0.1,0.1,0.2,0.2,0.3c0.1,0.1,0.1,0.2,0.2,0.3c0.1,0.1,0.2,0.2,0.2,0.3c0.1,0.1,0.2,0.1,0.3,0.2c0.1,0.1,0.2,0.1,0.3,0.2
			c0.1,0.1,0.2,0.1,0.3,0.1c0.1,0,0.2,0.1,0.3,0.1c0.1,0,0.2,0.1,0.3,0.1C525.2,524.6,525.3,524.6,525.4,524.6L525.4,524.6z
			 M526,524.1C526,524.1,526,524.1,526,524.1c0-0.1,0.1-0.2,0.2-0.3c0.1-0.1,0.4-0.4,0.9-1.2c0.2-0.4,0.4-1.4,0.5-1.4
			c0.1,0,0.4,0,0.3,0c0,0.1-0.5,1.4-0.8,1.9C526.7,523.7,526.2,524.2,526,524.1L526,524.1z M523.8,520.5c0.1,0,0.1,0,0.3,0
			s0.1,0,0.3,0s0.1,0,0.3,0s0.1,0,0.3,0s0.1,0,0.3,0c0.1,0,0.2,0,0.3,0c0.1,0,0.2,0,0.3,0c0.1,0,0.2,0,0.3,0c0.1,0,0.2,0,0.3,0
			c0.1,0,0.2,0,0.3,0c0.1,0,0.2,0,0.3,0c0.1,0,0.2,0,0.3,0c0.1,0,0.2,0,0.3,0c0.1,0,0.2,0,0.3,0c0.1,0,0.2,0,0.3,0
			c0.1,0,0.2,0,0.3,0c0.2,0,0.3,0,0.3,0c0-0.2,0-0.1,0-0.3c0-0.2,0-0.2,0-0.3c0-0.2,0-0.2,0-0.3s0-0.2,0-0.3c0-0.1-0.2-0.1-0.3-0.1
			c-0.2,0-0.2,0-0.3,0c-0.2,0-0.2,0-0.3,0c-0.2,0-0.2,0-0.3,0s-0.2,0-0.3,0c-0.2,0-0.2,0-0.3,0c-0.2,0-0.2,0-0.3,0
			c-0.2,0-0.2,0-0.3,0c-0.2,0-0.2,0-0.3,0c-0.2,0-0.2,0-0.3,0c-0.2,0-0.2,0-0.3,0c-0.2,0-0.2,0-0.3,0c-0.2,0-0.2,0-0.3,0
			s-0.2,0-0.3,0c-0.1,0-0.1,0-0.3,0c-0.1,0-0.1,0.1-0.1,0.3c0,0.2,0,0.2,0,0.3c0,0,0.1,0,0.3,0c0.1,0,0.1,0,0.3,0c0.1,0,0.1,0,0.3,0
			c0.1,0,0.2,0,0.3,0c0.1,0,0.2,0,0.3,0c0.1,0,0.2,0,0.3,0c0.1,0,0.2,0,0.3,0c0.1,0,0.2,0,0.3,0c0.1,0,0.2,0,0.3,0
			c0.1,0,0.2,0,0.3,0c0.2,0,0.3,0,0.3,0c0.1,0.1,0.1,0.3,0,0.4c0,0-0.1,0-0.3,0h-0.3c-0.1,0-0.1,0-0.3,0s-0.1,0-0.3,0
			c-0.1,0-0.1,0-0.3,0c-0.1,0-0.1,0-0.3,0c-0.1,0-0.1,0-0.3,0c-0.1,0-0.1,0-0.3,0c-0.1,0-0.1,0-0.3,0s-0.1,0-0.3,0s-0.1,0-0.3,0
			c-0.2,0-0.2,0-0.3,0c-0.2,0-0.2,0-0.3,0c-0.2,0-0.2,0-0.3,0c-0.2,0-0.2,0-0.3,0c-0.2,0-0.3,0-0.3,0s-0.2,0.3,0,0.3
			c0.1,0,0.1,0,0.3,0c0.1,0,0.1,0,0.3,0c0.1,0,0.1,0,0.3,0S523.6,520.5,523.8,520.5L523.8,520.5z M522.4,518.7c0,0,0.1,0,0.1,0h0.3
			c0.1,0,0.1,0,0.3,0c0.1,0,0.1,0,0.3,0c0.1,0,0.1,0,0.3,0c0.2,0,0.1,0,0.3,0c0.1,0,0.1,0,0.3,0c0.1,0,0.1,0,0.3,0
			c0.1,0,0.1,0,0.3,0c0.1,0,0.1,0,0.3,0c0.1,0,0.1,0,0.3,0c0.2,0,0.1,0,0.3,0c0.1,0,0.1,0,0.3,0c0.1,0,0.1,0,0.3,0
			c0.1,0,0.1,0,0.3,0c0.1,0,0.1,0,0.3,0c0.1,0,0.1,0,0.3,0c0.1,0,0.1,0,0.3,0c0.2,0,0.2,0,0.3,0c0.2,0,0.2,0,0.3,0s0.1,0,0.3,0
			c0.1,0,0.1,0,0.3,0c0.2,0,0.2,0,0.3,0c0.2,0,0.2-0.1,0.2-0.1c0-0.1,0-0.1,0-0.3c0-0.2,0-0.1,0-0.3c0-0.1,0-0.1,0-0.3
			c0-0.1,0-0.1,0-0.3c0-0.1,0-0.1,0-0.3c0-0.2,0-0.2,0-0.3c0-0.2,0-0.1,0-0.3s0-0.1,0-0.3c0-0.2,0-0.2,0-0.3c0-0.2,0-0.1,0-0.3
			c0-0.1,0-0.1,0-0.3c0-0.1,0-0.1,0-0.3v-0.3c0-0.2,0-0.1,0-0.3c0-0.1,0-0.1,0-0.3c0-0.2,0-0.1,0-0.3c0-0.2,0-0.3,0-0.3
			s-0.1,0.1-0.2,0.1h-0.3c-0.1,0-0.1,0-0.3,0c-0.1,0-0.1,0-0.3,0c-0.1,0-0.1,0-0.3,0c-0.1,0-0.2,0-0.3,0c0,0,0-0.4,0-0.4
			s0.1,0,0.3,0c0.1,0,0.1,0,0.3,0c0,0,0.1,0,0.3,0c0.1,0,0.1,0,0.3,0c0.1,0,0.1,0,0.3,0c0.1,0,0.2-0.1,0.2-0.1s0-0.2,0-0.3
			c0-0.2,0-0.2,0-0.3c0-0.2,0-0.3,0-0.3c0,0,0,0-0.2,0c-0.1,0-0.1,0-0.3,0c-0.1,0-0.1,0-0.3,0c-0.1,0-0.1,0-0.3,0
			c-0.1,0-0.1,0-0.3,0c-0.2,0-0.2,0-0.3,0c-0.1,0-0.1,0-0.3,0c-0.1,0-0.1,0-0.3,0c-0.1,0-0.1,0-0.3,0c-0.1,0-0.1,0-0.3,0
			c-0.1,0-0.1,0-0.3,0c-0.1,0-0.1,0-0.3,0c-0.1,0-0.1,0-0.3,0c-0.1,0-0.1,0-0.3,0c-0.1,0-0.1,0-0.3,0c-0.2,0-0.2,0-0.3,0
			c-0.2,0-0.2,0-0.3,0c-0.2,0-0.1,0-0.3,0c-0.1,0-0.1,0-0.3,0s-0.1,0-0.3,0c-0.1,0-0.1,0-0.3,0c-0.1,0-0.2,0-0.3,0
			c-0.2,0-0.1,0-0.3,0c-0.2,0-0.1,0-0.2,0c0,0-0.1,0.1-0.1,0.3c0,0.2,0,0.2,0,0.3c0,0.2,0,0.2,0,0.3c0,0.1,0.1,0,0.3,0
			c0.1,0,0.2,0,0.3,0c0.1,0,0.1,0,0.3,0s0.1,0,0.3,0c0.2,0,0.2,0,0.3,0c0.1,0,0.1,0,0.3,0s0.3,0,0.3,0c0.1,0.1,0,0.4,0,0.4
			s-0.1,0-0.3,0s-0.1,0-0.3,0c-0.1,0-0.1,0-0.3,0c-0.1,0-0.1,0-0.3,0c-0.1,0-0.1,0-0.3,0s-0.1,0-0.3,0c-0.2,0-0.1,0-0.2,0
			c-0.1,0-0.1,0.1-0.1,0.3c0,0.1,0,0.1,0,0.3c0,0.2,0,0.1,0,0.3c0,0.1,0,0.2,0,0.3c0,0.1,0,0.2,0,0.3c0,0.1,0,0.2,0,0.3
			c0,0.1,0,0.2,0,0.3c0,0.1,0,0.2,0,0.3c0,0.1,0,0.2,0,0.3c0,0.1,0,0.2,0,0.3c0,0.1,0,0.2,0,0.3c0,0.1,0,0.2,0,0.3v0.3
			c0,0.1,0,0.2,0,0.3c0,0.1,0,0.2,0,0.3c0,0.1,0,0.2,0,0.3c0,0.2,0,0.2,0,0.3C522.3,518.7,522.3,518.7,522.4,518.7L522.4,518.7z
			 M515.1,518.1C515.1,518.1,515.1,518.1,515.1,518.1c0.1,0,0.1-0.1,0.2-0.1c0-0.1,0-0.2,0-0.2c0-0.1,0-0.1,0-0.2c0,0-0.1,0-0.1,0
			c0,0-0.1,0.1-0.1,0.1c0,0,0,0,0,0c0.1,0,0.2,0,0.2,0.1C515.2,518,515.1,518,515.1,518.1z M525.8,518.1c-0.1,0-0.2,0-0.2-0.1
			s0.2-0.3,0.2-0.4c0.1,0,0.2,0,0.3,0c0.1,0,0.2-0.1,0.3-0.1c0.1-0.1,0.2-0.1,0.3-0.2c0.1-0.1,0.1-0.2,0.2-0.3
			c0.1-0.1,0.1-0.2,0.1-0.3c0-0.1,0-0.2,0-0.3c0-0.2,0-0.2,0-0.3c0-0.2,0-0.2,0-0.3s0-0.2,0-0.3c0-0.2,0-0.2,0-0.3c0,0,0-0.2,0-0.3
			s0-0.2,0-0.3s0-0.2,0-0.3c0-0.2,0-0.2,0-0.3v-0.3c0-0.2,0-0.2,0-0.3c0-0.2,0-0.2,0-0.3c0-0.2,0-0.3,0-0.3s0.1,0,0.2,0
			c0.1,0,0.2,0,0.2,0c0,0.1,0,0.1,0,0.3s0,0.2,0,0.3c0,0.2,0,0.2,0,0.3c0,0.2,0,0.1,0,0.3c0,0.1,0,0.2,0,0.3c0,0.1,0,0.2,0,0.3
			c0,0.1,0,0.2,0,0.3c0,0.1,0,0.2,0,0.3c0,0.1,0,0.2,0,0.3c0,0.1,0,0.2,0,0.3c0,0.1,0,0.2,0,0.3c0,0.2,0,0.2,0,0.3
			c0,0.1,0,0.2,0,0.3c0,0.1-0.1,0.2-0.1,0.3c0,0.1-0.1,0.2-0.1,0.3c0,0.1-0.1,0.2-0.2,0.2c-0.1,0.1-0.1,0.1-0.2,0.2
			c-0.1,0.1-0.1,0.1-0.2,0.2c-0.1,0-0.2,0.1-0.3,0.1c-0.1,0-0.2,0-0.3,0.1C526,518,525.9,518.1,525.8,518.1L525.8,518.1z
			 M525.7,517.3c-0.1,0-0.2,0-0.3,0c-0.1,0-0.2-0.1-0.3-0.1c-0.1-0.1-0.2-0.1-0.2-0.2c-0.1-0.1-0.1-0.2-0.1-0.3c0-0.1,0-0.2,0-0.3
			c0-0.2,0-0.2,0-0.3c0-0.2,0-0.2,0-0.3c0-0.2,0-0.1,0-0.3c0-0.1,0-0.2,0-0.3c0-0.1,0-0.2,0-0.3s0-0.2,0-0.3c0-0.1,0-0.2,0-0.3
			c0-0.2-0.2-0.3,0-0.3c0.2-0.1,0.2,0,0.3,0c0.2,0,0.2,0,0.3,0s0.2,0,0.3,0s0.2,0,0.3,0h0.3c0.2,0,0.2-0.1,0.3,0
			c0.1,0.1,0,0.1,0,0.3c0,0.2,0,0.2,0,0.3c0,0.2,0,0.2,0,0.3c0,0.2,0,0.2,0,0.3c0,0.2,0,0.2,0,0.3s0,0.2,0,0.3s0,0.2,0,0.3
			c0,0.2,0,0.2,0,0.3c0,0.1,0,0.2,0,0.3c0,0.1-0.1,0.2-0.1,0.3c-0.1,0.1-0.1,0.2-0.2,0.2c-0.1,0.1-0.2,0.1-0.3,0.1
			C525.9,517.3,525.8,517.3,525.7,517.3L525.7,517.3z M515.2,517.1C515.2,517.1,515.2,517.1,515.2,517.1c0.1-0.1,0.2-0.2,0.3-0.3
			c0.1-0.1,0.2-0.3,0.2-0.3c0-0.1,0-0.2-0.2-0.4c0,0,0,0,0,0c-0.1,0-0.3,0-0.4,0.1c-0.1,0.2-0.1,0.2,0,0.2c0.1,0,0.1-0.1,0.2-0.1
			c0.1,0,0.1,0,0.1,0.1c0,0.1-0.1,0.1-0.2,0.2s-0.1,0.2-0.2,0.2c-0.2,0-0.2-0.2-0.4-0.2c-0.1,0-0.2,0-0.2,0.1c0,0.1,0.1,0.1,0.1,0.2
			c0.1,0.1,0.2,0.2,0.2,0.2c0,0,0,0,0,0c0,0,0.1,0,0.1-0.1C515,517,515.1,517.1,515.2,517.1L515.2,517.1z M514.9,516.2
			c0,0,0.1-0.2,0.2-0.3c0.1-0.1,0.4-0.1,0.4-0.1c0-0.2,0-0.1,0-0.3c0-0.2,0-0.2,0-0.3c0-0.1-0.1-0.2-0.1-0.2c0,0,0,0-0.1-0.1
			c0,0,0,0,0-0.1c0-0.1,0-0.3,0-0.4c0-0.2,0-0.3,0-0.3c0-0.2,0-0.2,0.1-0.3c0,0,0-0.2,0-0.2c-0.1,0-0.1,0-0.2,0c-0.1,0-0.1,0-0.2,0
			c-0.2,0-0.2,0.1-0.3,0.2c-0.1,0-0.2,0-0.3,0c0,0.1,0,0.1,0,0.2c0,0,0,0,0,0.1c0.1,0.1,0.2,0.2,0.2,0.2c0.1,0,0.1,0,0.1,0.1
			c0,0.1,0,0.1,0,0.1c0,0,0,0,0,0.1c0.1,0,0.2,0,0.4,0c0.2-0.1,0.2-0.3,0.3-0.2c0.1,0.1,0,0.2-0.1,0.3c0,0.1-0.1,0.2-0.1,0.3
			c0,0-0.1,0.1-0.2,0.2c-0.1,0.1-0.1,0.2-0.2,0.3c0,0-0.1,0.1,0,0.1c0.2,0,0.2-0.1,0.4,0c0.1,0.1,0.1,0.1,0,0.2
			c-0.1,0.1-0.3,0.1-0.3,0.2C514.7,516,514.7,516.1,514.9,516.2L514.9,516.2z M514.9,514.2c-0.1,0-0.1,0-0.1-0.1
			c0-0.1,0-0.1,0.1-0.2c0.1-0.2,0.2-0.2,0.4-0.2c0.2,0-0.1,0.2-0.2,0.3C515,514.1,515,514.1,514.9,514.2z M515.5,513.4
			c0,0,0.1-0.1,0.2-0.2c0,0,0.1-0.1,0.1-0.2c-0.1,0-0.2,0.1-0.3,0.1c-0.1,0-0.2,0-0.3,0.1c-0.1,0-0.2,0-0.3,0c-0.1,0-0.2,0-0.3,0
			c-0.1,0-0.2,0-0.3,0c0,0.1,0.1,0.2,0.2,0.2c0.1,0,0.2,0,0.3,0.1c0.1,0,0.2,0,0.3,0C515.3,513.4,515.5,513.4,515.5,513.4
			C515.5,513.4,515.5,513.5,515.5,513.4L515.5,513.4z M514.9,512.7c0.1,0,0.2,0,0.4,0c0.1,0,0.2,0,0.3-0.1c0.1,0,0.3-0.1,0.3-0.1
			c0-0.1-0.1-0.2-0.1-0.2c0-0.1,0-0.2,0-0.2c-0.1,0-0.4,0-0.4,0s0,0,0,0c-0.1,0-0.2,0-0.3,0c-0.1,0-0.2,0-0.3,0c0,0.1,0,0.2-0.1,0.3
			c0,0.1-0.1,0.2-0.1,0.3C514.7,512.7,514.8,512.7,514.9,512.7z M515.9,511.8c0,0,0.2,0,0.3-0.1c0.1,0,0.2-0.1,0.3-0.1
			c0.1,0,0.2-0.1,0.3-0.1c0.1,0,0.2-0.1,0.3-0.1c0.1,0,0.2-0.1,0.3-0.1c0.1,0,0.2-0.1,0.3-0.1c0.1,0,0.2-0.1,0.3-0.1
			c0.1,0,0.2-0.1,0.3-0.1c0.1,0,0.2-0.1,0.3-0.2c0.1-0.1,0.2-0.1,0.3-0.1c0,0,0.1,0,0.1-0.1c0.1,0,0.1-0.1,0.2-0.1
			c0.1-0.1,0.2-0.1,0.2-0.2c0.1-0.1,0.2-0.1,0.3-0.2c0.1-0.1,0.2-0.1,0.2-0.2c0.1-0.1,0.2-0.1,0.2-0.2c0.1-0.1,0.1-0.1,0.2-0.2
			c0.1-0.1,0.2-0.1,0.2-0.2c0.1-0.1,0.1-0.2,0.2-0.2c0,0,0.1-0.1,0.1-0.1c0-0.1,0-0.1,0-0.3c0-0.2,0-0.2,0-0.3c0-0.2,0-0.2,0-0.3
			c0-0.2,0-0.2,0-0.3c0-0.2,0-0.2,0-0.3c0-0.2,0.1-0.2,0-0.3l0-0.6c0-0.2,0-0.2,0-0.3c0-0.2,0-0.2,0-0.3c0,0,0,0.1,0,0.1
			c-0.1,0.2-0.1,0.3-0.2,0.5c-0.1,0.1-0.1,0.3-0.2,0.4c-0.1,0.1-0.1,0.3-0.2,0.4c-0.1,0.1-0.1,0.2-0.2,0.4c-0.1,0.1-0.1,0.2-0.2,0.3
			c-0.1,0.1-0.1,0.2-0.2,0.3c-0.1,0.1-0.1,0.2-0.2,0.3c-0.1,0.1-0.1,0.2-0.2,0.3c-0.1,0.1-0.1,0.2-0.2,0.3c-0.1,0.1-0.1,0.2-0.2,0.2
			c0,0,0,0.1-0.1,0.1l0,0c0,0,0,0.1-0.1,0.1c0,0,0,0,0,0l0,0c0,0-0.1,0.1-0.1,0.1c-0.1,0.1-0.1,0.2-0.2,0.2
			c-0.1,0.1-0.1,0.2-0.2,0.2c-0.1,0.1-0.1,0.2-0.2,0.2c-0.1,0.1-0.2,0.1-0.2,0.2c-0.1,0.1-0.2,0.1-0.2,0.2c-0.1,0.1-0.2,0.1-0.3,0.2
			c-0.1,0.1-0.2,0.1-0.3,0.2c-0.1,0.1-0.2,0.1-0.3,0.2c-0.1,0.1-0.2,0.1-0.3,0.2c-0.1,0.1-0.2,0.1-0.3,0.2
			C516.1,511.7,516,511.7,515.9,511.8L515.9,511.8z M525.6,511c0-0.1,0.1-0.1,0.1-0.2c0.1-0.1,0.1-0.1,0.1-0.2c0.1,0,0.2,0,0.3,0
			c0.1,0,0.2-0.1,0.3-0.1c0.1-0.1,0.2-0.1,0.2-0.2c0.1-0.1,0.1-0.2,0.2-0.2c0.1-0.1,0.1-0.2,0.1-0.3c0-0.1,0.1-0.2,0.1-0.3
			c0-0.2,0-0.2,0-0.3c0-0.2,0-0.1,0-0.3c0-0.2,0-0.2,0-0.3c0-0.2,0-0.1,0-0.3c0-0.1,0-0.2,0-0.3c0-0.1,0-0.2,0-0.3
			c0-0.1,0-0.2,0-0.3c0-0.1,0-0.2,0-0.3c0-0.1,0-0.2,0-0.3c0-0.1,0-0.2,0-0.3c0-0.1,0-0.2,0-0.3c0-0.1,0-0.2,0-0.3
			c0-0.1,0-0.2,0-0.3c0-0.1,0-0.2,0-0.3c0-0.1,0-0.2,0-0.3c0-0.2,0-0.2,0-0.3c0.1-0.1,0.1,0,0.2,0c0.1,0,0.2,0,0.2,0
			c0,0.1,0,0.2,0,0.3c0,0.2,0,0.2,0,0.3c0,0.2,0,0.1,0,0.3c0,0.2,0,0.2,0,0.3c0,0.2,0,0.2,0,0.3c0,0.2,0,0.2,0,0.3
			c0,0.2,0,0.2,0,0.3c0,0.2,0,0.2,0,0.3c0,0.2,0,0.2,0,0.3c0,0.2,0,0.1,0,0.3c0,0.2,0,0.1,0,0.3c0,0.1,0,0.2,0,0.3
			c0,0.1,0,0.2,0,0.3s0,0.2,0,0.3c0,0.1,0,0.2,0,0.3c0,0.2,0,0.2,0,0.3c0,0.1,0,0.2,0,0.3c0,0.1-0.1,0.2-0.1,0.3
			c0,0.1-0.1,0.2-0.1,0.3c0,0.1-0.1,0.2-0.2,0.2c-0.1,0.1-0.1,0.1-0.2,0.2c-0.1,0.1-0.1,0.1-0.2,0.2c-0.1,0-0.2,0.1-0.3,0.1
			c-0.1,0-0.2,0-0.3,0.1C526,511,525.7,511,525.6,511L525.6,511z M511.2,510.7c0.1,0,0.1-0.1,0-0.2c-0.1-0.1-0.1-0.1-0.3-0.2
			c-0.1-0.1-0.1-0.1-0.2-0.2c-0.1-0.1-0.1-0.1-0.2-0.2c-0.1-0.1-0.1-0.1-0.2-0.2c-0.1-0.1-0.1-0.1-0.2-0.2c-0.1-0.1-0.1-0.1-0.2-0.2
			c-0.1-0.1-0.1-0.2-0.2-0.2c-0.1-0.1-0.1-0.1-0.2-0.2c-0.1-0.1-0.1-0.1-0.2-0.2c-0.1-0.1-0.1-0.1-0.2-0.2c-0.1-0.1-0.1-0.1-0.2-0.2
			c-0.1-0.1-0.1-0.1-0.2-0.2c-0.1-0.1-0.1-0.2-0.2-0.2c-0.1-0.1-0.1-0.2-0.2-0.2c-0.1-0.1-0.1-0.2-0.2-0.2c-0.1-0.1-0.1-0.2-0.2-0.3
			c-0.1-0.1-0.1-0.2-0.2-0.3c-0.1-0.1-0.1-0.2-0.2-0.3c-0.1-0.1-0.1-0.2-0.2-0.3c-0.1-0.1-0.1-0.2-0.2-0.3c-0.1-0.1-0.1-0.2-0.2-0.3
			c-0.1-0.2-0.1-0.3-0.2-0.3c-0.1,0-0.1,0.1-0.2,0.1c-0.1,0.1,0,0.3-0.1,0.2c-0.1-0.1,0-0.1-0.1-0.3c0-0.1-0.1-0.1-0.1-0.3
			c0-0.1,0.2-0.1,0.1-0.1c-0.1-0.1-0.1,0-0.2,0.1c0,0.1,0,0.2,0,0.4c0,0.1,0,0.1,0,0.2c0,0,0,0,0,0c0,0,0,0,0,0
			c0.1,0.1,0.2,0.1,0.1,0.2c-0.1,0.1-0.2,0-0.3,0c0,0,0,0.1,0,0.1c0,0.1,0.1,0.1,0.1,0.1c0.1,0,0.1,0,0.1,0c0.1-0.1,0.1-0.1,0.2-0.1
			c0.1,0,0.1,0.1,0.1,0.2c0,0.1,0.1,0.2,0.1,0.3c0.1,0.1,0.1,0.2,0.2,0.3c0.1,0.1,0.1,0.2,0.1,0.3c0.1,0.1,0.1,0.2,0.2,0.3
			c0.1,0.1,0.1,0.2,0.2,0.3c0.1,0.1,0.1,0.2,0.2,0.3c0.1,0.1,0.1,0.2,0.2,0.2c0.1,0.1,0.1,0.2,0.2,0.2c0.1,0.1,0.1,0.2,0.2,0.2
			c0.1,0.1,0.1,0.1,0.2,0.2c0.1,0.1,0.1,0.2,0.2,0.2c0.1,0.1,0.1,0.2,0.2,0.2c0.1,0.1,0.2,0.1,0.2,0.2c0.1,0.1,0.1,0.1,0.2,0.2
			c0.1,0.1,0.2,0.1,0.2,0.2c0.1,0.1,0.2,0.1,0.2,0.2c0.1,0.1,0.2,0.1,0.3,0.2c0.1,0.1,0.2,0.1,0.2,0.2c0.1,0.1,0.2,0.1,0.3,0.2
			C510.9,510.6,511,510.7,511.2,510.7C511.1,510.7,511.2,510.7,511.2,510.7z M525.7,510.2c-0.1,0-0.2,0-0.3-0.1
			c-0.1,0-0.2-0.1-0.3-0.1c-0.1-0.1-0.1-0.1-0.2-0.2c-0.1-0.1-0.1-0.2-0.2-0.3c0-0.1-0.1-0.2-0.1-0.3c0-0.2,0-0.2,0-0.3
			c0-0.2,0-0.1,0-0.3c0-0.1,0-0.2,0-0.3c0-0.1,0-0.2,0-0.3c0-0.1,0-0.2,0-0.3c0-0.1,0-0.2,0-0.3c0-0.1,0-0.2,0-0.3
			c0-0.1,0-0.2,0-0.3c0-0.1,0-0.2,0-0.3c0-0.1,0-0.2,0-0.3c0-0.1,0-0.2,0-0.3c0-0.1,0-0.2,0-0.3c0-0.1,0-0.2,0-0.3
			c0-0.1,0-0.2,0-0.3c0-0.2-0.1-0.3,0.1-0.3c0.1,0,0.1,0,0.2,0s0.2,0,0.3,0s0.2,0,0.3,0c0.2,0,0.2,0,0.3,0c0.2,0,0.2,0,0.3,0
			c0.2,0,0.1,0,0.3,0c0.1,0,0.1,0.1,0.1,0.3s0,0.2,0,0.3c0,0.2,0,0.2,0,0.3c0,0.2,0,0.2,0,0.3c0,0.2,0,0.2,0,0.3s0,0.2,0,0.3
			c0,0.2,0,0.2,0,0.3s0,0.2,0,0.3c0,0.2,0,0.2,0,0.3c0,0.2,0,0.2,0,0.3s0,0.2,0,0.3s0,0.2,0,0.3c0,0.2,0,0.2,0,0.3
			c0,0.2,0,0.2,0,0.3c0,0.2,0,0.2,0,0.3c0,0.1,0,0.2,0,0.3c0,0.1-0.1,0.2-0.1,0.3c-0.1,0.1-0.1,0.2-0.2,0.2
			c-0.1,0.1-0.2,0.1-0.3,0.1C525.9,510.2,525.8,510.2,525.7,510.2L525.7,510.2z M525.3,508c0.1,0,0.2-0.1,0.3-0.1
			c0.1-0.1,0.2-0.1,0.2-0.3c0.1-0.1,0.1-0.2,0.1-0.3c0-0.1,0-0.1,0-0.3v-0.3c0-0.1,0-0.1,0-0.3c0-0.1,0-0.1,0-0.3c0-0.1,0-0.1,0-0.3
			c0-0.1,0-0.1,0-0.3c0-0.1,0-0.2,0-0.3c0-0.2,0-0.3,0-0.3c-0.1-0.1-0.2,0-0.3,0s-0.2,0-0.3,0c0,0,0,0.1,0,0.3c0,0.2,0,0.2,0,0.3
			c0,0.2,0,0.1,0,0.3c0,0.1,0,0.1,0,0.3c0,0.1,0,0.2,0,0.3c0,0.1,0,0.2,0,0.3c0,0.1,0,0.2,0,0.3c0,0.1,0,0.2,0,0.3
			c0,0.1,0,0.2,0,0.3C525.2,507.9,525.1,507.9,525.3,508L525.3,508z M511.3,507.2c-0.1,0-0.1-0.1-0.2-0.1c-0.1,0-0.1-0.1-0.1-0.2
			c0-0.1,0.1-0.1,0.1-0.2c0-0.2,0-0.2,0-0.3c0-0.1-0.1,0-0.1,0c-0.1,0-0.2,0-0.3-0.1c-0.1,0-0.2-0.1-0.3-0.1c-0.1,0-0.2-0.1-0.2-0.2
			c-0.1-0.1-0.2-0.1-0.2-0.2c-0.1-0.1-0.1-0.2-0.2-0.2c-0.1-0.1-0.1-0.2-0.1-0.3c0-0.1-0.1-0.2-0.1-0.3c0-0.1,0-0.2,0-0.3
			c0-0.2,0-0.2,0-0.3c0-0.2,0-0.1,0-0.3c0-0.2,0-0.2,0-0.3c0-0.2,0-0.2,0-0.3c0-0.2,0-0.1,0-0.3c0-0.2,0-0.2,0-0.3s0-0.2,0-0.3
			c0-0.1,0-0.2,0-0.3h0.5c0,0.1,0,0.1,0,0.2c0,0.2,0,0.2,0,0.3c0,0.2,0,0.2,0,0.3c0,0.2,0,0.2,0,0.3c0,0.2,0,0.2,0,0.3
			c0,0.2,0,0.2,0,0.3c0,0.2,0,0.2,0,0.3c0,0.2,0,0.2,0,0.3c0,0.1,0,0.2,0,0.3c0,0.1,0,0.2,0.1,0.3c0,0.1,0.1,0.2,0.2,0.2
			c0.1,0.1,0.1,0.1,0.2,0.2c0.1,0.1,0.2,0.1,0.3,0.1c0.1,0,0.2,0,0.2,0c0.1,0,0.1-0.1,0.2,0c0.2,0.1,0.3,0.1,0.3,0.3
			c0,0.2-0.3,0-0.3,0.1c0,0.1,0.1,0,0.2,0.1c0.1,0.1,0,0.2,0,0.3c0,0.1,0.1,0.1,0.2,0.1c0.1,0.1,0.1,0.1,0,0.1c-0.2,0-0.4,0-0.4,0.1
			C511.3,507,511.4,507,511.3,507.2C511.3,507.2,511.3,507.2,511.3,507.2L511.3,507.2z M518.7,507c-0.1,0-0.1-0.1-0.2-0.1
			c-0.1,0-0.1-0.1-0.1-0.2c0-0.1,0.1-0.1,0.1-0.2c0-0.2,0-0.2,0-0.3c0-0.1-0.1,0-0.1,0c-0.1,0-0.2,0-0.3-0.1c-0.1,0-0.2-0.1-0.3-0.1
			c-0.1,0-0.2-0.1-0.2-0.2c-0.1-0.1-0.2-0.1-0.2-0.2c-0.1-0.1-0.1-0.2-0.2-0.2c0-0.1-0.1-0.2-0.1-0.3c0-0.1-0.1-0.2-0.1-0.3
			c0-0.1,0-0.2,0-0.3c0-0.2,0-0.2,0-0.3c0-0.2,0-0.1,0-0.3c0-0.2,0-0.2,0-0.3c0-0.2,0-0.1,0-0.3c0-0.2,0-0.2,0-0.3s0-0.1,0-0.3
			c0-0.2,0-0.2,0-0.3c0,0,0-0.1,0-0.1h0.5v0.1c0,0.2,0,0.2,0,0.3c0,0.2,0,0.2,0,0.3s0,0.2,0,0.3c0,0.2,0,0.2,0,0.3
			c0,0.2,0,0.2,0,0.3c0,0.2,0,0.2,0,0.3c0,0.2,0,0.2,0,0.3c0,0.1,0,0.2,0,0.3c0,0.1,0.1,0.2,0.1,0.3c0,0.1,0.1,0.2,0.2,0.2
			c0.1,0.1,0.1,0.1,0.2,0.2c0.1,0.1,0.2,0.1,0.3,0.1c0.1,0,0.2,0,0.2,0c0.1,0,0.1-0.1,0.2,0c0.2,0.1,0.3,0.1,0.3,0.3
			c0,0.2-0.3,0-0.3,0.1c0,0.1,0.1,0,0.2,0.1c0.1,0.1,0,0.2,0,0.3c0,0.1,0.1,0.1,0.2,0.1c0.1,0.1,0.1,0.1,0,0.1c-0.2,0-0.4,0-0.4,0.1
			C518.7,506.8,518.8,506.8,518.7,507C518.8,507,518.8,507,518.7,507L518.7,507z M512,505.8c-0.1,0-0.3-0.1-0.2-0.2
			c0,0,0.3-0.1,0.5-0.4c0.2-0.3,0.3-0.4,0.3-0.5s0.3-0.1,0,0.5C512.5,505.7,512.1,505.8,512,505.8L512,505.8z M519.5,505.7
			c-0.1,0-0.3-0.1-0.2-0.2c0,0,0.3-0.1,0.5-0.4c0.2-0.3,0.3-0.4,0.3-0.5c0-0.1,0.3-0.1,0,0.5C519.9,505.5,519.6,505.6,519.5,505.7
			L519.5,505.7z M511.3,505.5c-0.1,0-0.2,0-0.3,0c-0.1,0-0.2-0.1-0.3-0.1c-0.1-0.1-0.1-0.1-0.2-0.2c-0.1-0.1-0.1-0.2-0.2-0.2
			c-0.1-0.1-0.1-0.2-0.1-0.3c0-0.2,0.1-0.1,0.2-0.3c0-0.1,0-0.2,0-0.2c0-0.1,0-0.1,0-0.3c0-0.1,0-0.1,0-0.3c0-0.1,0-0.1,0-0.3
			c0-0.1,0-0.1,0-0.3c0-0.2,0-0.2,0-0.3c0-0.1,0-0.1,0-0.3c0,0,0,0,0-0.1h1.8c0,0,0,0.1,0,0.1v0.3c0,0.1,0,0.2,0,0.3
			c0,0.1,0,0.2,0,0.3c0,0.1,0,0.2,0,0.3c0,0.1,0,0.2,0,0.3c0,0.1,0,0.2,0,0.3c0,0.1,0,0.2,0,0.3c0,0.1,0,0.2,0,0.3
			c0,0.1-0.1,0.2-0.1,0.3c-0.1,0.1-0.1,0.2-0.2,0.3c-0.1,0.1-0.2,0.1-0.3,0.1C511.5,505.4,511.4,505.5,511.3,505.5L511.3,505.5z
			 M518.7,505.3c-0.1,0-0.2,0-0.3,0c-0.1,0-0.2-0.1-0.3-0.1c-0.1-0.1-0.1-0.1-0.2-0.2c-0.1-0.1-0.1-0.2-0.2-0.2
			c-0.1-0.1-0.1-0.2-0.1-0.3c0-0.2,0.1-0.1,0.2-0.3c0-0.1,0-0.2,0-0.2c0-0.1,0-0.1,0-0.3c0-0.1,0-0.1,0-0.3c0-0.1,0-0.1,0-0.3
			c0-0.2,0-0.1,0-0.3c0-0.1,0-0.1,0-0.3c0-0.1,0-0.1,0-0.2h1.9c0,0.1,0,0.1,0,0.2c0,0.1,0,0.2,0,0.3c0,0.1,0,0.2,0,0.3
			c0,0.1,0,0.2,0,0.3c0,0.1,0,0.2,0,0.3c0,0.1,0,0.2,0,0.3c0,0.1,0,0.2,0,0.3c0,0.1,0,0.2,0,0.3c0,0.1-0.1,0.2-0.1,0.3
			c-0.1,0.1-0.1,0.2-0.2,0.3c-0.1,0.1-0.2,0.1-0.3,0.1C519,505.3,518.9,505.3,518.7,505.3L518.7,505.3z"/>
	</g>
</g>
</svg>
