<?xml version="1.0" encoding="utf-8"?>
<!-- Generator: Adobe Illustrator 21.0.2, SVG Export Plug-In . SVG Version: 6.00 Build 0)  -->
<svg version="1.1" id="Layer_3" xmlns="http://www.w3.org/2000/svg" xmlns:xlink="http://www.w3.org/1999/xlink" x="0px" y="0px"
	 viewBox="0 0 416 539" style="enable-background:new 0 0 416 539;" xml:space="preserve">
<style type="text/css">
	.st0{clip-path:url(#SVGID_2_);}
	.st1{opacity:0.5;}
	.st2{fill:url(#SVGID_3_);}
	.st3{fill:url(#SVGID_4_);}
	.st4{fill:url(#SVGID_5_);}
	.st5{fill:url(#SVGID_6_);}
	.st6{fill:url(#SVGID_7_);}
	.st7{fill:url(#SVGID_8_);}
	.st8{fill:url(#SVGID_9_);}
	.st9{fill:url(#SVGID_10_);}
	.st10{fill:url(#SVGID_11_);}
	.st11{fill:url(#SVGID_12_);}
	.st12{fill:url(#SVGID_13_);}
	.st13{fill:url(#SVGID_14_);}
	.st14{fill:url(#SVGID_15_);}
	.st15{fill:url(#SVGID_16_);}
	.st16{fill:url(#SVGID_17_);}
	.st17{fill:url(#SVGID_18_);}
	.st18{fill:url(#SVGID_19_);}
	.st19{fill:url(#SVGID_20_);}
	.st20{fill:url(#SVGID_21_);}
	.st21{fill:url(#SVGID_22_);}
	.st22{fill:url(#SVGID_23_);}
	.st23{fill:url(#SVGID_24_);}
	.st24{fill:url(#SVGID_25_);}
	.st25{fill:url(#SVGID_26_);}
	.st26{fill:url(#SVGID_27_);}
	.st27{fill:url(#SVGID_28_);}
	.st28{fill:url(#SVGID_29_);}
	.st29{fill:url(#SVGID_30_);}
	.st30{fill:url(#SVGID_31_);}
	.st31{fill:url(#SVGID_32_);}
	.st32{fill:url(#SVGID_33_);}
	.st33{fill:url(#SVGID_34_);}
	.st34{fill:url(#SVGID_35_);}
	.st35{fill:url(#SVGID_36_);}
	.st36{fill:url(#SVGID_37_);}
	.st37{fill:url(#SVGID_38_);}
	.st38{fill:url(#SVGID_39_);}
	.st39{fill:url(#SVGID_40_);}
	.st40{fill:url(#SVGID_41_);}
</style>
<g>
	<defs>
		<polygon id="SVGID_1_" points="389.3,336.7 43.1,424.4 -24.2,125 440.2,125 428.7,303.3 		"/>
	</defs>
	<clipPath id="SVGID_2_">
		<use xlink:href="#SVGID_1_"  style="overflow:visible;"/>
	</clipPath>
	<g class="st0">
		<g class="st1">
			<path d="M430.2,321.4c0.5,0,1.2-0.5,1.6-0.1c-0.3,0.7-0.8,1.4-1.6,1.7c-0.3,0.2-0.8,0.1-1.2,0.2c-0.7,0.3-1,1-1.6,1.5
				c-0.6,0.5-1.3,0.9-1.9,1.2c-0.6,0.4-1.4,1.1-2.1,0.6c0.1-1,1.1-1,1.3-1.7c0-0.6-0.5-0.6-0.5-1.2c1.1-1,2.9-1.7,3.2-3.8
				c0.1-0.9-0.6-2.9,0.5-3c1.3-0.1,0.6,1.3,0.7,2.1c0,0.3,0.3,0.5,0.5,0.9C429.4,320.6,429.4,321.2,430.2,321.4z"/>
			<path d="M422.2,326.3c-0.5,1.4-2.5,2.1-3.8,3c-0.4,0.3-0.7,0.9-1.2,1.1c-0.6,0.3-1.4,0.2-2.1,0.5c-1.1,0.5-1.9,1.5-2.9,2.1
				c-1,0.6-2.4,1.5-3.5,1.6c-1.2,0.1-3.5-0.7-2-1.8c0.6-0.5,2-1.1,2.7-1.4c2.3-1.2,5.6-2,7.6-3.4c1.1-0.8,2.1-1.6,3.1-2.3
				C420.8,325.4,421.6,326.3,422.2,326.3z"/>
			<path d="M408,271.2c0.3-0.1,0.3,0.1,0.4,0.2c-0.1,1.2-0.8,1.9-2.3,1.8c-0.7-0.1-1.8-0.6-1.9-0.9C404,271.1,407.2,271.8,408,271.2
				z"/>
			<path d="M403.9,276.8c0.6,0.2,3.2,2,2.4,2.9c-0.5,0.5-1.1-0.2-1.8-0.4c-1-0.2-1.8,0-2.5-0.5c-0.8-0.6-1-2-1.8-2.7
				c-0.4-0.4-1.5-0.9-2.3-0.8c-1.3,0.1-1.3,1.6-2.5,2.3c-1.1-0.1-1.8,0.2-2.6-0.1c-0.9-0.3-1.3-1.5-2.1-1.6
				c-0.8-0.1-2.8,1.3-3.1,0.1c-0.3-1,1.4-1.4,1.5-2.1c0.1-0.7-0.6-1.8-1-2.1c-0.3-0.3-0.8-0.3-1.2-0.6c-0.4-0.3-0.7-0.7-1.2-1
				c-1.7-0.9-4.4-0.5-5-2c-0.1-0.3,0.1-0.5-0.1-0.9c-0.2-0.5-0.8-0.6-1.1-1c-0.6-1-0.2-2.5,0.8-2.6c0.9-0.1,2.7,1,2.9,1.7
				c0.1,0.4-0.1,0.7,0,1.2c0.1,0.5,0.8,1.7,1.5,1.7c0.9,0.1,1.4-1.2,2.1-1.7c0.5-0.3,1.4-0.7,2.1-0.7c0.7,0.1,1.2,0.6,2,0.9
				c0.6,0.2,1.3,0.3,2,0.5c0.6,0.2,1.1,0.5,1.7,0.7c2,0.7,4.3,1.1,5.4,2.4c0.3,0.3,0.3,0.9,0.7,1.2c0.3,0.4,2.3,0.7,2.3,1.5
				c0,0.6-0.8,0.6-0.8,1.2C402,275.5,403.6,275.5,403.9,276.8z"/>
			<path d="M386.5,326.2c-0.2,1-1,2.2-2.1,2.9c-0.7,0.5-3.1,1.6-3.4,0.1c-0.1-0.4,0.5-2.3,0.7-2.7c0.6-1.2,1.2-0.4,2.1-0.2
				C384.9,326.3,385.8,325.6,386.5,326.2z"/>
			<path d="M380.1,206.3c0.3,1,0.6,2,0.8,2.9c-0.9,1.1-2.7,0.7-4,1.3c-0.6,0.3-0.8,1.3-1.4,1.5c-0.5,0.1-0.9-0.4-1.3-0.4
				c-1.2,0-1.8,2-3.2,1.5c-0.8,0.5,0,2.4-1,2.6c-0.7,0.1-1.1-0.8-1.6-1.4c-0.5-0.7-1.3-1.1-1.3-1.6c0-0.6,1.2-1.6,1.6-2
				c0.5-0.5,1.4-1.4,2-1.6c1.1-0.2,2.2,0.1,3.1-0.2c0.7-0.3,0.8-1.4,1.2-1.7c0.3-0.2,0.7-0.2,1-0.3c0.8-0.4,1.6-1.8,1.2-3.3
				c-0.3-0.9-1.8-1.9-0.8-3.1c1.5,0.2,3.4,1.6,3.6,3.1c0.1,0.6-0.2,1.1-0.2,1.7C379.6,205.5,379.9,205.9,380.1,206.3z"/>
			<path d="M380.4,197.3c-0.2,0.4-0.6,0.3-0.9,0.6c-0.3,0.2-0.7,1-1.2,1.1c-0.7,0.1-1.4-0.6-2.1-0.5c-0.8,0.2-0.3,0.8-0.6,1.5
				c-0.7-0.1-1.8-0.9-1.8-1.6c0-0.5,0.6-0.8,0.7-1.3c0.2-0.9-0.4-1.4-0.7-2.3c0-0.1,0.1-0.1,0.1-0.2c0.8-0.2,2.4,1.3,4.2,1.6
				C379.4,196.3,380.4,196.2,380.4,197.3z"/>
			<path d="M377.4,281c0.1,0.7-1.1,0.6-1.2,0.2C376.2,280.6,377.2,280.5,377.4,281z"/>
			<path d="M371.6,190.4c0.8,0.4,2.8,1.4,1.4,2.3C372.2,192.4,371.3,191.3,371.6,190.4z"/>
			<path d="M367.8,277.4c0.9-0.5,2-1.6,3.6-1.1c-0.4,1-1.6,1-2.4,1.5c-0.8,0.5-1.5,1.3-2.5,1.4c-0.1-0.1-0.2-0.3-0.3-0.3
				C366.2,277.9,367.2,277.7,367.8,277.4z"/>
			<path d="M365.6,261.9c1,0,1.9-0.3,2.6,0.1c-0.1,2.1-3.3,0.5-5.4,0.8c-0.5,0.1-0.6,0.4-1.1,0.2c0-0.7,0.8-1.4,1.6-1.5
				C363.8,261.5,364.7,261.9,365.6,261.9z"/>
			<path d="M366.4,264.4c0.1,1.1-1.5,1.3-1.9,2.1c0.7,1,1,2.5,1.7,3.5c0,0.6,0.1,1.5-0.2,1.7c-1.7,0.3-2.6-2.7-3.2-3.7
				c-1.3,0.2-0.1,4.3-1.8,3.8c-0.8-0.2,0-1.4-0.2-2.3c-0.2-0.8-0.9-1-1-1.6c0-0.5,0.6-1,0.7-1.6c0.3-0.7,0.1-2.2,1-2.2
				c0.4,0,1,0.9,1.3,1C363.8,265.4,365,264.2,366.4,264.4z"/>
			<path d="M363.4,276.7c-0.3,0.6-2,0.3-2.1-0.2C361.5,275.8,363.2,276,363.4,276.7z"/>
			<path d="M361.8,278.7c-0.1,0.1-0.2,0.2-0.3,0.3c-0.6-0.2-1.3-0.4-1.5-1C360.4,277.4,361.8,277.9,361.8,278.7z"/>
			<path d="M359.6,276.6c-0.4,0.6-1.9,0-2.4,0.6c-0.9,0-1.7,0-1.9-0.7c0.2-0.6,1-0.2,1.6-0.2C357.9,276.1,359.3,275.4,359.6,276.6z"
				/>
			<path d="M347.9,308.2c0-0.7-0.5-1.4-0.6-2.1c0-0.3,0-0.6,0-1c-0.1-0.5-0.3-0.9-0.2-1.2c0.1-0.5,0.8-0.6,0.9-1.1
				c0.3-0.8-0.3-0.9-0.3-1.8c0-0.7,0.5-1,0.8-1.8c0.2-0.4,0.2-1.1,0.3-1.4c0.2-0.4,1.1-0.6,1.5-0.8c1.3-0.6,2.3-1.8,3.5-2
				c0.3-0.1,0.8,0,1,0c0.7-0.1,1.7-0.8,2.7-1c1-0.2,1.9-0.1,2.6-0.6c0.8-0.5,2-1.7,2.3-2.5c0.4-0.9,0.3-1.7,1-2
				c0.4-0.1,0.7,0,1.1-0.1c0.4-0.1,1.2-0.5,1.5-0.7c0.6-0.5,0.7-1.4,1.3-1.9c0.5-0.4,1.3-0.9,1.9-1.2c0.4-0.2,1-0.4,1.3-0.3
				c1.2,0.1,1.7,1.7,3,1.4c0.5-0.1,0.9-1.1,1.3-1.6c0.6-0.8,1-2,2.1-2.2c0.8-0.2,1.8,0.3,2.2-0.4c0.1-0.5-0.4-0.8,0-1.2
				c1,0.1,2.6,1.4,4,1.4c0.8,0,2.2-0.9,2.4,0.3c0.1,0.5-0.6,0.9-0.7,1.5c-0.1,0.4,0.2,0.6-0.1,1c-0.7,0.3-1.4,0.4-1.4,1.2
				c0,0.9,1.3,1.4,2.1,1.9c0.6,0.4,1,0.9,1.3,1.1c0.3,0.1,0.7,0.2,0.8,0.3c0.5,0.3,0.9,1.1,1.7,1.2c0.8,0,1.7-1,2.1-2.1
				c0.5-1.2,0.6-2.6,0.8-3.9c0.1-0.4,0.4-0.8,0.5-1.2c0.3-1.1,0.7-2.7,1.7-3.1c1,1,1.3,3.1,1.2,4.8c0.7,0.5,1.8,0.3,2,1.5
				c0.1,0.4-0.2,0.9-0.2,1.3c0.1,0.7,0.6,1.3,0.7,1.9c0.2,1.1-0.2,2,0.3,2.8c0.6,1,1.9,1,2.7,2.1c0,0.7,0.3,0.9,0.4,1.5
				c0.1,0.3,0,0.7,0.1,0.8c0.3,0.6,1,0.6,1.2,1.1c0.1,0.2,0.1,0.7,0.2,1.1c0.2,0.6,0.8,1.1,1.2,1.6c0.4,0.6,1,1.2,1.1,1.7
				c0.2,0.8-0.4,1.4-0.6,2.1c-0.2,0.8,0,1.9-0.3,2.7c-0.4,1-1.3,2-2.1,3.2c-0.6,1-1.4,2.2-2.3,2.9c-0.5,0.4-1.1,0.7-1.6,1.1
				c-0.8,0.6-1.4,1.5-2.1,2.2c-0.7,0.8-1.6,1.4-2.2,2.1c-0.8,1-1.3,2.6-2.7,2.7c-0.8,0.1-1.6,0-2.4,0.3c-1.2,0.5-2,1.4-2.6,1.4
				c-0.6,0-1.2-0.7-1.8-0.8c-0.7-0.1-1.2,0.5-2.1,0.5c-0.4,0-0.6-0.2-1.2-0.4c-1.2-0.4-2.5-0.4-2.6-1.6c-0.1-0.7,0.4-1,0.4-1.7
				c0-0.6-0.7-0.8-0.9-1.3c0.2-0.6,0.2-1.3-0.4-1.7c0-0.5,0.1-0.9,0.3-1.2c-0.5,0.2-1.1,0.3-1.7,0.7c-0.6,0.4-1,1.2-1.7,1.1
				c-0.7-0.2-0.2-0.9-0.2-1.4c-0.1-0.4-1-2.1-1.4-2.4c-0.5-0.3-2.2-1-2.8-1.1c-2.5-0.4-4.2,1-6.2,1.2c-0.5,0-1.1-0.1-1.6,0
				c-1.7,0.3-3.5,1.6-4.5,2.5c-1.7,0.2-3.4-0.3-5.2,0.2c-1.7,0.5-2.7,2-5.4,1.6c-0.5-0.5-1.5-0.7-1.5-1.5c0-0.6,0.9-1,1.2-1.5
				c0.3-0.5,0.9-1.6,0.9-2.3c0-0.5-0.4-1.2-0.3-1.9C347.6,309.3,347.9,308.7,347.9,308.2z"/>
			<path d="M346.5,273.8c0.4-0.1,0.8-0.4,1.2-0.4c1,0,1.9,0.7,3,0.6c0.2,0.3,0.1,0.5,0.1,0.9c1,0.5,2.5,0.4,3,1.4
				c-0.7,0.8-1.8,0.2-2.7,0.1c-0.8-0.1-1.7-0.1-2.6-0.2c-1.2-0.1-2.2-0.8-3.3-0.9c-0.7-0.1-1.4,0.1-2,0c-0.7-0.1-3.5-1.2-3.5-1.9
				c0-0.8,1.2-1,2.4-0.8C343.6,272.8,344.6,274.1,346.5,273.8z"/>
			<path d="M348.8,268.1c-0.6-0.2-1.2-0.1-1.5-0.2c-0.6-0.3-0.5-1.3-0.7-1.9c-0.2-0.6-0.9-0.9-1.2-1.6c-0.5-1.1-0.8-3.6,0.7-3.9
				c0.6-0.1,1.2,0.3,1.6,0.2c0.8-0.2,0.7-1.2,1.3-1.7c0.4-0.2,1-0.1,1.6-0.3c0.5-0.2,0.9-0.7,1.3-1.2c0.3-0.4,0.6-1.1,1.1-1.4
				c0.5-0.3,1-0.3,1.4-0.7c1.1-0.8,1.1-2,2-3c0.7-0.8,1.9,0.8,2,1.5c0.4,0.5,1.2,0.7,1.6,1.2c-0.5,1.5-1.9,1.6-1.6,3.6
				c0,0.3,0.3,1,0.5,1.4c0.2,0.5,0.9,1,0.9,1.3c-0.1,0.6-1.3,0.6-1.6,1.2c-0.3,0.6,0,0.6-0.1,1.6c-0.3,0.7-1.3,0.8-1.6,1.7
				c-0.3,1,0.1,2.2-0.7,3c-0.5,0-1.1,0.5-1.8,0.4c-0.7-0.1-1.4-1.1-2.6-1.1c-0.4,0-1,0.3-1.4,0.2
				C349.6,268.6,349.3,268.3,348.8,268.1z"/>
			<path d="M343.4,266.3c2.1,0,2.1,3.3,0,3.3C341.3,269.6,341.3,266.3,343.4,266.3z"/>
			<path d="M340.4,265.9c0.3,0,1.2,1.3,1.2,1.7c0,0.6-0.9,0.5-1.2,1.3c-0.4,1.2,0.2,2.5-0.5,3.1c-0.4,0.2-1.1,0.2-1.6,0.2
				c-1.5-1.1-2.7-2.3-4-3.7c-0.5-0.5-1-1-1.3-1.5c-0.4-0.8-0.6-1.7-1.1-2.4c-0.4-0.6-1.2-1.1-1.7-1.8c-0.3-0.6-0.4-1.3-0.7-1.9
				c-0.3-0.5-0.9-0.7-1.3-1.2c-0.3-0.3-0.4-0.7-0.7-1c-1-1.2-3-1.9-3.1-3.7c0.4-0.5,0.9,0.2,1.6,0.3c0.5,0.1,1.1,0,1.5,0.1
				c0.7,0.3,1.3,1.4,2.1,2.1c0.4,0.4,1,0.6,1.5,1c0.5,0.4,0.8,1,1.2,1.2c0.5,0.3,1.3,0.5,2,1c1,0.6,2.7,1.2,2.9,2.5
				c0.1,0.3-0.1,0.8-0.1,1.1c0.1,0.4,0.7,0.6,1,1c0.4,0.5,0.5,1.1,1.1,1.2C339.7,266.7,339.7,265.8,340.4,265.9z"/>
			<path d="M301.4,248.6c0.7,0.2,3.1,3.1,2.4,4.7c-0.2,0.5-1,1-1.8,0.9c-1.6-0.3-1.3-3.9-0.8-5.4
				C301.2,248.7,301.3,248.6,301.4,248.6z"/>
			<path d="M246.6,290.3c0.1-0.7,0.5-1.8,1.1-2.1c0.8-0.6,1.8-0.5,2.6-0.9c0.6-0.3,1.5-0.9,2-1.5c0.4-0.5,0.4-1.1,0.7-1.5
				c0.2-0.3,0.7-0.3,1-0.7c0.2-0.3,0.2-0.8,0.6-1.2c1.1-0.5,1.5,1.6,1.7,3c0.1,0.4,0.3,0.9,0.2,1.2c-0.1,0.7-0.8,0.8-1.1,1.2
				c-0.1,1.8-0.8,3.4-1.4,4.9c-0.5,1.3-0.9,2.7-1.3,3.8c-0.2,0.4-0.5,0.7-0.7,1.1c-0.6,1.4-0.8,3.6-1.9,4.2
				c-0.4,0.2-1.9,0.6-2.3,0.6c-1,0-1.9-0.8-2.1-1.6c-0.1-0.5,0-1-0.1-1.5c-0.1-0.7-0.5-1.2-0.4-2c0.2-1.7,1.8-2.5,1.9-3.9
				C247.1,292.4,246.5,291.4,246.6,290.3z"/>
			<path d="M206.9,173c0.1,1.4-2.1,1.2-2.4,2.4c-0.1,0.5,0.3,1.2,0.2,1.7c-0.2,0.9-1,0.6-2.1,1.1c-0.5,0.2-1.1,1.1-1.6,1.2
				c-0.5,0.1-0.9-0.3-1.2-0.2c-0.5,0.1-0.4,0.8-1.2,0.9c-0.6,0.1-1.7-0.6-1.8,0.2c0,0.5,1,0.8,1.6,0.7c0.5,0,0.9-0.4,1.4-0.4
				c1,0,1.6,0.7,2.2,0.7c1.4,0,2.8-1.3,4.3-1.2c0.7,0.1,1.1,0.5,1.6,0.5c0.8-0.1,1.5-1,2.1-1.3c-0.2-1.4,0-3.2,1.3-3.3
				c0.9-0.1,2.2,1.5,2.4,0c0.1-0.7-0.7-1.2-1.2-1.2c-0.5,0-1.1,0.9-1.5,0.2c0-0.8,0.8-0.6,1.3-0.7c0.3-0.1,0.6-0.5,1-0.7
				c2-0.7,4.7,0.7,5.4-1c-1.7-1.5-4.7,0.5-6.7,0.4c-0.8-0.1-2-0.7-2.2-1.5c-0.1-0.3,0-0.6-0.1-1.1c-0.1-0.5-0.3-1.1-0.3-1.4
				c0.1-1.5,3.8-1.8,3.8-3.6c-0.7-0.7-2.8-0.6-3.5,0.2c-0.2,0.3-0.2,0.8-0.6,1.3c-0.7,1.1-3.1,1.3-3.9,2.6c-0.2,0.3-0.5,1.1-0.3,1.6
				C205.1,172,206.8,172.2,206.9,173z M187.2,253.6c-2.4-0.3-4.8,0.6-6.4,1.3c-0.9,0.4-1.9,1-2.7,1.1c-0.8,0-1.6-0.4-2.3-0.5
				c-1-0.1-2.2,0-3.2,0.2c-0.9,0.2-1.8,0.8-2.6,0.9c-1.6,0.1-3.1-1.4-4.1-2.2c-0.6-0.5-1.2-0.9-1.8-1.3c-0.6-0.5-1.4-0.8-1.9-1.2
				c-0.6-0.6-0.6-1.7-1-2.6c-0.4-1-1.6-1.7-2.6-2.6c-0.7-0.7-2.3-1.7-2.5-2.6c-0.1-0.5,0.2-1,0.2-1.5c0-0.7-0.6-1.1-0.6-1.6
				c0-0.7,0.9-1.3,1.1-1.9c0.1-0.3,0.1-0.8,0.2-1.2c0.2-0.8,0.8-1.3,0.7-2.6c-0.1-0.5-0.5-0.9-0.5-1.6c0-0.4,0.3-0.7,0.2-1.1
				c-0.1-0.7-1-0.8-1.1-1.6c-0.1-0.8,0.8-1.5,1.3-2.5c0.2-0.4,0.4-1.1,0.6-1.4c0.5-0.7,1.2-1,1.6-1.7c0.3-0.5,0.3-1.3,0.6-1.6
				c0.3-0.5,0.9-0.8,1.5-1.4c0.5-0.5,0.7-1.2,1-1.4c0.4-0.3,1-0.4,1.5-0.6c1.5-0.7,2.6-1.6,3.4-3.1c-0.2-1.3,0.1-1.9,0.7-2.8
				c0.5-0.8,0.9-1.7,1.7-2.1c1-0.6,2-0.6,2.7-1.7c0.4-0.5,0.9-1.5,0.9-2.1c0-0.8-0.8-1.9-1.6-2c-0.7-0.1-1.9,0.6-2.3-0.2
				c-0.1-0.3,0-0.9,0-1.2c-0.1-0.5-0.6-0.9-0.6-1.3c0-0.8,0.8-1.6,1-2.5c0.3-1.2,0-2.1-0.1-3.5c1.2-1.8,3.7-0.9,6.3-0.7
				c0.4,0,0.8-0.1,1.2-0.1c1.5,0,2.7,0.5,3.2-0.8c0.2-0.5,0.4-2.3,0.2-2.8c-0.1-0.6-1.2-2-1.7-2.3c-0.8-0.5-2-0.3-2.5-1.2
				c0.4-1.6,2.2-0.3,3.3-0.7c0.6-0.2,0.5-1.2,1-1.3c0.3-0.1,0.8,0.3,1.2,0.3c0.4,0,1.8-0.7,2.2-1c0.5-0.4,0.7-1.1,1.2-1.4
				c0.3-0.2,0.7-0.2,1.1-0.3c0.7-0.3,1.6-0.9,2.1-1.5c0.7-0.8,1-1.8,1.8-2c1.1-0.2,3.6,0.2,3.8-1c0.2-1.2-1-2.1-0.6-3.3
				c0.3-1,1.2-0.8,2.5-1.4c0.6,0.4,0.4,1.6,0.5,2.4c0.8,0,2.3-0.2,2.5-0.9c0.2-0.8-1.1-1.7-1.4-2.2c-0.3-0.6-0.4-1.5-1-1.6
				c-1.3-0.2-2.5,1.7-4,1.7c-1,0-2.1-0.8-2.4-1.6c-0.2-0.4,0-0.9-0.1-1.3c-0.1-0.7-0.5-1.4-0.3-2.3c0.6-1.1,2.1-1.3,3.1-1.8
				c0.4-0.2,0.7-0.7,1.2-0.8c0.7-0.3,1.8,0,2.6-0.4c0.5-0.3,0.3-0.7,0.7-1.2c0.2-0.3,0.7-0.5,1-0.9c0.2-0.3,0.2-0.7,0.4-0.9
				c0.7-0.9,2-1.2,2.6-2.1c0.2-0.4-0.4-0.6-0.2-1.2c0.3-0.6,1.3-0.2,1.9-0.2c0.8-0.1,1.6-1.1,2.5-1.3c0.9-0.2,1.9-0.1,2.8-0.4
				c0.5-0.2,1-0.7,1.5-0.7c0.2,0,0.7,0.1,0.9,0.1c0.3,0,0.7-0.2,1.1-0.2c0.6-0.1,1.4,0.1,2.1,0.2c1.3,0,2.5-0.4,3.6,0.1
				c0.6,0.2,0.5,0.9,1.2,1.2c0.4,0.1,0.9-0.1,1.4,0c0.8,0.1,1.7,0.6,2.7,0.7c0.4,0,0.8,0,1.2,0c1.2,0.1,2.5,0.8,3.6,1.2
				c1,0.3,3,0.7,3,1.6c0,1.1-1.8,1.4-2.6,1.4c-1.3,0-3-0.8-4.4-0.3c0,1.9,2,3.3,3.9,3.1c0.2-0.9-1-0.4-0.9-1.2
				c0.8-0.6,1.8,0.4,3,0.2c0.5-0.1,0.4-0.8,0.5-1.2c1-0.6,2.2-1.5,3.7-0.8c0.1-0.1,0.2-0.3,0.3-0.3c0.1-0.9-1-1.4-0.4-2.2
				c0.3-0.6,1.8-0.4,2.1,0.1c0.1,0.6-0.4,0.5-0.3,1c0.3,0.7,1,0.8,1.3,0.7c0.8,0,1-0.8,1.7-1.2c0.3-0.2,0.8-0.2,1.2-0.3
				c0.5-0.2,0.9-0.6,1.2-0.7c0.3-0.1,0.7,0,1.1-0.1c0.5-0.1,1-0.5,1.4-0.5c0.5,0,0.9,0.6,1.5,0.7c0.3,0,0.7-0.2,1.2-0.2
				c0.4,0,0.8,0,1.2,0c0.8-0.1,1.3-0.5,2-0.5c0.5,0,1.2,0.6,1.6,0.3c0.5-0.5-0.7-0.9-0.3-1.4c1.3,0.1,2.6,0.1,3.9,0.2
				c1.9,0.3,3.7,1.2,5.4,1.2c-0.2-1.1-1.5-0.8-2.1-1.3c-0.2-0.2-0.9-1.4-0.9-1.7c0-0.2,0.9-1.8,1.2-2c0.7-0.7,3.1-0.7,3.8,0.2
				c0.5,0.6,0.3,1.6,1,1.6c0.6,0,0.9-1.4,1.6-1.5c0.6,0,0.8,0.9,1.4,0.9c0.7,0,1.2-1.3,2.1-1.3c0.5,0,0.6,0.2,1.4,0.3
				c0.5-0.3-0.2-0.8,0.1-1.2c0.9-0.7,3-0.2,4.2-0.6c0.3-0.4-0.4-0.7-0.1-1.1c1-0.7,2.7-0.8,4.5-1.1c1.1-0.2,2.1-0.9,2.9-1
				c0.9-0.1,1.7,0.5,2.5,0.5c0.5,0,1-0.2,1.5-0.3c0.5-0.2,0.8-0.6,1.2-0.7c0.7-0.2,1.6,0.1,2.5,0c0.9-0.1,1.7-0.4,2.3-0.3
				c0.6,0.1,1.1,0.7,1.6,0.8c1.7,0.3,3.5-0.3,5.1,0.2c0.3,0.1,0.6,0.4,0.9,0.5c1.1,0.4,1.8,0.3,2,1.6c0.8,0.3,1.3,1.1,2.3,1.3
				c0.7,0.2,1.3-0.1,2.1-0.1c1,0,2.2,0,3,0.2c0.5,0.1,0.9,0.4,1.3,0.5c0.3,0.1,0.8,0,1.2,0c0.5,0,1,0.3,1.4,0.2
				c0.9,0,1.5-0.8,2.2-0.9c0.4-0.1,0.9,0.1,1.2,0.2c1.4,0.1,3-0.2,4.1,0.1c0.6,0.1,1.6,0.8,2.3,1.3c0.5,0.4,0.8,1,1.2,1.2
				c0.4,0.3,1.5,0.7,2,0.7c0.5-0.1,0.5-0.7,1.1-0.9c1.6-0.4,4.5,0.5,5.9-0.1c0.5-0.2,0.4-0.8,0.8-1.1c2.5-0.1,4.9,0.1,7.3,0.2
				c0.8,0,1.7-0.2,2.4-0.1c0.8,0.1,1.4,1,2.2,1.2c0.5,0.2,1.5,0.1,2.3,0.2c0.5,0.1,1,0.4,1.4,0.5c0.9,0.1,1.7-0.1,2.6-0.2
				c1.9-0.2,4.3-0.3,6.2,0.5c1,0.4,1.4,1.2,2.5,1.3c1.5,0.2,3.9-0.1,5.4,0c0.4,0,0.7,0.2,1,0.2c0.5,0,0.8-0.5,1.5-0.5
				c0.8,0,2.1,1.3,3.3,1.1c0.5-0.3-0.4-0.8,0.1-1.2c0.5-0.4,1.1,0,1.8,0c0.4,0,0.9-0.2,1.2-0.2c0.9,0.1,1.8,0.9,2.9,1.2
				c0.9,0.2,2.1,0.3,3.2,0.2c0.8-0.1,1.5-0.4,2.2-0.2c0.4,0.1,0.7,0.3,1.1,0.4c0.4,0.1,0.7,0,1,0.1c0.3,0.1,0.5,0.3,0.8,0.4
				c1.5,0.4,3.6,0.7,5.2,1.2c1,0.3,1.9,0.9,2.7,0.9c0.4,0,0.7-0.2,1.2-0.2c2.5,0,5.4,1.1,5.2,3.4c-2.9,0.6-5.4-2-8.4-1.2
				c-0.5,0.1-1,0.7-1,1.2c0.1,1.4,3.7,1.3,4,2.7c-0.6,0.4-1.2,0-1.7,0.1c-0.7,0.1-2,0.9-2.5,1.3c-0.6,0.5-1,1.9-1.6,2
				c-0.7,0.1-1.9-0.7-3-0.5c-0.4,0.1-0.8,0.6-1.2,0.7c-0.9,0.2-2.1-0.5-2.6,0.6c0.3,0.8,0.1,1.8,0.7,2.2c0.4,0.3,0.9,0.1,1.4,0.2
				c0.6,0.2,0.9,0.9,1.4,1.3c0.4,0.3,0.8,0.3,1.1,0.7c0.1,0.6-0.2,0.7-0.2,1.1c0.1,0.7,1.2,0.8,1.2,1.3c0,0.6-0.7,0.5-0.8,1.1
				c-0.1,0.4,0.4,0.5,0.5,1c0,0.3-0.3,0.7-0.2,1.1c0,0.5,0.5,0.9,0.4,1.4c0,0.4-0.4,0.7-0.7,0.9c-1.6-1-3-2.4-4.7-3.7
				c-1.7-1.3-4.5-3-4.8-5.8c0-0.4,0.9-0.8,1.1-1.4c0.1-0.3-0.1-0.6-0.1-1c0.1-1,0.9-1.9,0.8-2.5c0-0.6-1.2-1.8-1.8-2
				c-0.5,0.3,0,0.8-0.1,1.2c-0.1,0.5-0.7,1.1-1.2,1.2c-1.6,0.1-1.7-2-4.2-1.4c-0.6,0.2-1.5,1.1-1.3,2.3c0.1,0.4,1.1,0.7,1,1.2
				c-0.1,0.5-2.2,0.6-2.7,0.6c-1.3-0.1-2-1.1-3.2-1.1c-0.6,0-1.1,0.5-1.6,0.6c-2.6,0.5-6.5-1.3-7.3,1c-0.1,0.3-0.1,0.7-0.2,1.1
				c-0.2,0.5-0.5,0.9-0.7,1.2c-0.1,0.3-0.1,0.8-0.2,1.2c-0.1,0.4-1.7,1.8-0.3,2.1c0.3,0.1,0.5-0.1,0.9-0.1c0.7,0.1,1.9,1.2,2.7,1.2
				c0.5,0,1.2-0.6,1.6-0.6c0.8,0,1.3,0.5,1.9,0.7c0.6,0.3,1.4,0.8,1.8,0.8c0.8,0,0.4-0.6,1.2-0.8c1.4,0.4,2.1,1.9,3.5,3.1
				c0.5,0.4,1.2,0.8,1.9,1.4c0.4,0.3,1.5,1.2,1.6,1.6c0,0.4-0.3,0.6-0.4,0.9c-0.1,0.5,0.2,0.9-0.2,1.2c-1.3-0.5-1.6-1.8-2.6-2.9
				c-0.3-0.4-0.7-0.9-1.2-1.5c-0.2-0.3-1.1-1.2-1.7-1c-1,0.4,0.6,2,0.8,2.3c0.5,0.7,1.3,1.7,1.3,2.5c0,0.5-0.3,1.4-0.3,2.2
				c0,0.6,0.1,1.1,0.1,1.6c-0.1,0.5-0.4,1-0.6,1.6c-0.2,0.6-0.2,1.3-0.4,1.7c-0.3,0.7-1.4,1.6-2.1,1.6c-0.7,0-1-0.5-1.6-0.5
				c-1,0-1.2,1-1.8,1.7c0.1,0.8,0.3,1.1,0.2,1.6c-0.2,0.9-1.4,1-1.4,1.9c0,0.8,1.1,1,1.6,1.3c0.7,0.5,2,1.6,2.7,2.5
				c0.5,0.6,1.1,1.7,1.1,2.3c-0.1,0.8-2.4,2-3.4,1.6c-0.9-0.3-0.6-1.2-0.8-2c-0.2-0.6-0.7-0.9-0.9-1.4c-0.1-0.3-0.1-0.7-0.3-1
				c-0.5-0.8-1.4-0.4-2.4-0.9c-0.7-0.3-0.5-1.1-0.7-1.7c-0.4-0.9-1.8-1.3-3-1.1c-0.9,0.2-1.2,0.9-2,1.1c-1.2-0.7,0.2-2.5-1.2-2.6
				c-1.1-0.1-1.9,1.6-2.6,2.1c-0.4,0.3-1.3,0.4-1.3,0.9c-0.1,0.9,1,0.7,1.8,1.1c0.8,0.3,0.9,1.2,1.6,1.2c0.6,0,1-0.6,1.6-0.7
				c1-0.1,1.8,0.4,2.5,0.7c-0.4,1-2.6,1.7-2.6,3.1c0,0.8,0.9,0.9,1.6,1.4c0.6,0.4,1.3,1.6,2.1,2.5c0.3,0.4,0.9,0.6,1.1,0.8
				c0.4,0.5,0.3,1.2,0.7,1.6c0.1,0.5-0.2,0.6-0.2,1c0.2,0.6,1.1,0.5,1.3,1.1c-0.2,1.4,0.4,2.8-0.7,3.3c-0.5,2.6-1.1,4.5-2.9,5.9
				c-1.6,1.2-3.6,1.6-5.5,2.2c-0.5,0.2-0.9,0.7-1.3,0.8c-1.1,0.4-3.1,0.1-3.1,1.5c0,0.7,0.8,1.1,0.9,1.7c0.1,1-0.8,2.1-1.5,2.1
				c-0.5,0.1-1.5-0.3-1.6-1.2c-0.1-1,1.2-1.4,1.3-2c0.2-1-0.9-2.1-2.1-2c-1.1,0.1-3.6,2.3-3.6,3.5c0,0.9,1.8,2.8,2.4,3.3
				c2.3,2,4.8,3.3,4.4,8.2c-0.6,1.3-2.1,1.5-3.2,2.2c-0.9,0.5-1.3,2.2-2.8,2.3c-0.6-0.2-0.2-1.1-0.4-1.6c-0.2-0.6-1.4-0.9-2.1-1.5
				c-0.6-0.5-0.9-1.3-1.3-1.7c-0.6-0.6-1.4-0.7-2.1-1.1c-0.4-0.2-0.8-1.1-1.2-1.1c-0.7,0-0.5,0.7-0.7,1.9c-0.2,1.1-1,2-0.7,3.4
				c0.1,0.6,0.8,1,1.2,1.6c0.6,0.9,0.7,2,1.2,2.6c0.4,0.4,1,0.4,1.5,0.7c0.9,0.6,2.4,2,2.7,2.7c0.4,0.9,0,1.9,0.2,2.8
				c0.3,1.1,1.7,1.8,0.8,2.9c-0.8-0.1-1.5-0.7-2.1-1.1c-1.1-0.7-1.7-1.3-2.4-2.5c-0.2-0.3-0.5-0.7-0.7-1c-0.3-0.7-0.2-1.6-0.5-2.5
				c-0.2-0.8-1.1-2-1.8-2.6c-0.6-0.5-1.6-0.9-1.6-1.6c-0.1-1.1,0.4-2.4,0.3-3.7c0-0.3-0.2-0.6-0.2-0.9c-0.1-0.6,0.1-1.4-0.1-2
				c-0.1-0.5-0.5-1-0.7-1.5c-0.2-0.5-0.4-1-0.7-1.6c-0.3-1-0.7-2.8-1.5-2.9c-0.8-0.1-1.6,1.5-2.7,1.6c-0.6,0-1.3-0.4-1.4-1
				c-0.1-0.5,0.3-1,0.2-1.6c0-1.1-0.8-1.5-1.4-2.3c-0.2-0.3-0.3-0.8-0.5-1c-0.4-0.4-1.1-0.7-1.6-1.2c-0.5-0.4-0.9-1.1-1.2-1.5
				c-0.3-0.6-0.4-1.5-0.9-1.6c-0.5-0.1-1,0.6-1.5,0.7c-0.5,0.2-1.7,0.4-2.2,0.4c-1.7,0.1-3-0.3-2.8,1.6c-0.3,0.9-1.2,0.9-1.8,1.3
				c-0.8,0.5-1.4,1.6-2.2,2.5c-0.4,0.4-1,0.7-1.4,1.1c-0.3,0.3-0.4,0.8-0.7,1.2c-0.9,0.8-2.2,0.9-2.8,2.1c0,1.4,0.6,2.4,0.5,3.7
				c-0.1,0.6-0.5,1.1-0.6,1.7c-0.1,0.5,0.2,1.1,0.1,1.6c-0.1,0.3-0.4,0.5-0.7,0.8c-0.2,0.3-0.3,0.8-0.5,1c-0.3,0.4-0.7,0.6-1,0.9
				c-0.4,0.5-0.5,0.8-0.9,0.9c-1.8,0.3-2.3-3.2-3-4.6c-0.4-0.7-1.1-1.3-1.5-2.1c-0.4-0.9-0.6-2.1-1.2-3.1c-0.5-0.9-1.2-1.8-1.6-2.7
				c-0.3-0.8-0.5-1.8-0.8-2.6c-0.3-0.9-0.6-2.1-0.7-2.8c-0.1-1.1,0.2-1.7-0.7-2.1c-0.8,0.2-1.1,1-2.1,1c-0.9,0-3.2-1.5-2.6-2.9
				c-0.6-0.8-2-1.3-3.1-2.2c-0.6-0.6-1.2-1.9-2.3-2c-0.3,0-0.7,0.1-1,0.2c-0.7,0.1-1.9-0.1-2.7,0c-1,0.1-2.2,0.3-3.5,0.2
				c-0.8-0.1-1.8-0.2-2.6-0.3c-1.1-0.1-2.5-0.4-3-0.9c-0.4-0.3-0.5-1.4-1.2-1.6c-0.8-0.2-1.2,0.4-1.9,0.6c-1.5,0.3-2.8-0.3-3.8-1
				c-0.7-0.5-1.4-0.7-1.9-1.1c-1.3-0.8-1.5-3.4-3.4-3.4c-0.7,0-1.7,0.4-1.8,1.2c-0.1,0.5,0.6,1.5,0.9,1.9c0.9,1.3,2.6,1.8,3.1,3.5
				c0.3,0.1,1-0.3,1.4,0.1c0.3,0.8,0,2.1,0.7,2.5c3.4,0.6,4.4-1.3,5.9-2.6c0.9,0.6,0.6,1.1,0.9,1.7c0.3,0.7,0.8,1.2,1.4,1.4
				c0.4,0.2,0.9,0,1.6,0.2c0.4,0.1,2,1.7,2.1,2.2c0,0.5-1.1,2.1-1.4,2.6c-0.3,0.4-0.8,0.6-1,1c-0.1,0.3-0.1,0.9-0.2,1.1
				c-0.2,0.3-0.9,0.8-1.3,1.2c-0.4,0.4-1,0.7-1.4,1.1c-0.5,0.4-0.8,0.9-1.4,1.2c-1.1,0.4-2.1,0.2-3,0.8c-0.6,0.4-0.6,1.3-1.3,1.7
				c-0.8,0.5-2,0.5-3.1,1c-0.7,0.3-1.1,0.9-1.7,1.2c-0.2,0.1-0.6,0-0.8,0.1c-0.5,0.1-1.1,0.5-1.6,0.7c-0.4,0.1-0.8,0.1-1.2,0.2
				c-1.3,0.4-2.4,1.7-3.7,0.9c-0.6-1.4-0.7-3.1-1.4-4.4c-0.4-0.6-1.1-0.8-1.3-1.5c0-0.5,0.6-0.4,0.7-0.8c-0.2-0.9-1.1-1.3-1.6-2.1
				c-0.3-0.4-0.4-0.9-0.7-1.3c-1-1.4-2.9-2.2-3.3-4c-0.1-0.5,0-0.9-0.1-1.2c-0.2-0.6-0.6-1.3-1-1.7c-0.3-0.4-1-0.6-1.3-1.2
				c-0.2-0.4-0.3-0.9-0.5-1.2c-0.8-1.5-2-2.9-3.3-4c-0.7,0.1-1.4,0.1-1.7,0.6c0.3,1.1,0.8,2,1.4,2.9c0.5,0.8,1.2,1.7,1.6,2.6
				c0.1,0.3,0.1,0.8,0.2,1.2c0.5,1.3,2.1,1.7,2.5,3.2c0.2,1,0,1.7,0.2,2.7c0.3,1,1.7,1.5,2.3,2.5c0.5,0.8,0.5,1.8,0.8,2.6
				c0.5,1.1,1.9,1.5,2.9,2.2c0.9,0.6,1.6,1.6,2.3,2.3c0.4,0.4,1,0.5,1.2,0.9c0.1,0.6-0.2,0.7-0.3,1.2c0.6,0.7,1.2,1.9,2.3,2
				c0.4,0,1-0.4,1.6-0.5c0.3,0,0.7,0.1,1,0c0.4-0.1,0.8-0.5,1.3-0.6c0.8-0.2,1.8-0.1,2.9-0.2c1-0.1,1.7-1,2.5-0.7
				c0.8,0.9,0.2,2,0,2.9c-0.1,0.3-0.1,0.6-0.2,0.9c-0.4,1.5-1.6,2.6-2.1,3.9c-0.2,0.4-0.1,0.9-0.3,1.3c-0.6,1.3-1.9,2.6-2.9,3.7
				c-0.6,0.6-1.1,1.2-1.6,1.6c-0.6,0.5-1.3,0.8-2,1.2c-1.3,1-2.7,2.4-3.6,3.6c-0.4,0.5-0.5,1.1-0.9,1.5c-0.5,0.6-1.4,0.9-1.8,1.5
				c-0.4,0.5-0.6,1.3-1,2.1c-0.5,0.9-1.4,1.6-1.2,2.9c0.1,0.5,0.5,0.8,0.7,1.3c0.3,0.9,0.1,1.6-0.1,2.6c0.5,1.1,0.8,2.4,1.6,3.1
				c0.1,1.7-0.1,3.3,0,4.7c0.1,0.9,0.4,1.6,0.1,2.4c-0.3,0.7-1.5,2-2.2,2.5c-0.8,0.5-2,0.6-2.8,1.2c-0.6,0.4-1.1,1.2-1.6,1.7
				c-1,0.8-2.3,1.6-2.4,2.4c0,0.5,0.4,1.2,0.5,1.6c0.3,1.2,0.6,3,0.1,4.3c-0.6,1.4-3.6,1.1-4,2.6c-0.1,0.5,0.2,0.8,0.2,1.3
				c0,0.4-0.6,1.9-0.8,2.4c-0.4,0.7-1.2,1-1.7,1.6c-0.7,0.7-1,1.8-1.7,2.6c-1,1-2.3,2.1-3.5,3.1c-1.1,0.8-3.1,1.6-4.8,1.7
				c-1,0.1-2.1-0.2-3.1-0.1c-0.4,0.1-0.8,0.4-1.3,0.5c-0.3,0-0.6-0.1-0.9,0c-0.5,0.1-1,0.5-1.5,0.5c-1.1,0-2.4-1.3-2.5-2.6
				c0-0.5,0.4-1,0.4-1.4c0-0.5-0.7-1.2-1.2-2.1c-0.5-0.9-0.7-2-1.2-2.7c-0.5-0.8-1.2-1.2-1.6-1.8c-0.8-1.3-0.8-2.8-1.1-4.3
				c-0.1-0.5-0.4-1-0.5-1.6c-0.1-0.8,0.1-1.6-0.1-2.2c-0.1-0.5-0.7-1-1-1.6c-0.6-1.1-1-2.5-1.5-3.3c-0.5-0.8-1.4-1.6-1.5-2.5
				c-0.1-0.6,0.1-1.7,0.2-2.3c0.1-0.6,0.5-1,0.7-1.6c0.1-0.4,0-0.9,0.1-1.3c0.4-1.9,2.5-2.6,2.2-4.9c-0.1-1-0.8-1.5-0.9-2.6
				c0-0.5,0.3-1,0.2-1.5c0-0.7-0.6-1.7-0.9-2.4c-0.8-1.8-1.3-3.5-2.6-4.9c-0.7-0.8-1.5-1.3-2.1-2c-0.4-0.6-1-1.6-1-2.1
				c0-0.5,0.4-0.8,0.5-1.2c0.2-0.6,0.2-1.8,0.4-2.7c0.1-0.4,0.6-1.5,0.5-2.2c-0.1-0.7-1.1-2-2-2.2c-1.2-0.3-2.3,0.4-3.8,0.2
				C189,256,189.1,253.9,187.2,253.6z M232.8,283.1c0.4-0.6,0.9-2.3,0-2.7c-0.1,0-0.1,0-0.2,0C232.3,281.1,231.9,282.8,232.8,283.1z
				 M231.7,265.9c0.3-0.6,0.9-1.2,0.8-1.9c-0.2-1.6-3.2-0.8-3.5,0.3c-0.2,0.8,0.1,1.4-0.2,2.1c0.3,0.6,1.1,0.7,2.1,0.7
				C231.5,266.9,231.4,266.4,231.7,265.9z M226.7,274.4c0.3-0.6-0.5-1-0.7-1.7c-0.2-0.8,0.2-1.7-0.5-2.1c-0.1,0-0.2,0-0.2,0
				C224.7,272,225.5,274.3,226.7,274.4z M282.9,192.5c-0.3-0.6-1.2,0.2-0.8,0.7C282.6,193.3,282.8,193,282.9,192.5z M263.7,195.9
				c1.3-0.3,0-2.4-1-2.1C261.4,194.1,262.8,196.1,263.7,195.9z M257.6,206.5c0.4-2.9-1.8-3.1-2.2-5.1c0.2,0,0.1-0.2,0.2-0.2
				c0.5-0.3,1.4,0.4,1.6-0.2c0-1-1.2-1.7-2.5-1.2c-0.4-0.2-0.4-0.8-0.5-1.3c-0.9-0.6-3.2-1.8-3.2-2.9c0-0.9,1.2-1.4,2.6-1.4
				c0.6-0.4,0.2-1.8-0.3-2.1c-2.1-0.5-3.3-0.2-4.6,0.8c-0.6,0.5-1.4,0.8-1.7,1.1c-0.3,0.3-0.8,1-0.7,1.3c0.1,0.5,0.8,0.8,1.1,1.5
				c0.1,0.3,0.1,0.8,0.2,1.1c0.4,0.8,1.3,1.3,2,2c0.5,0.5,1.9,1.5,1.9,2.1c0,0.5-0.4,0.6-0.6,1.1c-0.2,0.5-0.3,1.6-0.2,2.1
				c0.2,0.9,1.1,0.9,2,1.3c0.9,0.4,1.7,1,2.6,1.1C256,207.4,257,207.1,257.6,206.5z M238.2,200.6c2.2-0.4,1.2-2.3,0.1-3
				c-0.9-0.5-1.9-1-2.9-1.6c-0.6-0.4-2.8-1-2.8-1.7c0-0.8,1.6-1,1-2.4c-1.1-0.3-3.8,0.2-3.6,1.4c0.1,0.7,1,0.3,1.2,1.1
				c-0.8,0.3-1.8,1-2.6,0.9c-1-0.2-1.3-1.4-1.8-2.1c-0.8,0-1.3-0.8-2.2-0.7c-1,0.1-1.5,1.5-2,2.2c-0.3,0.4-0.7,0.6-0.8,0.9
				c-0.1,0.2,0,0.5-0.1,0.8c-0.3,0.9-1.1,1.3-1,2.1c0.1,0.7,0.9,1,0.9,1.6c-0.1,0.6-1.1,0.3-1,1.1c1.5,1.2,1.6-0.6,2.3-0.8
				c0.6-0.2,1.8,0.2,2.6,0c0.6-0.1,1.1-0.7,1.8-1c0.4-0.2,1-0.3,1.6-0.3c2.6-0.1,4.3,1.6,6.6,1.6
				C236.1,200.8,237.4,200.8,238.2,200.6z M232.9,210.3c0-0.9-0.3-1.6-0.4-2.8c-1.5-0.9-2.7,0.9-4.2,0.7c-0.9-0.1-1.6-1.2-2.6-1.1
				c-0.6,0.1-0.8,0.8-1.4,0.9c-1.2,0.2-1.7-0.9-3-0.5c-1.8-1.3-2.6-3.5-3-6c-1-1.3-2.4-0.2-3.1,0.6c-0.4,0-1-0.2-1.1,0.2
				c-0.3,1.5,2.2,1.7,2.1,2.7c0,0.7-1,0.6-1.4,1.1c-0.5,0.5-0.2,0.9-0.7,1.2c-1.6,0.2-2.2-0.7-2.1-2.1c-0.7-1.1-1.6-1.8-2.2-2.7
				c-0.2-0.3-0.6-0.8-0.7-1.3c-0.1-0.4,0.2-0.9,0.1-1.3c-0.2-0.8-1.6-1.4-2.6-1.8c-1-0.5-2.2-0.9-2.9-1.5c-0.5-0.4-0.7-1.1-1.2-1.4
				c-0.4-0.2-0.8-0.2-1.2-0.4c-0.5-0.3-0.4-0.8-1-1c-0.3-0.1-0.8,0.3-1,0.6c-0.4,1.8,1.1,1.9,1.7,2.7c0.5,0.5,0.7,1.4,1.2,1.7
				c0.5,0.4,1.2,0.3,1.8,0.6c0.4,0.2,0.7,0.7,1.2,1c0.8,0.5,2.1,0.6,2.1,1.5c-0.5,0.3-1.6-0.5-2,0.3c-0.1,0.5,0.4,0.8,0.4,1.3
				c0,0.8-0.9,1.7-1.7,1.6c-0.1-0.5,0.4-0.9,0.4-1.4c0-1-2.1-2.7-3.2-3.1c-0.5-0.2-1.1-0.2-1.6-0.5c-0.8-0.5-2.2-1.6-2.7-2.2
				c-0.6-0.8-1.1-2.2-2.4-2.1c-0.5,0-1,0.5-1.4,0.7c-0.4,0.2-0.8,0.4-1.2,0.7c-0.5,0.3-0.9,0.6-1.3,0.7c-1,0-1.9-0.8-2.8-0.6
				c-0.3,0.1-0.5,0.3-0.9,0.7c0,0.5,0.1,0.8,0.1,1.3c-0.3,0.5-1.1,0.4-1.6,0.7c-0.9,0.4-1.6,1.4-2.3,2.1c-0.4,0.4-0.9,0.8-0.9,1.2
				c0,0.3,0.2,0.8,0.2,1.2c-0.1,0.4-0.8,1.2-1.3,1.6c-0.3,0.2-0.7,0.2-1,0.4c-0.6,0.4-0.9,0.9-1.5,1c-1.4,0.3-4.1-0.3-4,1.2
				c0,1,1.4,1,2.2,1c1.2,0,2.2,0.2,2.8,0.1c0.4-0.1,0.9-0.6,1.4-0.8c0.3-0.1,0.6-0.1,0.8-0.2c0.5-0.2,0.8-0.6,1.2-0.8
				c0.8-0.3,2.2-0.6,3-0.7c1.1-0.1,2.3,0.1,3.7,0c0.5,0,1-0.4,1.6-0.4c0.9-0.1,2.1,0.4,2.8,0.3c0.5,0,1.1-0.5,1.6-0.5
				c0.7,0,1.4,0.5,1.5,0.9c0.1,0.2-0.1,0.6-0.1,1c0.1,0.6,0.6,0.8,0.6,1.2c0,0.5-1.3,1.2-1.2,1.8c0.1,0.4,1,0.8,1.5,1.1
				c0.5,0.3,1.3,0.7,1.8,0.7c0.5,0.1,0.9-0.1,1.3-0.1c0.7,0.1,1.9,0.5,2.3,0.8c0.8,0.5,0.7,1.4,1.6,1.7c0.4,0.1,1.1,0.1,1.6,0.2
				c1.2,0.3,2.1,1.3,3,1.2c1.4-0.2,0.8-1.5,0.9-2.4c0.4-2.1,4.5-2,5.3-0.6c0.6,0.2,1.1,0,1.8,0.2c0.4,0.1,0.7,0.6,1.1,0.7
				c0.3,0.1,0.7,0,1.1,0c1.6,0.2,3,1.4,4.4,1.2c0.9-0.1,1.5-0.9,2.3-1c1.6-0.1,2.6,1.2,4.3,0.6c1.3-0.4,1-1.7,1.4-3.1
				C232.3,211.7,232.9,211,232.9,210.3z M321.8,182.2c0.3-1-0.2-2.1-0.8-2.8c-1,0.2-0.3,1.2-0.3,1.7c-0.1,0.8-1,1.4-0.9,2.2
				c-0.3,0.4-0.9,0.5-0.9,1.2c0.5,0.4,0.8-0.3,1.2-0.7C320.6,183.3,321.6,182.9,321.8,182.2z M300.2,153.6c-0.9,0-1.2,0.4-1.8,0.7
				c-0.3,0.2-0.9,0.3-0.7,0.7C298.4,154.9,300,154.6,300.2,153.6z M265.4,163.8c1.9,0.5,2.8-1.7,1.6-3c-0.3-0.3-1.3-0.4-1.7-1.1
				c-0.5-0.8-0.4-1.9-1.7-1.6c0,0.1,0,0.2-0.1,0.2c-0.1,1.8,2.5,2.3,2.5,3.7C266,162.8,265.2,162.9,265.4,163.8z"/>
			<path d="M238.3,160.6c-0.2-0.9,1.5-0.7,1.2,0.1C239.2,161,238.5,160.9,238.3,160.6z"/>
			<path d="M228.1,209.9c0-0.7,1.6-0.9,1.9-0.3C229.9,210.3,228.5,210.7,228.1,209.9z"/>
			<path d="M199.9,205.5c0.9-0.7,2.8-0.2,4-0.2c-0.2,0.6-0.3,1.4-0.7,1.8C201.7,206.8,200.5,206.5,199.9,205.5z"/>
			<path d="M193.8,201.1c1.1-1.2,2.3-0.6,1.9,1.7c-0.3,0.7-1.4,1.6-2,0.6C193.9,202.6,193.9,202,193.8,201.1z"/>
			<path d="M195.5,198.5c0.1,0.7-0.2,1-0.6,1.2C193.8,199.5,194.7,197.6,195.5,198.5z"/>
			<path d="M179.5,181.7c0.1-0.5-0.3-1.1-0.7-1.3c-0.3-0.2-0.7-0.1-1-0.2c-0.8-0.4-1.1-1.4-1.6-1.6c0.1-0.9-0.2-1.6,0-2.1
				c0.1-0.4,1.2-1.4,1.8-1.6c0.7-0.3,1.5,0,1.9-0.6c0.2,0,0.3,0,0.4,0.1c0,0.5-0.4,0.6-0.5,1.1c0.1,0.7,1.4,0.3,1.6,1
				c-0.1,0.8-0.8,0.9-0.8,1.5c0,0.5,1,1.4,1.5,2.1c0.4,0.5,1,0.8,1.3,1.3c0.3,0.4,0.3,0.9,0.6,1.2c0.4,0.4,1.4,0.5,1.5,1.1
				c0.1,0.8-1,1.1-0.8,2c-1.1,0.9-3,0.4-4.9,0.7c-0.8,0.1-1.8,0.9-2.6,0.2c-0.2-0.6,0.7-0.6,0.8-1.2c-0.1-0.5-0.7-0.4-0.8-0.8
				c0.2-0.6,1-0.8,0.9-1.7C178.5,182.2,179.4,182.4,179.5,181.7z"/>
			<path d="M173.3,179.8c1.1-0.7,3-0.2,3.1,0.7c0.1,0.6-0.6,0.7-0.8,1.4c-0.2,0.6,0,1.4-0.2,1.8c-0.3,0.4-0.9,0.4-1.4,0.5
				c-1,0.3-3,1.5-3.9,0.2c0.1-0.7,0.8-0.9,1.1-1.5c0-0.5-0.5-0.7-0.4-1.2c0.1-0.6,0.6-0.4,1.2-0.7
				C172.5,180.7,172.7,180.1,173.3,179.8z"/>
			<path d="M117,161.9c0.2,0.7-2.2,1.7-2.4,0.7C114.4,161.8,116.4,160.9,117,161.9z"/>
			<path d="M114.3,347.7c-0.4,0-0.8,0-1.2,0C113.3,347.6,114.1,347.6,114.3,347.7z"/>
			<path d="M110.6,156c0.1-0.1,0.4-0.1,0.5,0c-0.1,0.2-0.1,0.4-0.5,0.3C110.6,156.2,110.6,156.1,110.6,156z"/>
			<path d="M103.2,169.1c0,0.5-1.6,1.2-1.8,0.3c0-0.2,0-0.5,0.3-0.7C102.2,168.5,103.2,168.7,103.2,169.1z"/>
			<path d="M68.9,245.7c0,0.1-0.1,0.2-0.2,0.3C67.9,246,68.7,244.9,68.9,245.7z"/>
			<path d="M35.5,188.1c0.6-0.3,1.1,0.5,0.7,0.9C35.6,189.1,35.4,188.4,35.5,188.1z"/>
			<path d="M125.3,191.1c-0.4-0.1-0.9-0.1-1.4-0.2c-0.4-0.1-0.9-0.2-1.3-0.2c-1-0.1-2.1,0.2-2.7-0.4c1-1.3,2.3-2.6,3.5-3.7
				c0.4-0.3,1.2-0.6,1-1.2c-0.7-0.6-1.6,0-2.2,0.4c-0.7,0.4-1.5,1-2.3,1.1c-1.4,0.2-3.2-0.4-4.3,0.3c-0.2,0.6,1.3,0.4,1.1,1.3
				c-0.5,0.1-1.1,0.1-1.5-0.2c-0.4-0.3-0.2-0.9-0.4-1.1c-0.4-0.3-2-0.4-2.7-0.3c-0.9,0.1-1.6,0.7-1.7,1.4c1,0.5,2.8-0.5,3.1,0.7
				c-0.6,1-1.9,1.6-1.7,3c0.1,0.5,0.7,1.2,1.2,1.3c0.5,0.1,0.7-0.4,1.2-0.3c0.5,0,0.4,0.6,0.9,0.5c0.8-0.3,1.2-1.5,2.1-1.4
				c1.1,1.3-1,2-2.1,2.4c-1.3,0.5-3,0.7-4,1.2c-0.5,0.2-2.5,2.1-2.8,0.7c-0.2-1.1,1-0.8,1.2-1.6c-1.3-0.2-2.5,0.5-3.6,1
				c-1.7,0.6-4.5,1-4.9,2.9c-0.1,0.4,0.2,1.1-0.1,1.3c-0.2,0.2-1.4,0.2-1.9,0.4c-0.8,0.3-1.5,0.9-2,1c-0.4,0.1-0.9,0.1-1.2,0.2
				c-0.7,0.3-0.9,1.1-1.6,1.7c-0.3,0.2-1,0.4-1.2,0.7c-0.4,0.4-0.5,1.5-1.2,1.6c-0.5,0-0.9-0.4-1.3-0.1c-0.1,1.1,0.4,2.5-0.1,3.5
				c-1,0.8-2,1.4-3.3,2.1c-0.7,0.4-1.3,0.5-2.1,0.9c-0.6,0.3-1.1,1-1.8,1.4c-1.6,0.9-3.5,2-3.5,4.4c0,0.5,0.3,1.1,0.3,1.6
				c0,0.3,0,0.7,0,1.1c0.1,0.9,0.7,2,0,2.6c-1.1-0.5-2.5-0.6-3.3-1.4c-0.2-0.8,0.4-1.5,0.3-2.2c-0.1-0.6-0.9-1.7-1.4-1.7
				c-0.5-0.1-1,0.5-1.5,0.4c-0.6,0-1.2-0.9-2-1c-1.2-0.1-2,0.3-3.3,0.1c-1.2,0.7-1.6,1.8-3.1,1.7c-0.5,0-1-0.4-1.6-0.6
				c-0.7-0.1-1.7-0.4-2.4-0.3c-1.4,0.1-2.4,1.1-3.6,1.7c-1.1,0.6-2.6,1.2-2.9,2.4c-0.2,0.6,0,1.5-0.2,2.1c-0.1,0.4-0.5,0.7-0.7,1.1
				c-0.9,1.7-1.7,3.9-1,6.4c0.1,0.4,1,2.4,1.4,2.8c0.4,0.5,1.7,1.1,2.4,1.2c0.6,0,1.3-0.3,1.9-0.4c0.7-0.1,1.5-0.1,2.1-0.3
				c1.8-0.6,1.4-3,3.2-3.8c0.8-0.4,1.7-0.4,3.1-0.5c0.4,0.4,0.6,1,0.6,1.6c0,0.4-0.4,0.8-0.7,1.4c-0.2,0.5-0.2,1.1-0.4,1.6
				c-0.2,0.6-0.8,1-1,1.5c-0.1,0.3-0.1,0.8-0.2,1.1c-0.2,0.5-0.9,0.9-0.6,1.5c1.8,0.7,3.9-0.2,5.4,0.1c0.6,0.1,2,0.9,2,1.9
				c0,0.7-0.6,1.2-0.7,2.1c-0.1,1-0.5,2.3-0.6,3.1c-0.1,1.4,2,3.7,3.5,3.7c1.6,0,2.5-1.6,4.4-0.7c0.6,0.3,1.3,1.3,2,1.2
				c0.6,0,1.4-1,1.8-1.7c0.5-0.8,0.5-1.6,1.3-2c0.9-0.5,1.6-0.2,2.7-0.7c0.5-0.2,0.9-0.5,1.4-0.8c0.4-0.3,0.8-1,1.3-0.5
				c0.7,0.7-0.8,1-0.2,1.7c1.1,0.6,1.7-1.1,2.6-1.2c0.3,0,1.2,0.5,1.6,0.8c0.6,0.4,0.9,1,1.6,1.2c0.5,0.1,1.2-0.2,1.8-0.1
				c0.8,0.1,1.3,0.8,2,0.8c0.8,0,1.1-0.9,1.8-1c1.5-0.3,2,0.2,2.6,1.1c0.7,0.1,0.7-0.8,1.4-0.5c-0.4,0.7,0.1,1,0.4,1.6
				c0.2,0.4,0.2,0.7,0.3,0.8c0.4,0.4,1.2,0.4,1.7,0.7c0.6,0.4,1,1.1,1.6,1.9c0.7,0.8,1.9,1.7,2.9,1.7c0.9,0.1,1.6-0.3,2.4-0.2
				c1.7,0.2,2.8,1.1,4,2c0.7,0.5,1.3,0.9,1.5,1.5c0.2,0.4,0.1,1,0.2,1.5c0.4,1,1.9,1.5,1.3,3.3c0.2,0.5,0.8,0.7,1.4,1.1
				c0.5,0.3,0.9,0.9,1.4,1c0.3,0.1,0.7-0.1,1-0.1c0.9,0.1,1.6,0.4,2.4,0.7c0.5,0.2,1.1,0.3,1.5,0.5c0.4,0.3,0.5,1.2,1,1.5
				c0.3,0.2,1.1-0.1,1.6,0c0.9,0.1,2.1,0.6,2.9,0.7c0.5,0,0.9-0.2,1.3-0.2c2,0.2,3.2,2.6,5.1,3.3c0.6,0.2,1.6,0.1,2,0.2
				c0.7,0.3,1.3,2.6,1.4,3.5c0.2,3-2.1,4-3.5,5.9c-0.3,0.4-0.4,1.1-0.8,1.6c-0.8,1.2-1.7,1.4-1.6,3.5c0,0.6,0.3,1.2,0.3,1.8
				c0,0.8-0.1,1.8-0.2,2.6c-0.1,0.5-0.6,1-0.7,1.5c-0.1,0.5,0.1,0.9,0.1,1.3c-0.1,0.5-0.5,1.1-0.9,1.8c-0.8,1.4-0.9,3.1-2.5,3.6
				c-0.9,0.3-2.1,0.1-3.1,0.5c-0.4,0.1-0.9,0.5-1.4,0.7c-1.4,0.7-3.5,1.6-3.9,3.1c-0.4,1.3,0.5,2.4,0.2,3.9c-0.3,0.4-0.6,0.9-1,1.4
				c-0.4,0.5-0.5,1-0.9,1.5c-0.5,0.6-1.3,0.9-1.6,1.7c-0.1,0.3,0,0.6-0.2,1.1c0,0.2-0.4,0.4-0.5,0.7c-0.1,0.3-0.1,0.7-0.2,0.9
				c-0.4,0.8-1.5,2.5-2.3,2.7c-1.7,0.5-3.5-0.7-4.7-0.5c0.2,0.8,0.8,0.7,1.2,1.3c0.2,0.3,0.3,0.8,0.7,1.2c0.4,0.4,0.7,0.6,0.7,1.1
				c0.1,1-0.7,2-1.2,2.4c-0.5,0.3-1.5,0.5-2.4,0.7c-0.6,0.1-2.2,0.1-2.5,0.5c-0.4,0.6,0.2,2-0.1,2.6c-0.6,1.2-2.3,0-3.1,0.3
				c-0.1,0.6,0.2,1.3,0.7,1.6c0.5,0.3,1.3-0.1,1.6,0.5c-0.2,0.8-1.1,0.9-1.2,1.7c0,0.8,0.3,1,0.2,1.5c-0.2,1.1-1.9,1-1.8,2.1
				c0.1,1.7,3.2,1,3.3,2.6c0,1-0.9,1-1.2,2c-0.2,0.5,0.1,0.6,0,1.1c-0.1,0.6-0.8,0.8-0.8,1.4c0,0.8,1.2,1.7,1.7,2.3
				c0.6,0.6,1.3,1.6,2.1,2c1.2,0.6,2.9,0.5,3.4,1.6c-0.2,0.7-0.8,0.9-1.5,1.1c-0.1,0-0.1,0-0.2,0c-0.2-0.1-1-0.1-1.2,0
				c-0.4,0-0.8,0-1.2,0c-1.1-0.5-2.4-0.8-3.8-1.3c-0.5-0.2-1-0.6-1.6-0.8c-0.4-0.2-0.8-0.3-1.2-0.4c-0.7-0.4-1.5-1.6-2.2-2.1
				c-0.4-0.3-1.1-0.4-1.4-0.7c-0.3-0.3-0.4-0.9-0.7-1.2c-0.3-0.4-0.8-0.7-1.1-1.1c-0.7-0.9-1.6-2.1-1.6-2.8c0-0.7,0.6-1.1,0.4-1.7
				c-0.2-0.6-1.5-0.5-1.6-1.2c-0.1-0.4,0.4-1.1,0.3-1.7c0-0.3-0.7-0.8-0.4-1.3c0.3-0.6,0.9,0,1.3-0.2c-0.3-1.2,0-3.1-1.2-3.5
				c-0.6,0.5,0.6,1.7-0.4,2c-1-0.4-0.8-1.8-1-2.7c-0.1-0.6-0.5-1.2-0.5-1.9c0-0.4,0.1-0.8,0.1-1.2c-0.2-1.1-1.4-2-1.5-3.1
				c0-0.5,0.3-1,0.4-1.6c0.1-0.4-0.1-0.8,0-1.2c0.1-0.5,0.4-1,0.4-1.5c0.1-0.9,0-2.5-0.2-3.2c-0.2-1-1-1.8-1.1-2.8
				c0-0.4,0.1-1,0.1-1.5c0-0.4-0.3-0.9-0.3-1.4c0-0.5,0.1-0.9,0.2-1.5c0.1-1-0.2-2.2-0.2-3.2c0-0.3,0.2-0.5,0.2-0.8
				c0-0.9-0.3-1.7-0.3-2.6c-0.1-1.6,0.2-2.7-0.1-4.1c-0.2-1.1-0.4-2.8-0.8-3.5c-0.4-0.8-2.2-2.1-3.1-2.6c-0.6-0.3-1.3-0.4-1.9-0.7
				c-1.3-0.7-3.9-2.1-4.5-3.4c-0.2-0.4-0.1-0.9-0.3-1.3c-0.4-0.8-1.1-1.6-1.6-2.4c-1-1.6-1.8-3.5-2.9-5.1c-0.5-0.8-1-1.7-1.6-2.4
				c-0.3-0.4-1.4-0.7-1.6-1.3c-0.2-0.8-0.7-1.8-0.7-2.4c0.1-0.8,1.7-1.4,1.6-2.1c0-0.6-0.8-1-1-1.5c-0.4-1.3,0.2-2,0.7-3.1
				c0.2-0.3,0.3-0.9,0.5-1.2c0.3-0.5,0.9-0.6,1.3-1.1c0.2-0.3,0.4-0.8,0.7-1.2c0.6-0.8,1.6-1.1,1.9-1.9c0.2-0.6,0.3-3.7,0.1-4.7
				c-0.1-0.6-0.7-1.1-0.9-1.6c-0.4-1-0.5-2.1-1.5-2.1c-0.6,0-1.1,0.7-1.5,1.2c-0.1,0.6,0,1.2-0.7,1.4c-0.9,0.3-1.3-1-2.4-1.3
				c-0.4-0.1-1.1-0.1-1.4-0.2c-0.8-0.4-1.1-1.5-1.9-2c-0.7-0.4-1.3-0.2-1.7-0.8c-0.2-0.4,0-1.1-0.1-1.6c-0.9-0.5-1.7-2.5-2.7-3
				c-0.7-0.3-1.8-0.3-2.6-0.6c-0.4-0.1-0.7-0.3-1.2-0.4c-0.5-0.1-1.1-0.1-1.5-0.3c-1.6-0.8-2.5-3.4-4.5-3.4c-0.9,0-1.7,0.8-2.5,0.8
				c-0.8,0-2.1-0.6-3.1-1.1c-1-0.5-2.1-0.7-3-1.2c-0.7-0.3-1.1-1-1.7-1.2c-0.5-0.2-1.1-0.2-1.5-0.4c-0.5-0.2-1.1-0.8-1.7-1.2
				c-0.6-0.4-1.3-1.1-1.3-1.6c0-0.6,0.6-1.2,0.7-1.8c0.2-2-1.2-3.4-2.1-4.5c-0.7-0.9-1.5-1.6-2.1-2.4c0-0.5,0-0.6,0-1.2
				c-0.5-0.5-0.9-1.2-1.5-2c-0.5-0.7-1.4-1.4-1.6-2.1c-0.2-0.9,0.4-1.7,0-2.6c-0.6-1.5-2.7-0.8-2.4,1.2c0.1,0.5,0.8,1.3,1.1,1.8
				c0.2,0.5,0.2,1.2,0.4,1.9c0.2,0.6,0.9,1.2,1.1,1.9c0.3,1.1,0.3,2.3,0.7,3.1c0.3,0.6,1.3,1.2,0.7,2c-0.8,0.2-1.1-0.6-1.6-1.1
				c-0.3-0.3-1.3-0.7-1.4-1.3c-0.1-0.5,0.3-1.1,0.2-1.7c-0.3-1.2-2.6-1.2-2.6-2.4c0-0.8,1-0.8,1-1.6c0-0.8-1.1-1.5-1.3-2.1
				c-0.2-0.6-0.2-1.6-0.3-2.5c-0.1-0.8,0-1.8-0.2-2.4c-0.2-0.6-1-1.3-1.6-1.6c-0.7-0.4-1.3-0.2-1.6-0.8c-0.3-0.5-0.5-1.6-0.6-2.1
				c-0.1-1,0-2.1-0.1-3.1c-0.1-1.1-0.2-2.1,0-3.2c0.4-0.8,1.2-1.2,1.6-2c0.3-0.5,0.3-1.2,0.7-1.8c0.6-1.1,1.9-2.1,2.8-3.1
				c1-1.1,1.8-2.2,2.4-3.5c0.2-0.5,0.7-1.5,0.7-2.1c-0.1-0.8-1.6-1.4-1.5-2.4c0.1-0.6,0.9-0.6,1.2-1.2c0.1-0.3,0.2-1.1,0.2-1.5
				c0-0.8-0.4-1.6-0.2-2.5c0.1-0.7,1.2-1,0.7-1.8c-0.5-0.8-1.5,0.4-2.1-0.1c-0.6-0.5,0.1-1,0.2-1.9c0-0.3-0.2-0.7-0.2-1
				c0-0.4,0.8-1,0.6-1.2c-0.4-0.6-0.9-2-1.9-2.5c-1.2-0.6-2.5-0.2-4.2-0.5c-1-0.2-1.5-1.1-2.5-1.1c-0.6,0-0.9,0.7-1.7,1.1
				c-0.8,0.3-1.8,0.2-2.6,0.4c-0.8,0.2-1.2,0.7-2,0.7c-0.7-0.1-0.7-0.7-1.5-0.7c-0.3,0-0.9,0.2-1.4,0.2c-1.3,0.1-3.6,0.2-4.9-0.1
				c-1.2-0.3-1.9-0.6-3.2-1.2c-1-0.5-2.8-1-2.7-1.7c0-0.5,1.7-1,2.4-1.2c1.1-0.3,1.7-0.9,2.6-0.9c0.3,0,0.7,0.2,1.2,0.2
				c0.4,0,0.9-0.4,1.5-0.5c1.2-0.2,2.8,0.1,2.6-1.1c-0.9-0.7-4.4,0.5-4.5-1c-0.1-0.9,1.4-1.2,2.4-1.4c0.9-0.2,2.4-0.5,3.2-0.5
				c0.9,0,2.2,1.1,2.7-0.1c0.3-0.8-0.3-1.5-0.5-2.2c0.7-1,2-0.8,3-1c1.1-0.2,2-0.4,3.1-0.8c1-0.4,2-0.7,3.1-0.8
				c1.1-0.1,2.2-0.6,3.2-0.7c0.8-0.1,1.6,0,2.4-0.2c0.7-0.1,1.5-0.5,2.2-0.5c0.5,0,1,0.4,1.5,0.5c0.5,0.1,1,0,1.6,0.1
				c0.4,0.1,0.8,0.4,1.2,0.4c0.6,0.1,1.3-0.1,1.9,0c0.6,0.1,1,0.4,1.6,0.5c1.3,0.2,2.7-0.1,4,0.2c0.5,0.1,0.9,0.3,1.4,0.4
				c0.5,0.1,1,0,1.5,0.1c0.7,0.1,1.2,0.8,1.9,0.8c1.3,0.1,2.7-0.6,4-0.7c1-0.1,2,0,3-0.2c0.9-0.2,1.8-0.5,2.6-0.6
				c0.4,0,0.8,0.1,1.2,0.1c0.4-0.1,0.9-0.6,1.4-0.5c0.6,0.1,0.5,0.9,1.2,1.1c0.7-0.4,1.4,0,2.2,0c0.8,0,1.5-0.4,2.3-0.2
				c1.5,0.2,3.6,1.7,4.8,0.9c0.3-0.2,0.2-0.5,0.5-1.1c0.4-0.7,1.1-1.5,0.9-2.6c-1.7,0-3.2,0.8-5.1,0.9c-1.9-1.2,0.5-1.9,1.9-2.5
				c1.1-0.4,2.1-1.4,3.5-1.6c1.2-0.2,2.4,0.3,3.8,0.4c0.8,0.1,1.6-0.1,2.1,0.1c0.8,0.2,1.2,1,1.9,1.2c0.3,0.1,0.8,0.1,1.2,0.2
				c0.7,0.2,1.4,0.6,2.1,0c0.6,0.1,0.6,0.7,1.2,0.8c0.5-0.3,1-1,1.8-1.2c0.4-0.1,0.8,0.1,1.2,0c0.7-0.1,1.6-1,2-0.2
				c-0.2,0.6-1.1,0.7-1.6,1.2c-0.4,0.4-1.1,1.4-1.1,1.8c0.1,0.8,1.3,0.5,1.3,1.5c-0.2,0.6-0.8,0.3-1.4,0.6c-0.5,0.2-0.7,0.7-1.2,0.8
				c-1.5,0.3-2.7-0.4-4-0.3c-0.1,0.6,0.6,0.9,1,1.1c1.2,0.6,2.1,0.5,3.8,0.5c0.8,0,1.8,0.3,2.6-0.2c0.5-0.3,0.4-1,0.8-1.4
				c0.5-0.5,1.5-0.9,2.2-0.8c0.4,0.1,0.9,0.5,0.9,0.8c0,0.7-1.1,0.5-1.1,1.3c0.7,0.4,2.5-0.5,2.6-1.2c0.1-0.5-0.6-0.8-0.6-1.3
				c0-0.9,1.2-0.8,1.1-1.7c-0.6-0.4-1.2,0.1-1.7,0c-0.8-0.1-1.5-1.1-1.9-1.7c0.4-0.4,1.1-0.1,1.6-0.1c0.6-0.8,1.7-1.2,3.3-1.3
				c0.6-0.1,1.3-0.3,1.6,0.2c0.1,0.8-1.2,1.2-0.9,2.1c1.1,0.3,1.5-1.2,2.4-1.8c0.4-0.3,1-0.4,1.6-0.7c0.5-0.2,1.1-0.7,1.5-0.7
				c0.5,0,0.5,0.4,1,0.6c0.4,0.2,0.9-0.1,1.1,0.4c-1,1.7-4.5,0.7-5.4,2.4c0.2,1.1-0.6,2.2,0.1,3c0.5,0.5,1.5,0.2,1.7,0.7
				c0.3,0.8-1,0.8-0.7,1.6c0.9,0.5,1.9-0.5,2.7-0.9c0.9-0.4,2-1,2.1-2c-0.4-0.8-2.1-0.2-2.3-1.1c-0.1-0.5,0.5-1.6,0.7-1.7
				c0.9-1,3.9-2.3,6-2.1c0.4,0,0.8,0.3,1.2,0.3c1.4,0.1,3.1-0.6,4.2,0c0.9-0.5,2,0.1,3.2-0.1c1,0.6,0.7,1.8,2.1,2.3
				c0.4,0.1,0.9,0,1.4,0.2c0.4,0.1,0.8,0.5,1.2,0.7c0.6,0.3,1.1,0.2,1.2,0.7c0.1,0.4-0.5,0.7-0.4,1.2c0.4,0.3,0.1,0.7,0.2,1.2
				c0.4,0.8,1.3,0.7,2.1,1.1c0.6,0.3,2,1,1.9,1.6c0,0.4-1.3,1.1-1.6,1.3c-0.3,0.1-1.7,0.8-2.1,0.7c-0.8-0.1-1.1-1.7-2.1-1.6
				c-0.5,0-0.9,0.3-0.9,0.9c0,1.1,1.2,1.1,1.2,2.1c0,1.1-0.6,1.2-1.6,1.9c-0.7-0.3-1.3-0.7-2.1-0.7c-0.5,0.6,0.9,0.9,0.4,1.6
				c-1.3,0.3-2.3-0.4-3.5-0.7c-0.4-0.1-0.9-0.1-1.2-0.2c-0.5-0.3-0.6-1.1-1-1.5c-0.4-0.5-1.3-1.2-2.1-1.2c-1,0-2.5,1.3-3.3,0.1
				c0.6-1.9,3.2-0.5,4.9-1.2c0.6-0.2,0.9-0.9,1.4-1.2c1.1-0.6,2.8-0.7,2.6-1.9c-0.1-0.6-0.9-0.6-1.4-0.9c-0.6-0.4-1.1-1.9-2.1-2
				c-0.5,0-0.8,0.4-1.3,0.4c-1.1,0.1-2.3-0.4-3.2,0c-0.4,0.3-0.1,0.7-0.5,1.2c-0.3,0.4-1,0.5-1.2,0.9c-0.3,0.5-0.3,1-0.7,1.4
				c-0.7,0.6-2.1,0.7-3,1c-0.4,0.1-0.9,0.6-1.2,0.6c-0.7,0-1-0.9-1.7-0.6c-0.1,0.9,0.9,1.2,1.6,1.6c0.7,0.4,1.4,0.9,1.6,1.6
				c-0.7,1.4-1.7-0.1-2.8-0.1c-1.2,0-2.9,2.2-3.9,0.4c0.2-1,1.3-1.1,1.6-2.1c-1.2,0.2-2.2,1.2-3.5,1.5c-0.6,0.1-1.1,0.1-1.6,0.2
				c-1,0.3-1.7,1-2.7,1.4c-0.4,0.2-0.9,0.1-1.3,0.2c-1,0.3-2.2,0.9-3.2,1.5c-1,0.6-2.2,1.2-2.9,1.7c-0.4,0.3-1.3,1.4-1.2,1.7
				c0,0.5,1,0.7,1,1.2c0,0.3-0.5,1-0.2,1.4c0.3,0.4,1,0.1,1.7,0.2c1.3,0.2,2.1,1.2,3.1,1.7c0.7,0.4,1.8,0.9,2.6,1
				c1.1,0.1,2.4-0.3,2.6,0.6c0.2,0.9-1.1,1.2-1.2,1.7c0.6,0.8-0.4,1.2-0.4,1.9c0,0.6,0.7,1.4,1.3,1.5c0.8,0.1,2-0.8,2.4-1.6
				c0.4-1,0.2-2.3,1-3.1c3.8,0.1,7.1-1.7,6.8-5.7c0-0.4-0.2-0.9-0.2-1.3c0.1-0.6,1.2-1.2,1.1-2c1.1-0.3,1-2.1,2.1-2.3
				c0.9-0.2,2,0.7,3.2,0.6c0.4,0,0.9-0.4,1.3-0.3c0.8,0.1,1.3,1.1,1.9,1.6c0.5,0.4,1.1,0.3,1.2,0.8c-0.2,0.9-0.8,0.9-0.7,1.8
				c0.1,0.8,0.8,1.3,1.2,1.4c0.6,0.1,1.5-0.2,2.1-0.5c1.1-0.5,2-2.1,3-1.9c0.7,0.2,1.3,2.5,1.4,3.3c0.1,0.9-0.1,1.6-0.1,2.4
				c0.1,1.4,1.9,1.2,2.7,2c0.3,0.2,0.4,0.8,0.6,1.1c0.4,0.6,0.9,0.6,1,1.2c0.2,1.4-1.3,1.5-1.2,3.1c-0.3,0.6-1,0.6-1,1.4
				c0.1,1.3,2,0.3,2.5,1.3c0.3,0.5,0,1-0.2,1.7c0.6,0.8,0.6,2-0.5,2C126.2,192,126,191.3,125.3,191.1z M36.2,189
				c0.4-0.4-0.2-1.2-0.7-0.9C35.4,188.4,35.6,189.1,36.2,189z M93.8,196.5c-0.3-0.3-1.5-0.2-2.2-0.2c-0.5,0.1-1.2,0.2-1.2,0.6
				C91.1,197.3,93.5,197.6,93.8,196.5z M89.5,195.1c0.6-0.5,0.4-1.6-0.3-1.7c-0.3-0.1-0.6,0.2-1.1,0.2c-0.5,0-0.9-0.5-1.3-0.5
				c-0.7-0.1-1.3,0.3-1.6,0.6c0,0.5,0.4,0.6,0.3,1.1c-0.8,0.6-0.4,2.5,0.4,2.6c0.8,0.1,1.3-2.1,2.4-2.3
				C88.7,194.9,88.9,195.2,89.5,195.1z M88.3,198.4c-1.2-0.4-2.3,0.3-3.2,0.4c-0.6,0.1-1.6-0.1-1.5,0.7c0.1,0.7,1.2,0.4,1.8,0.2
				C86.7,199.4,87.5,199,88.3,198.4z M84.7,192.1c1.6-0.7-0.3-2.9-1.1-3.1c-1.3-0.3-3.2,1-4.8,1.4c-0.9,0.2-1.7,0.3-1.9,1
				c0.8,1.3,2.3-0.3,3.5-0.1c0.6,0.1,0.9,0.9,1.5,1C82.3,192.4,84.5,192.2,84.7,192.1z M83.5,193.4c-0.3-0.4-2.2,0-2.7,0.4
				c-0.4,0.3-0.6,0.9-1,1.3c-0.4,0.5-0.8,0.8-1.2,1.2c-0.3,0.4-2,2.8-0.7,3.1c0.6,0.1,1.7-1,1.8-1.5c0.4-1.5,1.1-2.6,2.2-3.3
				C82.7,194.3,83.4,194.3,83.5,193.4z M73.2,184.2c0.9,0,1.5-2.8,0-2.4C72.2,182.1,71.9,184.3,73.2,184.2z M68.8,246
				c0-0.1,0.1-0.2,0.2-0.3C68.7,244.9,67.9,246,68.8,246z M33.9,177c0-0.2-0.1-0.2-0.1-0.3c-0.3,0-0.5,0-0.5,0.2
				C33.4,177.2,33.8,177.2,33.9,177z M120.5,164.1c0.4,0,0.6-0.1,0.6-0.5C120.8,163.3,120.2,163.7,120.5,164.1z M111.1,156
				c-0.1-0.1-0.4-0.1-0.5,0c0,0.1,0,0.2,0,0.3C110.9,156.4,111,156.2,111.1,156z M79.7,162.4c0.3-0.2,0.7-0.4,0.5-0.8
				c-0.9-0.4-2.4-0.1-3.8-0.2c-0.8-1.1-2-1.2-2.1,0.5C75.8,163,78.2,161.2,79.7,162.4z M65,170.9c0.5-0.2,1.1-0.1,1.2-0.6
				c-0.4-0.3-0.8-0.7-1.2-0.7c-0.6,0-0.9,0.5-1.5,0.8c-0.7,0.4-1.7,0.5-1.7,1.1C63,171.7,64.2,171.1,65,170.9z M64.6,164.9
				c0.5-0.1,1.1,0.1,1.4-0.3c-0.4-1.8-2.9-0.7-4.4-0.6c-0.3,0.5-0.7,0.9-0.8,1.6C61.9,165.9,63.3,165.1,64.6,164.9z M89.3,249.2
				c0.7-0.1,0.5-1.6-0.3-1.2C88.4,248.2,88.7,249.3,89.3,249.2z"/>
			<path d="M33.8,176.7c0,0.1,0.1,0.2,0.1,0.3c-0.1,0.2-0.5,0.2-0.6-0.1C33.3,176.7,33.6,176.7,33.8,176.7z"/>
			<path d="M31.3,181.6c-0.2,0.5-0.7,0.8-1.2,1c-0.2-0.1-0.3-0.3-0.4-0.4C29.8,181.4,30.9,180.8,31.3,181.6z"/>
		</g>
		<g>
			<g>
				<g>
					<g>
						<linearGradient id="SVGID_3_" gradientUnits="userSpaceOnUse" x1="114.415" y1="349.2498" x2="351.8152" y2="111.8496">
							<stop  offset="0" style="stop-color:#EBEBEB"/>
							<stop  offset="1" style="stop-color:#FFFFFF"/>
						</linearGradient>
						<path class="st2" d="M433.1,318.5c0.5,0,1.2-0.5,1.6-0.1c-0.3,0.7-0.8,1.4-1.6,1.7c-0.3,0.2-0.8,0.1-1.2,0.2
							c-0.7,0.3-1,1-1.6,1.5c-0.6,0.5-1.3,0.9-1.9,1.2c-0.6,0.4-1.4,1.1-2.1,0.6c0.1-1,1.1-1,1.3-1.7c0-0.6-0.5-0.6-0.5-1.2
							c1.1-1,2.9-1.7,3.2-3.8c0.1-0.9-0.6-2.9,0.5-3c1.3-0.1,0.6,1.3,0.7,2.1c0,0.3,0.3,0.5,0.5,0.9
							C432.3,317.7,432.3,318.3,433.1,318.5z"/>
						<linearGradient id="SVGID_4_" gradientUnits="userSpaceOnUse" x1="114.415" y1="349.2498" x2="351.8152" y2="111.8496">
							<stop  offset="0" style="stop-color:#EBEBEB"/>
							<stop  offset="1" style="stop-color:#FFFFFF"/>
						</linearGradient>
						<path class="st3" d="M425.1,323.5c-0.5,1.4-2.5,2.1-3.8,3c-0.4,0.3-0.7,0.9-1.2,1.1c-0.6,0.3-1.4,0.2-2.1,0.5
							c-1.1,0.5-1.9,1.5-2.9,2.1c-1,0.6-2.4,1.5-3.5,1.6c-1.2,0.1-3.5-0.7-2-1.8c0.6-0.5,2-1.1,2.7-1.4c2.3-1.2,5.6-2,7.6-3.4
							c1.1-0.8,2.1-1.6,3.1-2.3C423.6,322.5,424.5,323.4,425.1,323.5z"/>
						<linearGradient id="SVGID_5_" gradientUnits="userSpaceOnUse" x1="114.415" y1="349.2498" x2="351.8152" y2="111.8496">
							<stop  offset="0" style="stop-color:#EBEBEB"/>
							<stop  offset="1" style="stop-color:#FFFFFF"/>
						</linearGradient>
						<path class="st4" d="M410.8,268.3c0.3-0.1,0.3,0.1,0.4,0.2c-0.1,1.2-0.8,1.9-2.3,1.8c-0.7-0.1-1.8-0.6-1.9-0.9
							C406.9,268.2,410.1,268.9,410.8,268.3z"/>
						<linearGradient id="SVGID_6_" gradientUnits="userSpaceOnUse" x1="114.415" y1="349.2498" x2="351.8152" y2="111.8496">
							<stop  offset="0" style="stop-color:#EBEBEB"/>
							<stop  offset="1" style="stop-color:#FFFFFF"/>
						</linearGradient>
						<path class="st5" d="M406.8,273.9c0.6,0.2,3.2,2,2.4,2.9c-0.5,0.5-1.1-0.2-1.8-0.4c-1-0.2-1.8,0-2.5-0.5c-0.8-0.6-1-2-1.8-2.7
							c-0.4-0.4-1.5-0.9-2.3-0.8c-1.3,0.1-1.3,1.6-2.5,2.3c-1.1-0.1-1.8,0.2-2.6-0.1c-0.9-0.3-1.3-1.5-2.1-1.6
							c-0.8-0.1-2.8,1.3-3.1,0.1c-0.3-1,1.4-1.4,1.5-2.1c0.1-0.7-0.6-1.8-1-2.1c-0.3-0.3-0.8-0.3-1.2-0.6c-0.4-0.3-0.7-0.7-1.2-1
							c-1.7-0.9-4.4-0.5-5-2c-0.1-0.3,0.1-0.5-0.1-0.9c-0.2-0.5-0.8-0.6-1.1-1c-0.6-1-0.2-2.5,0.8-2.6c0.9-0.1,2.7,1,2.9,1.7
							c0.1,0.4-0.1,0.7,0,1.2c0.1,0.5,0.8,1.7,1.5,1.7c0.9,0.1,1.4-1.2,2.1-1.7c0.5-0.3,1.4-0.7,2.1-0.7c0.7,0.1,1.2,0.6,2,0.9
							c0.6,0.2,1.3,0.3,2,0.5c0.6,0.2,1.1,0.5,1.7,0.7c2,0.7,4.3,1.1,5.4,2.4c0.3,0.3,0.3,0.9,0.7,1.2c0.3,0.4,2.3,0.7,2.3,1.5
							c0,0.6-0.8,0.6-0.8,1.2C404.8,272.6,406.5,272.6,406.8,273.9z"/>
						<linearGradient id="SVGID_7_" gradientUnits="userSpaceOnUse" x1="114.415" y1="349.2498" x2="351.8152" y2="111.8496">
							<stop  offset="0" style="stop-color:#EBEBEB"/>
							<stop  offset="1" style="stop-color:#FFFFFF"/>
						</linearGradient>
						<path class="st6" d="M389.4,323.3c-0.2,1-1,2.2-2.1,2.9c-0.7,0.5-3.1,1.6-3.4,0.1c-0.1-0.4,0.5-2.3,0.7-2.7
							c0.6-1.2,1.2-0.4,2.1-0.2C387.7,323.5,388.6,322.7,389.4,323.3z"/>
						<linearGradient id="SVGID_8_" gradientUnits="userSpaceOnUse" x1="114.415" y1="349.2498" x2="351.8152" y2="111.8496">
							<stop  offset="0" style="stop-color:#EBEBEB"/>
							<stop  offset="1" style="stop-color:#FFFFFF"/>
						</linearGradient>
						<path class="st7" d="M383,203.4c0.3,1,0.6,2,0.8,2.9c-0.9,1.1-2.7,0.7-4,1.3c-0.6,0.3-0.8,1.3-1.4,1.5
							c-0.5,0.1-0.9-0.4-1.3-0.4c-1.2,0-1.8,2-3.2,1.5c-0.8,0.5,0,2.4-1,2.6c-0.7,0.1-1.1-0.8-1.6-1.4c-0.5-0.7-1.3-1.1-1.3-1.6
							c0-0.6,1.2-1.6,1.6-2c0.5-0.5,1.4-1.4,2-1.6c1.1-0.2,2.2,0.1,3.1-0.2c0.7-0.3,0.8-1.4,1.2-1.7c0.3-0.2,0.7-0.2,1-0.3
							c0.8-0.4,1.6-1.8,1.2-3.3c-0.3-0.9-1.8-1.9-0.8-3.1c1.5,0.2,3.4,1.6,3.6,3.1c0.1,0.6-0.2,1.1-0.2,1.7
							C382.5,202.6,382.8,203,383,203.4z"/>
						<linearGradient id="SVGID_9_" gradientUnits="userSpaceOnUse" x1="114.415" y1="349.2498" x2="351.8152" y2="111.8496">
							<stop  offset="0" style="stop-color:#EBEBEB"/>
							<stop  offset="1" style="stop-color:#FFFFFF"/>
						</linearGradient>
						<path class="st8" d="M383.3,194.4c-0.2,0.4-0.6,0.3-0.9,0.6c-0.3,0.2-0.7,1-1.2,1.1c-0.7,0.1-1.4-0.6-2.1-0.5
							c-0.8,0.2-0.3,0.8-0.6,1.5c-0.7-0.1-1.8-0.9-1.8-1.6c0-0.5,0.6-0.8,0.7-1.3c0.2-0.9-0.4-1.4-0.7-2.3c0-0.1,0.1-0.1,0.1-0.2
							c0.8-0.2,2.4,1.3,4.2,1.6C382.3,193.4,383.2,193.3,383.3,194.4z"/>
						<linearGradient id="SVGID_10_" gradientUnits="userSpaceOnUse" x1="114.415" y1="349.2498" x2="351.8152" y2="111.8496">
							<stop  offset="0" style="stop-color:#EBEBEB"/>
							<stop  offset="1" style="stop-color:#FFFFFF"/>
						</linearGradient>
						<path class="st9" d="M380.3,278.1c0.1,0.7-1.1,0.6-1.2,0.2C379,277.8,380.1,277.6,380.3,278.1z"/>
						<linearGradient id="SVGID_11_" gradientUnits="userSpaceOnUse" x1="114.415" y1="349.2498" x2="351.8152" y2="111.8496">
							<stop  offset="0" style="stop-color:#EBEBEB"/>
							<stop  offset="1" style="stop-color:#FFFFFF"/>
						</linearGradient>
						<path class="st10" d="M374.5,187.5c0.8,0.4,2.8,1.4,1.4,2.3C375,189.5,374.2,188.4,374.5,187.5z"/>
						<linearGradient id="SVGID_12_" gradientUnits="userSpaceOnUse" x1="114.415" y1="349.2498" x2="351.8152" y2="111.8496">
							<stop  offset="0" style="stop-color:#EBEBEB"/>
							<stop  offset="1" style="stop-color:#FFFFFF"/>
						</linearGradient>
						<path class="st11" d="M370.7,274.5c0.9-0.5,2-1.6,3.6-1.1c-0.4,1-1.6,1-2.4,1.5c-0.8,0.5-1.5,1.3-2.5,1.4
							c-0.1-0.1-0.2-0.3-0.3-0.3C369.1,275.1,370,274.8,370.7,274.5z"/>
						<linearGradient id="SVGID_13_" gradientUnits="userSpaceOnUse" x1="114.415" y1="349.2498" x2="351.8152" y2="111.8496">
							<stop  offset="0" style="stop-color:#EBEBEB"/>
							<stop  offset="1" style="stop-color:#FFFFFF"/>
						</linearGradient>
						<path class="st12" d="M368.5,259c1,0,1.9-0.3,2.6,0.1c-0.1,2.1-3.3,0.5-5.4,0.8c-0.5,0.1-0.6,0.4-1.1,0.2
							c0-0.7,0.8-1.4,1.6-1.5C366.7,258.6,367.6,259,368.5,259z"/>
						<linearGradient id="SVGID_14_" gradientUnits="userSpaceOnUse" x1="114.415" y1="349.2498" x2="351.8152" y2="111.8496">
							<stop  offset="0" style="stop-color:#EBEBEB"/>
							<stop  offset="1" style="stop-color:#FFFFFF"/>
						</linearGradient>
						<path class="st13" d="M369.3,261.5c0.1,1.1-1.5,1.3-1.9,2.1c0.7,1,1,2.5,1.7,3.5c0,0.6,0.1,1.5-0.2,1.7
							c-1.7,0.3-2.6-2.7-3.2-3.7c-1.3,0.2-0.1,4.3-1.8,3.8c-0.8-0.2,0-1.4-0.2-2.3c-0.2-0.8-0.9-1-1-1.6c0-0.5,0.6-1,0.7-1.6
							c0.3-0.7,0.1-2.2,1-2.2c0.4,0,1,0.9,1.3,1C366.7,262.5,367.9,261.3,369.3,261.5z"/>
						<linearGradient id="SVGID_15_" gradientUnits="userSpaceOnUse" x1="114.415" y1="349.2498" x2="351.8152" y2="111.8496">
							<stop  offset="0" style="stop-color:#EBEBEB"/>
							<stop  offset="1" style="stop-color:#FFFFFF"/>
						</linearGradient>
						<path class="st14" d="M366.2,273.8c-0.3,0.6-2,0.3-2.1-0.2C364.4,272.9,366.1,273.1,366.2,273.8z"/>
						<linearGradient id="SVGID_16_" gradientUnits="userSpaceOnUse" x1="114.415" y1="349.2498" x2="351.8152" y2="111.8496">
							<stop  offset="0" style="stop-color:#EBEBEB"/>
							<stop  offset="1" style="stop-color:#FFFFFF"/>
						</linearGradient>
						<path class="st15" d="M364.7,275.8c-0.1,0.1-0.2,0.2-0.3,0.3c-0.6-0.2-1.3-0.4-1.5-1C363.3,274.5,364.6,275,364.7,275.8z"/>
						<linearGradient id="SVGID_17_" gradientUnits="userSpaceOnUse" x1="114.415" y1="349.2498" x2="351.8152" y2="111.8496">
							<stop  offset="0" style="stop-color:#EBEBEB"/>
							<stop  offset="1" style="stop-color:#FFFFFF"/>
						</linearGradient>
						<path class="st16" d="M362.4,273.8c-0.4,0.6-1.9,0-2.4,0.6c-0.9,0-1.7,0-1.9-0.7c0.2-0.6,1-0.2,1.6-0.2
							C360.8,273.2,362.2,272.6,362.4,273.8z"/>
						<linearGradient id="SVGID_18_" gradientUnits="userSpaceOnUse" x1="114.415" y1="349.2498" x2="351.8152" y2="111.8496">
							<stop  offset="0" style="stop-color:#EBEBEB"/>
							<stop  offset="1" style="stop-color:#FFFFFF"/>
						</linearGradient>
						<path class="st17" d="M350.8,305.3c0-0.7-0.5-1.4-0.6-2.1c0-0.3,0-0.6,0-1c-0.1-0.5-0.3-0.9-0.2-1.2c0.1-0.5,0.8-0.6,0.9-1.1
							c0.3-0.8-0.3-0.9-0.3-1.8c0-0.7,0.5-1,0.8-1.8c0.2-0.4,0.2-1.1,0.3-1.4c0.2-0.4,1.1-0.6,1.5-0.8c1.3-0.6,2.3-1.8,3.5-2
							c0.3-0.1,0.8,0,1,0c0.7-0.1,1.7-0.8,2.7-1c1-0.2,1.9-0.1,2.6-0.6c0.8-0.5,2-1.7,2.3-2.5c0.4-0.9,0.3-1.7,1-2
							c0.4-0.1,0.7,0,1.1-0.1c0.4-0.1,1.2-0.5,1.5-0.7c0.6-0.5,0.7-1.4,1.3-1.9c0.5-0.4,1.3-0.9,1.9-1.2c0.4-0.2,1-0.4,1.3-0.3
							c1.2,0.1,1.7,1.7,3,1.4c0.5-0.1,0.9-1.1,1.3-1.6c0.6-0.8,1-2,2.1-2.2c0.8-0.2,1.8,0.3,2.2-0.4c0.1-0.5-0.4-0.8,0-1.2
							c1,0.1,2.6,1.4,4,1.4c0.8,0,2.2-0.9,2.4,0.3c0.1,0.5-0.6,0.9-0.7,1.5c-0.1,0.4,0.2,0.6-0.1,1c-0.7,0.3-1.4,0.4-1.4,1.2
							c0,0.9,1.3,1.4,2.1,1.9c0.6,0.4,1,0.9,1.3,1.1c0.3,0.1,0.7,0.2,0.8,0.3c0.5,0.3,0.9,1.1,1.7,1.2c0.8,0,1.7-1,2.1-2.1
							c0.5-1.2,0.6-2.6,0.8-3.9c0.1-0.4,0.4-0.8,0.5-1.2c0.3-1.1,0.7-2.7,1.7-3.1c1,1,1.3,3.1,1.2,4.8c0.7,0.5,1.8,0.3,2,1.5
							c0.1,0.4-0.2,0.9-0.2,1.3c0.1,0.7,0.6,1.3,0.7,1.9c0.2,1.1-0.2,2,0.3,2.8c0.6,1,1.9,1,2.7,2.1c0,0.7,0.3,0.9,0.4,1.5
							c0.1,0.3,0,0.7,0.1,0.8c0.3,0.6,1,0.6,1.2,1.1c0.1,0.2,0.1,0.7,0.2,1.1c0.2,0.6,0.8,1.1,1.2,1.6c0.4,0.6,1,1.2,1.1,1.7
							c0.2,0.8-0.4,1.4-0.6,2.1c-0.2,0.8,0,1.9-0.3,2.7c-0.4,1-1.3,2-2.1,3.2c-0.6,1-1.4,2.2-2.3,2.9c-0.5,0.4-1.1,0.7-1.6,1.1
							c-0.8,0.6-1.4,1.5-2.1,2.2c-0.7,0.8-1.6,1.4-2.2,2.1c-0.8,1-1.3,2.6-2.7,2.7c-0.8,0.1-1.6,0-2.4,0.3c-1.2,0.5-2,1.4-2.6,1.4
							c-0.6,0-1.2-0.7-1.8-0.8c-0.7-0.1-1.2,0.5-2.1,0.5c-0.4,0-0.6-0.2-1.2-0.4c-1.2-0.4-2.5-0.4-2.6-1.6c-0.1-0.7,0.4-1,0.4-1.7
							c0-0.6-0.7-0.8-0.9-1.3c0.2-0.6,0.2-1.3-0.4-1.7c0-0.5,0.1-0.9,0.3-1.2c-0.5,0.2-1.1,0.3-1.7,0.7c-0.6,0.4-1,1.2-1.7,1.1
							c-0.7-0.2-0.2-0.9-0.2-1.4c-0.1-0.4-1-2.1-1.4-2.4c-0.5-0.3-2.2-1-2.8-1.1c-2.5-0.4-4.2,1-6.2,1.2c-0.5,0-1.1-0.1-1.6,0
							c-1.7,0.3-3.5,1.6-4.5,2.5c-1.7,0.2-3.4-0.3-5.2,0.2c-1.7,0.5-2.7,2-5.4,1.6c-0.5-0.5-1.5-0.7-1.5-1.5c0-0.6,0.9-1,1.2-1.5
							c0.3-0.5,0.9-1.6,0.9-2.3c0-0.5-0.4-1.2-0.3-1.9C350.5,306.4,350.8,305.9,350.8,305.3z"/>
						<linearGradient id="SVGID_19_" gradientUnits="userSpaceOnUse" x1="114.415" y1="349.2498" x2="351.8152" y2="111.8496">
							<stop  offset="0" style="stop-color:#EBEBEB"/>
							<stop  offset="1" style="stop-color:#FFFFFF"/>
						</linearGradient>
						<path class="st18" d="M349.4,270.9c0.4-0.1,0.8-0.4,1.2-0.4c1,0,1.9,0.7,3,0.6c0.2,0.3,0.1,0.5,0.1,0.9c1,0.5,2.5,0.4,3,1.4
							c-0.7,0.8-1.8,0.2-2.7,0.1c-0.8-0.1-1.7-0.1-2.6-0.2c-1.2-0.1-2.2-0.8-3.3-0.9c-0.7-0.1-1.4,0.1-2,0c-0.7-0.1-3.5-1.2-3.5-1.9
							c0-0.8,1.2-1,2.4-0.8C346.5,269.9,347.5,271.2,349.4,270.9z"/>
						<linearGradient id="SVGID_20_" gradientUnits="userSpaceOnUse" x1="114.415" y1="349.2498" x2="351.8152" y2="111.8496">
							<stop  offset="0" style="stop-color:#EBEBEB"/>
							<stop  offset="1" style="stop-color:#FFFFFF"/>
						</linearGradient>
						<path class="st19" d="M351.6,265.3c-0.6-0.2-1.2-0.1-1.5-0.2c-0.6-0.3-0.5-1.3-0.7-1.9c-0.2-0.6-0.9-0.9-1.2-1.6
							c-0.5-1.1-0.8-3.6,0.7-3.9c0.6-0.1,1.2,0.3,1.6,0.2c0.8-0.2,0.7-1.2,1.3-1.7c0.4-0.2,1-0.1,1.6-0.3c0.5-0.2,0.9-0.7,1.3-1.2
							c0.3-0.4,0.6-1.1,1.1-1.4c0.5-0.3,1-0.3,1.4-0.7c1.1-0.8,1.1-2,2-3c0.7-0.8,1.9,0.8,2,1.5c0.4,0.5,1.2,0.7,1.6,1.2
							c-0.5,1.5-1.9,1.6-1.6,3.6c0,0.3,0.3,1,0.5,1.4c0.2,0.5,0.9,1,0.9,1.3c-0.1,0.6-1.3,0.6-1.6,1.2c-0.3,0.6,0,0.6-0.1,1.6
							c-0.3,0.7-1.3,0.8-1.6,1.7c-0.3,1,0.1,2.2-0.7,3c-0.5,0-1.1,0.5-1.8,0.4c-0.7-0.1-1.4-1.1-2.6-1.1c-0.4,0-1,0.3-1.4,0.2
							C352.4,265.7,352.2,265.4,351.6,265.3z"/>
						<linearGradient id="SVGID_21_" gradientUnits="userSpaceOnUse" x1="114.415" y1="349.2498" x2="351.8152" y2="111.8496">
							<stop  offset="0" style="stop-color:#EBEBEB"/>
							<stop  offset="1" style="stop-color:#FFFFFF"/>
						</linearGradient>
						<path class="st20" d="M346.3,263.4c2.1,0,2.1,3.3,0,3.3C344.2,266.7,344.2,263.4,346.3,263.4z"/>
						<linearGradient id="SVGID_22_" gradientUnits="userSpaceOnUse" x1="114.415" y1="349.2498" x2="351.8152" y2="111.8496">
							<stop  offset="0" style="stop-color:#EBEBEB"/>
							<stop  offset="1" style="stop-color:#FFFFFF"/>
						</linearGradient>
						<path class="st21" d="M343.2,263c0.3,0,1.2,1.3,1.2,1.7c0,0.6-0.9,0.5-1.2,1.3c-0.4,1.2,0.2,2.5-0.5,3.1
							c-0.4,0.2-1.1,0.2-1.6,0.2c-1.5-1.1-2.7-2.3-4-3.7c-0.5-0.5-1-1-1.3-1.5c-0.4-0.8-0.6-1.7-1.1-2.4c-0.4-0.6-1.2-1.1-1.7-1.8
							c-0.3-0.6-0.4-1.3-0.7-1.9c-0.3-0.5-0.9-0.7-1.3-1.2c-0.3-0.3-0.4-0.7-0.7-1c-1-1.2-3-1.9-3.1-3.7c0.4-0.5,0.9,0.2,1.6,0.3
							c0.5,0.1,1.1,0,1.5,0.1c0.7,0.3,1.3,1.4,2.1,2.1c0.4,0.4,1,0.6,1.5,1c0.5,0.4,0.8,1,1.2,1.2c0.5,0.3,1.3,0.5,2,1
							c1,0.6,2.7,1.2,2.9,2.5c0.1,0.3-0.1,0.8-0.1,1.1c0.1,0.4,0.7,0.6,1,1c0.4,0.5,0.5,1.1,1.1,1.2
							C342.6,263.8,342.6,263,343.2,263z"/>
						<linearGradient id="SVGID_23_" gradientUnits="userSpaceOnUse" x1="114.415" y1="349.2498" x2="351.8152" y2="111.8496">
							<stop  offset="0" style="stop-color:#EBEBEB"/>
							<stop  offset="1" style="stop-color:#FFFFFF"/>
						</linearGradient>
						<path class="st22" d="M304.3,245.7c0.7,0.2,3.1,3.1,2.4,4.7c-0.2,0.5-1,1-1.8,0.9c-1.6-0.3-1.3-3.9-0.8-5.4
							C304.1,245.8,304.2,245.8,304.3,245.7z"/>
						<linearGradient id="SVGID_24_" gradientUnits="userSpaceOnUse" x1="114.415" y1="349.2498" x2="351.8152" y2="111.8496">
							<stop  offset="0" style="stop-color:#EBEBEB"/>
							<stop  offset="1" style="stop-color:#FFFFFF"/>
						</linearGradient>
						<path class="st23" d="M249.5,287.4c0.1-0.7,0.5-1.8,1.1-2.1c0.8-0.6,1.8-0.5,2.6-0.9c0.6-0.3,1.5-0.9,2-1.5
							c0.4-0.5,0.4-1.1,0.7-1.5c0.2-0.3,0.7-0.3,1-0.7c0.2-0.3,0.2-0.8,0.6-1.2c1.1-0.5,1.5,1.6,1.7,3c0.1,0.4,0.3,0.9,0.2,1.2
							c-0.1,0.7-0.8,0.8-1.1,1.2c-0.1,1.8-0.8,3.4-1.4,4.9c-0.5,1.3-0.9,2.7-1.3,3.8c-0.2,0.4-0.5,0.7-0.7,1.1
							c-0.6,1.4-0.8,3.6-1.9,4.2c-0.4,0.2-1.9,0.6-2.3,0.6c-1,0-1.9-0.8-2.1-1.6c-0.1-0.5,0-1-0.1-1.5c-0.1-0.7-0.5-1.2-0.4-2
							c0.2-1.7,1.8-2.5,1.9-3.9C250,289.5,249.4,288.5,249.5,287.4z"/>
						<linearGradient id="SVGID_25_" gradientUnits="userSpaceOnUse" x1="114.415" y1="349.2498" x2="351.8152" y2="111.8496">
							<stop  offset="0" style="stop-color:#EBEBEB"/>
							<stop  offset="1" style="stop-color:#FFFFFF"/>
						</linearGradient>
						<path class="st24" d="M209.8,170.1c0.1,1.4-2.1,1.2-2.4,2.4c-0.1,0.5,0.3,1.2,0.2,1.7c-0.2,0.9-1,0.6-2.1,1.1
							c-0.5,0.2-1.1,1.1-1.6,1.2c-0.5,0.1-0.9-0.3-1.2-0.2c-0.5,0.1-0.4,0.8-1.2,0.9c-0.6,0.1-1.7-0.6-1.8,0.2c0,0.5,1,0.8,1.6,0.7
							c0.5,0,0.9-0.4,1.4-0.4c1,0,1.6,0.7,2.2,0.7c1.4,0,2.8-1.3,4.3-1.2c0.7,0.1,1.1,0.5,1.6,0.5c0.8-0.1,1.5-1,2.1-1.3
							c-0.2-1.4,0-3.2,1.3-3.3c0.9-0.1,2.2,1.5,2.4,0c0.1-0.7-0.7-1.2-1.2-1.2c-0.5,0-1.1,0.9-1.5,0.2c0-0.8,0.8-0.6,1.3-0.7
							c0.3-0.1,0.6-0.5,1-0.7c2-0.7,4.7,0.7,5.4-1c-1.7-1.5-4.7,0.5-6.7,0.4c-0.8-0.1-2-0.7-2.2-1.5c-0.1-0.3,0-0.6-0.1-1.1
							c-0.1-0.5-0.3-1.1-0.3-1.4c0.1-1.5,3.8-1.8,3.8-3.6c-0.7-0.7-2.8-0.6-3.5,0.2c-0.2,0.3-0.2,0.8-0.6,1.3
							c-0.7,1.1-3.1,1.3-3.9,2.6c-0.2,0.3-0.5,1.1-0.3,1.6C208,169.1,209.7,169.3,209.8,170.1z M190.1,250.7
							c-2.4-0.3-4.8,0.6-6.4,1.3c-0.9,0.4-1.9,1-2.7,1.1c-0.8,0-1.6-0.4-2.3-0.5c-1-0.1-2.2,0-3.2,0.2c-0.9,0.2-1.8,0.8-2.6,0.9
							c-1.6,0.1-3.1-1.4-4.1-2.2c-0.6-0.5-1.2-0.9-1.8-1.3c-0.6-0.5-1.4-0.8-1.9-1.2c-0.6-0.6-0.6-1.7-1-2.6c-0.4-1-1.6-1.7-2.6-2.6
							c-0.7-0.7-2.3-1.7-2.5-2.6c-0.1-0.5,0.2-1,0.2-1.5c0-0.7-0.6-1.1-0.6-1.6c0-0.7,0.9-1.3,1.1-1.9c0.1-0.3,0.1-0.8,0.2-1.2
							c0.2-0.8,0.8-1.3,0.7-2.6c-0.1-0.5-0.5-0.9-0.5-1.6c0-0.4,0.3-0.7,0.2-1.1c-0.1-0.7-1-0.8-1.1-1.6c-0.1-0.8,0.8-1.5,1.3-2.5
							c0.2-0.4,0.4-1.1,0.6-1.4c0.5-0.7,1.2-1,1.6-1.7c0.3-0.5,0.3-1.3,0.6-1.6c0.3-0.5,0.9-0.8,1.5-1.4c0.5-0.5,0.7-1.2,1-1.4
							c0.4-0.3,1-0.4,1.5-0.6c1.5-0.7,2.6-1.6,3.4-3.1c-0.2-1.3,0.1-1.9,0.7-2.8c0.5-0.8,0.9-1.7,1.7-2.1c1-0.6,2-0.6,2.7-1.7
							c0.4-0.5,0.9-1.5,0.9-2.1c0-0.8-0.8-1.9-1.6-2c-0.7-0.1-1.9,0.6-2.3-0.2c-0.1-0.3,0-0.9,0-1.2c-0.1-0.5-0.6-0.9-0.6-1.3
							c0-0.8,0.8-1.6,1-2.5c0.3-1.2,0-2.1-0.1-3.5c1.2-1.8,3.7-0.9,6.3-0.7c0.4,0,0.8-0.1,1.2-0.1c1.5,0,2.7,0.5,3.2-0.8
							c0.2-0.5,0.4-2.3,0.2-2.8c-0.1-0.6-1.2-2-1.7-2.3c-0.8-0.5-2-0.3-2.5-1.2c0.4-1.6,2.2-0.3,3.3-0.7c0.6-0.2,0.5-1.2,1-1.3
							c0.3-0.1,0.8,0.3,1.2,0.3c0.4,0,1.8-0.7,2.2-1c0.5-0.4,0.7-1.1,1.2-1.4c0.3-0.2,0.7-0.2,1.1-0.3c0.7-0.3,1.6-0.9,2.1-1.5
							c0.7-0.8,1-1.8,1.8-2c1.1-0.2,3.6,0.2,3.8-1c0.2-1.2-1-2.1-0.6-3.3c0.3-1,1.2-0.8,2.5-1.4c0.6,0.4,0.4,1.6,0.5,2.4
							c0.8,0,2.3-0.2,2.5-0.9c0.2-0.8-1.1-1.7-1.4-2.2c-0.3-0.6-0.4-1.5-1-1.6c-1.3-0.2-2.5,1.7-4,1.7c-1,0-2.1-0.8-2.4-1.6
							c-0.2-0.4,0-0.9-0.1-1.3c-0.1-0.7-0.5-1.4-0.3-2.3c0.6-1.1,2.1-1.3,3.1-1.8c0.4-0.2,0.7-0.7,1.2-0.8c0.7-0.3,1.8,0,2.6-0.4
							c0.5-0.3,0.3-0.7,0.7-1.2c0.2-0.3,0.7-0.5,1-0.9c0.2-0.3,0.2-0.7,0.4-0.9c0.7-0.9,2-1.2,2.6-2.1c0.2-0.4-0.4-0.6-0.2-1.2
							c0.3-0.6,1.3-0.2,1.9-0.2c0.8-0.1,1.6-1.1,2.5-1.3c0.9-0.2,1.9-0.1,2.8-0.4c0.5-0.2,1-0.7,1.5-0.7c0.2,0,0.7,0.1,0.9,0.1
							c0.3,0,0.7-0.2,1.1-0.2c0.6-0.1,1.4,0.1,2.1,0.2c1.3,0,2.5-0.4,3.6,0.1c0.6,0.2,0.5,0.9,1.2,1.2c0.4,0.1,0.9-0.1,1.4,0
							c0.8,0.1,1.7,0.6,2.7,0.7c0.4,0,0.8,0,1.2,0c1.2,0.1,2.5,0.8,3.6,1.2c1,0.3,3,0.7,3,1.6c0,1.1-1.8,1.4-2.6,1.4
							c-1.3,0-3-0.8-4.4-0.3c0,1.9,2,3.3,3.9,3.1c0.2-0.9-1-0.4-0.9-1.2c0.8-0.6,1.8,0.4,3,0.2c0.5-0.1,0.4-0.8,0.5-1.2
							c1-0.6,2.2-1.5,3.7-0.8c0.1-0.1,0.2-0.3,0.3-0.3c0.1-0.9-1-1.4-0.4-2.2c0.3-0.6,1.8-0.4,2.1,0.1c0.1,0.6-0.4,0.5-0.3,1
							c0.3,0.7,1,0.8,1.3,0.7c0.8,0,1-0.8,1.7-1.2c0.3-0.2,0.8-0.2,1.2-0.3c0.5-0.2,0.9-0.6,1.2-0.7c0.3-0.1,0.7,0,1.1-0.1
							c0.5-0.1,1-0.5,1.4-0.5c0.5,0,0.9,0.6,1.5,0.7c0.3,0,0.7-0.2,1.2-0.2c0.4,0,0.8,0,1.2,0c0.8-0.1,1.3-0.5,2-0.5
							c0.5,0,1.2,0.6,1.6,0.3c0.5-0.5-0.7-0.9-0.3-1.4c1.3,0.1,2.6,0.1,3.9,0.2c1.9,0.3,3.7,1.2,5.4,1.2c-0.2-1.1-1.5-0.8-2.1-1.3
							c-0.2-0.2-0.9-1.4-0.9-1.7c0-0.2,0.9-1.8,1.2-2c0.7-0.7,3.1-0.7,3.8,0.2c0.5,0.6,0.3,1.6,1,1.6c0.6,0,0.9-1.4,1.6-1.5
							c0.6,0,0.8,0.9,1.4,0.9c0.7,0,1.2-1.3,2.1-1.3c0.5,0,0.6,0.2,1.4,0.3c0.5-0.3-0.2-0.8,0.1-1.2c0.9-0.7,3-0.2,4.2-0.6
							c0.3-0.4-0.4-0.7-0.1-1.1c1-0.7,2.7-0.8,4.5-1.1c1.1-0.2,2.1-0.9,2.9-1c0.9-0.1,1.7,0.5,2.5,0.5c0.5,0,1-0.2,1.5-0.3
							c0.5-0.2,0.8-0.6,1.2-0.7c0.7-0.2,1.6,0.1,2.5,0c0.9-0.1,1.7-0.4,2.3-0.3c0.6,0.1,1.1,0.7,1.6,0.8c1.7,0.3,3.5-0.3,5.1,0.2
							c0.3,0.1,0.6,0.4,0.9,0.5c1.1,0.4,1.8,0.3,2,1.6c0.8,0.3,1.3,1.1,2.3,1.3c0.7,0.2,1.3-0.1,2.1-0.1c1,0,2.2,0,3,0.2
							c0.5,0.1,0.9,0.4,1.3,0.5c0.3,0.1,0.8,0,1.2,0c0.5,0,1,0.3,1.4,0.2c0.9,0,1.5-0.8,2.2-0.9c0.4-0.1,0.9,0.1,1.2,0.2
							c1.4,0.1,3-0.2,4.1,0.1c0.6,0.1,1.6,0.8,2.3,1.3c0.5,0.4,0.8,1,1.2,1.2c0.4,0.3,1.5,0.7,2,0.7c0.5-0.1,0.5-0.7,1.1-0.9
							c1.6-0.4,4.5,0.5,5.9-0.1c0.5-0.2,0.4-0.8,0.8-1.1c2.5-0.1,4.9,0.1,7.3,0.2c0.8,0,1.7-0.2,2.4-0.1c0.8,0.1,1.4,1,2.2,1.2
							c0.5,0.2,1.5,0.1,2.3,0.2c0.5,0.1,1,0.4,1.4,0.5c0.9,0.1,1.7-0.1,2.6-0.2c1.9-0.2,4.3-0.3,6.2,0.5c1,0.4,1.4,1.2,2.5,1.3
							c1.5,0.2,3.9-0.1,5.4,0c0.4,0,0.7,0.2,1,0.2c0.5,0,0.8-0.5,1.5-0.5c0.8,0,2.1,1.3,3.3,1.1c0.5-0.3-0.4-0.8,0.1-1.2
							c0.5-0.4,1.1,0,1.8,0c0.4,0,0.9-0.2,1.2-0.2c0.9,0.1,1.8,0.9,2.9,1.2c0.9,0.2,2.1,0.3,3.2,0.2c0.8-0.1,1.5-0.4,2.2-0.2
							c0.4,0.1,0.7,0.3,1.1,0.4c0.4,0.1,0.7,0,1,0.1c0.3,0.1,0.5,0.3,0.8,0.4c1.5,0.4,3.6,0.7,5.2,1.2c1,0.3,1.9,0.9,2.7,0.9
							c0.4,0,0.7-0.2,1.2-0.2c2.5,0,5.4,1.1,5.2,3.4c-2.9,0.6-5.4-2-8.4-1.2c-0.5,0.1-1,0.7-1,1.2c0.1,1.4,3.7,1.3,4,2.7
							c-0.6,0.4-1.2,0-1.7,0.1c-0.7,0.1-2,0.9-2.5,1.3c-0.6,0.5-1,1.9-1.6,2c-0.7,0.1-1.9-0.7-3-0.5c-0.4,0.1-0.8,0.6-1.2,0.7
							c-0.9,0.2-2.1-0.5-2.6,0.6c0.3,0.8,0.1,1.8,0.7,2.2c0.4,0.3,0.9,0.1,1.4,0.2c0.6,0.2,0.9,0.9,1.4,1.3c0.4,0.3,0.8,0.3,1.1,0.7
							c0.1,0.6-0.2,0.7-0.2,1.1c0.1,0.7,1.2,0.8,1.2,1.3c0,0.6-0.7,0.5-0.8,1.1c-0.1,0.4,0.4,0.5,0.5,1c0,0.3-0.3,0.7-0.2,1.1
							c0,0.5,0.5,0.9,0.4,1.4c0,0.4-0.4,0.7-0.7,0.9c-1.6-1-3-2.4-4.7-3.7c-1.7-1.3-4.5-3-4.8-5.8c0-0.4,0.9-0.8,1.1-1.4
							c0.1-0.3-0.1-0.6-0.1-1c0.1-1,0.9-1.9,0.8-2.5c0-0.6-1.2-1.8-1.8-2c-0.5,0.3,0,0.8-0.1,1.2c-0.1,0.5-0.7,1.1-1.2,1.2
							c-1.6,0.1-1.7-2-4.2-1.4c-0.6,0.2-1.5,1.1-1.3,2.3c0.1,0.4,1.1,0.7,1,1.2c-0.1,0.5-2.2,0.6-2.7,0.6c-1.3-0.1-2-1.1-3.2-1.1
							c-0.6,0-1.1,0.5-1.6,0.6c-2.6,0.5-6.5-1.3-7.3,1c-0.1,0.3-0.1,0.7-0.2,1.1c-0.2,0.5-0.5,0.9-0.7,1.2c-0.1,0.3-0.1,0.8-0.2,1.2
							c-0.1,0.4-1.7,1.8-0.3,2.1c0.3,0.1,0.5-0.1,0.9-0.1c0.7,0.1,1.9,1.2,2.7,1.2c0.5,0,1.2-0.6,1.6-0.6c0.8,0,1.3,0.5,1.9,0.7
							c0.6,0.3,1.4,0.8,1.8,0.8c0.8,0,0.4-0.6,1.2-0.8c1.4,0.4,2.1,1.9,3.5,3.1c0.5,0.4,1.2,0.8,1.9,1.4c0.4,0.3,1.5,1.2,1.6,1.6
							c0,0.4-0.3,0.6-0.4,0.9c-0.1,0.5,0.2,0.9-0.2,1.2c-1.3-0.5-1.6-1.8-2.6-2.9c-0.3-0.4-0.7-0.9-1.2-1.5c-0.2-0.3-1.1-1.2-1.7-1
							c-1,0.4,0.6,2,0.8,2.3c0.5,0.7,1.3,1.7,1.3,2.5c0,0.5-0.3,1.4-0.3,2.2c0,0.6,0.1,1.1,0.1,1.6c-0.1,0.5-0.4,1-0.6,1.6
							c-0.2,0.6-0.2,1.3-0.4,1.7c-0.3,0.7-1.4,1.6-2.1,1.6c-0.7,0-1-0.5-1.6-0.5c-1,0-1.2,1-1.8,1.7c0.1,0.8,0.3,1.1,0.2,1.6
							c-0.2,0.9-1.4,1-1.4,1.9c0,0.8,1.1,1,1.6,1.3c0.7,0.5,2,1.6,2.7,2.5c0.5,0.6,1.1,1.7,1.1,2.3c-0.1,0.8-2.4,2-3.4,1.6
							c-0.9-0.3-0.6-1.2-0.8-2c-0.2-0.6-0.7-0.9-0.9-1.4c-0.1-0.3-0.1-0.7-0.3-1c-0.5-0.8-1.4-0.4-2.4-0.9c-0.7-0.3-0.5-1.1-0.7-1.7
							c-0.4-0.9-1.8-1.3-3-1.1c-0.9,0.2-1.2,0.9-2,1.1c-1.2-0.7,0.2-2.5-1.2-2.6c-1.1-0.1-1.9,1.6-2.6,2.1c-0.4,0.3-1.3,0.4-1.3,0.9
							c-0.1,0.9,1,0.7,1.8,1.1c0.8,0.3,0.9,1.2,1.6,1.2c0.6,0,1-0.6,1.6-0.7c1-0.1,1.8,0.4,2.5,0.7c-0.4,1-2.6,1.7-2.6,3.1
							c0,0.8,0.9,0.9,1.6,1.4c0.6,0.4,1.3,1.6,2.1,2.5c0.3,0.4,0.9,0.6,1.1,0.8c0.4,0.5,0.3,1.2,0.7,1.6c0.1,0.5-0.2,0.6-0.2,1
							c0.2,0.6,1.1,0.5,1.3,1.1c-0.2,1.4,0.4,2.8-0.7,3.3c-0.5,2.6-1.1,4.5-2.9,5.9c-1.6,1.2-3.6,1.6-5.5,2.2
							c-0.5,0.2-0.9,0.7-1.3,0.8c-1.1,0.4-3.1,0.1-3.1,1.5c0,0.7,0.8,1.1,0.9,1.7c0.1,1-0.8,2.1-1.5,2.1c-0.5,0.1-1.5-0.3-1.6-1.2
							c-0.1-1,1.2-1.4,1.3-2c0.2-1-0.9-2.1-2.1-2c-1.1,0.1-3.6,2.3-3.6,3.5c0,0.9,1.8,2.8,2.4,3.3c2.3,2,4.8,3.3,4.4,8.2
							c-0.6,1.3-2.1,1.5-3.2,2.2c-0.9,0.5-1.3,2.2-2.8,2.3c-0.6-0.2-0.2-1.1-0.4-1.6c-0.2-0.6-1.4-0.9-2.1-1.5
							c-0.6-0.5-0.9-1.3-1.3-1.7c-0.6-0.6-1.4-0.7-2.1-1.1c-0.4-0.2-0.8-1.1-1.2-1.1c-0.7,0-0.5,0.7-0.7,1.9c-0.2,1.1-1,2-0.7,3.4
							c0.1,0.6,0.8,1,1.2,1.6c0.6,0.9,0.7,2,1.2,2.6c0.4,0.4,1,0.4,1.5,0.7c0.9,0.6,2.4,2,2.7,2.7c0.4,0.9,0,1.9,0.2,2.8
							c0.3,1.1,1.7,1.8,0.8,2.9c-0.8-0.1-1.5-0.7-2.1-1.1c-1.1-0.7-1.7-1.3-2.4-2.5c-0.2-0.3-0.5-0.7-0.7-1
							c-0.3-0.7-0.2-1.6-0.5-2.5c-0.2-0.8-1.1-2-1.8-2.6c-0.6-0.5-1.6-0.9-1.6-1.6c-0.1-1.1,0.4-2.4,0.3-3.7c0-0.3-0.2-0.6-0.2-0.9
							c-0.1-0.6,0.1-1.4-0.1-2c-0.1-0.5-0.5-1-0.7-1.5c-0.2-0.5-0.4-1-0.7-1.6c-0.3-1-0.7-2.8-1.5-2.9c-0.8-0.1-1.6,1.5-2.7,1.6
							c-0.6,0-1.3-0.4-1.4-1c-0.1-0.5,0.3-1,0.2-1.6c0-1.1-0.8-1.5-1.4-2.3c-0.2-0.3-0.3-0.8-0.5-1c-0.4-0.4-1.1-0.7-1.6-1.2
							c-0.5-0.4-0.9-1.1-1.2-1.5c-0.3-0.6-0.4-1.5-0.9-1.6c-0.5-0.1-1,0.6-1.5,0.7c-0.5,0.2-1.7,0.4-2.2,0.4c-1.7,0.1-3-0.3-2.8,1.6
							c-0.3,0.9-1.2,0.9-1.8,1.3c-0.8,0.5-1.4,1.6-2.2,2.5c-0.4,0.4-1,0.7-1.4,1.1c-0.3,0.3-0.4,0.8-0.7,1.2
							c-0.9,0.8-2.2,0.9-2.8,2.1c0,1.4,0.6,2.4,0.5,3.7c-0.1,0.6-0.5,1.1-0.6,1.7c-0.1,0.5,0.2,1.1,0.1,1.6
							c-0.1,0.3-0.4,0.5-0.7,0.8c-0.2,0.3-0.3,0.8-0.5,1c-0.3,0.4-0.7,0.6-1,0.9c-0.4,0.5-0.5,0.8-0.9,0.9c-1.8,0.3-2.3-3.2-3-4.6
							c-0.4-0.7-1.1-1.3-1.5-2.1c-0.4-0.9-0.6-2.1-1.2-3.1c-0.5-0.9-1.2-1.8-1.6-2.7c-0.3-0.8-0.5-1.8-0.8-2.6
							c-0.3-0.9-0.6-2.1-0.7-2.8c-0.1-1.1,0.2-1.7-0.7-2.1c-0.8,0.2-1.1,1-2.1,1c-0.9,0-3.2-1.5-2.6-2.9c-0.6-0.8-2-1.3-3.1-2.2
							c-0.6-0.6-1.2-1.9-2.3-2c-0.3,0-0.7,0.1-1,0.2c-0.7,0.1-1.9-0.1-2.7,0c-1,0.1-2.2,0.3-3.5,0.2c-0.8-0.1-1.8-0.2-2.6-0.3
							c-1.1-0.1-2.5-0.4-3-0.9c-0.4-0.3-0.5-1.4-1.2-1.6c-0.8-0.2-1.2,0.4-1.9,0.6c-1.5,0.3-2.8-0.3-3.8-1c-0.7-0.5-1.4-0.7-1.9-1.1
							c-1.3-0.8-1.5-3.4-3.4-3.4c-0.7,0-1.7,0.4-1.8,1.2c-0.1,0.5,0.6,1.5,0.9,1.9c0.9,1.3,2.6,1.8,3.1,3.5c0.3,0.1,1-0.3,1.4,0.1
							c0.3,0.8,0,2.1,0.7,2.5c3.4,0.6,4.4-1.3,5.9-2.6c0.9,0.6,0.6,1.1,0.9,1.7c0.3,0.7,0.8,1.2,1.4,1.4c0.4,0.2,0.9,0,1.6,0.2
							c0.4,0.1,2,1.7,2.1,2.2c0,0.5-1.1,2.1-1.4,2.6c-0.3,0.4-0.8,0.6-1,1c-0.1,0.3-0.1,0.9-0.2,1.1c-0.2,0.3-0.9,0.8-1.3,1.2
							c-0.4,0.4-1,0.7-1.4,1.1c-0.5,0.4-0.8,0.9-1.4,1.2c-1.1,0.4-2.1,0.2-3,0.8c-0.6,0.4-0.6,1.3-1.3,1.7c-0.8,0.5-2,0.5-3.1,1
							c-0.7,0.3-1.1,0.9-1.7,1.2c-0.2,0.1-0.6,0-0.8,0.1c-0.5,0.1-1.1,0.5-1.6,0.7c-0.4,0.1-0.8,0.1-1.2,0.2
							c-1.3,0.4-2.4,1.7-3.7,0.9c-0.6-1.4-0.7-3.1-1.4-4.4c-0.4-0.6-1.1-0.8-1.3-1.5c0-0.5,0.6-0.4,0.7-0.8
							c-0.2-0.9-1.1-1.3-1.6-2.1c-0.3-0.4-0.4-0.9-0.7-1.3c-1-1.4-2.9-2.2-3.3-4c-0.1-0.5,0-0.9-0.1-1.2c-0.2-0.6-0.6-1.3-1-1.7
							c-0.3-0.4-1-0.6-1.3-1.2c-0.2-0.4-0.3-0.9-0.5-1.2c-0.8-1.5-2-2.9-3.3-4c-0.7,0.1-1.4,0.1-1.7,0.6c0.3,1.1,0.8,2,1.4,2.9
							c0.5,0.8,1.2,1.7,1.6,2.6c0.1,0.3,0.1,0.8,0.2,1.2c0.5,1.3,2.1,1.7,2.5,3.2c0.2,1,0,1.7,0.2,2.7c0.3,1,1.7,1.5,2.3,2.5
							c0.5,0.8,0.5,1.8,0.8,2.6c0.5,1.1,1.9,1.5,2.9,2.2c0.9,0.6,1.6,1.6,2.3,2.3c0.4,0.4,1,0.5,1.2,0.9c0.1,0.6-0.2,0.7-0.3,1.2
							c0.6,0.7,1.2,1.9,2.3,2c0.4,0,1-0.4,1.6-0.5c0.3,0,0.7,0.1,1,0c0.4-0.1,0.8-0.5,1.3-0.6c0.8-0.2,1.8-0.1,2.9-0.2
							c1-0.1,1.7-1,2.5-0.7c0.8,0.9,0.2,2,0,2.9c-0.1,0.3-0.1,0.6-0.2,0.9c-0.4,1.5-1.6,2.6-2.1,3.9c-0.2,0.4-0.1,0.9-0.3,1.3
							c-0.6,1.3-1.9,2.6-2.9,3.7c-0.6,0.6-1.1,1.2-1.6,1.6c-0.6,0.5-1.3,0.8-2,1.2c-1.3,1-2.7,2.4-3.6,3.6c-0.4,0.5-0.5,1.1-0.9,1.5
							c-0.5,0.6-1.4,0.9-1.8,1.5c-0.4,0.5-0.6,1.3-1,2.1c-0.5,0.9-1.4,1.6-1.2,2.9c0.1,0.5,0.5,0.8,0.7,1.3c0.3,0.9,0.1,1.6-0.1,2.6
							c0.5,1.1,0.8,2.4,1.6,3.1c0.1,1.7-0.1,3.3,0,4.7c0.1,0.9,0.4,1.6,0.1,2.4c-0.3,0.7-1.5,2-2.2,2.5c-0.8,0.5-2,0.6-2.8,1.2
							c-0.6,0.4-1.1,1.2-1.6,1.7c-1,0.8-2.3,1.6-2.4,2.4c0,0.5,0.4,1.2,0.5,1.6c0.3,1.2,0.6,3,0.1,4.3c-0.6,1.4-3.6,1.1-4,2.6
							c-0.1,0.5,0.2,0.8,0.2,1.3c0,0.4-0.6,1.9-0.8,2.4c-0.4,0.7-1.2,1-1.7,1.6c-0.7,0.7-1,1.8-1.7,2.6c-1,1-2.3,2.1-3.5,3.1
							c-1.1,0.8-3.1,1.6-4.8,1.7c-1,0.1-2.1-0.2-3.1-0.1c-0.4,0.1-0.8,0.4-1.3,0.5c-0.3,0-0.6-0.1-0.9,0c-0.5,0.1-1,0.5-1.5,0.5
							c-1.1,0-2.4-1.3-2.5-2.6c0-0.5,0.4-1,0.4-1.4c0-0.5-0.7-1.2-1.2-2.1c-0.5-0.9-0.7-2-1.2-2.7c-0.5-0.8-1.2-1.2-1.6-1.8
							c-0.8-1.3-0.8-2.8-1.1-4.3c-0.1-0.5-0.4-1-0.5-1.6c-0.1-0.8,0.1-1.6-0.1-2.2c-0.1-0.5-0.7-1-1-1.6c-0.6-1.1-1-2.5-1.5-3.3
							c-0.5-0.8-1.4-1.6-1.5-2.5c-0.1-0.6,0.1-1.7,0.2-2.3c0.1-0.6,0.5-1,0.7-1.6c0.1-0.4,0-0.9,0.1-1.3c0.4-1.9,2.5-2.6,2.2-4.9
							c-0.1-1-0.8-1.5-0.9-2.6c0-0.5,0.3-1,0.2-1.5c0-0.7-0.6-1.7-0.9-2.4c-0.8-1.8-1.3-3.5-2.6-4.9c-0.7-0.8-1.5-1.3-2.1-2
							c-0.4-0.6-1-1.6-1-2.1c0-0.5,0.4-0.8,0.5-1.2c0.2-0.6,0.2-1.8,0.4-2.7c0.1-0.4,0.6-1.5,0.5-2.2c-0.1-0.7-1.1-2-2-2.2
							c-1.2-0.3-2.3,0.4-3.8,0.2C191.8,253.1,191.9,251,190.1,250.7z M235.7,280.3c0.4-0.6,0.9-2.3,0-2.7c-0.1,0-0.1,0-0.2,0
							C235.2,278.2,234.8,279.9,235.7,280.3z M234.6,263c0.3-0.6,0.9-1.2,0.8-1.9c-0.2-1.6-3.2-0.8-3.5,0.3
							c-0.2,0.8,0.1,1.4-0.2,2.1c0.3,0.6,1.1,0.7,2.1,0.7C234.4,264,234.3,263.6,234.6,263z M229.5,271.5c0.3-0.6-0.5-1-0.7-1.7
							c-0.2-0.8,0.2-1.7-0.5-2.1c-0.1,0-0.2,0-0.2,0C227.5,269.2,228.4,271.4,229.5,271.5z M285.8,189.7c-0.3-0.6-1.2,0.2-0.8,0.7
							C285.5,190.4,285.7,190.1,285.8,189.7z M266.6,193c1.3-0.3,0-2.4-1-2.1C264.3,191.2,265.6,193.2,266.6,193z M260.5,203.7
							c0.4-2.9-1.8-3.1-2.2-5.1c0.2,0,0.1-0.2,0.2-0.2c0.5-0.3,1.4,0.4,1.6-0.2c0-1-1.2-1.7-2.5-1.2c-0.4-0.2-0.4-0.8-0.5-1.3
							c-0.9-0.6-3.2-1.8-3.2-2.9c0-0.9,1.2-1.4,2.6-1.4c0.6-0.4,0.2-1.8-0.3-2.1c-2.1-0.5-3.3-0.2-4.6,0.8c-0.6,0.5-1.4,0.8-1.7,1.1
							c-0.3,0.3-0.8,1-0.7,1.3c0.1,0.5,0.8,0.8,1.1,1.5c0.1,0.3,0.1,0.8,0.2,1.1c0.4,0.8,1.3,1.3,2,2c0.5,0.5,1.9,1.5,1.9,2.1
							c0,0.5-0.4,0.6-0.6,1.1c-0.2,0.5-0.3,1.6-0.2,2.1c0.2,0.9,1.1,0.9,2,1.3c0.9,0.4,1.7,1,2.6,1.1
							C258.9,204.5,259.9,204.2,260.5,203.7z M241.1,197.7c2.2-0.4,1.2-2.3,0.1-3c-0.9-0.5-1.9-1-2.9-1.6c-0.6-0.4-2.8-1-2.8-1.7
							c0-0.8,1.6-1,1-2.4c-1.1-0.3-3.8,0.2-3.6,1.4c0.1,0.7,1,0.3,1.2,1.1c-0.8,0.3-1.8,1-2.6,0.9c-1-0.2-1.3-1.4-1.8-2.1
							c-0.8,0-1.3-0.8-2.2-0.7c-1,0.1-1.5,1.5-2,2.2c-0.3,0.4-0.7,0.6-0.8,0.9c-0.1,0.2,0,0.5-0.1,0.8c-0.3,0.9-1.1,1.3-1,2.1
							c0.1,0.7,0.9,1,0.9,1.6c-0.1,0.6-1.1,0.3-1,1.1c1.5,1.2,1.6-0.6,2.3-0.8c0.6-0.2,1.8,0.2,2.6,0c0.6-0.1,1.1-0.7,1.8-1
							c0.4-0.2,1-0.3,1.6-0.3c2.6-0.1,4.3,1.6,6.6,1.6C238.9,197.9,240.3,197.9,241.1,197.7z M235.8,207.5c0-0.9-0.3-1.6-0.4-2.8
							c-1.5-0.9-2.7,0.9-4.2,0.7c-0.9-0.1-1.6-1.2-2.6-1.1c-0.6,0.1-0.8,0.8-1.4,0.9c-1.2,0.2-1.7-0.9-3-0.5c-1.8-1.3-2.6-3.5-3-6
							c-1-1.3-2.4-0.2-3.1,0.6c-0.4,0-1-0.2-1.1,0.2c-0.3,1.5,2.2,1.7,2.1,2.7c0,0.7-1,0.6-1.4,1.1c-0.5,0.5-0.2,0.9-0.7,1.2
							c-1.6,0.2-2.2-0.7-2.1-2.1c-0.7-1.1-1.6-1.8-2.2-2.7c-0.2-0.3-0.6-0.8-0.7-1.3c-0.1-0.4,0.2-0.9,0.1-1.3
							c-0.2-0.8-1.6-1.4-2.6-1.8c-1-0.5-2.2-0.9-2.9-1.5c-0.5-0.4-0.7-1.1-1.2-1.4c-0.4-0.2-0.8-0.2-1.2-0.4c-0.5-0.3-0.4-0.8-1-1
							c-0.3-0.1-0.8,0.3-1,0.6c-0.4,1.8,1.1,1.9,1.7,2.7c0.5,0.5,0.7,1.4,1.2,1.7c0.5,0.4,1.2,0.3,1.8,0.6c0.4,0.2,0.7,0.7,1.2,1
							c0.8,0.5,2.1,0.6,2.1,1.5c-0.5,0.3-1.6-0.5-2,0.3c-0.1,0.5,0.4,0.8,0.4,1.3c0,0.8-0.9,1.7-1.7,1.6c-0.1-0.5,0.4-0.9,0.4-1.4
							c0-1-2.1-2.7-3.2-3.1c-0.5-0.2-1.1-0.2-1.6-0.5c-0.8-0.5-2.2-1.6-2.7-2.2c-0.6-0.8-1.1-2.2-2.4-2.1c-0.5,0-1,0.5-1.4,0.7
							c-0.4,0.2-0.8,0.4-1.2,0.7c-0.5,0.3-0.9,0.6-1.3,0.7c-1,0-1.9-0.8-2.8-0.6c-0.3,0.1-0.5,0.3-0.9,0.7c0,0.5,0.1,0.8,0.1,1.3
							c-0.3,0.5-1.1,0.4-1.6,0.7c-0.9,0.4-1.6,1.4-2.3,2.1c-0.4,0.4-0.9,0.8-0.9,1.2c0,0.3,0.2,0.8,0.2,1.2
							c-0.1,0.4-0.8,1.2-1.3,1.6c-0.3,0.2-0.7,0.2-1,0.4c-0.6,0.4-0.9,0.9-1.5,1c-1.4,0.3-4.1-0.3-4,1.2c0,1,1.4,1,2.2,1
							c1.2,0,2.2,0.2,2.8,0.1c0.4-0.1,0.9-0.6,1.4-0.8c0.3-0.1,0.6-0.1,0.8-0.2c0.5-0.2,0.8-0.6,1.2-0.8c0.8-0.3,2.2-0.6,3-0.7
							c1.1-0.1,2.3,0.1,3.7,0c0.5,0,1-0.4,1.6-0.4c0.9-0.1,2.1,0.4,2.8,0.3c0.5,0,1.1-0.5,1.6-0.5c0.7,0,1.4,0.5,1.5,0.9
							c0.1,0.2-0.1,0.6-0.1,1c0.1,0.6,0.6,0.8,0.6,1.2c0,0.5-1.3,1.2-1.2,1.8c0.1,0.4,1,0.8,1.5,1.1c0.5,0.3,1.3,0.7,1.8,0.7
							c0.5,0.1,0.9-0.1,1.3-0.1c0.7,0.1,1.9,0.5,2.3,0.8c0.8,0.5,0.7,1.4,1.6,1.7c0.4,0.1,1.1,0.1,1.6,0.2c1.2,0.3,2.1,1.3,3,1.2
							c1.4-0.2,0.8-1.5,0.9-2.4c0.4-2.1,4.5-2,5.3-0.6c0.6,0.2,1.1,0,1.8,0.2c0.4,0.1,0.7,0.6,1.1,0.7c0.3,0.1,0.7,0,1.1,0
							c1.6,0.2,3,1.4,4.4,1.2c0.9-0.1,1.5-0.9,2.3-1c1.6-0.1,2.6,1.2,4.3,0.6c1.3-0.4,1-1.7,1.4-3.1
							C235.2,208.8,235.8,208.2,235.8,207.5z M324.7,179.3c0.3-1-0.2-2.1-0.8-2.8c-1,0.2-0.3,1.2-0.3,1.7c-0.1,0.8-1,1.4-0.9,2.2
							c-0.3,0.4-0.9,0.5-0.9,1.2c0.5,0.4,0.8-0.3,1.2-0.7C323.5,180.4,324.5,180.1,324.7,179.3z M303.1,150.7
							c-0.9,0-1.2,0.4-1.8,0.7c-0.3,0.2-0.9,0.3-0.7,0.7C301.3,152,302.9,151.7,303.1,150.7z M268.3,160.9c1.9,0.5,2.8-1.7,1.6-3
							c-0.3-0.3-1.3-0.4-1.7-1.1c-0.5-0.8-0.4-1.9-1.7-1.6c0,0.1,0,0.2-0.1,0.2c-0.1,1.8,2.5,2.3,2.5,3.7
							C268.8,159.9,268,160,268.3,160.9z"/>
						<linearGradient id="SVGID_26_" gradientUnits="userSpaceOnUse" x1="114.415" y1="349.2498" x2="351.8152" y2="111.8496">
							<stop  offset="0" style="stop-color:#EBEBEB"/>
							<stop  offset="1" style="stop-color:#FFFFFF"/>
						</linearGradient>
						<path class="st25" d="M241.2,157.7c-0.2-0.9,1.5-0.7,1.2,0.1C242.1,158.1,241.3,158.1,241.2,157.7z"/>
						<linearGradient id="SVGID_27_" gradientUnits="userSpaceOnUse" x1="114.415" y1="349.2498" x2="351.8152" y2="111.8496">
							<stop  offset="0" style="stop-color:#EBEBEB"/>
							<stop  offset="1" style="stop-color:#FFFFFF"/>
						</linearGradient>
						<path class="st26" d="M231,207.1c0-0.7,1.6-0.9,1.9-0.3C232.8,207.4,231.3,207.8,231,207.1z"/>
						<linearGradient id="SVGID_28_" gradientUnits="userSpaceOnUse" x1="114.415" y1="349.2498" x2="351.8152" y2="111.8496">
							<stop  offset="0" style="stop-color:#EBEBEB"/>
							<stop  offset="1" style="stop-color:#FFFFFF"/>
						</linearGradient>
						<path class="st27" d="M202.7,202.6c0.9-0.7,2.8-0.2,4-0.2c-0.2,0.6-0.3,1.4-0.7,1.8C204.6,203.9,203.3,203.6,202.7,202.6z"/>
						<linearGradient id="SVGID_29_" gradientUnits="userSpaceOnUse" x1="114.415" y1="349.2498" x2="351.8152" y2="111.8496">
							<stop  offset="0" style="stop-color:#EBEBEB"/>
							<stop  offset="1" style="stop-color:#FFFFFF"/>
						</linearGradient>
						<path class="st28" d="M196.7,198.2c1.1-1.2,2.3-0.6,1.9,1.7c-0.3,0.7-1.4,1.6-2,0.6C196.8,199.7,196.7,199.1,196.7,198.2z"/>
						<linearGradient id="SVGID_30_" gradientUnits="userSpaceOnUse" x1="114.415" y1="349.2498" x2="351.8152" y2="111.8496">
							<stop  offset="0" style="stop-color:#EBEBEB"/>
							<stop  offset="1" style="stop-color:#FFFFFF"/>
						</linearGradient>
						<path class="st29" d="M198.4,195.6c0.1,0.7-0.2,1-0.6,1.2C196.7,196.6,197.5,194.7,198.4,195.6z"/>
						<linearGradient id="SVGID_31_" gradientUnits="userSpaceOnUse" x1="114.415" y1="349.2498" x2="351.8152" y2="111.8496">
							<stop  offset="0" style="stop-color:#EBEBEB"/>
							<stop  offset="1" style="stop-color:#FFFFFF"/>
						</linearGradient>
						<path class="st30" d="M182.4,178.9c0.1-0.5-0.3-1.1-0.7-1.3c-0.3-0.2-0.7-0.1-1-0.2c-0.8-0.4-1.1-1.4-1.6-1.6
							c0.1-0.9-0.2-1.6,0-2.1c0.1-0.4,1.2-1.4,1.8-1.6c0.7-0.3,1.5,0,1.9-0.6c0.2,0,0.3,0,0.4,0.1c0,0.5-0.4,0.6-0.5,1.1
							c0.1,0.7,1.4,0.3,1.6,1c-0.1,0.8-0.8,0.9-0.8,1.5c0,0.5,1,1.4,1.5,2.1c0.4,0.5,1,0.8,1.3,1.3c0.3,0.4,0.3,0.9,0.6,1.2
							c0.4,0.4,1.4,0.5,1.5,1.1c0.1,0.8-1,1.1-0.8,2c-1.1,0.9-3,0.4-4.9,0.7c-0.8,0.1-1.8,0.9-2.6,0.2c-0.2-0.6,0.7-0.6,0.8-1.2
							c-0.1-0.5-0.7-0.4-0.8-0.8c0.2-0.6,1-0.8,0.9-1.7C181.4,179.3,182.2,179.5,182.4,178.9z"/>
						<linearGradient id="SVGID_32_" gradientUnits="userSpaceOnUse" x1="114.415" y1="349.2498" x2="351.8152" y2="111.8496">
							<stop  offset="0" style="stop-color:#EBEBEB"/>
							<stop  offset="1" style="stop-color:#FFFFFF"/>
						</linearGradient>
						<path class="st31" d="M176.2,176.9c1.1-0.7,3-0.2,3.1,0.7c0.1,0.6-0.6,0.7-0.8,1.4c-0.2,0.6,0,1.4-0.2,1.8
							c-0.3,0.4-0.9,0.4-1.4,0.5c-1,0.3-3,1.5-3.9,0.2c0.1-0.7,0.8-0.9,1.1-1.5c0-0.5-0.5-0.7-0.4-1.2c0.1-0.6,0.6-0.4,1.2-0.7
							C175.4,177.8,175.6,177.3,176.2,176.9z"/>
						<linearGradient id="SVGID_33_" gradientUnits="userSpaceOnUse" x1="114.415" y1="349.2498" x2="351.8152" y2="111.8496">
							<stop  offset="0" style="stop-color:#EBEBEB"/>
							<stop  offset="1" style="stop-color:#FFFFFF"/>
						</linearGradient>
						<path class="st32" d="M119.9,159c0.2,0.7-2.2,1.7-2.4,0.7C117.3,159,119.3,158,119.9,159z"/>
						<linearGradient id="SVGID_34_" gradientUnits="userSpaceOnUse" x1="114.415" y1="349.2498" x2="351.8152" y2="111.8496">
							<stop  offset="0" style="stop-color:#EBEBEB"/>
							<stop  offset="1" style="stop-color:#FFFFFF"/>
						</linearGradient>
						<path class="st33" d="M117.2,344.8c-0.4,0-0.8,0-1.2,0C116.1,344.7,116.9,344.7,117.2,344.8z"/>
						<linearGradient id="SVGID_35_" gradientUnits="userSpaceOnUse" x1="114.415" y1="349.2498" x2="351.8152" y2="111.8496">
							<stop  offset="0" style="stop-color:#EBEBEB"/>
							<stop  offset="1" style="stop-color:#FFFFFF"/>
						</linearGradient>
						<path class="st34" d="M113.4,153.1c0.1-0.1,0.4-0.1,0.5,0c-0.1,0.2-0.1,0.4-0.5,0.3C113.4,153.3,113.4,153.2,113.4,153.1z"/>
						<linearGradient id="SVGID_36_" gradientUnits="userSpaceOnUse" x1="114.415" y1="349.2498" x2="351.8152" y2="111.8496">
							<stop  offset="0" style="stop-color:#EBEBEB"/>
							<stop  offset="1" style="stop-color:#FFFFFF"/>
						</linearGradient>
						<path class="st35" d="M106.1,166.2c0,0.5-1.6,1.2-1.8,0.3c0-0.2,0-0.5,0.3-0.7C105.1,165.6,106.1,165.8,106.1,166.2z"/>
						<linearGradient id="SVGID_37_" gradientUnits="userSpaceOnUse" x1="114.415" y1="349.2498" x2="351.8152" y2="111.8496">
							<stop  offset="0" style="stop-color:#EBEBEB"/>
							<stop  offset="1" style="stop-color:#FFFFFF"/>
						</linearGradient>
						<path class="st36" d="M71.8,242.8c0,0.1-0.1,0.2-0.2,0.3C70.8,243.1,71.6,242,71.8,242.8z"/>
						<linearGradient id="SVGID_38_" gradientUnits="userSpaceOnUse" x1="114.415" y1="349.2498" x2="351.8152" y2="111.8496">
							<stop  offset="0" style="stop-color:#EBEBEB"/>
							<stop  offset="1" style="stop-color:#FFFFFF"/>
						</linearGradient>
						<path class="st37" d="M38.3,185.2c0.6-0.3,1.1,0.5,0.7,0.9C38.4,186.2,38.3,185.5,38.3,185.2z"/>
						<linearGradient id="SVGID_39_" gradientUnits="userSpaceOnUse" x1="114.415" y1="349.2498" x2="351.8152" y2="111.8496">
							<stop  offset="0" style="stop-color:#EBEBEB"/>
							<stop  offset="1" style="stop-color:#FFFFFF"/>
						</linearGradient>
						<path class="st38" d="M128.2,188.3c-0.4-0.1-0.9-0.1-1.4-0.2c-0.4-0.1-0.9-0.2-1.3-0.2c-1-0.1-2.1,0.2-2.7-0.4
							c1-1.3,2.3-2.6,3.5-3.7c0.4-0.3,1.2-0.6,1-1.2c-0.7-0.6-1.6,0-2.2,0.4c-0.7,0.4-1.5,1-2.3,1.1c-1.4,0.2-3.2-0.4-4.3,0.3
							c-0.2,0.6,1.3,0.4,1.1,1.3c-0.5,0.1-1.1,0.1-1.5-0.2c-0.4-0.3-0.2-0.9-0.4-1.1c-0.4-0.3-2-0.4-2.7-0.3
							c-0.9,0.1-1.6,0.7-1.7,1.4c1,0.5,2.8-0.5,3.1,0.7c-0.6,1-1.9,1.6-1.7,3c0.1,0.5,0.7,1.2,1.2,1.3c0.5,0.1,0.7-0.4,1.2-0.3
							c0.5,0,0.4,0.6,0.9,0.5c0.8-0.3,1.2-1.5,2.1-1.4c1.1,1.3-1,2-2.1,2.4c-1.3,0.5-3,0.7-4,1.2c-0.5,0.2-2.5,2.1-2.8,0.7
							c-0.2-1.1,1-0.8,1.2-1.6c-1.3-0.2-2.5,0.5-3.6,1c-1.7,0.6-4.5,1-4.9,2.9c-0.1,0.4,0.2,1.1-0.1,1.3c-0.2,0.2-1.4,0.2-1.9,0.4
							c-0.8,0.3-1.5,0.9-2,1c-0.4,0.1-0.9,0.1-1.2,0.2c-0.7,0.3-0.9,1.1-1.6,1.7c-0.3,0.2-1,0.4-1.2,0.7c-0.4,0.4-0.5,1.5-1.2,1.6
							c-0.5,0-0.9-0.4-1.3-0.1c-0.1,1.1,0.4,2.5-0.1,3.5c-1,0.8-2,1.4-3.3,2.1c-0.7,0.4-1.3,0.5-2.1,0.9c-0.6,0.3-1.1,1-1.8,1.4
							c-1.6,0.9-3.5,2-3.5,4.4c0,0.5,0.3,1.1,0.3,1.6c0,0.3,0,0.7,0,1.1c0.1,0.9,0.7,2,0,2.6c-1.1-0.5-2.5-0.6-3.3-1.4
							c-0.2-0.8,0.4-1.5,0.3-2.2c-0.1-0.6-0.9-1.7-1.4-1.7c-0.5-0.1-1,0.5-1.5,0.4c-0.6,0-1.2-0.9-2-1c-1.2-0.1-2,0.3-3.3,0.1
							c-1.2,0.7-1.6,1.8-3.1,1.7c-0.5,0-1-0.4-1.6-0.6c-0.7-0.1-1.7-0.4-2.4-0.3c-1.4,0.1-2.4,1.1-3.6,1.7c-1.1,0.6-2.6,1.2-2.9,2.4
							c-0.2,0.6,0,1.5-0.2,2.1c-0.1,0.4-0.5,0.7-0.7,1.1c-0.9,1.7-1.7,3.9-1,6.4c0.1,0.4,1,2.4,1.4,2.8c0.4,0.5,1.7,1.1,2.4,1.2
							c0.6,0,1.3-0.3,1.9-0.4c0.7-0.1,1.5-0.1,2.1-0.3c1.8-0.6,1.4-3,3.2-3.8c0.8-0.4,1.7-0.4,3.1-0.5c0.4,0.4,0.6,1,0.6,1.6
							c0,0.4-0.4,0.8-0.7,1.4c-0.2,0.5-0.2,1.1-0.4,1.6c-0.2,0.6-0.8,1-1,1.5c-0.1,0.3-0.1,0.8-0.2,1.1c-0.2,0.5-0.9,0.9-0.6,1.5
							c1.8,0.7,3.9-0.2,5.4,0.1c0.6,0.1,2,0.9,2,1.9c0,0.7-0.6,1.2-0.7,2.1c-0.1,1-0.5,2.3-0.6,3.1c-0.1,1.4,2,3.7,3.5,3.7
							c1.6,0,2.5-1.6,4.4-0.7c0.6,0.3,1.3,1.3,2,1.2c0.6,0,1.4-1,1.8-1.7c0.5-0.8,0.5-1.6,1.3-2c0.9-0.5,1.6-0.2,2.7-0.7
							c0.5-0.2,0.9-0.5,1.4-0.8c0.4-0.3,0.8-1,1.3-0.5c0.7,0.7-0.8,1-0.2,1.7c1.1,0.6,1.7-1.1,2.6-1.2c0.3,0,1.2,0.5,1.6,0.8
							c0.6,0.4,0.9,1,1.6,1.2c0.5,0.1,1.2-0.2,1.8-0.1c0.8,0.1,1.3,0.8,2,0.8c0.8,0,1.1-0.9,1.8-1c1.5-0.3,2,0.2,2.6,1.1
							c0.7,0.1,0.7-0.8,1.4-0.5c-0.4,0.7,0.1,1,0.4,1.6c0.2,0.4,0.2,0.7,0.3,0.8c0.4,0.4,1.2,0.4,1.7,0.7c0.6,0.4,1,1.1,1.6,1.9
							c0.7,0.8,1.9,1.7,2.9,1.7c0.9,0.1,1.6-0.3,2.4-0.2c1.7,0.2,2.8,1.1,4,2c0.7,0.5,1.3,0.9,1.5,1.5c0.2,0.4,0.1,1,0.2,1.5
							c0.4,1,1.9,1.5,1.3,3.3c0.2,0.5,0.8,0.7,1.4,1.1c0.5,0.3,0.9,0.9,1.4,1c0.3,0.1,0.7-0.1,1-0.1c0.9,0.1,1.6,0.4,2.4,0.7
							c0.5,0.2,1.1,0.3,1.5,0.5c0.4,0.3,0.5,1.2,1,1.5c0.3,0.2,1.1-0.1,1.6,0c0.9,0.1,2.1,0.6,2.9,0.7c0.5,0,0.9-0.2,1.3-0.2
							c2,0.2,3.2,2.6,5.1,3.3c0.6,0.2,1.6,0.1,2,0.2c0.7,0.3,1.3,2.6,1.4,3.5c0.2,3-2.1,4-3.5,5.9c-0.3,0.4-0.4,1.1-0.8,1.6
							c-0.8,1.2-1.7,1.4-1.6,3.5c0,0.6,0.3,1.2,0.3,1.8c0,0.8-0.1,1.8-0.2,2.6c-0.1,0.5-0.6,1-0.7,1.5c-0.1,0.5,0.1,0.9,0.1,1.3
							c-0.1,0.5-0.5,1.1-0.9,1.8c-0.8,1.4-0.9,3.1-2.5,3.6c-0.9,0.3-2.1,0.1-3.1,0.5c-0.4,0.1-0.9,0.5-1.4,0.7
							c-1.4,0.7-3.5,1.6-3.9,3.1c-0.4,1.3,0.5,2.4,0.2,3.9c-0.3,0.4-0.6,0.9-1,1.4c-0.4,0.5-0.5,1-0.9,1.5c-0.5,0.6-1.3,0.9-1.6,1.7
							c-0.1,0.3,0,0.6-0.2,1.1c0,0.2-0.4,0.4-0.5,0.7c-0.1,0.3-0.1,0.7-0.2,0.9c-0.4,0.8-1.5,2.5-2.3,2.7c-1.7,0.5-3.5-0.7-4.7-0.5
							c0.2,0.8,0.8,0.7,1.2,1.3c0.2,0.3,0.3,0.8,0.7,1.2c0.4,0.4,0.7,0.6,0.7,1.1c0.1,1-0.7,2-1.2,2.4c-0.5,0.3-1.5,0.5-2.4,0.7
							c-0.6,0.1-2.2,0.1-2.5,0.5c-0.4,0.6,0.2,2-0.1,2.6c-0.6,1.2-2.3,0-3.1,0.3c-0.1,0.6,0.2,1.3,0.7,1.6c0.5,0.3,1.3-0.1,1.6,0.5
							c-0.2,0.8-1.1,0.9-1.2,1.7c0,0.8,0.3,1,0.2,1.5c-0.2,1.1-1.9,1-1.8,2.1c0.1,1.7,3.2,1,3.3,2.6c0,1-0.9,1-1.2,2
							c-0.2,0.5,0.1,0.6,0,1.1c-0.1,0.6-0.8,0.8-0.8,1.4c0,0.8,1.2,1.7,1.7,2.3c0.6,0.6,1.3,1.6,2.1,2c1.2,0.6,2.9,0.5,3.4,1.6
							c-0.2,0.7-0.8,0.9-1.5,1.1c-0.1,0-0.1,0-0.2,0c-0.2-0.1-1-0.1-1.2,0c-0.4,0-0.8,0-1.2,0c-1.1-0.5-2.4-0.8-3.8-1.3
							c-0.5-0.2-1-0.6-1.6-0.8c-0.4-0.2-0.8-0.3-1.2-0.4c-0.7-0.4-1.5-1.6-2.2-2.1c-0.4-0.3-1.1-0.4-1.4-0.7
							c-0.3-0.3-0.4-0.9-0.7-1.2c-0.3-0.4-0.8-0.7-1.1-1.1c-0.7-0.9-1.6-2.1-1.6-2.8c0-0.7,0.6-1.1,0.4-1.7
							c-0.2-0.6-1.5-0.5-1.6-1.2c-0.1-0.4,0.4-1.1,0.3-1.7c0-0.3-0.7-0.8-0.4-1.3c0.3-0.6,0.9,0,1.3-0.2c-0.3-1.2,0-3.1-1.2-3.5
							c-0.6,0.5,0.6,1.7-0.4,2c-1-0.4-0.8-1.8-1-2.7c-0.1-0.6-0.5-1.2-0.5-1.9c0-0.4,0.1-0.8,0.1-1.2c-0.2-1.1-1.4-2-1.5-3.1
							c0-0.5,0.3-1,0.4-1.6c0.1-0.4-0.1-0.8,0-1.2c0.1-0.5,0.4-1,0.4-1.5c0.1-0.9,0-2.5-0.2-3.2c-0.2-1-1-1.8-1.1-2.8
							c0-0.4,0.1-1,0.1-1.5c0-0.4-0.3-0.9-0.3-1.4c0-0.5,0.1-0.9,0.2-1.5c0.1-1-0.2-2.2-0.2-3.2c0-0.3,0.2-0.5,0.2-0.8
							c0-0.9-0.3-1.7-0.3-2.6c-0.1-1.6,0.2-2.7-0.1-4.1c-0.2-1.1-0.4-2.8-0.8-3.5c-0.4-0.8-2.2-2.1-3.1-2.6
							c-0.6-0.3-1.3-0.4-1.9-0.7c-1.3-0.7-3.9-2.1-4.5-3.4c-0.2-0.4-0.1-0.9-0.3-1.3c-0.4-0.8-1.1-1.6-1.6-2.4
							c-1-1.6-1.8-3.5-2.9-5.1c-0.5-0.8-1-1.7-1.6-2.4c-0.3-0.4-1.4-0.7-1.6-1.3c-0.2-0.8-0.7-1.8-0.7-2.4c0.1-0.8,1.7-1.4,1.6-2.1
							c0-0.6-0.8-1-1-1.5c-0.4-1.3,0.2-2,0.7-3.1c0.2-0.3,0.3-0.9,0.5-1.2c0.3-0.5,0.9-0.6,1.3-1.1c0.2-0.3,0.4-0.8,0.7-1.2
							c0.6-0.8,1.6-1.1,1.9-1.9c0.2-0.6,0.3-3.7,0.1-4.7c-0.1-0.6-0.7-1.1-0.9-1.6c-0.4-1-0.5-2.1-1.5-2.1c-0.6,0-1.1,0.7-1.5,1.2
							c-0.1,0.6,0,1.2-0.7,1.4c-0.9,0.3-1.3-1-2.4-1.3c-0.4-0.1-1.1-0.1-1.4-0.2c-0.8-0.4-1.1-1.5-1.9-2c-0.7-0.4-1.3-0.2-1.7-0.8
							c-0.2-0.4,0-1.1-0.1-1.6c-0.9-0.5-1.7-2.5-2.7-3c-0.7-0.3-1.8-0.3-2.6-0.6c-0.4-0.1-0.7-0.3-1.2-0.4c-0.5-0.1-1.1-0.1-1.5-0.3
							c-1.6-0.8-2.5-3.4-4.5-3.4c-0.9,0-1.7,0.8-2.5,0.8c-0.8,0-2.1-0.6-3.1-1.1c-1-0.5-2.1-0.7-3-1.2c-0.7-0.3-1.1-1-1.7-1.2
							c-0.5-0.2-1.1-0.2-1.5-0.4c-0.5-0.2-1.1-0.8-1.7-1.2c-0.6-0.4-1.3-1.1-1.3-1.6c0-0.6,0.6-1.2,0.7-1.8c0.2-2-1.2-3.4-2.1-4.5
							c-0.7-0.9-1.5-1.6-2.1-2.4c0-0.5,0-0.6,0-1.2c-0.5-0.5-0.9-1.2-1.5-2c-0.5-0.7-1.4-1.4-1.6-2.1c-0.2-0.9,0.4-1.7,0-2.6
							c-0.6-1.5-2.7-0.8-2.4,1.2c0.1,0.5,0.8,1.3,1.1,1.8c0.2,0.5,0.2,1.2,0.4,1.9c0.2,0.6,0.9,1.2,1.1,1.9c0.3,1.1,0.3,2.3,0.7,3.1
							c0.3,0.6,1.3,1.2,0.7,2c-0.8,0.2-1.1-0.6-1.6-1.1c-0.3-0.3-1.3-0.7-1.4-1.3c-0.1-0.5,0.3-1.1,0.2-1.7
							c-0.3-1.2-2.6-1.2-2.6-2.4c0-0.8,1-0.8,1-1.6c0-0.8-1.1-1.5-1.3-2.1c-0.2-0.6-0.2-1.6-0.3-2.5c-0.1-0.8,0-1.8-0.2-2.4
							c-0.2-0.6-1-1.3-1.6-1.6c-0.7-0.4-1.3-0.2-1.6-0.8c-0.3-0.5-0.5-1.6-0.6-2.1c-0.1-1,0-2.1-0.1-3.1c-0.1-1.1-0.2-2.1,0-3.2
							c0.4-0.8,1.2-1.2,1.6-2c0.3-0.5,0.3-1.2,0.7-1.8c0.6-1.1,1.9-2.1,2.8-3.1c1-1.1,1.8-2.2,2.4-3.5c0.2-0.5,0.7-1.5,0.7-2.1
							c-0.1-0.8-1.6-1.4-1.5-2.4c0.1-0.6,0.9-0.6,1.2-1.2c0.1-0.3,0.2-1.1,0.2-1.5c0-0.8-0.4-1.6-0.2-2.5c0.1-0.7,1.2-1,0.7-1.8
							c-0.5-0.8-1.5,0.4-2.1-0.1c-0.6-0.5,0.1-1,0.2-1.9c0-0.3-0.2-0.7-0.2-1c0-0.4,0.8-1,0.6-1.2c-0.4-0.6-0.9-2-1.9-2.5
							c-1.2-0.6-2.5-0.2-4.2-0.5c-1-0.2-1.5-1.1-2.5-1.1c-0.6,0-0.9,0.7-1.7,1.1c-0.8,0.3-1.8,0.2-2.6,0.4c-0.8,0.2-1.2,0.7-2,0.7
							c-0.7-0.1-0.7-0.7-1.5-0.7c-0.3,0-0.9,0.2-1.4,0.2c-1.3,0.1-3.6,0.2-4.9-0.1c-1.2-0.3-1.9-0.6-3.2-1.2c-1-0.5-2.8-1-2.7-1.7
							c0-0.5,1.7-1,2.4-1.2c1.1-0.3,1.7-0.9,2.6-0.9c0.3,0,0.7,0.2,1.2,0.2c0.4,0,0.9-0.4,1.5-0.5c1.2-0.2,2.8,0.1,2.6-1.1
							c-0.9-0.7-4.4,0.5-4.5-1c-0.1-0.9,1.4-1.2,2.4-1.4c0.9-0.2,2.4-0.5,3.2-0.5c0.9,0,2.2,1.1,2.7-0.1c0.3-0.8-0.3-1.5-0.5-2.2
							c0.7-1,2-0.8,3-1c1.1-0.2,2-0.4,3.1-0.8c1-0.4,2-0.7,3.1-0.8c1.1-0.1,2.2-0.6,3.2-0.7c0.8-0.1,1.6,0,2.4-0.2
							c0.7-0.1,1.5-0.5,2.2-0.5c0.5,0,1,0.4,1.5,0.5c0.5,0.1,1,0,1.6,0.1c0.4,0.1,0.8,0.4,1.2,0.4c0.6,0.1,1.3-0.1,1.9,0
							c0.6,0.1,1,0.4,1.6,0.5c1.3,0.2,2.7-0.1,4,0.2c0.5,0.1,0.9,0.3,1.4,0.4c0.5,0.1,1,0,1.5,0.1c0.7,0.1,1.2,0.8,1.9,0.8
							c1.3,0.1,2.7-0.6,4-0.7c1-0.1,2,0,3-0.2c0.9-0.2,1.8-0.5,2.6-0.6c0.4,0,0.8,0.1,1.2,0.1c0.4-0.1,0.9-0.6,1.4-0.5
							c0.6,0.1,0.5,0.9,1.2,1.1c0.7-0.4,1.4,0,2.2,0c0.8,0,1.5-0.4,2.3-0.2c1.5,0.2,3.6,1.7,4.8,0.9c0.3-0.2,0.2-0.5,0.5-1.1
							c0.4-0.7,1.1-1.5,0.9-2.6c-1.7,0-3.2,0.8-5.1,0.9c-1.9-1.2,0.5-1.9,1.9-2.5c1.1-0.4,2.1-1.4,3.5-1.6c1.2-0.2,2.4,0.3,3.8,0.4
							c0.8,0.1,1.6-0.1,2.1,0.1c0.8,0.2,1.2,1,1.9,1.2c0.3,0.1,0.8,0.1,1.2,0.2c0.7,0.2,1.4,0.6,2.1,0c0.6,0.1,0.6,0.7,1.2,0.8
							c0.5-0.3,1-1,1.8-1.2c0.4-0.1,0.8,0.1,1.2,0c0.7-0.1,1.6-1,2-0.2c-0.2,0.6-1.1,0.7-1.6,1.2c-0.4,0.4-1.1,1.4-1.1,1.8
							c0.1,0.8,1.3,0.5,1.3,1.5c-0.2,0.6-0.8,0.3-1.4,0.6c-0.5,0.2-0.7,0.7-1.2,0.8c-1.5,0.3-2.7-0.4-4-0.3c-0.1,0.6,0.6,0.9,1,1.1
							c1.2,0.6,2.1,0.5,3.8,0.5c0.8,0,1.8,0.3,2.6-0.2c0.5-0.3,0.4-1,0.8-1.4c0.5-0.5,1.5-0.9,2.2-0.8c0.4,0.1,0.9,0.5,0.9,0.8
							c0,0.7-1.1,0.5-1.1,1.3c0.7,0.4,2.5-0.5,2.6-1.2c0.1-0.5-0.6-0.8-0.6-1.3c0-0.9,1.2-0.8,1.1-1.7c-0.6-0.4-1.2,0.1-1.7,0
							c-0.8-0.1-1.5-1.1-1.9-1.7c0.4-0.4,1.1-0.1,1.6-0.1c0.6-0.8,1.7-1.2,3.3-1.3c0.6-0.1,1.3-0.3,1.6,0.2c0.1,0.8-1.2,1.2-0.9,2.1
							c1.1,0.3,1.5-1.2,2.4-1.8c0.4-0.3,1-0.4,1.6-0.7c0.5-0.2,1.1-0.7,1.5-0.7c0.5,0,0.5,0.4,1,0.6c0.4,0.2,0.9-0.1,1.1,0.4
							c-1,1.7-4.5,0.7-5.4,2.4c0.2,1.1-0.6,2.2,0.1,3c0.5,0.5,1.5,0.2,1.7,0.7c0.3,0.8-1,0.8-0.7,1.6c0.9,0.5,1.9-0.5,2.7-0.9
							c0.9-0.4,2-1,2.1-2c-0.4-0.8-2.1-0.2-2.3-1.1c-0.1-0.5,0.5-1.6,0.7-1.7c0.9-1,3.9-2.3,6-2.1c0.4,0,0.8,0.3,1.2,0.3
							c1.4,0.1,3.1-0.6,4.2,0c0.9-0.5,2,0.1,3.2-0.1c1,0.6,0.7,1.8,2.1,2.3c0.4,0.1,0.9,0,1.4,0.2c0.4,0.1,0.8,0.5,1.2,0.7
							c0.6,0.3,1.1,0.2,1.2,0.7c0.1,0.4-0.5,0.7-0.4,1.2c0.4,0.3,0.1,0.7,0.2,1.2c0.4,0.8,1.3,0.7,2.1,1.1c0.6,0.3,2,1,1.9,1.6
							c0,0.4-1.3,1.1-1.6,1.3c-0.3,0.1-1.7,0.8-2.1,0.7c-0.8-0.1-1.1-1.7-2.1-1.6c-0.5,0-0.9,0.3-0.9,0.9c0,1.1,1.2,1.1,1.2,2.1
							c0,1.1-0.6,1.2-1.6,1.9c-0.7-0.3-1.3-0.7-2.1-0.7c-0.5,0.6,0.9,0.9,0.4,1.6c-1.3,0.3-2.3-0.4-3.5-0.7
							c-0.4-0.1-0.9-0.1-1.2-0.2c-0.5-0.3-0.6-1.1-1-1.5c-0.4-0.5-1.3-1.2-2.1-1.2c-1,0-2.5,1.3-3.3,0.1c0.6-1.9,3.2-0.5,4.9-1.2
							c0.6-0.2,0.9-0.9,1.4-1.2c1.1-0.6,2.8-0.7,2.6-1.9c-0.1-0.6-0.9-0.6-1.4-0.9c-0.6-0.4-1.1-1.9-2.1-2c-0.5,0-0.8,0.4-1.3,0.4
							c-1.1,0.1-2.3-0.4-3.2,0c-0.4,0.3-0.1,0.7-0.5,1.2c-0.3,0.4-1,0.5-1.2,0.9c-0.3,0.5-0.3,1-0.7,1.4c-0.7,0.6-2.1,0.7-3,1
							c-0.4,0.1-0.9,0.6-1.2,0.6c-0.7,0-1-0.9-1.7-0.6c-0.1,0.9,0.9,1.2,1.6,1.6c0.7,0.4,1.4,0.9,1.6,1.6c-0.7,1.4-1.7-0.1-2.8-0.1
							c-1.2,0-2.9,2.2-3.9,0.4c0.2-1,1.3-1.1,1.6-2.1c-1.2,0.2-2.2,1.2-3.5,1.5c-0.6,0.1-1.1,0.1-1.6,0.2c-1,0.3-1.7,1-2.7,1.4
							c-0.4,0.2-0.9,0.1-1.3,0.2c-1,0.3-2.2,0.9-3.2,1.5c-1,0.6-2.2,1.2-2.9,1.7c-0.4,0.3-1.3,1.4-1.2,1.7c0,0.5,1,0.7,1,1.2
							c0,0.3-0.5,1-0.2,1.4c0.3,0.4,1,0.1,1.7,0.2c1.3,0.2,2.1,1.2,3.1,1.7c0.7,0.4,1.8,0.9,2.6,1c1.1,0.1,2.4-0.3,2.6,0.6
							c0.2,0.9-1.1,1.2-1.2,1.7c0.6,0.8-0.4,1.2-0.4,1.9c0,0.6,0.7,1.4,1.3,1.5c0.8,0.1,2-0.8,2.4-1.6c0.4-1,0.2-2.3,1-3.1
							c3.8,0.1,7.1-1.7,6.8-5.7c0-0.4-0.2-0.9-0.2-1.3c0.1-0.6,1.2-1.2,1.1-2c1.1-0.3,1-2.1,2.1-2.3c0.9-0.2,2,0.7,3.2,0.6
							c0.4,0,0.9-0.4,1.3-0.3c0.8,0.1,1.3,1.1,1.9,1.6c0.5,0.4,1.1,0.3,1.2,0.8c-0.2,0.9-0.8,0.9-0.7,1.8c0.1,0.8,0.8,1.3,1.2,1.4
							c0.6,0.1,1.5-0.2,2.1-0.5c1.1-0.5,2-2.1,3-1.9c0.7,0.2,1.3,2.5,1.4,3.3c0.1,0.9-0.1,1.6-0.1,2.4c0.1,1.4,1.9,1.2,2.7,2
							c0.3,0.2,0.4,0.8,0.6,1.1c0.4,0.6,0.9,0.6,1,1.2c0.2,1.4-1.3,1.5-1.2,3.1c-0.3,0.6-1,0.6-1,1.4c0.1,1.3,2,0.3,2.5,1.3
							c0.3,0.5,0,1-0.2,1.7c0.6,0.8,0.6,2-0.5,2C129.1,189.2,128.9,188.4,128.2,188.3z M39.1,186.1c0.4-0.4-0.2-1.2-0.7-0.9
							C38.3,185.5,38.4,186.2,39.1,186.1z M96.6,193.6c-0.3-0.3-1.5-0.2-2.2-0.2c-0.5,0.1-1.2,0.2-1.2,0.6
							C94,194.4,96.4,194.7,96.6,193.6z M92.3,192.2c0.6-0.5,0.4-1.6-0.3-1.7c-0.3-0.1-0.6,0.2-1.1,0.2c-0.5,0-0.9-0.5-1.3-0.5
							c-0.7-0.1-1.3,0.3-1.6,0.6c0,0.5,0.4,0.6,0.3,1.1c-0.8,0.6-0.4,2.5,0.4,2.6c0.8,0.1,1.3-2.1,2.4-2.3
							C91.6,192,91.8,192.3,92.3,192.2z M91.2,195.5c-1.2-0.4-2.3,0.3-3.2,0.4c-0.6,0.1-1.6-0.1-1.5,0.7c0.1,0.7,1.2,0.4,1.8,0.2
							C89.6,196.5,90.4,196.1,91.2,195.5z M87.6,189.2c1.6-0.7-0.3-2.9-1.1-3.1c-1.3-0.3-3.2,1-4.8,1.4c-0.9,0.2-1.7,0.3-1.9,1
							c0.8,1.3,2.3-0.3,3.5-0.1c0.6,0.1,0.9,0.9,1.5,1C85.1,189.6,87.4,189.3,87.6,189.2z M86.4,190.6c-0.3-0.4-2.2,0-2.7,0.4
							c-0.4,0.3-0.6,0.9-1,1.3c-0.4,0.5-0.8,0.8-1.2,1.2c-0.3,0.4-2,2.8-0.7,3.1c0.6,0.1,1.7-1,1.8-1.5c0.4-1.5,1.1-2.6,2.2-3.3
							C85.6,191.4,86.3,191.4,86.4,190.6z M76.1,181.3c0.9,0,1.5-2.8,0-2.4C75.1,179.2,74.8,181.4,76.1,181.3z M71.6,243.2
							c0-0.1,0.1-0.2,0.2-0.3C71.6,242,70.8,243.1,71.6,243.2z M36.8,174.2c0-0.2-0.1-0.2-0.1-0.3c-0.3,0-0.5,0-0.5,0.2
							C36.3,174.3,36.6,174.4,36.8,174.2z M123.4,161.2c0.4,0,0.6-0.1,0.6-0.5C123.6,160.5,123.1,160.8,123.4,161.2z M113.9,153.1
							c-0.1-0.1-0.4-0.1-0.5,0c0,0.1,0,0.2,0,0.3C113.8,153.5,113.9,153.3,113.9,153.1z M82.6,159.5c0.3-0.2,0.7-0.4,0.5-0.8
							c-0.9-0.4-2.4-0.1-3.8-0.2c-0.8-1.1-2-1.2-2.1,0.5C78.7,160.1,81,158.3,82.6,159.5z M67.9,168c0.5-0.2,1.1-0.1,1.2-0.6
							c-0.4-0.3-0.8-0.7-1.2-0.7c-0.6,0-0.9,0.5-1.5,0.8c-0.7,0.4-1.7,0.5-1.7,1.1C65.9,168.8,67.1,168.2,67.9,168z M67.4,162
							c0.5-0.1,1.1,0.1,1.4-0.3c-0.4-1.8-2.9-0.7-4.4-0.6c-0.3,0.5-0.7,0.9-0.8,1.6C64.8,163.1,66.2,162.3,67.4,162z M92.2,246.3
							c0.7-0.1,0.5-1.6-0.3-1.2C91.3,245.3,91.6,246.4,92.2,246.3z"/>
						<linearGradient id="SVGID_40_" gradientUnits="userSpaceOnUse" x1="114.415" y1="349.2498" x2="351.8152" y2="111.8496">
							<stop  offset="0" style="stop-color:#EBEBEB"/>
							<stop  offset="1" style="stop-color:#FFFFFF"/>
						</linearGradient>
						<path class="st39" d="M36.7,173.8c0,0.1,0.1,0.2,0.1,0.3c-0.1,0.2-0.5,0.2-0.6-0.1C36.1,173.8,36.4,173.8,36.7,173.8z"/>
						<linearGradient id="SVGID_41_" gradientUnits="userSpaceOnUse" x1="114.415" y1="349.2498" x2="351.8152" y2="111.8496">
							<stop  offset="0" style="stop-color:#EBEBEB"/>
							<stop  offset="1" style="stop-color:#FFFFFF"/>
						</linearGradient>
						<path class="st40" d="M34.2,178.7c-0.2,0.5-0.7,0.8-1.2,1c-0.2-0.1-0.3-0.3-0.4-0.4C32.7,178.5,33.8,177.9,34.2,178.7z"/>
					</g>
				</g>
			</g>
		</g>
	</g>
</g>
</svg>
