<?xml version="1.0" encoding="utf-8"?>
<!-- Generator: Adobe Illustrator 21.0.2, SVG Export Plug-In . SVG Version: 6.00 Build 0)  -->
<svg version="1.1" id="Layer_1" xmlns="http://www.w3.org/2000/svg" xmlns:xlink="http://www.w3.org/1999/xlink" x="0px" y="0px"
	 viewBox="0 0 416 539" style="enable-background:new 0 0 416 539;" xml:space="preserve">
<style type="text/css">
	.st0{opacity:0.25;}
	.st1{clip-path:url(#SVGID_2_);}
	.st2{clip-path:url(#SVGID_4_);}
	.st3{fill:#E6E7E8;}
	.st4{fill:url(#SVGID_5_);}
	.st5{fill:url(#SVGID_6_);}
	.st6{fill:url(#SVGID_7_);}
	.st7{clip-path:url(#SVGID_9_);fill:#A6A8AB;}
	.st8{clip-path:url(#SVGID_11_);fill:#E6E7E8;}
	.st9{display:none;}
	.st10{display:inline;fill:#E6E7E8;}
	.st11{clip-path:url(#SVGID_13_);}
	.st12{clip-path:url(#SVGID_15_);}
	.st13{fill:url(#SVGID_16_);}
	.st14{fill:url(#SVGID_17_);}
	.st15{fill:url(#SVGID_18_);}
	.st16{clip-path:url(#SVGID_20_);fill:#A6A8AB;}
	.st17{clip-path:url(#SVGID_22_);fill:#E6E7E8;}
	.st18{clip-path:url(#SVGID_24_);}
	.st19{clip-path:url(#SVGID_26_);}
	.st20{fill:url(#SVGID_27_);}
	.st21{fill:url(#SVGID_28_);}
	.st22{fill:url(#SVGID_29_);}
	.st23{clip-path:url(#SVGID_31_);fill:#A6A8AB;}
	.st24{clip-path:url(#SVGID_33_);fill:#E6E7E8;}
	.st25{clip-path:url(#SVGID_35_);}
	.st26{clip-path:url(#SVGID_37_);}
	.st27{fill:url(#SVGID_38_);}
	.st28{fill:url(#SVGID_39_);}
	.st29{fill:url(#SVGID_40_);}
	.st30{clip-path:url(#SVGID_42_);fill:#A6A8AB;}
	.st31{clip-path:url(#SVGID_44_);fill:#E6E7E8;}
	.st32{clip-path:url(#SVGID_46_);}
	.st33{clip-path:url(#SVGID_48_);}
	.st34{fill:url(#SVGID_49_);}
	.st35{fill:url(#SVGID_50_);}
	.st36{fill:url(#SVGID_51_);}
	.st37{clip-path:url(#SVGID_53_);fill:#A6A8AB;}
	.st38{clip-path:url(#SVGID_55_);fill:#E6E7E8;}
</style>
<g id="Layer_2">
	<g>
		<g>
			<g class="st0">
				<path d="M48.2,164.3c0.4,1.8,1,5.1,1.3,6.8c-0.4,0.6-1,1.1-1.4,1.8c-1,2.2-0.6,4.7-0.7,7.9c-0.3,10-3.4,16.8-9.2,21.1
					c-2.3,1.7-4.8,2.7-7.6,4.3c-5.9-2.8-10.4-5.4-13.4-10.7c-2.2-4-3.4-8.6-3.6-14.8c-0.1-3.2,0.5-5.7-0.8-7.9
					c-0.4-0.6-0.9-1.2-1.3-1.6c0.4-1.8,0.9-5.1,1.3-6.9c1,0.3,1.7,0.9,2.7,1.3c1.5,0.6,3.5,1.5,5.7,1.4c4.1-0.3,7.2-2.5,9.2-4.6
					c2.7,3.6,8.5,6.3,14.9,3.2C46.5,165.2,47.4,164.6,48.2,164.3z"/>
				<path d="M46.9,166.4c0.3,1.6,0.9,3,1.2,4.6c-0.3,0.5-1,1-1.3,1.7c-1,2-0.5,5.5-0.6,8.4c-0.3,9.2-3.2,15.6-8.6,19.5
					c-2.1,1.5-4.5,2.5-7,4c-5.4-2.6-9.6-5-12.3-9.9c-2.1-3.7-3.1-7.9-3.3-13.6c-0.1-2.9,0.5-6.4-0.7-8.5c-0.3-0.6-0.9-1.1-1.2-1.5
					c0.3-1.7,0.9-3,1.2-4.7c0.9,0.3,1.6,0.9,2.5,1.2c1.4,0.5,3.2,0.9,5.3,0.7c3.8-0.3,6.6-2.3,8.5-4.2c2.5,3.3,8.6,5.4,13.8,3.5
					C45.4,167.3,46.1,166.7,46.9,166.4z"/>
				<path d="M14.3,172.6c1.1,2.1,0.6,5.5,0.7,8.5c0.2,5.7,1.2,10,3.3,13.6c0.1,0.1,0.1,0.2,0.2,0.4c0.9-1,1.9-2.1,2.8-3.1
					c9.4-9.9,19.1-17.5,26.7-21.4c-0.4-1.4-0.9-2.7-1.1-4.2c-0.9,0.3-1.6,0.9-2.5,1.2c-5.1,1.9-11.3-0.2-13.8-3.5
					c-1.9,1.9-4.8,4-8.5,4.2c-2.1,0.1-3.9-0.2-5.3-0.7c-0.9-0.3-1.6-0.9-2.5-1.2c-0.3,1.7-0.9,3-1.2,4.7
					C13.4,171.5,13.9,172,14.3,172.6z"/>
				<path d="M30.5,205c-5.4-2.6-9.7-5-12.5-10l0,0c-2.1-3.7-3.2-8.1-3.4-13.8l0,0c0-0.3,0-0.5,0-0.8l0,0c0-1.1,0.1-2.3,0.1-3.3l0,0
					c0-1.6-0.1-3.1-0.7-4.1l0,0c-0.3-0.5-0.8-1.1-1.1-1.4l0,0l-0.1-0.1v-0.2c0.3-1.7,0.9-3.1,1.2-4.7l0,0l0.1-0.4l0.3,0.1
					c0.9,0.3,1.7,0.9,2.5,1.2l0,0c1.1,0.4,2.6,0.7,4.3,0.7l0,0c0.3,0,0.6,0,1,0l0,0c3.7-0.2,6.5-2.2,8.4-4.1l0,0l0.3-0.2l0.2,0.3
					c1.7,2.3,5.5,4.1,9.4,4.1l0,0c1.3,0,2.8-0.2,4-0.7l0,0c0.9-0.3,1.6-0.9,2.5-1.2l0,0l0.4-0.4l0.1,0.3c0.3,1.6,0.9,3,1.2,4.6l0,0
					v0.1l-0.1,0.1c-0.4,0.6-1,1.1-1.2,1.6l0,0c-0.5,1-0.6,2.4-0.6,4l0,0c0,1.1,0.1,2.2,0.1,3.4l0,0c0,0.3,0,0.6,0,0.9l0,0
					c-0.3,9.3-3.2,15.8-8.6,19.8l0,0c-2.1,1.6-4.6,2.5-7.1,4l0,0l-0.1,0.1L30.5,205L30.5,205z M14.5,172.5c0.7,1.2,0.8,2.8,0.8,4.5
					l0,0c0,1.1-0.1,2.3-0.1,3.3l0,0c0,0.3,0,0.5,0,0.8l0,0c0.2,5.7,1.2,9.9,3.3,13.5l0,0c2.7,4.8,6.7,7.2,12.1,9.7l0,0
					c2.6-1.5,4.9-2.4,6.9-3.9l0,0c5.3-3.9,8.2-10.1,8.5-19.3l0,0c0-0.3,0-0.6,0-0.9l0,0c0-1.1-0.1-2.2-0.1-3.4l0,0
					c0-1.6,0.1-3.1,0.7-4.3l0,0c0.4-0.7,1-1.2,1.2-1.6l0,0c-0.3-1.4-0.8-2.7-1.1-4.1l0,0c-0.7,0.3-1.3,0.8-2.2,1.1l0,0
					c-1.3,0.5-2.8,0.7-4.2,0.7l0,0c-3.9,0-7.7-1.7-9.7-4.1l0,0c-2,1.9-4.8,3.8-8.6,4.1l0,0c-0.3,0-0.7,0-0.9,0l0,0
					c-1.7,0-3.2-0.3-4.5-0.8l0,0c-0.9-0.3-1.5-0.8-2.2-1.1l0,0c-0.3,1.5-0.9,2.7-1.1,4.2l0,0C13.7,171.4,14.2,171.9,14.5,172.5
					L14.5,172.5z"/>
				<path d="M48.2,164.3c0.4,1.8,1,5.1,1.3,6.8c-0.4,0.6-1,1.1-1.4,1.8c-1,2.2-0.6,4.7-0.7,7.9c-0.3,10-3.4,16.8-9.2,21.1
					c-2.3,1.7-4.8,2.7-7.6,4.3c-5.9-2.8-10.4-5.4-13.4-10.7c-2.2-4-3.4-8.6-3.6-14.8c-0.1-3.2,0.5-5.7-0.8-7.9
					c-0.4-0.6-0.9-1.2-1.3-1.6c0.4-1.8,0.9-5.1,1.3-6.9c1,0.3,1.7,0.9,2.7,1.3c1.5,0.6,3.5,1.5,5.7,1.4c4.1-0.3,7.2-2.5,9.2-4.6
					c2.7,3.6,8.5,6.3,14.9,3.2C46.5,165.2,47.4,164.6,48.2,164.3z"/>
				<path d="M46.9,166.4c0.3,1.6,0.9,3,1.2,4.6c-0.3,0.5-1,1-1.3,1.7c-1,2-0.5,5.5-0.6,8.4c-0.3,9.2-3.2,15.6-8.6,19.5
					c-2.1,1.5-4.5,2.5-7,4c-5.4-2.6-9.6-5-12.3-9.9c-2.1-3.7-3.1-7.9-3.3-13.6c-0.1-2.9,0.5-6.4-0.7-8.5c-0.3-0.6-0.9-1.1-1.2-1.5
					c0.3-1.7,0.9-3,1.2-4.7c0.9,0.3,1.6,0.9,2.5,1.2c1.4,0.5,3.2,0.9,5.3,0.7c3.8-0.3,6.6-2.3,8.5-4.2c2.5,3.3,8.6,5.4,13.8,3.5
					C45.4,167.3,46.1,166.7,46.9,166.4z"/>
				<path d="M14.3,172.6c1.1,2.1,0.6,5.5,0.7,8.5c0.2,5.7,1.2,10,3.3,13.6c0.1,0.1,0.1,0.2,0.2,0.4c0.9-1,1.9-2.1,2.8-3.1
					c9.4-9.9,19.1-17.5,26.7-21.4c-0.4-1.4-0.9-2.7-1.1-4.2c-0.9,0.3-1.6,0.9-2.5,1.2c-5.1,1.9-11.3-0.2-13.8-3.5
					c-1.9,1.9-4.8,4-8.5,4.2c-2.1,0.1-3.9-0.2-5.3-0.7c-0.9-0.3-1.6-0.9-2.5-1.2c-0.3,1.7-0.9,3-1.2,4.7
					C13.4,171.5,13.9,172,14.3,172.6z"/>
				<path d="M30.5,205c-5.4-2.6-9.7-5-12.5-10l0,0c-2.1-3.7-3.2-8.1-3.4-13.8l0,0c0-0.3,0-0.5,0-0.8l0,0c0-1.1,0.1-2.3,0.1-3.3l0,0
					c0-1.6-0.1-3.1-0.7-4.1l0,0c-0.3-0.5-0.8-1.1-1.1-1.4l0,0l-0.1-0.1v-0.2c0.3-1.7,0.9-3.1,1.2-4.7l0,0l0.1-0.4l0.3,0.1
					c0.9,0.3,1.7,0.9,2.5,1.2l0,0c1.1,0.4,2.6,0.7,4.3,0.7l0,0c0.3,0,0.6,0,1,0l0,0c3.7-0.2,6.5-2.2,8.4-4.1l0,0l0.3-0.2l0.2,0.3
					c1.7,2.3,5.5,4.1,9.4,4.1l0,0c1.3,0,2.8-0.2,4-0.7l0,0c0.9-0.3,1.6-0.9,2.5-1.2l0,0l0.4-0.4l0.1,0.3c0.3,1.6,0.9,3,1.2,4.6l0,0
					v0.1l-0.1,0.1c-0.4,0.6-1,1.1-1.2,1.6l0,0c-0.5,1-0.6,2.4-0.6,4l0,0c0,1.1,0.1,2.2,0.1,3.4l0,0c0,0.3,0,0.6,0,0.9l0,0
					c-0.3,9.3-3.2,15.8-8.6,19.8l0,0c-2.1,1.6-4.6,2.5-7.1,4l0,0l-0.1,0.1L30.5,205L30.5,205z M14.5,172.5c0.7,1.2,0.8,2.8,0.8,4.5
					l0,0c0,1.1-0.1,2.3-0.1,3.3l0,0c0,0.3,0,0.5,0,0.8l0,0c0.2,5.7,1.2,9.9,3.3,13.5l0,0c2.7,4.8,6.7,7.2,12.1,9.7l0,0
					c2.6-1.5,4.9-2.4,6.9-3.9l0,0c5.3-3.9,8.2-10.1,8.5-19.3l0,0c0-0.3,0-0.6,0-0.9l0,0c0-1.1-0.1-2.2-0.1-3.4l0,0
					c0-1.6,0.1-3.1,0.7-4.3l0,0c0.4-0.7,1-1.2,1.2-1.6l0,0c-0.3-1.4-0.8-2.7-1.1-4.1l0,0c-0.7,0.3-1.3,0.8-2.2,1.1l0,0
					c-1.3,0.5-2.8,0.7-4.2,0.7l0,0c-3.9,0-7.7-1.7-9.7-4.1l0,0c-2,1.9-4.8,3.8-8.6,4.1l0,0c-0.3,0-0.7,0-0.9,0l0,0
					c-1.7,0-3.2-0.3-4.5-0.8l0,0c-0.9-0.3-1.5-0.8-2.2-1.1l0,0c-0.3,1.5-0.9,2.7-1.1,4.2l0,0C13.7,171.4,14.2,171.9,14.5,172.5
					L14.5,172.5z"/>
				<g>
					<g>
						<g>
							<g>
								<g>
									<defs>
										<path id="SVGID_1_" d="M35.9,178.3c0-3.1-2.4-5.6-5.3-5.6s-5.3,2.5-5.3,5.6c0,2.2,1.2,4.1,2.9,5L25.5,195h4.9h0.4h4.9
											L33,183.3C34.7,182.4,35.9,180.5,35.9,178.3z"/>
									</defs>
									<clipPath id="SVGID_2_">
										<use xlink:href="#SVGID_1_"  style="overflow:visible;"/>
									</clipPath>
									<path class="st1" d="M35.9,178.3c0-3.1-2.4-5.6-5.3-5.6s-5.3,2.5-5.3,5.6c0,2.2,1.2,4.1,2.9,5L25.5,195h4.9h0.4h4.9
										L33,183.3C34.7,182.4,35.9,180.5,35.9,178.3z"/>
								</g>
							</g>
						</g>
					</g>
					<g>
						<g>
							<g>
								<g>
									<defs>
										<path id="SVGID_3_" d="M35.9,178.3c0-3.1-2.4-5.6-5.3-5.6s-5.3,2.5-5.3,5.6c0,2.2,1.2,4.1,2.9,5L25.5,195h4.9h0.4h4.9
											L33,183.3C34.7,182.4,35.9,180.5,35.9,178.3z"/>
									</defs>
									<clipPath id="SVGID_4_">
										<use xlink:href="#SVGID_3_"  style="overflow:visible;"/>
									</clipPath>
									<path class="st2" d="M37.1,178.4c0-3.1-2.4-5.6-5.3-5.6s-5.3,2.5-5.3,5.6c0,2.2,1.2,4.1,2.9,5l-2.8,11.7h4.9H32h4.9
										l-2.8-11.7C35.9,182.4,37.1,180.6,37.1,178.4z"/>
								</g>
							</g>
						</g>
					</g>
				</g>
			</g>
			<g>
				<g>
					<g>
						<g>
							<g>
								<path class="st3" d="M50.6,161.9c0.4,1.8,0.9,5.1,1.3,6.8c-0.4,0.6-1,1.1-1.4,1.8c-1,2.2-0.6,4.7-0.7,7.9
									c-0.3,10-3.4,16.8-9.2,21.1c-2.3,1.7-4.8,2.7-7.6,4.3c-5.9-2.8-10.4-5.4-13.4-10.7c-2.2-4-3.4-8.6-3.6-14.8
									c-0.1-3.2,0.5-5.7-0.8-7.9c-0.4-0.6-0.9-1.2-1.3-1.6c0.4-1.8,1-5.1,1.3-6.9c1,0.3,1.7,0.9,2.7,1.3c1.5,0.6,3.5,1.5,5.7,1.4
									c4.1-0.3,7.2-2.5,9.2-4.6c2.7,3.6,8.6,6.3,14.9,3.2C48.8,162.7,49.7,162.2,50.6,161.9z"/>
								<g>
									<path class="st3" d="M49.3,164c0.3,1.6,0.9,3,1.2,4.6c-0.3,0.5-0.9,1-1.3,1.7c-1,2-0.5,5.5-0.6,8.4
										c-0.3,9.2-3.2,15.6-8.5,19.5c-2.1,1.5-4.5,2.5-7,4c-5.4-2.6-9.6-5-12.4-9.9c-2.1-3.7-3.1-7.9-3.3-13.6
										c-0.1-2.9,0.5-6.4-0.7-8.5c-0.3-0.6-0.9-1.1-1.2-1.5c0.3-1.7,0.9-3,1.2-4.7c0.9,0.3,1.6,0.9,2.5,1.2
										c1.4,0.5,3.2,0.9,5.3,0.7c3.8-0.3,6.7-2.3,8.6-4.2c2.5,3.3,8.6,5.4,13.8,3.5C47.7,164.8,48.4,164.2,49.3,164z"/>
									<path class="st3" d="M16.6,170.2c1.1,2.1,0.6,5.5,0.7,8.5c0.2,5.7,1.2,10,3.3,13.6c0.1,0.1,0.1,0.2,0.2,0.4
										c1-1,1.9-2.1,2.9-3.1c9.4-9.9,19.1-17.5,26.7-21.4c-0.4-1.4-0.9-2.7-1.1-4.2c-0.9,0.3-1.6,0.9-2.5,1.2
										c-5.1,1.9-11.3-0.2-13.8-3.5c-1.9,1.9-4.8,4-8.6,4.2c-2.1,0.1-3.9-0.2-5.3-0.7c-0.9-0.3-1.6-0.9-2.5-1.2
										c-0.3,1.7-0.9,3-1.2,4.7C15.8,169,16.3,169.6,16.6,170.2z"/>
								</g>
								<path class="st3" d="M32.9,202.5c-5.4-2.6-9.7-5-12.5-10l0,0c-2.1-3.7-3.2-8.1-3.4-13.8l0,0c0-0.3,0-0.5,0-0.8l0,0
									c0-1.1,0.1-2.3,0.1-3.3l0,0c0-1.6-0.1-3.1-0.7-4.1l0,0c-0.3-0.5-0.8-1.1-1.1-1.4l0,0l-0.1-0.1v-0.2c0.3-1.7,0.9-3.1,1.2-4.7
									l0,0l0.1-0.4l0.3,0.1c1,0.3,1.7,0.9,2.5,1.2l0,0c1.1,0.4,2.6,0.7,4.3,0.7l0,0c0.3,0,0.6,0,1,0l0,0c3.7-0.2,6.5-2.2,8.4-4.1
									l0,0l0.3-0.2l0.2,0.3c1.7,2.3,5.5,4.1,9.4,4.1l0,0c1.3,0,2.8-0.2,4-0.7l0,0c0.9-0.3,1.6-0.9,2.5-1.2l0,0l0.3-0.1l0.1,0.3
									c0.3,1.6,0.9,3,1.2,4.6l0,0v0.1l-0.1,0.1c-0.4,0.6-1,1.1-1.2,1.6l0,0c-0.5,1-0.6,2.4-0.6,4l0,0c0,1.1,0.1,2.2,0.1,3.4l0,0
									c0,0.3,0,0.6,0,0.9l0,0c-0.3,9.3-3.2,15.8-8.6,19.8l0,0c-2.1,1.6-4.6,2.5-7.1,4l0,0l-0.1,0.1L32.9,202.5L32.9,202.5z
									 M16.9,170.1c0.7,1.2,0.8,2.8,0.8,4.5l0,0c0,1.1-0.1,2.3-0.1,3.3l0,0c0,0.3,0,0.5,0,0.8l0,0c0.2,5.7,1.2,9.9,3.3,13.5l0,0
									c2.7,4.8,6.7,7.2,12.1,9.7l0,0c2.6-1.5,4.9-2.4,6.9-3.9l0,0c5.3-3.9,8.2-10.1,8.5-19.3l0,0c0-0.3,0-0.6,0-0.9l0,0
									c0-1.1-0.1-2.2-0.1-3.4l0,0c0-1.6,0.1-3.1,0.7-4.3l0,0c0.4-0.7,0.9-1.2,1.2-1.6l0,0c-0.3-1.4-0.8-2.7-1.1-4.1l0,0
									c-0.7,0.3-1.3,0.8-2.2,1.1l0,0c-1.3,0.5-2.8,0.7-4.2,0.7l0,0c-3.9,0-7.7-1.7-9.7-4.1l0,0c-2,1.9-4.8,3.8-8.6,4.1l0,0
									c-0.3,0-0.7,0-1,0l0,0c-1.7,0-3.2-0.3-4.5-0.8l0,0c-0.9-0.3-1.5-0.8-2.2-1.1l0,0c-0.3,1.5-0.9,2.7-1.1,4.2l0,0
									C16.1,169,16.5,169.5,16.9,170.1L16.9,170.1z"/>
							</g>
							<g>
								
									<linearGradient id="SVGID_5_" gradientUnits="userSpaceOnUse" x1="13.9625" y1="829.9" x2="51.9111" y2="829.9" gradientTransform="matrix(1 0 0 1 0 -648)">
									<stop  offset="0" style="stop-color:#996431"/>
									<stop  offset="0.5" style="stop-color:#F3F1C0"/>
									<stop  offset="0.7419" style="stop-color:#C3A573"/>
									<stop  offset="0.9145" style="stop-color:#A57643"/>
									<stop  offset="1" style="stop-color:#996431"/>
								</linearGradient>
								<path class="st4" d="M50.6,161.9c0.4,1.8,0.9,5.1,1.3,6.8c-0.4,0.6-1,1.1-1.4,1.8c-1,2.2-0.6,4.7-0.7,7.9
									c-0.3,10-3.4,16.8-9.2,21.1c-2.3,1.7-4.8,2.7-7.6,4.3c-5.9-2.8-10.4-5.4-13.4-10.7c-2.2-4-3.4-8.6-3.6-14.8
									c-0.1-3.2,0.5-5.7-0.8-7.9c-0.4-0.6-0.9-1.2-1.3-1.6c0.4-1.8,1-5.1,1.3-6.9c1,0.3,1.7,0.9,2.7,1.3c1.5,0.6,3.5,1.5,5.7,1.4
									c4.1-0.3,7.2-2.5,9.2-4.6c2.7,3.6,8.6,6.3,14.9,3.2C48.8,162.7,49.7,162.2,50.6,161.9z"/>
								<g>
									<path d="M49.3,164c0.3,1.6,0.9,3,1.2,4.6c-0.3,0.5-0.9,1-1.3,1.7c-1,2-0.5,5.5-0.6,8.4c-0.3,9.2-3.2,15.6-8.5,19.5
										c-2.1,1.5-4.5,2.5-7,4c-5.4-2.6-9.6-5-12.4-9.9c-2.1-3.7-3.1-7.9-3.3-13.6c-0.1-2.9,0.5-6.4-0.7-8.5
										c-0.3-0.6-0.9-1.1-1.2-1.5c0.3-1.7,0.9-3,1.2-4.7c0.9,0.3,1.6,0.9,2.5,1.2c1.4,0.5,3.2,0.9,5.3,0.7
										c3.8-0.3,6.7-2.3,8.6-4.2c2.5,3.3,8.6,5.4,13.8,3.5C47.7,164.8,48.4,164.2,49.3,164z"/>
									
										<linearGradient id="SVGID_6_" gradientUnits="userSpaceOnUse" x1="22.0122" y1="808.4525" x2="35.7037" y2="827.2474" gradientTransform="matrix(1 0 0 1 0 -648)">
										<stop  offset="0" style="stop-color:#4D4D4D"/>
										<stop  offset="1" style="stop-color:#1A1A1A"/>
									</linearGradient>
									<path class="st5" d="M16.6,170.2c1.1,2.1,0.6,5.5,0.7,8.5c0.2,5.7,1.2,10,3.3,13.6c0.1,0.1,0.1,0.2,0.2,0.4
										c1-1,1.9-2.1,2.9-3.1c9.4-9.9,19.1-17.5,26.7-21.4c-0.4-1.4-0.9-2.7-1.1-4.2c-0.9,0.3-1.6,0.9-2.5,1.2
										c-5.1,1.9-11.3-0.2-13.8-3.5c-1.9,1.9-4.8,4-8.6,4.2c-2.1,0.1-3.9-0.2-5.3-0.7c-0.9-0.3-1.6-0.9-2.5-1.2
										c-0.3,1.7-0.9,3-1.2,4.7C15.8,169,16.3,169.6,16.6,170.2z"/>
								</g>
								
									<linearGradient id="SVGID_7_" gradientUnits="userSpaceOnUse" x1="33.1" y1="809.5048" x2="33.1" y2="850.594" gradientTransform="matrix(1 0 0 1 0 -648)">
									<stop  offset="0" style="stop-color:#996431"/>
									<stop  offset="0.5" style="stop-color:#F3F1C0"/>
									<stop  offset="0.7419" style="stop-color:#C3A573"/>
									<stop  offset="0.9145" style="stop-color:#A57643"/>
									<stop  offset="1" style="stop-color:#996431"/>
								</linearGradient>
								<path class="st6" d="M32.9,202.5c-5.4-2.6-9.7-5-12.5-10l0,0c-2.1-3.7-3.2-8.1-3.4-13.8l0,0c0-0.3,0-0.5,0-0.8l0,0
									c0-1.1,0.1-2.3,0.1-3.3l0,0c0-1.6-0.1-3.1-0.7-4.1l0,0c-0.3-0.5-0.8-1.1-1.1-1.4l0,0l-0.1-0.1v-0.2c0.3-1.7,0.9-3.1,1.2-4.7
									l0,0l0.1-0.4l0.3,0.1c1,0.3,1.7,0.9,2.5,1.2l0,0c1.1,0.4,2.6,0.7,4.3,0.7l0,0c0.3,0,0.6,0,1,0l0,0c3.7-0.2,6.5-2.2,8.4-4.1
									l0,0l0.3-0.2l0.2,0.3c1.7,2.3,5.5,4.1,9.4,4.1l0,0c1.3,0,2.8-0.2,4-0.7l0,0c0.9-0.3,1.6-0.9,2.5-1.2l0,0l0.3-0.1l0.1,0.3
									c0.3,1.6,0.9,3,1.2,4.6l0,0v0.1l-0.1,0.1c-0.4,0.6-1,1.1-1.2,1.6l0,0c-0.5,1-0.6,2.4-0.6,4l0,0c0,1.1,0.1,2.2,0.1,3.4l0,0
									c0,0.3,0,0.6,0,0.9l0,0c-0.3,9.3-3.2,15.8-8.6,19.8l0,0c-2.1,1.6-4.6,2.5-7.1,4l0,0l-0.1,0.1L32.9,202.5L32.9,202.5z
									 M16.9,170.1c0.7,1.2,0.8,2.8,0.8,4.5l0,0c0,1.1-0.1,2.3-0.1,3.3l0,0c0,0.3,0,0.5,0,0.8l0,0c0.2,5.7,1.2,9.9,3.3,13.5l0,0
									c2.7,4.8,6.7,7.2,12.1,9.7l0,0c2.6-1.5,4.9-2.4,6.9-3.9l0,0c5.3-3.9,8.2-10.1,8.5-19.3l0,0c0-0.3,0-0.6,0-0.9l0,0
									c0-1.1-0.1-2.2-0.1-3.4l0,0c0-1.6,0.1-3.1,0.7-4.3l0,0c0.4-0.7,0.9-1.2,1.2-1.6l0,0c-0.3-1.4-0.8-2.7-1.1-4.1l0,0
									c-0.7,0.3-1.3,0.8-2.2,1.1l0,0c-1.3,0.5-2.8,0.7-4.2,0.7l0,0c-3.9,0-7.7-1.7-9.7-4.1l0,0c-2,1.9-4.8,3.8-8.6,4.1l0,0
									c-0.3,0-0.7,0-1,0l0,0c-1.7,0-3.2-0.3-4.5-0.8l0,0c-0.9-0.3-1.5-0.8-2.2-1.1l0,0c-0.3,1.5-0.9,2.7-1.1,4.2l0,0
									C16.1,169,16.5,169.5,16.9,170.1L16.9,170.1z"/>
							</g>
						</g>
						<g>
							<g>
								<g>
									<g>
										<g>
											<defs>
												<path id="SVGID_8_" d="M38.3,175.9c0-3.1-2.4-5.6-5.3-5.6s-5.3,2.5-5.3,5.6c0,2.2,1.2,4.1,2.9,5l-2.8,11.7h4.9h0.4H38
													l-2.8-11.7C37,179.9,38.3,178.1,38.3,175.9z"/>
											</defs>
											<clipPath id="SVGID_9_">
												<use xlink:href="#SVGID_8_"  style="overflow:visible;"/>
											</clipPath>
											<path class="st7" d="M38.3,175.9c0-3.1-2.4-5.6-5.3-5.6s-5.3,2.5-5.3,5.6c0,2.2,1.2,4.1,2.9,5l-2.8,11.7h4.9h0.4H38
												l-2.8-11.7C37,179.9,38.3,178.1,38.3,175.9z"/>
										</g>
									</g>
								</g>
							</g>
							<g>
								<g>
									<g>
										<g>
											<defs>
												<path id="SVGID_10_" d="M38.3,175.9c0-3.1-2.4-5.6-5.3-5.6s-5.3,2.5-5.3,5.6c0,2.2,1.2,4.1,2.9,5l-2.8,11.7h4.9h0.4H38
													l-2.8-11.7C37,179.9,38.3,178.1,38.3,175.9z"/>
											</defs>
											<clipPath id="SVGID_11_">
												<use xlink:href="#SVGID_10_"  style="overflow:visible;"/>
											</clipPath>
											<path class="st8" d="M39.4,175.9c0-3.1-2.4-5.6-5.3-5.6s-5.3,2.5-5.3,5.6c0,2.2,1.2,4.1,2.9,5L29,192.6h4.9h0.4h4.9
												l-2.8-11.7C38.3,180,39.4,178.1,39.4,175.9z"/>
										</g>
									</g>
								</g>
							</g>
						</g>
						<g id="Backup_Keyhole_11_" class="st9">
							<polygon class="st10" points="44.5,180.2 42.6,180.2 42.2,180.2 40.3,180.2 37.2,193.1 42.2,193.1 42.6,193.1 47.5,193.1 
															"/>
							<ellipse class="st10" cx="42.4" cy="176.5" rx="5.3" ry="5.6"/>
						</g>
					</g>
				</g>
			</g>
		</g>
	</g>
	<g>
		<g>
			<g class="st0">
				<path d="M130.7,234.8c0.4,1.8,0.9,5.1,1.3,6.8c-0.4,0.6-1,1.1-1.4,1.8c-1,2.2-0.6,4.7-0.7,7.9c-0.3,10-3.4,16.8-9.2,21.1
					c-2.3,1.7-4.8,2.7-7.6,4.3c-5.9-2.8-10.4-5.4-13.4-10.7c-2.2-4-3.4-8.6-3.6-14.8c-0.1-3.2,0.5-5.7-0.8-7.9
					c-0.4-0.6-0.9-1.2-1.3-1.6c0.4-1.8,1-5.1,1.3-6.9c1,0.3,1.7,0.9,2.7,1.3c1.5,0.6,3.5,1.5,5.7,1.4c4.1-0.3,7.2-2.5,9.2-4.6
					c2.7,3.6,8.5,6.3,14.9,3.2C129,235.7,129.9,235.1,130.7,234.8z"/>
				<path d="M129.4,236.9c0.3,1.6,0.9,3,1.2,4.6c-0.3,0.5-0.9,1-1.3,1.7c-1,2-0.5,5.5-0.6,8.4c-0.3,9.2-3.2,15.6-8.5,19.5
					c-2.1,1.5-4.5,2.5-7,4c-5.4-2.6-9.6-5-12.3-9.9c-2.1-3.7-3.1-7.9-3.3-13.6c-0.1-2.9,0.5-6.4-0.7-8.5c-0.3-0.6-0.9-1.1-1.2-1.5
					c0.3-1.7,0.9-3,1.2-4.7c0.9,0.3,1.6,0.9,2.5,1.2c1.4,0.5,3.2,0.9,5.3,0.7c3.8-0.3,6.7-2.3,8.6-4.2c2.5,3.3,8.6,5.4,13.8,3.5
					C127.9,237.8,128.6,237.2,129.4,236.9z"/>
				<path d="M96.8,243.1c1.1,2.1,0.6,5.5,0.7,8.5c0.2,5.7,1.2,10,3.3,13.6c0.1,0.1,0.1,0.2,0.2,0.4c0.9-1,1.9-2.1,2.8-3.1
					c9.4-9.9,19.1-17.5,26.7-21.4c-0.4-1.4-0.9-2.7-1.1-4.2c-0.9,0.3-1.6,0.9-2.5,1.2c-5.1,1.9-11.3-0.2-13.8-3.5
					c-1.9,1.9-4.8,4-8.6,4.2c-2.1,0.1-3.9-0.2-5.3-0.7c-0.9-0.3-1.6-0.9-2.5-1.2c-0.3,1.7-0.9,3-1.2,4.7
					C95.9,242,96.4,242.5,96.8,243.1z"/>
				<path d="M113,275.5c-5.4-2.6-9.7-5-12.5-10l0,0c-2.1-3.7-3.2-8.1-3.4-13.8l0,0c0-0.3,0-0.5,0-0.8l0,0c0-1.1,0.1-2.3,0.1-3.3l0,0
					c0-1.6-0.1-3.1-0.7-4.1l0,0c-0.3-0.5-0.8-1.1-1.1-1.4l0,0l-0.1-0.1v-0.2c0.3-1.7,1-3.1,1.2-4.7l0,0l0.1-0.4l0.3,0.1
					c1,0.3,1.7,0.9,2.5,1.2l0,0c1.1,0.4,2.6,0.7,4.3,0.7l0,0c0.3,0,0.6,0,0.9,0l0,0c3.7-0.2,6.5-2.2,8.4-4.1l0,0l0.3-0.2l0.2,0.3
					c1.7,2.3,5.5,4.1,9.4,4.1l0,0c1.3,0,2.8-0.2,4-0.7l0,0c0.9-0.3,1.6-0.9,2.5-1.2l0,0l0.3-0.1l0.1,0.3c0.3,1.6,0.9,3,1.2,4.6l0,0
					v0.1l-0.1,0.1c-0.4,0.6-1,1.1-1.2,1.6l0,0c-0.5,1-0.6,2.4-0.6,4l0,0c0,1.1,0.1,2.2,0.1,3.4l0,0c0,0.3,0,0.6,0,0.9l0,0
					c-0.3,9.3-3.2,15.8-8.6,19.8l0,0c-2.1,1.6-4.6,2.5-7.1,4l0,0l-0.1,0.1L113,275.5L113,275.5z M97,243c0.7,1.2,0.8,2.8,0.8,4.5
					l0,0c0,1.1-0.1,2.3-0.1,3.3l0,0c0,0.3,0,0.5,0,0.8l0,0c0.2,5.7,1.2,9.9,3.3,13.5l0,0c2.7,4.8,6.7,7.2,12.1,9.7l0,0
					c2.6-1.5,4.9-2.4,6.9-3.9l0,0c5.3-3.9,8.2-10.1,8.5-19.3l0,0c0-0.3,0-0.6,0-0.9l0,0c0-1.1-0.1-2.2-0.1-3.4l0,0
					c0-1.6,0.1-3.1,0.7-4.3l0,0c0.4-0.7,1-1.2,1.2-1.6l0,0c-0.3-1.4-0.8-2.7-1.1-4.1l0,0c-0.7,0.3-1.3,0.8-2.2,1.1l0,0
					c-1.3,0.5-2.8,0.7-4.2,0.7l0,0c-3.9,0-7.7-1.7-9.7-4.1l0,0c-2,1.9-4.8,3.8-8.5,4.1l0,0c-0.3,0-0.7,0-1,0l0,0
					c-1.7,0-3.2-0.3-4.5-0.8l0,0c-0.9-0.3-1.5-0.8-2.2-1.1l0,0c-0.3,1.5-0.9,2.7-1.1,4.2l0,0C96.2,241.9,96.7,242.4,97,243L97,243z"
					/>
				<path d="M130.7,234.8c0.4,1.8,0.9,5.1,1.3,6.8c-0.4,0.6-1,1.1-1.4,1.8c-1,2.2-0.6,4.7-0.7,7.9c-0.3,10-3.4,16.8-9.2,21.1
					c-2.3,1.7-4.8,2.7-7.6,4.3c-5.9-2.8-10.4-5.4-13.4-10.7c-2.2-4-3.4-8.6-3.6-14.8c-0.1-3.2,0.5-5.7-0.8-7.9
					c-0.4-0.6-0.9-1.2-1.3-1.6c0.4-1.8,1-5.1,1.3-6.9c1,0.3,1.7,0.9,2.7,1.3c1.5,0.6,3.5,1.5,5.7,1.4c4.1-0.3,7.2-2.5,9.2-4.6
					c2.7,3.6,8.5,6.3,14.9,3.2C129,235.7,129.9,235.1,130.7,234.8z"/>
				<path d="M129.4,236.9c0.3,1.6,0.9,3,1.2,4.6c-0.3,0.5-0.9,1-1.3,1.7c-1,2-0.5,5.5-0.6,8.4c-0.3,9.2-3.2,15.6-8.5,19.5
					c-2.1,1.5-4.5,2.5-7,4c-5.4-2.6-9.6-5-12.3-9.9c-2.1-3.7-3.1-7.9-3.3-13.6c-0.1-2.9,0.5-6.4-0.7-8.5c-0.3-0.6-0.9-1.1-1.2-1.5
					c0.3-1.7,0.9-3,1.2-4.7c0.9,0.3,1.6,0.9,2.5,1.2c1.4,0.5,3.2,0.9,5.3,0.7c3.8-0.3,6.7-2.3,8.6-4.2c2.5,3.3,8.6,5.4,13.8,3.5
					C127.9,237.8,128.6,237.2,129.4,236.9z"/>
				<path d="M96.8,243.1c1.1,2.1,0.6,5.5,0.7,8.5c0.2,5.7,1.2,10,3.3,13.6c0.1,0.1,0.1,0.2,0.2,0.4c0.9-1,1.9-2.1,2.8-3.1
					c9.4-9.9,19.1-17.5,26.7-21.4c-0.4-1.4-0.9-2.7-1.1-4.2c-0.9,0.3-1.6,0.9-2.5,1.2c-5.1,1.9-11.3-0.2-13.8-3.5
					c-1.9,1.9-4.8,4-8.6,4.2c-2.1,0.1-3.9-0.2-5.3-0.7c-0.9-0.3-1.6-0.9-2.5-1.2c-0.3,1.7-0.9,3-1.2,4.7
					C95.9,242,96.4,242.5,96.8,243.1z"/>
				<path d="M113,275.5c-5.4-2.6-9.7-5-12.5-10l0,0c-2.1-3.7-3.2-8.1-3.4-13.8l0,0c0-0.3,0-0.5,0-0.8l0,0c0-1.1,0.1-2.3,0.1-3.3l0,0
					c0-1.6-0.1-3.1-0.7-4.1l0,0c-0.3-0.5-0.8-1.1-1.1-1.4l0,0l-0.1-0.1v-0.2c0.3-1.7,1-3.1,1.2-4.7l0,0l0.1-0.4l0.3,0.1
					c1,0.3,1.7,0.9,2.5,1.2l0,0c1.1,0.4,2.6,0.7,4.3,0.7l0,0c0.3,0,0.6,0,0.9,0l0,0c3.7-0.2,6.5-2.2,8.4-4.1l0,0l0.3-0.2l0.2,0.3
					c1.7,2.3,5.5,4.1,9.4,4.1l0,0c1.3,0,2.8-0.2,4-0.7l0,0c0.9-0.3,1.6-0.9,2.5-1.2l0,0l0.3-0.1l0.1,0.3c0.3,1.6,0.9,3,1.2,4.6l0,0
					v0.1l-0.1,0.1c-0.4,0.6-1,1.1-1.2,1.6l0,0c-0.5,1-0.6,2.4-0.6,4l0,0c0,1.1,0.1,2.2,0.1,3.4l0,0c0,0.3,0,0.6,0,0.9l0,0
					c-0.3,9.3-3.2,15.8-8.6,19.8l0,0c-2.1,1.6-4.6,2.5-7.1,4l0,0l-0.1,0.1L113,275.5L113,275.5z M97,243c0.7,1.2,0.8,2.8,0.8,4.5
					l0,0c0,1.1-0.1,2.3-0.1,3.3l0,0c0,0.3,0,0.5,0,0.8l0,0c0.2,5.7,1.2,9.9,3.3,13.5l0,0c2.7,4.8,6.7,7.2,12.1,9.7l0,0
					c2.6-1.5,4.9-2.4,6.9-3.9l0,0c5.3-3.9,8.2-10.1,8.5-19.3l0,0c0-0.3,0-0.6,0-0.9l0,0c0-1.1-0.1-2.2-0.1-3.4l0,0
					c0-1.6,0.1-3.1,0.7-4.3l0,0c0.4-0.7,1-1.2,1.2-1.6l0,0c-0.3-1.4-0.8-2.7-1.1-4.1l0,0c-0.7,0.3-1.3,0.8-2.2,1.1l0,0
					c-1.3,0.5-2.8,0.7-4.2,0.7l0,0c-3.9,0-7.7-1.7-9.7-4.1l0,0c-2,1.9-4.8,3.8-8.5,4.1l0,0c-0.3,0-0.7,0-1,0l0,0
					c-1.7,0-3.2-0.3-4.5-0.8l0,0c-0.9-0.3-1.5-0.8-2.2-1.1l0,0c-0.3,1.5-0.9,2.7-1.1,4.2l0,0C96.2,241.9,96.7,242.4,97,243L97,243z"
					/>
				<g>
					<g>
						<g>
							<g>
								<g>
									<defs>
										<path id="SVGID_12_" d="M118.4,248.8c0-3.1-2.4-5.6-5.3-5.6s-5.3,2.5-5.3,5.6c0,2.2,1.2,4.1,2.9,5l-2.8,11.7h4.9h0.4h4.9
											l-2.8-11.7C117.2,252.9,118.4,251,118.4,248.8z"/>
									</defs>
									<clipPath id="SVGID_13_">
										<use xlink:href="#SVGID_12_"  style="overflow:visible;"/>
									</clipPath>
									<path class="st11" d="M118.4,248.8c0-3.1-2.4-5.6-5.3-5.6s-5.3,2.5-5.3,5.6c0,2.2,1.2,4.1,2.9,5l-2.8,11.7h4.9h0.4h4.9
										l-2.8-11.7C117.2,252.9,118.4,251,118.4,248.8z"/>
								</g>
							</g>
						</g>
					</g>
					<g>
						<g>
							<g>
								<g>
									<defs>
										<path id="SVGID_14_" d="M118.4,248.8c0-3.1-2.4-5.6-5.3-5.6s-5.3,2.5-5.3,5.6c0,2.2,1.2,4.1,2.9,5l-2.8,11.7h4.9h0.4h4.9
											l-2.8-11.7C117.2,252.9,118.4,251,118.4,248.8z"/>
									</defs>
									<clipPath id="SVGID_15_">
										<use xlink:href="#SVGID_14_"  style="overflow:visible;"/>
									</clipPath>
									<path class="st12" d="M119.6,248.9c0-3.1-2.4-5.6-5.3-5.6s-5.3,2.5-5.3,5.6c0,2.2,1.2,4.1,2.9,5l-2.8,11.7h4.9h0.4h4.9
										l-2.8-11.7C118.4,252.9,119.6,251.1,119.6,248.9z"/>
								</g>
							</g>
						</g>
					</g>
				</g>
			</g>
			<g>
				<g>
					<g>
						<g>
							<g>
								<path class="st3" d="M133.1,232.4c0.4,1.8,0.9,5.1,1.3,6.8c-0.4,0.6-1,1.1-1.4,1.8c-1,2.2-0.6,4.7-0.7,7.9
									c-0.3,10-3.4,16.8-9.2,21.1c-2.3,1.7-4.8,2.7-7.6,4.3c-5.9-2.8-10.4-5.4-13.4-10.7c-2.2-4-3.4-8.6-3.6-14.8
									c-0.1-3.2,0.5-5.7-0.8-7.9c-0.4-0.6-0.9-1.2-1.3-1.6c0.4-1.8,0.9-5.1,1.3-6.9c0.9,0.3,1.7,0.9,2.7,1.3
									c1.5,0.6,3.5,1.5,5.7,1.4c4.1-0.3,7.2-2.5,9.2-4.6c2.7,3.6,8.5,6.3,14.9,3.2C131.3,233.2,132.2,232.7,133.1,232.4z"/>
								<g>
									<path class="st3" d="M131.8,234.5c0.3,1.6,0.9,3,1.2,4.6c-0.3,0.5-1,1-1.3,1.7c-1,2-0.5,5.5-0.6,8.4
										c-0.3,9.2-3.2,15.6-8.6,19.5c-2.1,1.5-4.5,2.5-7,4c-5.4-2.6-9.6-5-12.3-9.9c-2.1-3.7-3.1-7.9-3.3-13.6
										c-0.1-2.9,0.5-6.4-0.7-8.5c-0.3-0.6-0.9-1.1-1.2-1.5c0.3-1.7,0.9-3,1.2-4.7c0.9,0.3,1.6,0.9,2.5,1.2
										c1.4,0.5,3.2,0.9,5.3,0.7c3.8-0.3,6.7-2.3,8.5-4.2c2.5,3.3,8.6,5.4,13.8,3.5C130.2,235.3,130.9,234.7,131.8,234.5z"/>
									<path class="st3" d="M99.1,240.7c1.1,2.1,0.6,5.5,0.7,8.5c0.2,5.7,1.2,10,3.3,13.6c0.1,0.1,0.1,0.2,0.2,0.4
										c0.9-1,1.9-2.1,2.8-3.1c9.4-9.9,19.1-17.5,26.7-21.4c-0.4-1.4-0.9-2.7-1.1-4.2c-0.9,0.3-1.6,0.9-2.5,1.2
										c-5.1,1.9-11.3-0.2-13.8-3.5c-1.9,1.9-4.8,4-8.6,4.2c-2.1,0.1-3.9-0.2-5.3-0.7c-0.9-0.3-1.6-0.9-2.5-1.2
										c-0.3,1.7-0.9,3-1.2,4.7C98.3,239.5,98.8,240.1,99.1,240.7z"/>
								</g>
								<path class="st3" d="M115.4,273c-5.4-2.6-9.7-5-12.5-10l0,0c-2.1-3.7-3.2-8.1-3.4-13.8l0,0c0-0.3,0-0.5,0-0.8l0,0
									c0-1.1,0.1-2.3,0.1-3.3l0,0c0-1.6-0.1-3.1-0.7-4.1l0,0c-0.3-0.5-0.8-1.1-1.1-1.4l0,0l-0.1-0.1v-0.2c0.3-1.7,1-3.1,1.2-4.7
									l0,0l0.1-0.4l0.3,0.1c1,0.3,1.7,0.9,2.5,1.2l0,0c1.1,0.4,2.6,0.7,4.3,0.7l0,0c0.3,0,0.6,0,0.9,0l0,0
									c3.7-0.2,6.5-2.2,8.4-4.1l0,0l0.3-0.2l0.2,0.3c1.7,2.3,5.5,4.1,9.4,4.1l0,0c1.3,0,2.8-0.2,4-0.7l0,0
									c0.9-0.3,1.6-0.9,2.5-1.2l0,0l0.3-0.1l0.1,0.3c0.3,1.6,0.9,3,1.2,4.6l0,0v0.1l-0.1,0.1c-0.4,0.6-1,1.1-1.2,1.6l0,0
									c-0.5,1-0.6,2.4-0.6,4l0,0c0,1.1,0.1,2.2,0.1,3.4l0,0c0,0.3,0,0.6,0,0.9l0,0c-0.3,9.3-3.2,15.8-8.6,19.8l0,0
									c-2.1,1.6-4.6,2.5-7.1,4l0,0l-0.1,0.1L115.4,273L115.4,273z M99.4,240.6c0.7,1.2,0.8,2.8,0.8,4.5l0,0c0,1.1-0.1,2.3-0.1,3.3
									l0,0c0,0.3,0,0.5,0,0.8l0,0c0.2,5.7,1.2,9.9,3.3,13.5l0,0c2.7,4.8,6.7,7.2,12.1,9.7l0,0c2.6-1.5,4.9-2.4,6.9-3.9l0,0
									c5.3-3.9,8.2-10.1,8.5-19.3l0,0c0-0.3,0-0.6,0-0.9l0,0c0-1.1-0.1-2.2-0.1-3.4l0,0c0-1.6,0.1-3.1,0.7-4.3l0,0
									c0.4-0.7,0.9-1.2,1.2-1.6l0,0c-0.3-1.4-0.8-2.7-1.1-4.1l0,0c-0.7,0.3-1.3,0.8-2.2,1.1l0,0c-1.3,0.5-2.8,0.7-4.2,0.7l0,0
									c-3.9,0-7.7-1.7-9.7-4.1l0,0c-2,1.9-4.8,3.8-8.6,4.1l0,0c-0.3,0-0.7,0-0.9,0l0,0c-1.7,0-3.2-0.3-4.5-0.8l0,0
									c-0.9-0.3-1.5-0.8-2.2-1.1l0,0c-0.3,1.5-0.9,2.7-1.1,4.2l0,0C98.6,239.5,99,240,99.4,240.6L99.4,240.6z"/>
							</g>
							<g>
								
									<linearGradient id="SVGID_16_" gradientUnits="userSpaceOnUse" x1="96.4625" y1="900.4" x2="134.4111" y2="900.4" gradientTransform="matrix(1 0 0 1 0 -648)">
									<stop  offset="0" style="stop-color:#996431"/>
									<stop  offset="0.5" style="stop-color:#F3F1C0"/>
									<stop  offset="0.7419" style="stop-color:#C3A573"/>
									<stop  offset="0.9145" style="stop-color:#A57643"/>
									<stop  offset="1" style="stop-color:#996431"/>
								</linearGradient>
								<path class="st13" d="M133.1,232.4c0.4,1.8,0.9,5.1,1.3,6.8c-0.4,0.6-1,1.1-1.4,1.8c-1,2.2-0.6,4.7-0.7,7.9
									c-0.3,10-3.4,16.8-9.2,21.1c-2.3,1.7-4.8,2.7-7.6,4.3c-5.9-2.8-10.4-5.4-13.4-10.7c-2.2-4-3.4-8.6-3.6-14.8
									c-0.1-3.2,0.5-5.7-0.8-7.9c-0.4-0.6-0.9-1.2-1.3-1.6c0.4-1.8,0.9-5.1,1.3-6.9c0.9,0.3,1.7,0.9,2.7,1.3
									c1.5,0.6,3.5,1.5,5.7,1.4c4.1-0.3,7.2-2.5,9.2-4.6c2.7,3.6,8.5,6.3,14.9,3.2C131.3,233.2,132.2,232.7,133.1,232.4z"/>
								<g>
									<path d="M131.8,234.5c0.3,1.6,0.9,3,1.2,4.6c-0.3,0.5-1,1-1.3,1.7c-1,2-0.5,5.5-0.6,8.4c-0.3,9.2-3.2,15.6-8.6,19.5
										c-2.1,1.5-4.5,2.5-7,4c-5.4-2.6-9.6-5-12.3-9.9c-2.1-3.7-3.1-7.9-3.3-13.6c-0.1-2.9,0.5-6.4-0.7-8.5
										c-0.3-0.6-0.9-1.1-1.2-1.5c0.3-1.7,0.9-3,1.2-4.7c0.9,0.3,1.6,0.9,2.5,1.2c1.4,0.5,3.2,0.9,5.3,0.7
										c3.8-0.3,6.7-2.3,8.5-4.2c2.5,3.3,8.6,5.4,13.8,3.5C130.2,235.3,130.9,234.7,131.8,234.5z"/>
									
										<linearGradient id="SVGID_17_" gradientUnits="userSpaceOnUse" x1="104.4794" y1="878.9763" x2="118.171" y2="897.7712" gradientTransform="matrix(1 0 0 1 0 -648)">
										<stop  offset="0" style="stop-color:#4D4D4D"/>
										<stop  offset="1" style="stop-color:#1A1A1A"/>
									</linearGradient>
									<path class="st14" d="M99.1,240.7c1.1,2.1,0.6,5.5,0.7,8.5c0.2,5.7,1.2,10,3.3,13.6c0.1,0.1,0.1,0.2,0.2,0.4
										c0.9-1,1.9-2.1,2.8-3.1c9.4-9.9,19.1-17.5,26.7-21.4c-0.4-1.4-0.9-2.7-1.1-4.2c-0.9,0.3-1.6,0.9-2.5,1.2
										c-5.1,1.9-11.3-0.2-13.8-3.5c-1.9,1.9-4.8,4-8.6,4.2c-2.1,0.1-3.9-0.2-5.3-0.7c-0.9-0.3-1.6-0.9-2.5-1.2
										c-0.3,1.7-0.9,3-1.2,4.7C98.3,239.5,98.8,240.1,99.1,240.7z"/>
								</g>
								
									<linearGradient id="SVGID_18_" gradientUnits="userSpaceOnUse" x1="115.55" y1="880.0048" x2="115.55" y2="921.094" gradientTransform="matrix(1 0 0 1 0 -648)">
									<stop  offset="0" style="stop-color:#996431"/>
									<stop  offset="0.5" style="stop-color:#F3F1C0"/>
									<stop  offset="0.7419" style="stop-color:#C3A573"/>
									<stop  offset="0.9145" style="stop-color:#A57643"/>
									<stop  offset="1" style="stop-color:#996431"/>
								</linearGradient>
								<path class="st15" d="M115.4,273c-5.4-2.6-9.7-5-12.5-10l0,0c-2.1-3.7-3.2-8.1-3.4-13.8l0,0c0-0.3,0-0.5,0-0.8l0,0
									c0-1.1,0.1-2.3,0.1-3.3l0,0c0-1.6-0.1-3.1-0.7-4.1l0,0c-0.3-0.5-0.8-1.1-1.1-1.4l0,0l-0.1-0.1v-0.2c0.3-1.7,1-3.1,1.2-4.7
									l0,0l0.1-0.4l0.3,0.1c1,0.3,1.7,0.9,2.5,1.2l0,0c1.1,0.4,2.6,0.7,4.3,0.7l0,0c0.3,0,0.6,0,0.9,0l0,0
									c3.7-0.2,6.5-2.2,8.4-4.1l0,0l0.3-0.2l0.2,0.3c1.7,2.3,5.5,4.1,9.4,4.1l0,0c1.3,0,2.8-0.2,4-0.7l0,0
									c0.9-0.3,1.6-0.9,2.5-1.2l0,0l0.3-0.1l0.1,0.3c0.3,1.6,0.9,3,1.2,4.6l0,0v0.1l-0.1,0.1c-0.4,0.6-1,1.1-1.2,1.6l0,0
									c-0.5,1-0.6,2.4-0.6,4l0,0c0,1.1,0.1,2.2,0.1,3.4l0,0c0,0.3,0,0.6,0,0.9l0,0c-0.3,9.3-3.2,15.8-8.6,19.8l0,0
									c-2.1,1.6-4.6,2.5-7.1,4l0,0l-0.1,0.1L115.4,273L115.4,273z M99.4,240.6c0.7,1.2,0.8,2.8,0.8,4.5l0,0c0,1.1-0.1,2.3-0.1,3.3
									l0,0c0,0.3,0,0.5,0,0.8l0,0c0.2,5.7,1.2,9.9,3.3,13.5l0,0c2.7,4.8,6.7,7.2,12.1,9.7l0,0c2.6-1.5,4.9-2.4,6.9-3.9l0,0
									c5.3-3.9,8.2-10.1,8.5-19.3l0,0c0-0.3,0-0.6,0-0.9l0,0c0-1.1-0.1-2.2-0.1-3.4l0,0c0-1.6,0.1-3.1,0.7-4.3l0,0
									c0.4-0.7,0.9-1.2,1.2-1.6l0,0c-0.3-1.4-0.8-2.7-1.1-4.1l0,0c-0.7,0.3-1.3,0.8-2.2,1.1l0,0c-1.3,0.5-2.8,0.7-4.2,0.7l0,0
									c-3.9,0-7.7-1.7-9.7-4.1l0,0c-2,1.9-4.8,3.8-8.6,4.1l0,0c-0.3,0-0.7,0-0.9,0l0,0c-1.7,0-3.2-0.3-4.5-0.8l0,0
									c-0.9-0.3-1.5-0.8-2.2-1.1l0,0c-0.3,1.5-0.9,2.7-1.1,4.2l0,0C98.6,239.5,99,240,99.4,240.6L99.4,240.6z"/>
							</g>
						</g>
						<g>
							<g>
								<g>
									<g>
										<g>
											<defs>
												<path id="SVGID_19_" d="M120.8,246.4c0-3.1-2.4-5.6-5.3-5.6c-2.9,0-5.3,2.5-5.3,5.6c0,2.2,1.2,4.1,2.9,5l-2.8,11.7h4.9
													h0.4h4.9l-2.8-11.7C119.5,250.4,120.8,248.6,120.8,246.4z"/>
											</defs>
											<clipPath id="SVGID_20_">
												<use xlink:href="#SVGID_19_"  style="overflow:visible;"/>
											</clipPath>
											<path class="st16" d="M120.8,246.4c0-3.1-2.4-5.6-5.3-5.6c-2.9,0-5.3,2.5-5.3,5.6c0,2.2,1.2,4.1,2.9,5l-2.8,11.7h4.9h0.4
												h4.9l-2.8-11.7C119.5,250.4,120.8,248.6,120.8,246.4z"/>
										</g>
									</g>
								</g>
							</g>
							<g>
								<g>
									<g>
										<g>
											<defs>
												<path id="SVGID_21_" d="M120.8,246.4c0-3.1-2.4-5.6-5.3-5.6c-2.9,0-5.3,2.5-5.3,5.6c0,2.2,1.2,4.1,2.9,5l-2.8,11.7h4.9
													h0.4h4.9l-2.8-11.7C119.5,250.4,120.8,248.6,120.8,246.4z"/>
											</defs>
											<clipPath id="SVGID_22_">
												<use xlink:href="#SVGID_21_"  style="overflow:visible;"/>
											</clipPath>
											<path class="st17" d="M121.9,246.4c0-3.1-2.4-5.6-5.3-5.6c-2.9,0-5.3,2.5-5.3,5.6c0,2.2,1.2,4.1,2.9,5l-2.8,11.7h4.9h0.4
												h4.9l-2.8-11.7C120.8,250.5,121.9,248.6,121.9,246.4z"/>
										</g>
									</g>
								</g>
							</g>
						</g>
						<g id="Backup_Keyhole_14_" class="st9">
							<polygon class="st10" points="127,250.7 125.1,250.7 124.7,250.7 122.8,250.7 119.7,263.6 124.7,263.6 125.1,263.6 
								130,263.6 							"/>
							<ellipse class="st10" cx="124.9" cy="247" rx="5.3" ry="5.6"/>
						</g>
					</g>
				</g>
			</g>
		</g>
	</g>
	<g>
		<g>
			<g class="st0">
				<path d="M223.3,146.3c0.4,1.8,0.9,5.1,1.3,6.8c-0.4,0.6-1,1.1-1.4,1.8c-1,2.2-0.6,4.7-0.7,7.9c-0.3,10-3.4,16.8-9.2,21.1
					c-2.3,1.7-4.8,2.7-7.6,4.3c-5.9-2.8-10.4-5.4-13.4-10.7c-2.2-4-3.4-8.6-3.6-14.8c-0.1-3.2,0.5-5.7-0.8-7.9
					c-0.4-0.6-0.9-1.2-1.3-1.6c0.4-1.8,0.9-5.1,1.3-6.9c0.9,0.3,1.7,0.9,2.7,1.3c1.5,0.6,3.5,1.5,5.7,1.4c4.1-0.3,7.2-2.5,9.2-4.6
					c2.7,3.6,8.6,6.3,14.9,3.2C221.5,147.2,222.4,146.6,223.3,146.3z"/>
				<path d="M222,148.4c0.3,1.6,0.9,3,1.2,4.6c-0.3,0.5-0.9,1-1.3,1.7c-1,2-0.5,5.5-0.6,8.4c-0.3,9.2-3.2,15.6-8.6,19.5
					c-2.1,1.5-4.5,2.5-7,4c-5.4-2.6-9.6-5-12.4-9.9c-2.1-3.7-3.1-7.9-3.3-13.6c-0.1-2.9,0.5-6.4-0.7-8.5c-0.3-0.6-0.9-1.1-1.2-1.5
					c0.3-1.7,0.9-3,1.2-4.7c0.9,0.3,1.6,0.9,2.5,1.2c1.4,0.5,3.2,0.9,5.3,0.7c3.8-0.3,6.7-2.3,8.6-4.2c2.5,3.3,8.6,5.4,13.8,3.5
					C220.4,149.3,221.1,148.7,222,148.4z"/>
				<path d="M189.3,154.6c1.1,2.1,0.6,5.5,0.7,8.5c0.2,5.7,1.2,10,3.3,13.6c0.1,0.1,0.1,0.2,0.2,0.4c0.9-1,1.9-2.1,2.8-3.1
					c9.4-9.9,19.1-17.5,26.7-21.4c-0.4-1.4-0.9-2.7-1.1-4.2c-0.9,0.3-1.6,0.9-2.5,1.2c-5.1,1.9-11.3-0.2-13.8-3.5
					c-1.9,1.9-4.8,4-8.6,4.2c-2.1,0.1-3.9-0.2-5.3-0.7c-0.9-0.3-1.6-0.9-2.5-1.2c-0.3,1.7-0.9,3-1.2,4.7
					C188.4,153.5,188.9,154,189.3,154.6z"/>
				<path d="M205.5,187c-5.4-2.6-9.7-5-12.5-10l0,0c-2.1-3.7-3.2-8.1-3.4-13.8l0,0c0-0.3,0-0.5,0-0.8l0,0c0-1.1,0.1-2.3,0.1-3.3l0,0
					c0-1.6-0.1-3.1-0.7-4.1l0,0c-0.3-0.5-0.8-1.1-1.1-1.4l0,0l-0.1-0.1v-0.2c0.3-1.7,0.9-3.1,1.2-4.7l0,0l0.1-0.4l0.3,0.1
					c0.9,0.3,1.7,0.9,2.5,1.2l0,0c1.1,0.4,2.6,0.7,4.3,0.7l0,0c0.3,0,0.6,0,0.9,0l0,0c3.7-0.2,6.5-2.2,8.4-4.1l0,0l0.3-0.2l0.2,0.3
					c1.7,2.3,5.5,4.1,9.4,4.1l0,0c1.3,0,2.8-0.2,4-0.7l0,0c0.9-0.3,1.6-0.9,2.5-1.2l0,0l0.3-0.1l0.1,0.3c0.3,1.6,0.9,3,1.2,4.6l0,0
					v0.1l-0.1,0.1c-0.4,0.6-1,1.1-1.2,1.6l0,0c-0.5,1-0.6,2.4-0.6,4l0,0c0,1.1,0.1,2.2,0.1,3.4l0,0c0,0.3,0,0.6,0,0.9l0,0
					c-0.3,9.3-3.2,15.8-8.6,19.8l0,0c-2.1,1.6-4.6,2.5-7.1,4l0,0l-0.1,0.1L205.5,187L205.5,187z M189.5,154.5
					c0.7,1.2,0.8,2.8,0.8,4.5l0,0c0,1.1-0.1,2.3-0.1,3.3l0,0c0,0.3,0,0.5,0,0.8l0,0c0.2,5.7,1.2,9.9,3.3,13.5l0,0
					c2.7,4.8,6.7,7.2,12.1,9.7l0,0c2.6-1.5,4.9-2.4,6.9-3.9l0,0c5.3-3.9,8.2-10.1,8.5-19.3l0,0c0-0.3,0-0.6,0-0.9l0,0
					c0-1.1-0.1-2.2-0.1-3.4l0,0c0-1.6,0.1-3.1,0.7-4.3l0,0c0.4-0.7,0.9-1.2,1.2-1.6l0,0c-0.3-1.4-0.8-2.7-1.1-4.1l0,0
					c-0.7,0.3-1.3,0.8-2.2,1.1l0,0c-1.3,0.5-2.8,0.7-4.2,0.7l0,0c-3.9,0-7.7-1.7-9.7-4.1l0,0c-2,1.9-4.8,3.8-8.5,4.1l0,0
					c-0.3,0-0.7,0-1,0l0,0c-1.7,0-3.2-0.3-4.5-0.8l0,0c-0.9-0.3-1.5-0.8-2.2-1.1l0,0c-0.3,1.5-0.9,2.7-1.1,4.2l0,0
					C188.7,153.4,189.2,153.9,189.5,154.5L189.5,154.5z"/>
				<path d="M223.3,146.3c0.4,1.8,0.9,5.1,1.3,6.8c-0.4,0.6-1,1.1-1.4,1.8c-1,2.2-0.6,4.7-0.7,7.9c-0.3,10-3.4,16.8-9.2,21.1
					c-2.3,1.7-4.8,2.7-7.6,4.3c-5.9-2.8-10.4-5.4-13.4-10.7c-2.2-4-3.4-8.6-3.6-14.8c-0.1-3.2,0.5-5.7-0.8-7.9
					c-0.4-0.6-0.9-1.2-1.3-1.6c0.4-1.8,0.9-5.1,1.3-6.9c0.9,0.3,1.7,0.9,2.7,1.3c1.5,0.6,3.5,1.5,5.7,1.4c4.1-0.3,7.2-2.5,9.2-4.6
					c2.7,3.6,8.6,6.3,14.9,3.2C221.5,147.2,222.4,146.6,223.3,146.3z"/>
				<path d="M222,148.4c0.3,1.6,0.9,3,1.2,4.6c-0.3,0.5-0.9,1-1.3,1.7c-1,2-0.5,5.5-0.6,8.4c-0.3,9.2-3.2,15.6-8.6,19.5
					c-2.1,1.5-4.5,2.5-7,4c-5.4-2.6-9.6-5-12.4-9.9c-2.1-3.7-3.1-7.9-3.3-13.6c-0.1-2.9,0.5-6.4-0.7-8.5c-0.3-0.6-0.9-1.1-1.2-1.5
					c0.3-1.7,0.9-3,1.2-4.7c0.9,0.3,1.6,0.9,2.5,1.2c1.4,0.5,3.2,0.9,5.3,0.7c3.8-0.3,6.7-2.3,8.6-4.2c2.5,3.3,8.6,5.4,13.8,3.5
					C220.4,149.3,221.1,148.7,222,148.4z"/>
				<path d="M189.3,154.6c1.1,2.1,0.6,5.5,0.7,8.5c0.2,5.7,1.2,10,3.3,13.6c0.1,0.1,0.1,0.2,0.2,0.4c0.9-1,1.9-2.1,2.8-3.1
					c9.4-9.9,19.1-17.5,26.7-21.4c-0.4-1.4-0.9-2.7-1.1-4.2c-0.9,0.3-1.6,0.9-2.5,1.2c-5.1,1.9-11.3-0.2-13.8-3.5
					c-1.9,1.9-4.8,4-8.6,4.2c-2.1,0.1-3.9-0.2-5.3-0.7c-0.9-0.3-1.6-0.9-2.5-1.2c-0.3,1.7-0.9,3-1.2,4.7
					C188.4,153.5,188.9,154,189.3,154.6z"/>
				<path d="M205.5,187c-5.4-2.6-9.7-5-12.5-10l0,0c-2.1-3.7-3.2-8.1-3.4-13.8l0,0c0-0.3,0-0.5,0-0.8l0,0c0-1.1,0.1-2.3,0.1-3.3l0,0
					c0-1.6-0.1-3.1-0.7-4.1l0,0c-0.3-0.5-0.8-1.1-1.1-1.4l0,0l-0.1-0.1v-0.2c0.3-1.7,0.9-3.1,1.2-4.7l0,0l0.1-0.4l0.3,0.1
					c0.9,0.3,1.7,0.9,2.5,1.2l0,0c1.1,0.4,2.6,0.7,4.3,0.7l0,0c0.3,0,0.6,0,0.9,0l0,0c3.7-0.2,6.5-2.2,8.4-4.1l0,0l0.3-0.2l0.2,0.3
					c1.7,2.3,5.5,4.1,9.4,4.1l0,0c1.3,0,2.8-0.2,4-0.7l0,0c0.9-0.3,1.6-0.9,2.5-1.2l0,0l0.3-0.1l0.1,0.3c0.3,1.6,0.9,3,1.2,4.6l0,0
					v0.1l-0.1,0.1c-0.4,0.6-1,1.1-1.2,1.6l0,0c-0.5,1-0.6,2.4-0.6,4l0,0c0,1.1,0.1,2.2,0.1,3.4l0,0c0,0.3,0,0.6,0,0.9l0,0
					c-0.3,9.3-3.2,15.8-8.6,19.8l0,0c-2.1,1.6-4.6,2.5-7.1,4l0,0l-0.1,0.1L205.5,187L205.5,187z M189.5,154.5
					c0.7,1.2,0.8,2.8,0.8,4.5l0,0c0,1.1-0.1,2.3-0.1,3.3l0,0c0,0.3,0,0.5,0,0.8l0,0c0.2,5.7,1.2,9.9,3.3,13.5l0,0
					c2.7,4.8,6.7,7.2,12.1,9.7l0,0c2.6-1.5,4.9-2.4,6.9-3.9l0,0c5.3-3.9,8.2-10.1,8.5-19.3l0,0c0-0.3,0-0.6,0-0.9l0,0
					c0-1.1-0.1-2.2-0.1-3.4l0,0c0-1.6,0.1-3.1,0.7-4.3l0,0c0.4-0.7,0.9-1.2,1.2-1.6l0,0c-0.3-1.4-0.8-2.7-1.1-4.1l0,0
					c-0.7,0.3-1.3,0.8-2.2,1.1l0,0c-1.3,0.5-2.8,0.7-4.2,0.7l0,0c-3.9,0-7.7-1.7-9.7-4.1l0,0c-2,1.9-4.8,3.8-8.5,4.1l0,0
					c-0.3,0-0.7,0-1,0l0,0c-1.7,0-3.2-0.3-4.5-0.8l0,0c-0.9-0.3-1.5-0.8-2.2-1.1l0,0c-0.3,1.5-0.9,2.7-1.1,4.2l0,0
					C188.7,153.4,189.2,153.9,189.5,154.5L189.5,154.5z"/>
				<g>
					<g>
						<g>
							<g>
								<g>
									<defs>
										<path id="SVGID_23_" d="M211,160.3c0-3.1-2.4-5.6-5.3-5.6s-5.3,2.5-5.3,5.6c0,2.2,1.2,4.1,2.9,5l-2.8,11.7h4.9h0.4h4.9
											l-2.8-11.7C209.7,164.4,211,162.5,211,160.3z"/>
									</defs>
									<clipPath id="SVGID_24_">
										<use xlink:href="#SVGID_23_"  style="overflow:visible;"/>
									</clipPath>
									<path class="st18" d="M211,160.3c0-3.1-2.4-5.6-5.3-5.6s-5.3,2.5-5.3,5.6c0,2.2,1.2,4.1,2.9,5l-2.8,11.7h4.9h0.4h4.9
										l-2.8-11.7C209.7,164.4,211,162.5,211,160.3z"/>
								</g>
							</g>
						</g>
					</g>
					<g>
						<g>
							<g>
								<g>
									<defs>
										<path id="SVGID_25_" d="M211,160.3c0-3.1-2.4-5.6-5.3-5.6s-5.3,2.5-5.3,5.6c0,2.2,1.2,4.1,2.9,5l-2.8,11.7h4.9h0.4h4.9
											l-2.8-11.7C209.7,164.4,211,162.5,211,160.3z"/>
									</defs>
									<clipPath id="SVGID_26_">
										<use xlink:href="#SVGID_25_"  style="overflow:visible;"/>
									</clipPath>
									<path class="st19" d="M212.1,160.4c0-3.1-2.4-5.6-5.3-5.6s-5.3,2.5-5.3,5.6c0,2.2,1.2,4.1,2.9,5l-2.8,11.7h4.9h0.4h4.9
										l-2.8-11.7C211,164.4,212.1,162.6,212.1,160.4z"/>
								</g>
							</g>
						</g>
					</g>
				</g>
			</g>
			<g>
				<g>
					<g>
						<g>
							<g>
								<path class="st3" d="M225.6,143.9c0.4,1.8,0.9,5.1,1.3,6.8c-0.4,0.6-1,1.1-1.4,1.8c-1,2.2-0.6,4.7-0.7,7.9
									c-0.3,10-3.4,16.8-9.2,21.1c-2.3,1.7-4.8,2.7-7.6,4.3c-5.9-2.8-10.4-5.4-13.4-10.7c-2.2-4-3.4-8.6-3.6-14.8
									c-0.1-3.2,0.5-5.7-0.8-7.9c-0.4-0.6-0.9-1.2-1.3-1.6c0.4-1.8,0.9-5.1,1.3-6.9c0.9,0.3,1.7,0.9,2.7,1.3
									c1.5,0.6,3.5,1.5,5.7,1.4c4.1-0.3,7.2-2.5,9.2-4.6c2.7,3.6,8.6,6.3,14.9,3.2C223.8,144.7,224.8,144.2,225.6,143.9z"/>
								<g>
									<path class="st3" d="M224.3,146c0.3,1.6,0.9,3,1.2,4.6c-0.3,0.5-0.9,1-1.3,1.7c-1,2-0.5,5.5-0.6,8.4
										c-0.3,9.2-3.2,15.6-8.6,19.5c-2.1,1.5-4.5,2.5-7,4c-5.4-2.6-9.6-5-12.4-9.9c-2.1-3.7-3.1-7.9-3.3-13.6
										c-0.1-2.9,0.5-6.4-0.7-8.5c-0.3-0.6-0.9-1.1-1.2-1.5c0.3-1.7,0.9-3,1.2-4.7c0.9,0.3,1.6,0.9,2.5,1.2
										c1.4,0.5,3.2,0.9,5.3,0.7c3.8-0.3,6.6-2.3,8.5-4.2c2.5,3.3,8.6,5.4,13.8,3.5C222.7,146.8,223.4,146.2,224.3,146z"/>
									<path class="st3" d="M191.6,152.2c1.1,2.1,0.6,5.5,0.7,8.5c0.2,5.7,1.2,10,3.3,13.6c0.1,0.1,0.1,0.2,0.2,0.4
										c0.9-1,1.9-2.1,2.9-3.1c9.4-9.9,19.1-17.5,26.7-21.4c-0.4-1.4-0.9-2.7-1.1-4.2c-0.9,0.3-1.6,0.9-2.5,1.2
										c-5.1,1.9-11.3-0.2-13.8-3.5c-1.9,1.9-4.8,4-8.6,4.2c-2.1,0.1-3.9-0.2-5.3-0.7c-0.9-0.3-1.6-0.9-2.5-1.2
										c-0.3,1.7-0.9,3-1.2,4.7C190.8,151,191.3,151.6,191.6,152.2z"/>
								</g>
								<path class="st3" d="M207.9,184.5c-5.4-2.6-9.7-5-12.5-10l0,0c-2.1-3.7-3.2-8.1-3.4-13.8l0,0c0-0.3,0-0.5,0-0.8l0,0
									c0-1.1,0.1-2.3,0.1-3.3l0,0c0-1.6-0.1-3.1-0.7-4.1l0,0c-0.3-0.5-0.8-1.1-1.1-1.4l0,0l-0.1-0.1v-0.2c0.3-1.7,0.9-3.1,1.2-4.7
									l0,0l0.1-0.4l0.3,0.1c1,0.3,1.7,0.9,2.5,1.2l0,0c1.1,0.4,2.6,0.7,4.3,0.7l0,0c0.3,0,0.6,0,0.9,0l0,0
									c3.7-0.2,6.5-2.2,8.4-4.1l0,0l0.3-0.2l0.2,0.3c1.7,2.3,5.5,4.1,9.4,4.1l0,0c1.3,0,2.8-0.2,4-0.7l0,0
									c0.9-0.3,1.6-0.9,2.5-1.2l0,0l0.3-0.1l0.1,0.3c0.3,1.6,0.9,3,1.2,4.6l0,0v0.1l-0.1,0.1c-0.4,0.6-1,1.1-1.2,1.6l0,0
									c-0.5,1-0.6,2.4-0.6,4l0,0c0,1.1,0.1,2.2,0.1,3.4l0,0c0,0.3,0,0.6,0,0.9l0,0c-0.3,9.3-3.2,15.8-8.6,19.8l0,0
									c-2.1,1.6-4.6,2.5-7.1,4l0,0l-0.1,0.1L207.9,184.5L207.9,184.5z M191.9,152.1c0.7,1.2,0.8,2.8,0.8,4.5l0,0
									c0,1.1-0.1,2.3-0.1,3.3l0,0c0,0.3,0,0.5,0,0.8l0,0c0.2,5.7,1.2,9.9,3.3,13.5l0,0c2.7,4.8,6.7,7.2,12.1,9.7l0,0
									c2.6-1.5,4.9-2.4,6.9-3.9l0,0c5.3-3.9,8.2-10.1,8.5-19.3l0,0c0-0.3,0-0.6,0-0.9l0,0c0-1.1-0.1-2.2-0.1-3.4l0,0
									c0-1.6,0.1-3.1,0.7-4.3l0,0c0.4-0.7,0.9-1.2,1.2-1.6l0,0c-0.3-1.4-0.8-2.7-1.1-4.1l0,0c-0.7,0.3-1.3,0.8-2.2,1.1l0,0
									c-1.3,0.5-2.9,0.7-4.2,0.7l0,0c-3.9,0-7.7-1.7-9.7-4.1l0,0c-2,1.9-4.8,3.8-8.6,4.1l0,0c-0.3,0-0.7,0-0.9,0l0,0
									c-1.7,0-3.2-0.3-4.5-0.8l0,0c-0.9-0.3-1.5-0.8-2.2-1.1l0,0c-0.3,1.5-0.9,2.7-1.1,4.2l0,0C191.2,151,191.6,151.5,191.9,152.1
									L191.9,152.1z"/>
							</g>
							<g>
								
									<linearGradient id="SVGID_27_" gradientUnits="userSpaceOnUse" x1="188.965" y1="811.9" x2="226.9135" y2="811.9" gradientTransform="matrix(1 0 0 1 0 -648)">
									<stop  offset="0" style="stop-color:#996431"/>
									<stop  offset="0.5" style="stop-color:#F3F1C0"/>
									<stop  offset="0.7419" style="stop-color:#C3A573"/>
									<stop  offset="0.9145" style="stop-color:#A57643"/>
									<stop  offset="1" style="stop-color:#996431"/>
								</linearGradient>
								<path class="st20" d="M225.6,143.9c0.4,1.8,0.9,5.1,1.3,6.8c-0.4,0.6-1,1.1-1.4,1.8c-1,2.2-0.6,4.7-0.7,7.9
									c-0.3,10-3.4,16.8-9.2,21.1c-2.3,1.7-4.8,2.7-7.6,4.3c-5.9-2.8-10.4-5.4-13.4-10.7c-2.2-4-3.4-8.6-3.6-14.8
									c-0.1-3.2,0.5-5.7-0.8-7.9c-0.4-0.6-0.9-1.2-1.3-1.6c0.4-1.8,0.9-5.1,1.3-6.9c0.9,0.3,1.7,0.9,2.7,1.3
									c1.5,0.6,3.5,1.5,5.7,1.4c4.1-0.3,7.2-2.5,9.2-4.6c2.7,3.6,8.6,6.3,14.9,3.2C223.8,144.7,224.8,144.2,225.6,143.9z"/>
								<g>
									<path d="M224.3,146c0.3,1.6,0.9,3,1.2,4.6c-0.3,0.5-0.9,1-1.3,1.7c-1,2-0.5,5.5-0.6,8.4c-0.3,9.2-3.2,15.6-8.6,19.5
										c-2.1,1.5-4.5,2.5-7,4c-5.4-2.6-9.6-5-12.4-9.9c-2.1-3.7-3.1-7.9-3.3-13.6c-0.1-2.9,0.5-6.4-0.7-8.5
										c-0.3-0.6-0.9-1.1-1.2-1.5c0.3-1.7,0.9-3,1.2-4.7c0.9,0.3,1.6,0.9,2.5,1.2c1.4,0.5,3.2,0.9,5.3,0.7
										c3.8-0.3,6.6-2.3,8.5-4.2c2.5,3.3,8.6,5.4,13.8,3.5C222.7,146.8,223.4,146.2,224.3,146z"/>
									
										<linearGradient id="SVGID_28_" gradientUnits="userSpaceOnUse" x1="197.0177" y1="790.4601" x2="210.7093" y2="809.255" gradientTransform="matrix(1 0 0 1 0 -648)">
										<stop  offset="0" style="stop-color:#4D4D4D"/>
										<stop  offset="1" style="stop-color:#1A1A1A"/>
									</linearGradient>
									<path class="st21" d="M191.6,152.2c1.1,2.1,0.6,5.5,0.7,8.5c0.2,5.7,1.2,10,3.3,13.6c0.1,0.1,0.1,0.2,0.2,0.4
										c0.9-1,1.9-2.1,2.9-3.1c9.4-9.9,19.1-17.5,26.7-21.4c-0.4-1.4-0.9-2.7-1.1-4.2c-0.9,0.3-1.6,0.9-2.5,1.2
										c-5.1,1.9-11.3-0.2-13.8-3.5c-1.9,1.9-4.8,4-8.6,4.2c-2.1,0.1-3.9-0.2-5.3-0.7c-0.9-0.3-1.6-0.9-2.5-1.2
										c-0.3,1.7-0.9,3-1.2,4.7C190.8,151,191.3,151.6,191.6,152.2z"/>
								</g>
								
									<linearGradient id="SVGID_29_" gradientUnits="userSpaceOnUse" x1="208.05" y1="791.5048" x2="208.05" y2="832.594" gradientTransform="matrix(1 0 0 1 0 -648)">
									<stop  offset="0" style="stop-color:#996431"/>
									<stop  offset="0.5" style="stop-color:#F3F1C0"/>
									<stop  offset="0.7419" style="stop-color:#C3A573"/>
									<stop  offset="0.9145" style="stop-color:#A57643"/>
									<stop  offset="1" style="stop-color:#996431"/>
								</linearGradient>
								<path class="st22" d="M207.9,184.5c-5.4-2.6-9.7-5-12.5-10l0,0c-2.1-3.7-3.2-8.1-3.4-13.8l0,0c0-0.3,0-0.5,0-0.8l0,0
									c0-1.1,0.1-2.3,0.1-3.3l0,0c0-1.6-0.1-3.1-0.7-4.1l0,0c-0.3-0.5-0.8-1.1-1.1-1.4l0,0l-0.1-0.1v-0.2c0.3-1.7,0.9-3.1,1.2-4.7
									l0,0l0.1-0.4l0.3,0.1c1,0.3,1.7,0.9,2.5,1.2l0,0c1.1,0.4,2.6,0.7,4.3,0.7l0,0c0.3,0,0.6,0,0.9,0l0,0
									c3.7-0.2,6.5-2.2,8.4-4.1l0,0l0.3-0.2l0.2,0.3c1.7,2.3,5.5,4.1,9.4,4.1l0,0c1.3,0,2.8-0.2,4-0.7l0,0
									c0.9-0.3,1.6-0.9,2.5-1.2l0,0l0.3-0.1l0.1,0.3c0.3,1.6,0.9,3,1.2,4.6l0,0v0.1l-0.1,0.1c-0.4,0.6-1,1.1-1.2,1.6l0,0
									c-0.5,1-0.6,2.4-0.6,4l0,0c0,1.1,0.1,2.2,0.1,3.4l0,0c0,0.3,0,0.6,0,0.9l0,0c-0.3,9.3-3.2,15.8-8.6,19.8l0,0
									c-2.1,1.6-4.6,2.5-7.1,4l0,0l-0.1,0.1L207.9,184.5L207.9,184.5z M191.9,152.1c0.7,1.2,0.8,2.8,0.8,4.5l0,0
									c0,1.1-0.1,2.3-0.1,3.3l0,0c0,0.3,0,0.5,0,0.8l0,0c0.2,5.7,1.2,9.9,3.3,13.5l0,0c2.7,4.8,6.7,7.2,12.1,9.7l0,0
									c2.6-1.5,4.9-2.4,6.9-3.9l0,0c5.3-3.9,8.2-10.1,8.5-19.3l0,0c0-0.3,0-0.6,0-0.9l0,0c0-1.1-0.1-2.2-0.1-3.4l0,0
									c0-1.6,0.1-3.1,0.7-4.3l0,0c0.4-0.7,0.9-1.2,1.2-1.6l0,0c-0.3-1.4-0.8-2.7-1.1-4.1l0,0c-0.7,0.3-1.3,0.8-2.2,1.1l0,0
									c-1.3,0.5-2.9,0.7-4.2,0.7l0,0c-3.9,0-7.7-1.7-9.7-4.1l0,0c-2,1.9-4.8,3.8-8.6,4.1l0,0c-0.3,0-0.7,0-0.9,0l0,0
									c-1.7,0-3.2-0.3-4.5-0.8l0,0c-0.9-0.3-1.5-0.8-2.2-1.1l0,0c-0.3,1.5-0.9,2.7-1.1,4.2l0,0C191.2,151,191.6,151.5,191.9,152.1
									L191.9,152.1z"/>
							</g>
						</g>
						<g>
							<g>
								<g>
									<g>
										<g>
											<defs>
												<path id="SVGID_30_" d="M213.3,157.9c0-3.1-2.4-5.6-5.3-5.6s-5.3,2.5-5.3,5.6c0,2.2,1.2,4.1,2.9,5l-2.8,11.7h4.9h0.4
													h4.9l-2.8-11.7C212.1,161.9,213.3,160.1,213.3,157.9z"/>
											</defs>
											<clipPath id="SVGID_31_">
												<use xlink:href="#SVGID_30_"  style="overflow:visible;"/>
											</clipPath>
											<path class="st23" d="M213.3,157.9c0-3.1-2.4-5.6-5.3-5.6s-5.3,2.5-5.3,5.6c0,2.2,1.2,4.1,2.9,5l-2.8,11.7h4.9h0.4h4.9
												l-2.8-11.7C212.1,161.9,213.3,160.1,213.3,157.9z"/>
										</g>
									</g>
								</g>
							</g>
							<g>
								<g>
									<g>
										<g>
											<defs>
												<path id="SVGID_32_" d="M213.3,157.9c0-3.1-2.4-5.6-5.3-5.6s-5.3,2.5-5.3,5.6c0,2.2,1.2,4.1,2.9,5l-2.8,11.7h4.9h0.4
													h4.9l-2.8-11.7C212.1,161.9,213.3,160.1,213.3,157.9z"/>
											</defs>
											<clipPath id="SVGID_33_">
												<use xlink:href="#SVGID_32_"  style="overflow:visible;"/>
											</clipPath>
											<path class="st24" d="M214.5,157.9c0-3.1-2.4-5.6-5.3-5.6c-2.9,0-5.3,2.5-5.3,5.6c0,2.2,1.2,4.1,2.9,5l-2.8,11.7h4.9h0.4
												h4.9l-2.8-11.7C213.3,162,214.5,160.1,214.5,157.9z"/>
										</g>
									</g>
								</g>
							</g>
						</g>
						<g id="Backup_Keyhole_12_" class="st9">
							<polygon class="st10" points="219.5,162.2 217.6,162.2 217.2,162.2 215.3,162.2 212.2,175.1 217.2,175.1 217.6,175.1 
								222.5,175.1 							"/>
							<ellipse class="st10" cx="217.4" cy="158.5" rx="5.3" ry="5.6"/>
						</g>
					</g>
				</g>
			</g>
		</g>
	</g>
	<g>
		<g>
			<g class="st0">
				<path d="M363.8,175c0.4,1.8,0.9,5.1,1.3,6.8c-0.4,0.6-1,1.1-1.4,1.8c-1,2.2-0.6,4.7-0.7,7.9c-0.3,10-3.4,16.8-9.2,21.1
					c-2.3,1.7-4.8,2.7-7.6,4.3c-5.9-2.8-10.4-5.4-13.4-10.7c-2.2-4-3.4-8.6-3.6-14.8c-0.1-3.2,0.5-5.7-0.8-7.9
					c-0.4-0.6-0.9-1.2-1.3-1.6c0.4-1.8,0.9-5.1,1.3-6.9c1,0.3,1.7,0.9,2.7,1.3c1.5,0.6,3.5,1.5,5.7,1.4c4.1-0.3,7.2-2.5,9.2-4.6
					c2.7,3.6,8.5,6.3,14.9,3.2C362,175.8,362.9,175.3,363.8,175z"/>
				<path d="M362.5,177c0.3,1.6,0.9,3,1.2,4.6c-0.3,0.5-1,1-1.3,1.7c-1,2-0.5,5.5-0.6,8.4c-0.3,9.2-3.2,15.6-8.5,19.5
					c-2.1,1.5-4.5,2.5-7,4c-5.4-2.6-9.6-5-12.4-9.9c-2.1-3.7-3.1-7.9-3.3-13.6c-0.1-2.9,0.5-6.4-0.7-8.5c-0.3-0.6-0.9-1.1-1.2-1.5
					c0.3-1.7,0.9-3,1.2-4.7c0.9,0.3,1.6,0.9,2.5,1.2c1.4,0.5,3.2,0.9,5.3,0.7c3.8-0.3,6.6-2.3,8.5-4.2c2.5,3.3,8.6,5.4,13.8,3.5
					C360.9,177.9,361.6,177.3,362.5,177z"/>
				<path d="M329.8,183.3c1.1,2.1,0.6,5.5,0.7,8.5c0.2,5.7,1.2,10,3.3,13.6c0.1,0.1,0.1,0.2,0.2,0.4c1-1,1.9-2.1,2.9-3.1
					c9.4-9.9,19.1-17.5,26.7-21.4c-0.4-1.4-0.9-2.7-1.1-4.2c-0.9,0.3-1.6,0.9-2.5,1.2c-5.1,1.9-11.3-0.2-13.8-3.5
					c-1.9,1.9-4.8,4-8.6,4.2c-2.1,0.1-3.9-0.2-5.3-0.7c-0.9-0.3-1.6-0.9-2.5-1.2c-0.3,1.7-0.9,3-1.2,4.7
					C328.9,182.1,329.4,182.7,329.8,183.3z"/>
				<path d="M346,215.6c-5.4-2.6-9.7-5-12.5-10l0,0c-2.1-3.7-3.2-8.1-3.4-13.8l0,0c0-0.3,0-0.5,0-0.8l0,0c0-1.1,0.1-2.3,0.1-3.3l0,0
					c0-1.6-0.1-3.1-0.7-4.1l0,0c-0.3-0.5-0.8-1.1-1.1-1.4l0,0l-0.1-0.1v-0.2c0.3-1.7,0.9-3.1,1.2-4.7l0,0l0.1-0.4l0.3,0.1
					c0.9,0.3,1.7,0.9,2.5,1.2l0,0c1.1,0.4,2.6,0.7,4.3,0.7l0,0c0.3,0,0.6,0,1,0l0,0c3.7-0.2,6.5-2.2,8.4-4.1l0,0l0.3-0.2l0.2,0.3
					c1.7,2.3,5.5,4.1,9.4,4.1l0,0c1.3,0,2.8-0.2,4-0.7l0,0c0.9-0.3,1.6-0.9,2.5-1.2l0,0l0.3-0.1l0.1,0.3c0.3,1.6,0.9,3,1.2,4.6l0,0
					v0.1L364,182c-0.4,0.6-1,1.1-1.2,1.6l0,0c-0.5,1-0.6,2.4-0.6,4l0,0c0,1.1,0.1,2.2,0.1,3.4l0,0c0,0.3,0,0.6,0,0.9l0,0
					c-0.3,9.3-3.2,15.8-8.6,19.8l0,0c-2.1,1.6-4.6,2.5-7.1,4l0,0l-0.1,0.1L346,215.6L346,215.6z M330,183.2c0.7,1.2,0.8,2.8,0.8,4.5
					l0,0c0,1.1-0.1,2.3-0.1,3.3l0,0c0,0.3,0,0.5,0,0.8l0,0c0.2,5.7,1.2,9.9,3.3,13.5l0,0c2.7,4.8,6.7,7.2,12.1,9.7l0,0
					c2.6-1.5,4.9-2.4,6.9-3.9l0,0c5.3-3.9,8.2-10.1,8.5-19.3l0,0c0-0.3,0-0.6,0-0.9l0,0c0-1.1-0.1-2.2-0.1-3.4l0,0
					c0-1.6,0.1-3.1,0.7-4.3l0,0c0.4-0.7,0.9-1.2,1.2-1.6l0,0c-0.3-1.4-0.8-2.7-1.1-4.1l0,0c-0.7,0.3-1.3,0.8-2.2,1.1l0,0
					c-1.3,0.5-2.9,0.7-4.2,0.7l0,0c-3.9,0-7.7-1.7-9.7-4.1l0,0c-2,1.9-4.8,3.8-8.6,4.1l0,0c-0.3,0-0.7,0-0.9,0l0,0
					c-1.7,0-3.2-0.3-4.5-0.8l0,0c-0.9-0.3-1.5-0.8-2.2-1.1l0,0c-0.3,1.5-0.9,2.7-1.1,4.2l0,0C329.2,182.1,329.7,182.6,330,183.2
					L330,183.2z"/>
				<path d="M363.8,175c0.4,1.8,0.9,5.1,1.3,6.8c-0.4,0.6-1,1.1-1.4,1.8c-1,2.2-0.6,4.7-0.7,7.9c-0.3,10-3.4,16.8-9.2,21.1
					c-2.3,1.7-4.8,2.7-7.6,4.3c-5.9-2.8-10.4-5.4-13.4-10.7c-2.2-4-3.4-8.6-3.6-14.8c-0.1-3.2,0.5-5.7-0.8-7.9
					c-0.4-0.6-0.9-1.2-1.3-1.6c0.4-1.8,0.9-5.1,1.3-6.9c1,0.3,1.7,0.9,2.7,1.3c1.5,0.6,3.5,1.5,5.7,1.4c4.1-0.3,7.2-2.5,9.2-4.6
					c2.7,3.6,8.5,6.3,14.9,3.2C362,175.8,362.9,175.3,363.8,175z"/>
				<path d="M362.5,177c0.3,1.6,0.9,3,1.2,4.6c-0.3,0.5-1,1-1.3,1.7c-1,2-0.5,5.5-0.6,8.4c-0.3,9.2-3.2,15.6-8.5,19.5
					c-2.1,1.5-4.5,2.5-7,4c-5.4-2.6-9.6-5-12.4-9.9c-2.1-3.7-3.1-7.9-3.3-13.6c-0.1-2.9,0.5-6.4-0.7-8.5c-0.3-0.6-0.9-1.1-1.2-1.5
					c0.3-1.7,0.9-3,1.2-4.7c0.9,0.3,1.6,0.9,2.5,1.2c1.4,0.5,3.2,0.9,5.3,0.7c3.8-0.3,6.6-2.3,8.5-4.2c2.5,3.3,8.6,5.4,13.8,3.5
					C360.9,177.9,361.6,177.3,362.5,177z"/>
				<path d="M329.8,183.3c1.1,2.1,0.6,5.5,0.7,8.5c0.2,5.7,1.2,10,3.3,13.6c0.1,0.1,0.1,0.2,0.2,0.4c1-1,1.9-2.1,2.9-3.1
					c9.4-9.9,19.1-17.5,26.7-21.4c-0.4-1.4-0.9-2.7-1.1-4.2c-0.9,0.3-1.6,0.9-2.5,1.2c-5.1,1.9-11.3-0.2-13.8-3.5
					c-1.9,1.9-4.8,4-8.6,4.2c-2.1,0.1-3.9-0.2-5.3-0.7c-0.9-0.3-1.6-0.9-2.5-1.2c-0.3,1.7-0.9,3-1.2,4.7
					C328.9,182.1,329.4,182.7,329.8,183.3z"/>
				<path d="M346,215.6c-5.4-2.6-9.7-5-12.5-10l0,0c-2.1-3.7-3.2-8.1-3.4-13.8l0,0c0-0.3,0-0.5,0-0.8l0,0c0-1.1,0.1-2.3,0.1-3.3l0,0
					c0-1.6-0.1-3.1-0.7-4.1l0,0c-0.3-0.5-0.8-1.1-1.1-1.4l0,0l-0.1-0.1v-0.2c0.3-1.7,0.9-3.1,1.2-4.7l0,0l0.1-0.4l0.3,0.1
					c0.9,0.3,1.7,0.9,2.5,1.2l0,0c1.1,0.4,2.6,0.7,4.3,0.7l0,0c0.3,0,0.6,0,1,0l0,0c3.7-0.2,6.5-2.2,8.4-4.1l0,0l0.3-0.2l0.2,0.3
					c1.7,2.3,5.5,4.1,9.4,4.1l0,0c1.3,0,2.8-0.2,4-0.7l0,0c0.9-0.3,1.6-0.9,2.5-1.2l0,0l0.3-0.1l0.1,0.3c0.3,1.6,0.9,3,1.2,4.6l0,0
					v0.1L364,182c-0.4,0.6-1,1.1-1.2,1.6l0,0c-0.5,1-0.6,2.4-0.6,4l0,0c0,1.1,0.1,2.2,0.1,3.4l0,0c0,0.3,0,0.6,0,0.9l0,0
					c-0.3,9.3-3.2,15.8-8.6,19.8l0,0c-2.1,1.6-4.6,2.5-7.1,4l0,0l-0.1,0.1L346,215.6L346,215.6z M330,183.2c0.7,1.2,0.8,2.8,0.8,4.5
					l0,0c0,1.1-0.1,2.3-0.1,3.3l0,0c0,0.3,0,0.5,0,0.8l0,0c0.2,5.7,1.2,9.9,3.3,13.5l0,0c2.7,4.8,6.7,7.2,12.1,9.7l0,0
					c2.6-1.5,4.9-2.4,6.9-3.9l0,0c5.3-3.9,8.2-10.1,8.5-19.3l0,0c0-0.3,0-0.6,0-0.9l0,0c0-1.1-0.1-2.2-0.1-3.4l0,0
					c0-1.6,0.1-3.1,0.7-4.3l0,0c0.4-0.7,0.9-1.2,1.2-1.6l0,0c-0.3-1.4-0.8-2.7-1.1-4.1l0,0c-0.7,0.3-1.3,0.8-2.2,1.1l0,0
					c-1.3,0.5-2.9,0.7-4.2,0.7l0,0c-3.9,0-7.7-1.7-9.7-4.1l0,0c-2,1.9-4.8,3.8-8.6,4.1l0,0c-0.3,0-0.7,0-0.9,0l0,0
					c-1.7,0-3.2-0.3-4.5-0.8l0,0c-0.9-0.3-1.5-0.8-2.2-1.1l0,0c-0.3,1.5-0.9,2.7-1.1,4.2l0,0C329.2,182.1,329.7,182.6,330,183.2
					L330,183.2z"/>
				<g>
					<g>
						<g>
							<g>
								<g>
									<defs>
										<path id="SVGID_34_" d="M351.5,189c0-3.1-2.4-5.6-5.3-5.6s-5.3,2.5-5.3,5.6c0,2.2,1.2,4.1,2.9,5l-2.8,11.7h4.9h0.4h4.9
											l-2.8-11.7C350.2,193,351.5,191.1,351.5,189z"/>
									</defs>
									<clipPath id="SVGID_35_">
										<use xlink:href="#SVGID_34_"  style="overflow:visible;"/>
									</clipPath>
									<path class="st25" d="M351.5,189c0-3.1-2.4-5.6-5.3-5.6s-5.3,2.5-5.3,5.6c0,2.2,1.2,4.1,2.9,5l-2.8,11.7h4.9h0.4h4.9
										l-2.8-11.7C350.2,193,351.5,191.1,351.5,189z"/>
								</g>
							</g>
						</g>
					</g>
					<g>
						<g>
							<g>
								<g>
									<defs>
										<path id="SVGID_36_" d="M351.5,189c0-3.1-2.4-5.6-5.3-5.6s-5.3,2.5-5.3,5.6c0,2.2,1.2,4.1,2.9,5l-2.8,11.7h4.9h0.4h4.9
											l-2.8-11.7C350.2,193,351.5,191.1,351.5,189z"/>
									</defs>
									<clipPath id="SVGID_37_">
										<use xlink:href="#SVGID_36_"  style="overflow:visible;"/>
									</clipPath>
									<path class="st26" d="M352.6,189c0-3.1-2.4-5.6-5.3-5.6s-5.3,2.5-5.3,5.6c0,2.2,1.2,4.1,2.9,5l-2.8,11.7h4.9h0.4h4.9
										l-2.8-11.7C351.5,193.1,352.6,191.2,352.6,189z"/>
								</g>
							</g>
						</g>
					</g>
				</g>
			</g>
			<g>
				<g>
					<g>
						<g>
							<g>
								<path class="st3" d="M366.1,172.5c0.4,1.8,0.9,5.1,1.3,6.8c-0.4,0.6-1,1.1-1.4,1.8c-1,2.2-0.6,4.7-0.7,7.9
									c-0.3,10-3.4,16.8-9.2,21.1c-2.3,1.7-4.8,2.7-7.6,4.3c-5.9-2.8-10.4-5.4-13.4-10.7c-2.2-4-3.4-8.6-3.6-14.8
									c-0.1-3.2,0.5-5.7-0.8-7.9c-0.4-0.6-0.9-1.2-1.3-1.6c0.4-1.8,1-5.1,1.3-6.9c1,0.3,1.7,0.9,2.7,1.3c1.5,0.6,3.5,1.5,5.7,1.4
									c4.1-0.3,7.2-2.5,9.2-4.6c2.7,3.6,8.5,6.3,14.9,3.2C364.3,173.4,365.3,172.8,366.1,172.5z"/>
								<g>
									<path class="st3" d="M364.8,174.6c0.3,1.6,0.9,3,1.2,4.6c-0.3,0.5-1,1-1.3,1.7c-1,2-0.5,5.5-0.6,8.4
										c-0.3,9.2-3.2,15.6-8.6,19.5c-2.1,1.5-4.5,2.5-7,4c-5.4-2.6-9.6-5-12.4-9.9c-2.1-3.7-3.1-7.9-3.3-13.6
										c-0.1-2.9,0.5-6.4-0.7-8.5c-0.3-0.6-0.9-1.1-1.2-1.5c0.3-1.7,0.9-3,1.2-4.7c0.9,0.3,1.6,0.9,2.5,1.2
										c1.4,0.5,3.2,0.9,5.3,0.7c3.8-0.3,6.6-2.3,8.5-4.2c2.5,3.3,8.6,5.4,13.8,3.5C363.2,175.5,363.9,174.9,364.8,174.6z"/>
									<path class="st3" d="M332.1,180.8c1.1,2.1,0.6,5.5,0.7,8.5c0.2,5.7,1.2,10,3.3,13.6c0.1,0.1,0.1,0.2,0.2,0.4
										c0.9-1,1.9-2.1,2.8-3.1c9.4-9.9,19.1-17.5,26.7-21.4c-0.4-1.4-0.9-2.7-1.1-4.2c-0.9,0.3-1.6,0.9-2.5,1.2
										c-5.1,1.9-11.3-0.2-13.8-3.5c-1.9,1.9-4.8,4-8.5,4.2c-2.1,0.1-3.9-0.2-5.3-0.7c-0.9-0.3-1.6-0.9-2.5-1.2
										c-0.3,1.7-0.9,3-1.2,4.7C331.3,179.7,331.8,180.2,332.1,180.8z"/>
								</g>
								<path class="st3" d="M348.4,213.2c-5.4-2.6-9.7-5-12.5-10l0,0c-2.1-3.7-3.2-8.1-3.4-13.8l0,0c0-0.3,0-0.5,0-0.8l0,0
									c0-1.1,0.1-2.3,0.1-3.3l0,0c0-1.6-0.1-3.1-0.7-4.1l0,0c-0.3-0.5-0.8-1.1-1.1-1.4l0,0l-0.1-0.1v-0.2c0.3-1.7,1-3.1,1.2-4.7
									l0,0l0.1-0.4l0.3,0.1c0.9,0.3,1.7,0.9,2.5,1.2l0,0c1.1,0.4,2.6,0.7,4.3,0.7l0,0c0.3,0,0.6,0,1,0l0,0
									c3.7-0.2,6.5-2.2,8.4-4.1l0,0l0.3-0.2l0.2,0.3c1.7,2.3,5.5,4.1,9.4,4.1l0,0c1.3,0,2.8-0.2,4-0.7l0,0
									c0.9-0.3,1.6-0.9,2.5-1.2l0,0l0.3-0.1l0.1,0.3c0.3,1.6,0.9,3,1.2,4.6l0,0v0.1l-0.1,0.1c-0.4,0.6-1,1.1-1.2,1.6l0,0
									c-0.5,1-0.6,2.4-0.6,4l0,0c0,1.1,0.1,2.2,0.1,3.4l0,0c0,0.3,0,0.6,0,0.9l0,0c-0.3,9.3-3.2,15.8-8.6,19.8l0,0
									c-2.1,1.6-4.6,2.5-7.1,4l0,0l-0.1,0.1L348.4,213.2L348.4,213.2z M332.4,180.7c0.7,1.2,0.8,2.8,0.8,4.5l0,0
									c0,1.1-0.1,2.3-0.1,3.3l0,0c0,0.3,0,0.5,0,0.8l0,0c0.2,5.7,1.2,9.9,3.3,13.5l0,0c2.7,4.8,6.7,7.2,12.1,9.7l0,0
									c2.6-1.5,4.9-2.4,6.9-3.9l0,0c5.3-3.9,8.2-10.1,8.5-19.3l0,0c0-0.3,0-0.6,0-0.9l0,0c0-1.1-0.1-2.2-0.1-3.4l0,0
									c0-1.6,0.1-3.1,0.7-4.3l0,0c0.4-0.7,1-1.2,1.2-1.6l0,0c-0.3-1.4-0.8-2.7-1.1-4.1l0,0c-0.7,0.3-1.3,0.8-2.2,1.1l0,0
									c-1.3,0.5-2.9,0.7-4.2,0.7l0,0c-3.9,0-7.7-1.7-9.7-4.1l0,0c-2,1.9-4.8,3.8-8.5,4.1l0,0c-0.3,0-0.7,0-1,0l0,0
									c-1.7,0-3.2-0.3-4.5-0.8l0,0c-0.9-0.3-1.5-0.8-2.2-1.1l0,0c-0.3,1.5-0.9,2.7-1.1,4.2l0,0
									C331.6,179.6,332.1,180.1,332.4,180.7L332.4,180.7z"/>
							</g>
							<g>
								
									<linearGradient id="SVGID_38_" gradientUnits="userSpaceOnUse" x1="329.465" y1="840.5" x2="367.4135" y2="840.5" gradientTransform="matrix(1 0 0 1 0 -648)">
									<stop  offset="0" style="stop-color:#996431"/>
									<stop  offset="0.5" style="stop-color:#F3F1C0"/>
									<stop  offset="0.7419" style="stop-color:#C3A573"/>
									<stop  offset="0.9145" style="stop-color:#A57643"/>
									<stop  offset="1" style="stop-color:#996431"/>
								</linearGradient>
								<path class="st27" d="M366.1,172.5c0.4,1.8,0.9,5.1,1.3,6.8c-0.4,0.6-1,1.1-1.4,1.8c-1,2.2-0.6,4.7-0.7,7.9
									c-0.3,10-3.4,16.8-9.2,21.1c-2.3,1.7-4.8,2.7-7.6,4.3c-5.9-2.8-10.4-5.4-13.4-10.7c-2.2-4-3.4-8.6-3.6-14.8
									c-0.1-3.2,0.5-5.7-0.8-7.9c-0.4-0.6-0.9-1.2-1.3-1.6c0.4-1.8,1-5.1,1.3-6.9c1,0.3,1.7,0.9,2.7,1.3c1.5,0.6,3.5,1.5,5.7,1.4
									c4.1-0.3,7.2-2.5,9.2-4.6c2.7,3.6,8.5,6.3,14.9,3.2C364.3,173.4,365.3,172.8,366.1,172.5z"/>
								<g>
									<path d="M364.8,174.6c0.3,1.6,0.9,3,1.2,4.6c-0.3,0.5-1,1-1.3,1.7c-1,2-0.5,5.5-0.6,8.4c-0.3,9.2-3.2,15.6-8.6,19.5
										c-2.1,1.5-4.5,2.5-7,4c-5.4-2.6-9.6-5-12.4-9.9c-2.1-3.7-3.1-7.9-3.3-13.6c-0.1-2.9,0.5-6.4-0.7-8.5
										c-0.3-0.6-0.9-1.1-1.2-1.5c0.3-1.7,0.9-3,1.2-4.7c0.9,0.3,1.6,0.9,2.5,1.2c1.4,0.5,3.2,0.9,5.3,0.7
										c3.8-0.3,6.6-2.3,8.5-4.2c2.5,3.3,8.6,5.4,13.8,3.5C363.2,175.5,363.9,174.9,364.8,174.6z"/>
									
										<linearGradient id="SVGID_39_" gradientUnits="userSpaceOnUse" x1="337.5065" y1="819.1133" x2="351.1981" y2="837.9083" gradientTransform="matrix(1 0 0 1 0 -648)">
										<stop  offset="0" style="stop-color:#4D4D4D"/>
										<stop  offset="1" style="stop-color:#1A1A1A"/>
									</linearGradient>
									<path class="st28" d="M332.1,180.8c1.1,2.1,0.6,5.5,0.7,8.5c0.2,5.7,1.2,10,3.3,13.6c0.1,0.1,0.1,0.2,0.2,0.4
										c0.9-1,1.9-2.1,2.8-3.1c9.4-9.9,19.1-17.5,26.7-21.4c-0.4-1.4-0.9-2.7-1.1-4.2c-0.9,0.3-1.6,0.9-2.5,1.2
										c-5.1,1.9-11.3-0.2-13.8-3.5c-1.9,1.9-4.8,4-8.5,4.2c-2.1,0.1-3.9-0.2-5.3-0.7c-0.9-0.3-1.6-0.9-2.5-1.2
										c-0.3,1.7-0.9,3-1.2,4.7C331.3,179.7,331.8,180.2,332.1,180.8z"/>
								</g>
								
									<linearGradient id="SVGID_40_" gradientUnits="userSpaceOnUse" x1="348.6" y1="820.1502" x2="348.6" y2="861.2393" gradientTransform="matrix(1 0 0 1 0 -648)">
									<stop  offset="0" style="stop-color:#996431"/>
									<stop  offset="0.5" style="stop-color:#F3F1C0"/>
									<stop  offset="0.7419" style="stop-color:#C3A573"/>
									<stop  offset="0.9145" style="stop-color:#A57643"/>
									<stop  offset="1" style="stop-color:#996431"/>
								</linearGradient>
								<path class="st29" d="M348.4,213.2c-5.4-2.6-9.7-5-12.5-10l0,0c-2.1-3.7-3.2-8.1-3.4-13.8l0,0c0-0.3,0-0.5,0-0.8l0,0
									c0-1.1,0.1-2.3,0.1-3.3l0,0c0-1.6-0.1-3.1-0.7-4.1l0,0c-0.3-0.5-0.8-1.1-1.1-1.4l0,0l-0.1-0.1v-0.2c0.3-1.7,1-3.1,1.2-4.7
									l0,0l0.1-0.4l0.3,0.1c0.9,0.3,1.7,0.9,2.5,1.2l0,0c1.1,0.4,2.6,0.7,4.3,0.7l0,0c0.3,0,0.6,0,1,0l0,0
									c3.7-0.2,6.5-2.2,8.4-4.1l0,0l0.3-0.2l0.2,0.3c1.7,2.3,5.5,4.1,9.4,4.1l0,0c1.3,0,2.8-0.2,4-0.7l0,0
									c0.9-0.3,1.6-0.9,2.5-1.2l0,0l0.3-0.1l0.1,0.3c0.3,1.6,0.9,3,1.2,4.6l0,0v0.1l-0.1,0.1c-0.4,0.6-1,1.1-1.2,1.6l0,0
									c-0.5,1-0.6,2.4-0.6,4l0,0c0,1.1,0.1,2.2,0.1,3.4l0,0c0,0.3,0,0.6,0,0.9l0,0c-0.3,9.3-3.2,15.8-8.6,19.8l0,0
									c-2.1,1.6-4.6,2.5-7.1,4l0,0l-0.1,0.1L348.4,213.2L348.4,213.2z M332.4,180.7c0.7,1.2,0.8,2.8,0.8,4.5l0,0
									c0,1.1-0.1,2.3-0.1,3.3l0,0c0,0.3,0,0.5,0,0.8l0,0c0.2,5.7,1.2,9.9,3.3,13.5l0,0c2.7,4.8,6.7,7.2,12.1,9.7l0,0
									c2.6-1.5,4.9-2.4,6.9-3.9l0,0c5.3-3.9,8.2-10.1,8.5-19.3l0,0c0-0.3,0-0.6,0-0.9l0,0c0-1.1-0.1-2.2-0.1-3.4l0,0
									c0-1.6,0.1-3.1,0.7-4.3l0,0c0.4-0.7,1-1.2,1.2-1.6l0,0c-0.3-1.4-0.8-2.7-1.1-4.1l0,0c-0.7,0.3-1.3,0.8-2.2,1.1l0,0
									c-1.3,0.5-2.9,0.7-4.2,0.7l0,0c-3.9,0-7.7-1.7-9.7-4.1l0,0c-2,1.9-4.8,3.8-8.5,4.1l0,0c-0.3,0-0.7,0-1,0l0,0
									c-1.7,0-3.2-0.3-4.5-0.8l0,0c-0.9-0.3-1.5-0.8-2.2-1.1l0,0c-0.3,1.5-0.9,2.7-1.1,4.2l0,0
									C331.6,179.6,332.1,180.1,332.4,180.7L332.4,180.7z"/>
							</g>
						</g>
						<g>
							<g>
								<g>
									<g>
										<g>
											<defs>
												<path id="SVGID_41_" d="M353.8,186.5c0-3.1-2.4-5.6-5.3-5.6s-5.3,2.5-5.3,5.6c0,2.2,1.2,4.1,2.9,5l-2.8,11.7h4.9h0.4
													h4.9l-2.8-11.7C352.5,190.6,353.8,188.7,353.8,186.5z"/>
											</defs>
											<clipPath id="SVGID_42_">
												<use xlink:href="#SVGID_41_"  style="overflow:visible;"/>
											</clipPath>
											<path class="st30" d="M353.8,186.5c0-3.1-2.4-5.6-5.3-5.6s-5.3,2.5-5.3,5.6c0,2.2,1.2,4.1,2.9,5l-2.8,11.7h4.9h0.4h4.9
												l-2.8-11.7C352.5,190.6,353.8,188.7,353.8,186.5z"/>
										</g>
									</g>
								</g>
							</g>
							<g>
								<g>
									<g>
										<g>
											<defs>
												<path id="SVGID_43_" d="M353.8,186.5c0-3.1-2.4-5.6-5.3-5.6s-5.3,2.5-5.3,5.6c0,2.2,1.2,4.1,2.9,5l-2.8,11.7h4.9h0.4
													h4.9l-2.8-11.7C352.5,190.6,353.8,188.7,353.8,186.5z"/>
											</defs>
											<clipPath id="SVGID_44_">
												<use xlink:href="#SVGID_43_"  style="overflow:visible;"/>
											</clipPath>
											<path class="st31" d="M355,186.6c0-3.1-2.4-5.6-5.3-5.6s-5.3,2.5-5.3,5.6c0,2.2,1.2,4.1,2.9,5l-2.8,11.7h4.9h0.4h4.9
												l-2.8-11.7C353.8,190.6,355,188.8,355,186.6z"/>
										</g>
									</g>
								</g>
							</g>
						</g>
						<g id="Backup_Keyhole_13_" class="st9">
							<polygon class="st10" points="360,190.9 358.1,190.9 357.7,190.9 355.8,190.9 352.7,203.8 357.7,203.8 358.1,203.8 
								363,203.8 							"/>
							<ellipse class="st10" cx="357.9" cy="187.1" rx="5.3" ry="5.6"/>
						</g>
					</g>
				</g>
			</g>
		</g>
	</g>
	<g>
		<g>
			<g class="st0">
				<path d="M375.7,265.5c0.4,1.8,0.9,5.1,1.3,6.8c-0.4,0.6-1,1.1-1.4,1.8c-1,2.2-0.6,4.7-0.7,7.9c-0.3,10-3.4,16.8-9.2,21.1
					c-2.3,1.7-4.8,2.7-7.6,4.3c-5.9-2.8-10.4-5.4-13.4-10.7c-2.2-4-3.4-8.6-3.6-14.8c-0.1-3.2,0.5-5.7-0.8-7.9
					c-0.4-0.6-0.9-1.2-1.3-1.6c0.4-1.8,0.9-5.1,1.3-6.9c1,0.3,1.7,0.9,2.7,1.3c1.5,0.6,3.5,1.5,5.7,1.4c4.1-0.3,7.2-2.5,9.2-4.6
					c2.7,3.6,8.5,6.3,14.9,3.2C373.9,266.3,374.9,265.8,375.7,265.5z"/>
				<path d="M374.4,267.5c0.3,1.6,0.9,3,1.2,4.6c-0.3,0.5-0.9,1-1.3,1.7c-1,2-0.5,5.5-0.6,8.4c-0.3,9.2-3.2,15.6-8.5,19.5
					c-2.1,1.5-4.5,2.5-7,4c-5.4-2.6-9.6-5-12.4-9.9c-2.1-3.7-3.1-7.9-3.3-13.6c-0.1-2.9,0.5-6.4-0.7-8.5c-0.3-0.6-0.9-1.1-1.2-1.5
					c0.3-1.7,0.9-3,1.2-4.7c0.9,0.3,1.6,0.9,2.5,1.2c1.4,0.5,3.2,0.9,5.3,0.7c3.8-0.3,6.6-2.3,8.5-4.2c2.5,3.3,8.6,5.4,13.8,3.5
					C372.8,268.4,373.5,267.8,374.4,267.5z"/>
				<path d="M341.7,273.8c1.1,2.1,0.6,5.5,0.7,8.5c0.2,5.7,1.2,10,3.3,13.6c0.1,0.1,0.1,0.2,0.2,0.4c1-1,1.9-2.1,2.9-3.1
					c9.4-9.9,19.1-17.5,26.7-21.4c-0.4-1.4-0.9-2.7-1.1-4.2c-0.9,0.3-1.6,0.9-2.5,1.2c-5.1,1.9-11.3-0.2-13.8-3.5
					c-1.9,1.9-4.8,4-8.6,4.2c-2.1,0.1-3.9-0.2-5.3-0.7c-0.9-0.3-1.6-0.9-2.5-1.2c-0.3,1.7-0.9,3-1.2,4.7
					C340.8,272.6,341.4,273.2,341.7,273.8z"/>
				<path d="M357.9,306.1c-5.4-2.6-9.7-5-12.5-10l0,0c-2.1-3.7-3.2-8.1-3.4-13.8l0,0c0-0.3,0-0.5,0-0.8l0,0c0-1.1,0.1-2.3,0.1-3.3
					l0,0c0-1.6-0.1-3.1-0.7-4.1l0,0c-0.3-0.5-0.8-1.1-1.1-1.4l0,0l-0.1-0.1v-0.2c0.3-1.7,0.9-3.1,1.2-4.7l0,0l0.1-0.4l0.3,0.1
					c0.9,0.3,1.7,0.9,2.5,1.2l0,0c1.1,0.4,2.6,0.7,4.3,0.7l0,0c0.3,0,0.6,0,1,0l0,0c3.7-0.2,6.5-2.2,8.4-4.1l0,0l0.3-0.2l0.2,0.3
					c1.7,2.3,5.5,4.1,9.4,4.1l0,0c1.3,0,2.8-0.2,4-0.7l0,0c0.9-0.3,1.6-0.9,2.5-1.2l0,0l0.3-0.1l0.1,0.3c0.3,1.6,0.9,3,1.2,4.6l0,0
					v0.1l-0.1,0.1c-0.4,0.6-1,1.1-1.2,1.6l0,0c-0.5,1-0.6,2.4-0.6,4l0,0c0,1.1,0.1,2.2,0.1,3.4l0,0c0,0.3,0,0.6,0,0.9l0,0
					c-0.3,9.3-3.2,15.8-8.6,19.8l0,0c-2.1,1.6-4.6,2.5-7.1,4l0,0l-0.1,0.1L357.9,306.1L357.9,306.1z M342,273.7
					c0.7,1.2,0.8,2.8,0.8,4.5l0,0c0,1.1-0.1,2.3-0.1,3.3l0,0c0,0.3,0,0.5,0,0.8l0,0c0.2,5.7,1.2,9.9,3.3,13.5l0,0
					c2.7,4.8,6.7,7.2,12.1,9.7l0,0c2.6-1.5,4.9-2.4,6.9-3.9l0,0c5.3-3.9,8.2-10.1,8.5-19.3l0,0c0-0.3,0-0.6,0-0.9l0,0
					c0-1.1-0.1-2.2-0.1-3.4l0,0c0-1.6,0.1-3.1,0.7-4.3l0,0c0.4-0.7,0.9-1.2,1.2-1.6l0,0c-0.3-1.4-0.8-2.7-1.1-4.1l0,0
					c-0.7,0.3-1.3,0.8-2.2,1.1l0,0c-1.3,0.5-2.9,0.7-4.2,0.7l0,0c-3.9,0-7.7-1.7-9.7-4.1l0,0c-2,1.9-4.8,3.8-8.5,4.1l0,0
					c-0.3,0-0.7,0-1,0l0,0c-1.7,0-3.2-0.3-4.5-0.8l0,0c-0.9-0.3-1.5-0.8-2.2-1.1l0,0c-0.3,1.5-0.9,2.7-1.1,4.2l0,0
					C341.2,272.6,341.7,273.1,342,273.7L342,273.7z"/>
				<path d="M375.7,265.5c0.4,1.8,0.9,5.1,1.3,6.8c-0.4,0.6-1,1.1-1.4,1.8c-1,2.2-0.6,4.7-0.7,7.9c-0.3,10-3.4,16.8-9.2,21.1
					c-2.3,1.7-4.8,2.7-7.6,4.3c-5.9-2.8-10.4-5.4-13.4-10.7c-2.2-4-3.4-8.6-3.6-14.8c-0.1-3.2,0.5-5.7-0.8-7.9
					c-0.4-0.6-0.9-1.2-1.3-1.6c0.4-1.8,0.9-5.1,1.3-6.9c1,0.3,1.7,0.9,2.7,1.3c1.5,0.6,3.5,1.5,5.7,1.4c4.1-0.3,7.2-2.5,9.2-4.6
					c2.7,3.6,8.5,6.3,14.9,3.2C373.9,266.3,374.9,265.8,375.7,265.5z"/>
				<path d="M374.4,267.5c0.3,1.6,0.9,3,1.2,4.6c-0.3,0.5-0.9,1-1.3,1.7c-1,2-0.5,5.5-0.6,8.4c-0.3,9.2-3.2,15.6-8.5,19.5
					c-2.1,1.5-4.5,2.5-7,4c-5.4-2.6-9.6-5-12.4-9.9c-2.1-3.7-3.1-7.9-3.3-13.6c-0.1-2.9,0.5-6.4-0.7-8.5c-0.3-0.6-0.9-1.1-1.2-1.5
					c0.3-1.7,0.9-3,1.2-4.7c0.9,0.3,1.6,0.9,2.5,1.2c1.4,0.5,3.2,0.9,5.3,0.7c3.8-0.3,6.6-2.3,8.5-4.2c2.5,3.3,8.6,5.4,13.8,3.5
					C372.8,268.4,373.5,267.8,374.4,267.5z"/>
				<path d="M341.7,273.8c1.1,2.1,0.6,5.5,0.7,8.5c0.2,5.7,1.2,10,3.3,13.6c0.1,0.1,0.1,0.2,0.2,0.4c1-1,1.9-2.1,2.9-3.1
					c9.4-9.9,19.1-17.5,26.7-21.4c-0.4-1.4-0.9-2.7-1.1-4.2c-0.9,0.3-1.6,0.9-2.5,1.2c-5.1,1.9-11.3-0.2-13.8-3.5
					c-1.9,1.9-4.8,4-8.6,4.2c-2.1,0.1-3.9-0.2-5.3-0.7c-0.9-0.3-1.6-0.9-2.5-1.2c-0.3,1.7-0.9,3-1.2,4.7
					C340.8,272.6,341.4,273.2,341.7,273.8z"/>
				<path d="M357.9,306.1c-5.4-2.6-9.7-5-12.5-10l0,0c-2.1-3.7-3.2-8.1-3.4-13.8l0,0c0-0.3,0-0.5,0-0.8l0,0c0-1.1,0.1-2.3,0.1-3.3
					l0,0c0-1.6-0.1-3.1-0.7-4.1l0,0c-0.3-0.5-0.8-1.1-1.1-1.4l0,0l-0.1-0.1v-0.2c0.3-1.7,0.9-3.1,1.2-4.7l0,0l0.1-0.4l0.3,0.1
					c0.9,0.3,1.7,0.9,2.5,1.2l0,0c1.1,0.4,2.6,0.7,4.3,0.7l0,0c0.3,0,0.6,0,1,0l0,0c3.7-0.2,6.5-2.2,8.4-4.1l0,0l0.3-0.2l0.2,0.3
					c1.7,2.3,5.5,4.1,9.4,4.1l0,0c1.3,0,2.8-0.2,4-0.7l0,0c0.9-0.3,1.6-0.9,2.5-1.2l0,0l0.3-0.1l0.1,0.3c0.3,1.6,0.9,3,1.2,4.6l0,0
					v0.1l-0.1,0.1c-0.4,0.6-1,1.1-1.2,1.6l0,0c-0.5,1-0.6,2.4-0.6,4l0,0c0,1.1,0.1,2.2,0.1,3.4l0,0c0,0.3,0,0.6,0,0.9l0,0
					c-0.3,9.3-3.2,15.8-8.6,19.8l0,0c-2.1,1.6-4.6,2.5-7.1,4l0,0l-0.1,0.1L357.9,306.1L357.9,306.1z M342,273.7
					c0.7,1.2,0.8,2.8,0.8,4.5l0,0c0,1.1-0.1,2.3-0.1,3.3l0,0c0,0.3,0,0.5,0,0.8l0,0c0.2,5.7,1.2,9.9,3.3,13.5l0,0
					c2.7,4.8,6.7,7.2,12.1,9.7l0,0c2.6-1.5,4.9-2.4,6.9-3.9l0,0c5.3-3.9,8.2-10.1,8.5-19.3l0,0c0-0.3,0-0.6,0-0.9l0,0
					c0-1.1-0.1-2.2-0.1-3.4l0,0c0-1.6,0.1-3.1,0.7-4.3l0,0c0.4-0.7,0.9-1.2,1.2-1.6l0,0c-0.3-1.4-0.8-2.7-1.1-4.1l0,0
					c-0.7,0.3-1.3,0.8-2.2,1.1l0,0c-1.3,0.5-2.9,0.7-4.2,0.7l0,0c-3.9,0-7.7-1.7-9.7-4.1l0,0c-2,1.9-4.8,3.8-8.5,4.1l0,0
					c-0.3,0-0.7,0-1,0l0,0c-1.7,0-3.2-0.3-4.5-0.8l0,0c-0.9-0.3-1.5-0.8-2.2-1.1l0,0c-0.3,1.5-0.9,2.7-1.1,4.2l0,0
					C341.2,272.6,341.7,273.1,342,273.7L342,273.7z"/>
				<g>
					<g>
						<g>
							<g>
								<g>
									<defs>
										<path id="SVGID_45_" d="M363.4,279.5c0-3.1-2.4-5.6-5.3-5.6s-5.3,2.5-5.3,5.6c0,2.2,1.2,4.1,2.9,5l-2.8,11.7h4.9h0.4h4.9
											l-2.8-11.7C362.1,283.5,363.4,281.6,363.4,279.5z"/>
									</defs>
									<clipPath id="SVGID_46_">
										<use xlink:href="#SVGID_45_"  style="overflow:visible;"/>
									</clipPath>
									<path class="st32" d="M363.4,279.5c0-3.1-2.4-5.6-5.3-5.6s-5.3,2.5-5.3,5.6c0,2.2,1.2,4.1,2.9,5l-2.8,11.7h4.9h0.4h4.9
										l-2.8-11.7C362.1,283.5,363.4,281.6,363.4,279.5z"/>
								</g>
							</g>
						</g>
					</g>
					<g>
						<g>
							<g>
								<g>
									<defs>
										<path id="SVGID_47_" d="M363.4,279.5c0-3.1-2.4-5.6-5.3-5.6s-5.3,2.5-5.3,5.6c0,2.2,1.2,4.1,2.9,5l-2.8,11.7h4.9h0.4h4.9
											l-2.8-11.7C362.1,283.5,363.4,281.6,363.4,279.5z"/>
									</defs>
									<clipPath id="SVGID_48_">
										<use xlink:href="#SVGID_47_"  style="overflow:visible;"/>
									</clipPath>
									<path class="st33" d="M364.6,279.5c0-3.1-2.4-5.6-5.3-5.6s-5.3,2.5-5.3,5.6c0,2.2,1.2,4.1,2.9,5l-2.8,11.7h4.9h0.4h4.9
										l-2.8-11.7C363.4,283.6,364.6,281.7,364.6,279.5z"/>
								</g>
							</g>
						</g>
					</g>
				</g>
			</g>
			<g>
				<g>
					<g>
						<g>
							<g>
								<path class="st3" d="M378,263c0.4,1.8,0.9,5.1,1.3,6.8c-0.4,0.6-1,1.1-1.4,1.8c-1,2.2-0.6,4.7-0.7,7.9
									c-0.3,10-3.4,16.8-9.2,21.1c-2.3,1.7-4.8,2.7-7.6,4.3c-5.9-2.8-10.4-5.4-13.4-10.7c-2.2-4-3.4-8.6-3.6-14.8
									c-0.1-3.2,0.5-5.7-0.8-7.9c-0.4-0.6-0.9-1.2-1.3-1.6c0.4-1.8,1-5.1,1.3-6.9c1,0.3,1.7,0.9,2.7,1.3c1.5,0.6,3.5,1.5,5.7,1.4
									c4.1-0.3,7.2-2.5,9.2-4.6c2.7,3.6,8.5,6.3,14.9,3.2C376.3,263.9,377.2,263.3,378,263z"/>
								<g>
									<path class="st3" d="M376.7,265.1c0.3,1.6,0.9,3,1.2,4.6c-0.3,0.5-1,1-1.3,1.7c-1,2-0.5,5.5-0.6,8.4
										c-0.3,9.2-3.2,15.6-8.6,19.5c-2.1,1.5-4.5,2.5-7,4c-5.4-2.6-9.6-5-12.4-9.9c-2.1-3.7-3.1-7.9-3.3-13.6
										c-0.1-2.9,0.5-6.4-0.7-8.5c-0.3-0.6-0.9-1.1-1.2-1.5c0.3-1.7,0.9-3,1.2-4.7c0.9,0.3,1.6,0.9,2.5,1.2
										c1.4,0.5,3.2,0.9,5.3,0.7c3.8-0.3,6.6-2.3,8.5-4.2c2.5,3.3,8.6,5.4,13.8,3.5C375.2,266,375.9,265.4,376.7,265.1z"/>
									<path class="st3" d="M344.1,271.3c1.1,2.1,0.6,5.5,0.7,8.5c0.2,5.7,1.2,10,3.3,13.6c0.1,0.1,0.1,0.2,0.2,0.4
										c0.9-1,1.9-2.1,2.9-3.1c9.4-9.9,19.1-17.5,26.7-21.4c-0.4-1.4-0.9-2.7-1.1-4.2c-0.9,0.3-1.6,0.9-2.5,1.2
										c-5.1,1.9-11.3-0.2-13.8-3.5c-1.9,1.9-4.8,4-8.5,4.2c-2.1,0.1-3.9-0.2-5.3-0.7c-0.9-0.3-1.6-0.9-2.5-1.2
										c-0.3,1.7-0.9,3-1.2,4.7C343.3,270.2,343.7,270.7,344.1,271.3z"/>
								</g>
								<path class="st3" d="M360.4,303.7c-5.4-2.6-9.7-5-12.5-10l0,0c-2.1-3.7-3.2-8.1-3.4-13.8l0,0c0-0.3,0-0.5,0-0.8l0,0
									c0-1.1,0.1-2.3,0.1-3.3l0,0c0-1.6-0.1-3.1-0.7-4.1l0,0c-0.3-0.5-0.8-1.1-1.1-1.4l0,0l-0.1-0.1V270c0.3-1.7,1-3.1,1.2-4.7
									l0,0l0.1-0.4l0.3,0.1c1,0.3,1.7,0.9,2.5,1.2l0,0c1.1,0.4,2.6,0.7,4.3,0.7l0,0c0.3,0,0.6,0,1,0l0,0c3.7-0.2,6.5-2.2,8.4-4.1
									l0,0l0.3-0.2l0.2,0.3c1.7,2.3,5.5,4.1,9.4,4.1l0,0c1.3,0,2.8-0.2,4-0.7l0,0c0.9-0.3,1.6-0.9,2.5-1.2l0,0l0.3-0.1l0.1,0.3
									c0.3,1.6,0.9,3,1.2,4.6l0,0v0.1l-0.1,0.1c-0.4,0.6-1,1.1-1.2,1.6l0,0c-0.5,1-0.6,2.4-0.6,4l0,0c0,1.1,0.1,2.2,0.1,3.4l0,0
									c0,0.3,0,0.6,0,0.9l0,0c-0.3,9.3-3.2,15.8-8.6,19.8l0,0c-2.1,1.6-4.6,2.5-7.1,4l0,0l-0.1,0.1L360.4,303.7L360.4,303.7z
									 M344.3,271.2c0.7,1.2,0.8,2.8,0.8,4.5l0,0c0,1.1-0.1,2.3-0.1,3.3l0,0c0,0.3,0,0.5,0,0.8l0,0c0.2,5.7,1.2,9.9,3.3,13.5l0,0
									c2.7,4.8,6.7,7.2,12.1,9.7l0,0c2.6-1.5,4.9-2.4,6.9-3.9l0,0c5.3-3.9,8.2-10.1,8.5-19.3l0,0c0-0.3,0-0.6,0-0.9l0,0
									c0-1.1-0.1-2.2-0.1-3.4l0,0c0-1.6,0.1-3.1,0.7-4.3l0,0c0.4-0.7,1-1.2,1.2-1.6l0,0c-0.3-1.4-0.8-2.7-1.1-4.1l0,0
									c-0.7,0.3-1.3,0.8-2.2,1.1l0,0c-1.3,0.5-2.9,0.7-4.2,0.7l0,0c-3.9,0-7.7-1.7-9.7-4.1l0,0c-2,1.9-4.8,3.8-8.5,4.1l0,0
									c-0.3,0-0.7,0-1,0l0,0c-1.7,0-3.2-0.3-4.5-0.8l0,0c-0.9-0.3-1.5-0.8-2.2-1.1l0,0c-0.3,1.5-0.9,2.7-1.1,4.2l0,0
									C343.6,270.1,344,270.6,344.3,271.2L344.3,271.2z"/>
							</g>
							<g>
								
									<linearGradient id="SVGID_49_" gradientUnits="userSpaceOnUse" x1="341.4343" y1="930.9999" x2="379.3828" y2="930.9999" gradientTransform="matrix(1 0 0 1 0 -648)">
									<stop  offset="0" style="stop-color:#996431"/>
									<stop  offset="0.5" style="stop-color:#F3F1C0"/>
									<stop  offset="0.7419" style="stop-color:#C3A573"/>
									<stop  offset="0.9145" style="stop-color:#A57643"/>
									<stop  offset="1" style="stop-color:#996431"/>
								</linearGradient>
								<path class="st34" d="M378,263c0.4,1.8,0.9,5.1,1.3,6.8c-0.4,0.6-1,1.1-1.4,1.8c-1,2.2-0.6,4.7-0.7,7.9
									c-0.3,10-3.4,16.8-9.2,21.1c-2.3,1.7-4.8,2.7-7.6,4.3c-5.9-2.8-10.4-5.4-13.4-10.7c-2.2-4-3.4-8.6-3.6-14.8
									c-0.1-3.2,0.5-5.7-0.8-7.9c-0.4-0.6-0.9-1.2-1.3-1.6c0.4-1.8,1-5.1,1.3-6.9c1,0.3,1.7,0.9,2.7,1.3c1.5,0.6,3.5,1.5,5.7,1.4
									c4.1-0.3,7.2-2.5,9.2-4.6c2.7,3.6,8.5,6.3,14.9,3.2C376.3,263.9,377.2,263.3,378,263z"/>
								<g>
									<path d="M376.7,265.1c0.3,1.6,0.9,3,1.2,4.6c-0.3,0.5-1,1-1.3,1.7c-1,2-0.5,5.5-0.6,8.4c-0.3,9.2-3.2,15.6-8.6,19.5
										c-2.1,1.5-4.5,2.5-7,4c-5.4-2.6-9.6-5-12.4-9.9c-2.1-3.7-3.1-7.9-3.3-13.6c-0.1-2.9,0.5-6.4-0.7-8.5
										c-0.3-0.6-0.9-1.1-1.2-1.5c0.3-1.7,0.9-3,1.2-4.7c0.9,0.3,1.6,0.9,2.5,1.2c1.4,0.5,3.2,0.9,5.3,0.7
										c3.8-0.3,6.6-2.3,8.5-4.2c2.5,3.3,8.6,5.4,13.8,3.5C375.2,266,375.9,265.4,376.7,265.1z"/>
									
										<linearGradient id="SVGID_50_" gradientUnits="userSpaceOnUse" x1="349.5187" y1="909.5616" x2="363.2103" y2="928.3564" gradientTransform="matrix(1 0 0 1 0 -648)">
										<stop  offset="0" style="stop-color:#4D4D4D"/>
										<stop  offset="1" style="stop-color:#1A1A1A"/>
									</linearGradient>
									<path class="st35" d="M344.1,271.3c1.1,2.1,0.6,5.5,0.7,8.5c0.2,5.7,1.2,10,3.3,13.6c0.1,0.1,0.1,0.2,0.2,0.4
										c0.9-1,1.9-2.1,2.9-3.1c9.4-9.9,19.1-17.5,26.7-21.4c-0.4-1.4-0.9-2.7-1.1-4.2c-0.9,0.3-1.6,0.9-2.5,1.2
										c-5.1,1.9-11.3-0.2-13.8-3.5c-1.9,1.9-4.8,4-8.5,4.2c-2.1,0.1-3.9-0.2-5.3-0.7c-0.9-0.3-1.6-0.9-2.5-1.2
										c-0.3,1.7-0.9,3-1.2,4.7C343.3,270.2,343.7,270.7,344.1,271.3z"/>
								</g>
								
									<linearGradient id="SVGID_51_" gradientUnits="userSpaceOnUse" x1="360.6" y1="910.6502" x2="360.6" y2="951.7393" gradientTransform="matrix(1 0 0 1 0 -648)">
									<stop  offset="0" style="stop-color:#996431"/>
									<stop  offset="0.5" style="stop-color:#F3F1C0"/>
									<stop  offset="0.7419" style="stop-color:#C3A573"/>
									<stop  offset="0.9145" style="stop-color:#A57643"/>
									<stop  offset="1" style="stop-color:#996431"/>
								</linearGradient>
								<path class="st36" d="M360.4,303.7c-5.4-2.6-9.7-5-12.5-10l0,0c-2.1-3.7-3.2-8.1-3.4-13.8l0,0c0-0.3,0-0.5,0-0.8l0,0
									c0-1.1,0.1-2.3,0.1-3.3l0,0c0-1.6-0.1-3.1-0.7-4.1l0,0c-0.3-0.5-0.8-1.1-1.1-1.4l0,0l-0.1-0.1V270c0.3-1.7,1-3.1,1.2-4.7
									l0,0l0.1-0.4l0.3,0.1c1,0.3,1.7,0.9,2.5,1.2l0,0c1.1,0.4,2.6,0.7,4.3,0.7l0,0c0.3,0,0.6,0,1,0l0,0c3.7-0.2,6.5-2.2,8.4-4.1
									l0,0l0.3-0.2l0.2,0.3c1.7,2.3,5.5,4.1,9.4,4.1l0,0c1.3,0,2.8-0.2,4-0.7l0,0c0.9-0.3,1.6-0.9,2.5-1.2l0,0l0.3-0.1l0.1,0.3
									c0.3,1.6,0.9,3,1.2,4.6l0,0v0.1l-0.1,0.1c-0.4,0.6-1,1.1-1.2,1.6l0,0c-0.5,1-0.6,2.4-0.6,4l0,0c0,1.1,0.1,2.2,0.1,3.4l0,0
									c0,0.3,0,0.6,0,0.9l0,0c-0.3,9.3-3.2,15.8-8.6,19.8l0,0c-2.1,1.6-4.6,2.5-7.1,4l0,0l-0.1,0.1L360.4,303.7L360.4,303.7z
									 M344.3,271.2c0.7,1.2,0.8,2.8,0.8,4.5l0,0c0,1.1-0.1,2.3-0.1,3.3l0,0c0,0.3,0,0.5,0,0.8l0,0c0.2,5.7,1.2,9.9,3.3,13.5l0,0
									c2.7,4.8,6.7,7.2,12.1,9.7l0,0c2.6-1.5,4.9-2.4,6.9-3.9l0,0c5.3-3.9,8.2-10.1,8.5-19.3l0,0c0-0.3,0-0.6,0-0.9l0,0
									c0-1.1-0.1-2.2-0.1-3.4l0,0c0-1.6,0.1-3.1,0.7-4.3l0,0c0.4-0.7,1-1.2,1.2-1.6l0,0c-0.3-1.4-0.8-2.7-1.1-4.1l0,0
									c-0.7,0.3-1.3,0.8-2.2,1.1l0,0c-1.3,0.5-2.9,0.7-4.2,0.7l0,0c-3.9,0-7.7-1.7-9.7-4.1l0,0c-2,1.9-4.8,3.8-8.5,4.1l0,0
									c-0.3,0-0.7,0-1,0l0,0c-1.7,0-3.2-0.3-4.5-0.8l0,0c-0.9-0.3-1.5-0.8-2.2-1.1l0,0c-0.3,1.5-0.9,2.7-1.1,4.2l0,0
									C343.6,270.1,344,270.6,344.3,271.2L344.3,271.2z"/>
							</g>
						</g>
						<g>
							<g>
								<g>
									<g>
										<g>
											<defs>
												<path id="SVGID_52_" d="M365.7,277c0-3.1-2.4-5.6-5.3-5.6s-5.3,2.5-5.3,5.6c0,2.2,1.2,4.1,2.9,5l-2.8,11.7h4.9h0.4h4.9
													l-2.7-11.7C364.5,281.1,365.7,279.2,365.7,277z"/>
											</defs>
											<clipPath id="SVGID_53_">
												<use xlink:href="#SVGID_52_"  style="overflow:visible;"/>
											</clipPath>
											<path class="st37" d="M365.7,277c0-3.1-2.4-5.6-5.3-5.6s-5.3,2.5-5.3,5.6c0,2.2,1.2,4.1,2.9,5l-2.8,11.7h4.9h0.4h4.9
												l-2.7-11.7C364.5,281.1,365.7,279.2,365.7,277z"/>
										</g>
									</g>
								</g>
							</g>
							<g>
								<g>
									<g>
										<g>
											<defs>
												<path id="SVGID_54_" d="M365.7,277c0-3.1-2.4-5.6-5.3-5.6s-5.3,2.5-5.3,5.6c0,2.2,1.2,4.1,2.9,5l-2.8,11.7h4.9h0.4h4.9
													l-2.7-11.7C364.5,281.1,365.7,279.2,365.7,277z"/>
											</defs>
											<clipPath id="SVGID_55_">
												<use xlink:href="#SVGID_54_"  style="overflow:visible;"/>
											</clipPath>
											<path class="st38" d="M366.9,277.1c0-3.1-2.4-5.6-5.3-5.6s-5.3,2.5-5.3,5.6c0,2.2,1.2,4.1,2.9,5l-2.8,11.7h4.9h0.4h4.9
												l-2.8-11.7C365.7,281.1,366.9,279.3,366.9,277.1z"/>
										</g>
									</g>
								</g>
							</g>
						</g>
						<g id="Backup_Keyhole_18_" class="st9">
							<polygon class="st10" points="418,281.4 416.1,281.4 415.7,281.4 413.8,281.4 410.7,294.3 415.7,294.3 416.1,294.3 
								421,294.3 							"/>
							<ellipse class="st10" cx="415.9" cy="277.6" rx="5.3" ry="5.6"/>
						</g>
					</g>
				</g>
			</g>
		</g>
	</g>
</g>
</svg>
