<?xml version="1.0" encoding="utf-8"?>
<!-- Generator: Adobe Illustrator 23.0.3, SVG Export Plug-In . SVG Version: 6.00 Build 0)  -->
<svg version="1.1" id="Layer_1" xmlns="http://www.w3.org/2000/svg" xmlns:xlink="http://www.w3.org/1999/xlink" x="0px" y="0px"
	 viewBox="0 0 310 57.3" style="enable-background:new 0 0 310 57.3;" xml:space="preserve">
<style type="text/css">
	.st0{display:none;fill:#E6E7E8;enable-background:new    ;}
	.st1{font-family:'Tiffany-NormalTh';}
	.st2{font-size:30.97px;}
	.st3{display:none;fill:#E6E7E8;}
	.st4{enable-background:new    ;}
	.st5{display:none;fill:url(#SVGID_1_);}
	.st6{display:none;fill:#FFFFFF;}
	.st7{clip-path:url(#SVGID_3_);}
	.st8{fill:#333333;}
	.st9{fill:#666666;}
</style>
<g>
	<g id="Logo">
		<text transform="matrix(1 0 0 1 61.43 41.27)" class="st0 st1 st2">PUZZALARIUM</text>
		<path d="M52.2,11.4c-0.5-2.3-1.3-6.6-1.8-8.9c-1.3,0.5-2.5,1.1-3.7,1.7c-8.8,4-16.9,0.5-20.5-4.2c-3.4,3.5-7.9,5.6-12.7,6
			c-3.1,0.2-5.8-1.1-7.9-1.8C4.2,3.7,3.1,2.9,1.8,2.5c-0.5,2.4-1.3,6.7-1.8,9c0.7,0.6,1.3,1.3,1.8,2.1c1.7,3,0.9,6.3,1,10.4
			c0.3,8.1,1.9,14.1,5,19.3c4.1,7,10.3,10.4,18.4,14c3.8-2.1,7.4-3.5,10.5-5.6C44.7,46,49,37.1,49.4,24c0.1-4.1-0.6-7.4,0.9-10.3
			C50.9,12.9,51.5,12.1,52.2,11.4z M48.5,13.4c-1.4,2.7-0.7,7.1-0.8,11c-0.4,12.1-4.4,20.3-11.8,25.5c-2.8,2-6.2,3.3-9.7,5.2
			c-7.5-3.3-13.2-6.5-17-12.9c-2.8-4.8-4.3-10.4-4.6-17.8c-0.2-3.9,0.6-8.4-1-11.1c-0.5-0.7-1-1.4-1.7-2c0.4-2.2,1.2-4,1.7-6.2
			C4.8,5.5,5.8,6.2,7,6.7c2.3,0.8,4.8,1.1,7.3,0.9c4.5-0.4,8.6-2.3,11.8-5.5c3.4,4.3,11.9,7,19,4.6c1.3-0.4,2.3-1.2,3.4-1.6
			c0.4,2.1,1.2,4,1.7,6C49.6,11.9,49,12.6,48.5,13.4L48.5,13.4z"/>
		<path class="st3" d="M3.7,12.8c1.5,2.8,0.8,7.2,0.9,11.1c0.3,7.5,1.8,13,4.6,17.8l0.3,0.5c1.3-1.3,2.6-2.7,3.9-4
			c13-13,26.3-22.9,36.7-27.9c-0.5-1.9-1.2-3.6-1.5-5.6c-1.1,0.4-2.2,1.1-3.4,1.6c-7,2.5-15.6-0.3-19-4.6c-3.1,3.2-7.3,5.1-11.8,5.5
			C12,7.3,9.5,7,7.1,6.2C5.9,5.8,4.9,5,3.7,4.6c-0.4,2.2-1.2,4-1.7,6.1C2.7,11.3,3.2,12,3.7,12.8z"/>
		<path class="st3" d="M26,55.6C18.5,52.2,12.6,49,8.8,42.5l0,0c-2.9-4.9-4.4-10.5-4.6-18l0,0c0-0.4,0-0.7,0-1.1l0,0
			c0-1.5,0.1-2.9,0.1-4.4l0,0c0.1-1.9-0.2-3.7-0.9-5.4l0,0c-0.4-0.7-1-1.3-1.6-1.9l0,0l-0.2-0.2v-0.2c0.4-2.2,1.3-4,1.7-6.2l0,0
			l0.1-0.5l0.5,0.2C5,5.3,6.1,6,7.2,6.4l0,0c1.9,0.7,3.9,1,5.9,1l0,0c0.4,0,0.8,0,1.3,0l0,0c4.4-0.4,8.5-2.3,11.5-5.5l0,0l0.3-0.3
			L26.5,2c2.4,3,7.6,5.4,13,5.3l0,0c1.9,0,3.7-0.3,5.5-0.9l0,0c1.2-0.4,2.2-1.2,3.5-1.6l0,0l0.4-0.2L49,5.2c0.4,2.1,1.2,3.9,1.7,6
			l0,0v0.2l-0.1,0.1c-0.6,0.7-1.2,1.4-1.8,2.1l0,0c-0.7,1.7-0.9,3.5-0.8,5.3l0,0c0,1.4,0.1,2.9,0.1,4.4l0,0c0,0.4,0,0.8,0,1.1l0,0
			c-0.4,12.2-4.4,20.6-12,25.9l0,0c-2.9,2-6.3,3.3-9.7,5.2l0,0l-0.2,0.1L26,55.6z M4,13.2C4.8,15,5.1,17,5,19l0,0c0,1.5,0,2.9,0,4.4
			l0,0c0,0.4,0,0.7,0,1l0,0C5.3,31.8,6.7,37.3,9.5,42l0,0c3.7,6.3,9.3,9.4,16.6,12.7l0,0c3.5-1.9,6.7-3.2,9.5-5.1l0,0
			c7.3-5.1,11.2-13.2,11.6-25.2l0,0c0-0.4,0-0.8,0-1.1l0,0c0-1.4-0.1-2.9-0.1-4.4l0,0C47,17,47.3,15,48,13.3l0,0
			c0.5-0.7,1.1-1.4,1.7-2.1l0,0c-0.4-1.8-1.1-3.5-1.5-5.4l0,0c-0.9,0.4-1.9,1-3,1.4l0,0c-1.9,0.6-3.8,1-5.8,1l0,0
			C34,8.2,28.8,6,26.1,2.9l0,0c-3.2,3.1-7.3,5-11.7,5.3l0,0c-0.4,0-0.9,0-1.3,0l0,0c-2.1,0-4.2-0.3-6.1-1l0,0c-1.1-0.4-2-1-3-1.4
			l0,0c-0.4,2-1.1,3.6-1.5,5.5l0,0C3,11.8,3.6,12.5,4,13.2z"/>
		<g class="st4">
			<path d="M64,20.6c-0.2-0.1-0.4-0.2-0.7-0.2l-0.5,0h-0.5h-0.2H62c-0.1,0-0.3,0-0.4,0s-0.2-0.1-0.2-0.1c0,0,0-0.1,0-0.2
				c0-0.1,0-0.1,0-0.2c0,0,0-0.1,0-0.1c0-0.1,0-0.1,0.1-0.1c0,0,0.1-0.1,0.2-0.1c0.1,0,0.2-0.1,0.3-0.1l10.8,0c1,0,2,0.1,2.8,0.4
				c0.8,0.3,1.5,0.7,2.1,1.3c0.6,0.6,1,1.2,1.3,1.8c0.3,0.6,0.4,1.3,0.4,2c0,0.7-0.2,1.3-0.5,2c-0.3,0.6-0.8,1.2-1.4,1.8
				c-0.6,0.6-1.4,1-2.4,1.3c-1,0.3-2.2,0.4-3.5,0.4h-0.2h-0.2h-0.2h-0.2l-2.7,0v7.1c0,0.4,0,0.7,0.1,1c0.1,0.3,0.2,0.5,0.4,0.7
				c0.2,0.2,0.3,0.4,0.5,0.5c0.2,0.2,0.4,0.3,0.7,0.4l0.7,0.2l0.7,0.1c0.1,0,0.2,0,0.3,0c0.1,0,0.2,0.1,0.2,0.1c0,0,0.1,0.1,0.1,0.1
				c0,0.1,0.1,0.1,0.1,0.2c0,0.1,0,0.1,0,0.2c0,0.1-0.1,0.1-0.1,0.2l-0.6,0.1H62c-0.1,0-0.3,0-0.4,0c-0.1,0-0.2-0.1-0.2-0.1
				c0,0,0-0.1,0-0.1c0-0.1,0-0.1,0-0.2c0,0,0,0,0-0.1c0,0,0,0,0-0.1c0,0,0-0.1,0-0.1c0,0,0.1-0.1,0.1-0.1c0,0,0,0,0.1,0
				c0,0,0.1,0,0.1,0c0,0,0.1,0,0.2,0c0.1,0,0.1,0,0.2,0h0.2l0.1,0c0.4,0,0.8-0.1,1.1-0.2c0.3-0.1,0.6-0.4,0.9-0.7
				c0.3-0.3,0.5-0.6,0.6-1c0.1-0.4,0.2-0.7,0.2-1.1V22.5c0-0.4-0.1-0.7-0.2-1c-0.1-0.3-0.2-0.5-0.4-0.6C64.4,20.8,64.2,20.7,64,20.6
				z M76.1,26.5c0.2-0.5,0.3-1,0.3-1.6v-0.1c0-0.6-0.1-1.1-0.3-1.6s-0.5-1-0.9-1.5c-0.4-0.5-0.9-0.8-1.5-1.1
				c-0.6-0.2-1.3-0.4-2.2-0.4h-0.2h-0.2H71h-0.2c-0.3,0-0.6,0-0.9,0.1c-0.3,0.1-0.6,0.1-0.8,0.2c-0.3,0.1-0.5,0.3-0.6,0.5
				c-0.1,0.3-0.2,0.6-0.2,1.1v7h3.9c0.7,0,1.2-0.1,1.8-0.3s1-0.6,1.3-1C75.6,27.5,75.9,27,76.1,26.5z"/>
			<path d="M81.6,20.6c-0.1,0-0.2,0-0.2-0.1c-0.1,0-0.2,0-0.3,0c-0.1,0-0.2,0-0.3-0.1c-0.2,0-0.4-0.1-0.6-0.1c-0.2,0-0.4,0-0.5,0
				c-0.1,0-0.1,0-0.1,0c0,0-0.1,0-0.1,0c0,0,0,0-0.1,0c0,0,0,0-0.1,0c0,0-0.1-0.1-0.1-0.1c0-0.1,0-0.1,0-0.2l0-0.1
				c0-0.1,0-0.1,0.1-0.2c0-0.1,0.1-0.1,0.1-0.1c0,0,0,0,0,0c0,0,0.1,0,0.1,0c0,0,0.1,0,0.1,0c0,0,0.1,0,0.2,0l9.8,0
				c0.1,0,0.2,0,0.3,0c0.1,0,0.2,0.1,0.3,0.1c0.1,0,0.1,0.1,0.2,0.2c0,0.1,0.1,0.1,0.1,0.2c0,0.1,0,0.1,0,0.2c0,0.1,0,0.1-0.1,0.1
				c0,0-0.1,0.1-0.2,0.1c-0.1,0-0.2,0.1-0.4,0.1c-0.6,0-1.1,0-1.6,0.1c-0.5,0.1-0.9,0.2-1.3,0.3s-0.6,0.3-0.8,0.6
				c-0.2,0.3-0.3,0.6-0.3,0.9v13.4c0,1,0.1,1.9,0.4,2.6c0.2,0.7,0.6,1.3,1.1,1.7c0.5,0.4,1,0.8,1.6,1c0.6,0.2,1.2,0.3,1.7,0.3h0.2
				l0.3,0c0.3,0,0.7,0,1-0.1s0.6-0.2,0.9-0.3c0.3-0.1,0.6-0.3,0.9-0.5c0.3-0.2,0.6-0.4,0.9-0.7c0.6-0.5,1-1,1.3-1.6s0.4-1.2,0.4-1.9
				v-0.2V23.2c0-0.4-0.1-0.7-0.2-1c-0.1-0.3-0.3-0.6-0.6-0.9c-0.3-0.3-0.6-0.5-1-0.7c-0.4-0.2-0.8-0.2-1.3-0.2c-0.1,0-0.2,0-0.2,0
				c-0.1,0-0.1-0.1-0.2-0.1c-0.1,0-0.1-0.1-0.1-0.2c0-0.1,0-0.1,0-0.2v-0.1c0-0.1,0-0.1,0-0.2c0-0.1,0-0.1,0.1-0.1
				c0,0,0.1-0.1,0.2-0.1c0.1,0,0.2-0.1,0.3-0.1l6.4,0c0.1,0,0.2,0,0.3,0c0.1,0,0.1,0.1,0.2,0.1c0,0,0.1,0,0.1,0.1s0,0.1,0,0.1
				c0,0,0,0.1,0,0.1c0,0,0,0.1,0,0.1c0,0.1,0,0.1,0,0.2c0,0.1-0.1,0.1-0.1,0.1c0,0-0.1,0.1-0.2,0.1c-0.1,0-0.2,0.1-0.3,0.1
				c-0.4,0.1-0.7,0.2-1,0.3s-0.6,0.4-0.8,0.6c-0.2,0.2-0.4,0.6-0.5,0.9c-0.1,0.4-0.2,0.8-0.2,1.3v12.4c0,1-0.2,1.9-0.6,2.7
				c-0.4,0.8-0.9,1.4-1.7,2c-0.7,0.5-1.5,0.9-2.4,1.2s-1.7,0.4-2.6,0.4c-0.9,0-1.7-0.1-2.6-0.4c-0.8-0.3-1.6-0.6-2.4-1.2
				c-0.8-0.5-1.3-1.2-1.7-2c-0.4-0.8-0.6-1.8-0.6-2.9V22.7c0-0.6-0.1-1-0.3-1.4c-0.2-0.4-0.4-0.6-0.8-0.7
				C81.8,20.6,81.7,20.6,81.6,20.6z"/>
			<path d="M113.6,20.3L113.6,20.3c-1.3,0-2.4,0-3.4,0.1c-1,0.1-1.9,0.2-2.7,0.3c-0.8,0.1-1.5,0.5-2.2,1c-0.7,0.5-1.3,1.3-1.9,2.2
				l-0.2,0.3l-0.2,0.2c0,0-0.1,0-0.1,0.1c0,0-0.1,0.1-0.1,0.1c0,0-0.1,0-0.1,0c0,0-0.1,0-0.1,0c0,0-0.1,0-0.1-0.1
				c0-0.1-0.1-0.1-0.1-0.2v-0.2l0.1-0.2l2.3-5.9c0.1-0.2,0.2-0.4,0.3-0.5c0.1-0.1,0.1-0.1,0.2-0.1c0,0,0,0.1,0.1,0.1
				c0,0,0.1,0.1,0.1,0.1c0,0,0,0.1,0.1,0.1c0,0,0.1,0.1,0.1,0.2l0.1,0.2l0.1,0.2l0.2,0.2c0,0,0.1,0.1,0.2,0.1
				c0.1,0.1,0.1,0.1,0.2,0.1c0.1,0.1,0.1,0.1,0.2,0.2c0.1,0.1,0.1,0.1,0.2,0.1c0.2,0.1,0.3,0.1,0.5,0.2c0.2,0,0.4,0.1,0.6,0.1l9.9,0
				c0.1,0,0.3,0,0.4,0c0.1,0,0.2,0.1,0.3,0.1c0.1,0,0.1,0.1,0.2,0.1c0,0.1,0.1,0.1,0.1,0.2l-0.1,0.3c0,0.1,0,0.1-0.1,0.2
				c0,0.1-0.1,0.1-0.1,0.2l-11.6,18.5l-0.2,0.6l-0.1,0.4c0,0.1,0,0.2,0.1,0.3c0.1,0.1,0.1,0.1,0.2,0.2l0.6,0.1h0.3h0.3h0.2h0.2
				c0.1,0,0.3,0,0.5,0s0.5,0,0.8,0c0.1,0,0.3,0,0.4,0c0.1,0,0.2,0,0.3,0c0.1,0,0.1,0,0.2,0c0,0,0.1,0,0.1,0c0.4,0,0.8,0,1.2-0.1
				s0.9-0.2,1.4-0.3c0.5-0.1,1-0.3,1.5-0.6s1-0.6,1.5-1c0.5-0.4,1-0.9,1.4-1.5c0.4-0.6,0.8-1.3,1.1-2.1l0.1-0.2l0.2-0.2l0.1-0.1
				l0.1,0c0.1,0,0.1,0,0.2,0.1c0,0,0.1,0.1,0.1,0.2c0,0.1,0,0.2,0,0.3c0,0.1-0.1,0.2-0.1,0.3l-2.9,7.5c0,0.1-0.1,0.3-0.1,0.4
				c0,0.1-0.1,0.2-0.1,0.3c0,0.2-0.1,0.3-0.1,0.3c-0.1,0.1-0.1,0.1-0.1,0c0,0,0-0.1-0.1-0.1c0,0-0.1-0.1-0.1-0.2
				c0-0.1-0.1-0.1-0.1-0.2c0-0.1-0.1-0.2-0.1-0.3c-0.1-0.3-0.2-0.6-0.4-0.8c-0.2-0.2-0.5-0.4-0.8-0.5c-0.2-0.1-0.4-0.1-0.6-0.2
				c-0.2,0-0.4-0.1-0.5-0.1c-0.1,0-0.3,0-0.5,0c-0.2,0-0.4,0-0.5,0h-0.6H111h-0.3h-0.3h-7.9c-0.1,0-0.2,0-0.3,0
				c-0.1,0-0.2,0-0.2-0.1c-0.1,0-0.1-0.1-0.2-0.1s0-0.1,0-0.1l0.1-0.4l0.2-0.5l12-18.8c0.1-0.1,0.2-0.2,0.2-0.3
				c0.1-0.1,0.1-0.2,0.1-0.2c0,0,0,0,0-0.1c0,0,0,0,0-0.1c0,0,0,0-0.1,0c0,0,0,0-0.1-0.1L113.6,20.3z"/>
			<path d="M131.9,20.3L131.9,20.3c-1.3,0-2.4,0-3.4,0.1c-1,0.1-1.9,0.2-2.7,0.3c-0.8,0.1-1.5,0.5-2.2,1c-0.7,0.5-1.3,1.3-1.9,2.2
				l-0.2,0.3l-0.2,0.2c0,0-0.1,0-0.1,0.1c0,0-0.1,0.1-0.1,0.1c0,0-0.1,0-0.1,0c0,0-0.1,0-0.1,0c0,0-0.1,0-0.1-0.1
				c0-0.1-0.1-0.1-0.1-0.2v-0.2l0.1-0.2l2.3-5.9c0.1-0.2,0.2-0.4,0.3-0.5c0.1-0.1,0.1-0.1,0.2-0.1c0,0,0,0.1,0.1,0.1
				c0,0,0.1,0.1,0.1,0.1c0,0,0,0.1,0.1,0.1c0,0,0.1,0.1,0.1,0.2l0.1,0.2l0.1,0.2l0.2,0.2c0,0,0.1,0.1,0.2,0.1
				c0.1,0.1,0.1,0.1,0.2,0.1c0.1,0.1,0.1,0.1,0.2,0.2c0.1,0.1,0.1,0.1,0.2,0.1c0.2,0.1,0.3,0.1,0.5,0.2c0.2,0,0.4,0.1,0.6,0.1l9.9,0
				c0.1,0,0.3,0,0.4,0c0.1,0,0.2,0.1,0.3,0.1c0.1,0,0.1,0.1,0.2,0.1c0,0.1,0.1,0.1,0.1,0.2l-0.1,0.3c0,0.1,0,0.1-0.1,0.2
				c0,0.1-0.1,0.1-0.1,0.2l-11.6,18.5l-0.2,0.6l-0.1,0.4c0,0.1,0,0.2,0.1,0.3c0.1,0.1,0.1,0.1,0.2,0.2l0.6,0.1h0.3h0.3h0.2h0.2
				c0.1,0,0.3,0,0.5,0s0.5,0,0.8,0c0.1,0,0.3,0,0.4,0c0.1,0,0.2,0,0.3,0c0.1,0,0.1,0,0.2,0c0,0,0.1,0,0.1,0c0.4,0,0.8,0,1.2-0.1
				s0.9-0.2,1.4-0.3c0.5-0.1,1-0.3,1.5-0.6s1-0.6,1.5-1c0.5-0.4,1-0.9,1.4-1.5c0.4-0.6,0.8-1.3,1.1-2.1l0.1-0.2l0.2-0.2l0.1-0.1
				l0.1,0c0.1,0,0.1,0,0.2,0.1c0,0,0.1,0.1,0.1,0.2c0,0.1,0,0.2,0,0.3c0,0.1-0.1,0.2-0.1,0.3l-2.9,7.5c0,0.1-0.1,0.3-0.1,0.4
				c0,0.1-0.1,0.2-0.1,0.3c0,0.2-0.1,0.3-0.1,0.3c-0.1,0.1-0.1,0.1-0.1,0c0,0,0-0.1-0.1-0.1c0,0-0.1-0.1-0.1-0.2
				c0-0.1-0.1-0.1-0.1-0.2c0-0.1-0.1-0.2-0.1-0.3c-0.1-0.3-0.2-0.6-0.4-0.8c-0.2-0.2-0.5-0.4-0.8-0.5c-0.2-0.1-0.4-0.1-0.6-0.2
				c-0.2,0-0.4-0.1-0.5-0.1c-0.1,0-0.3,0-0.5,0c-0.2,0-0.4,0-0.5,0H130h-0.6h-0.3h-0.3h-7.9c-0.1,0-0.2,0-0.3,0
				c-0.1,0-0.2,0-0.2-0.1c-0.1,0-0.1-0.1-0.2-0.1s0-0.1,0-0.1l0.1-0.4l0.2-0.5l12-18.8c0.1-0.1,0.2-0.2,0.2-0.3
				c0.1-0.1,0.1-0.2,0.1-0.2c0,0,0,0,0-0.1c0,0,0,0,0-0.1c0,0,0,0-0.1,0c0,0,0,0-0.1-0.1L131.9,20.3z"/>
			<path d="M144.7,21.5l-0.3-0.2c0,0,0-0.1-0.1-0.1c0,0,0-0.1-0.1-0.2c0,0,0-0.1,0-0.1c0,0,0,0,0-0.1s0,0,0,0c0,0,0,0,0,0l0.5-0.2
				l0.6-0.1l0.8-0.3c0,0,0.1,0,0.1-0.1s0.1,0,0.1-0.1c0.1-0.1,0.2-0.1,0.3-0.2c0.1-0.1,0.2-0.1,0.2-0.2c0.1-0.1,0.2-0.2,0.3-0.3
				c0.1-0.1,0.2-0.3,0.3-0.5l0.2-0.2l0.2-0.1c0,0,0,0,0.1,0c0,0,0,0,0.1,0c0,0,0,0,0.1,0.1c0,0,0,0,0.1,0.1l0.2,0.3l0.1,0.4l0,0.2
				l5.6,18c0.1,0.4,0.3,0.8,0.5,1.1s0.5,0.6,0.8,0.9c0.3,0.2,0.7,0.4,1,0.5c0.3,0.1,0.7,0.2,1.1,0.2c0.1,0,0.2,0,0.3,0
				s0.2,0.1,0.2,0.1s0.1,0.1,0.1,0.1c0,0,0.1,0.1,0.1,0.1c0,0,0,0,0,0c0,0,0,0,0,0c0,0.1,0,0.1-0.1,0.2c0,0.1-0.1,0.1-0.1,0.1
				c0,0-0.1,0-0.2,0.1c-0.1,0-0.2,0.1-0.4,0.1h-8.9c-0.1,0-0.2,0-0.3,0c-0.1,0-0.2,0-0.3-0.1c-0.1,0-0.1-0.1-0.2-0.1
				c-0.1-0.1-0.1-0.1-0.1-0.2v-0.1c0-0.1,0.1-0.1,0.1-0.2c0-0.1,0.1-0.1,0.1-0.1c0,0,0,0,0,0c0,0,0,0,0,0c0,0,0,0,0.1,0
				c0,0,0.1,0,0.1,0c0,0,0,0,0.1,0s0.1,0,0.1,0c0,0,0.1,0,0.1,0s0.1,0,0.2,0c0.3,0,0.6,0,0.9-0.1s0.6-0.1,0.8-0.2
				c0.3-0.1,0.5-0.3,0.6-0.4c0.1-0.2,0.2-0.4,0.2-0.7l0-0.2l-0.1-0.2l-1.5-5.2h-6.4l-1.2,3.9l-0.2,0.8l0,0.7c0,0.3,0.1,0.6,0.2,0.9
				c0.1,0.2,0.3,0.4,0.5,0.5c0.2,0.1,0.5,0.2,0.8,0.3s0.6,0.1,0.9,0.1c0.1,0,0.2,0,0.2,0s0.1,0.1,0.2,0.1c0.1,0,0.1,0.1,0.1,0.1
				c0,0.1,0,0.1,0.1,0.2v0.1c0,0.1,0,0.1-0.1,0.2c0,0,0,0.1-0.1,0.1l-0.4,0.1h-6.6c-0.1,0-0.2,0-0.3,0c-0.1,0-0.2-0.1-0.3-0.1
				s-0.1-0.1-0.2-0.2c0-0.1,0-0.1,0-0.2c0-0.1,0-0.1,0-0.2c0-0.1,0.1-0.1,0.2-0.1c0.1,0,0.1-0.1,0.2-0.1c0.1,0,0.2,0,0.4,0l0.4,0
				l0.4-0.1c0.2-0.1,0.5-0.2,0.7-0.3c0.2-0.1,0.5-0.3,0.7-0.6c0.2-0.2,0.4-0.6,0.7-0.9s0.4-0.8,0.5-1.3l4.6-13.9l0.2-0.5l0.1-0.4
				c0-0.1,0-0.2-0.1-0.2s-0.1-0.1-0.1-0.2l-0.4-0.2l-0.1,0l-0.1-0.1l-0.1,0L144.7,21.5L144.7,21.5z M143.4,32.5h6l-3.1-9.8
				L143.4,32.5z"/>
			<path d="M160,20.4c-0.3-0.1-0.7-0.1-1.1-0.1c-0.1,0-0.2,0-0.3,0s-0.2-0.1-0.2-0.1c-0.1,0-0.1-0.1-0.2-0.1c0-0.1-0.1-0.1-0.1-0.2
				v-0.1v-0.1c0,0,0-0.1,0.1-0.1c0,0,0,0,0.1-0.1s0,0,0.1-0.1c0,0,0,0,0.1-0.1l0.6-0.1l9.4,0c0.2,0,0.3,0,0.4,0.1s0.2,0.1,0.2,0.2
				c0.1,0,0.1,0.1,0.1,0.2c0,0.1,0,0.1,0,0.2c0,0,0,0.1-0.1,0.1s-0.1,0.1-0.2,0.1l-0.5,0.2l-0.4,0.1l-0.4,0.1
				c-0.3,0.1-0.6,0.1-0.9,0.3c-0.3,0.1-0.6,0.3-0.8,0.4c-0.3,0.1-0.5,0.4-0.6,0.7c-0.1,0.3-0.2,0.7-0.2,1.2v13.6
				c0,0.7,0.1,1.3,0.2,1.8c0.2,0.5,0.4,0.9,0.7,1.3c0.3,0.3,0.7,0.6,1.1,0.8c0.4,0.2,0.8,0.3,1.3,0.3c0.2,0,0.3,0,0.5,0
				c0.1,0,0.2,0,0.3,0c0.1,0,0.2,0,0.3-0.1s0.3-0.1,0.4-0.1c0.3-0.1,0.5-0.2,0.8-0.3c0.3-0.1,0.5-0.3,0.8-0.5c0.3-0.2,0.7-0.5,1-0.7
				s0.7-0.6,1-1c0.4-0.4,0.7-0.8,1-1.3c0.3-0.5,0.6-1,0.9-1.5l0.2-0.3l0.2-0.2l0.2-0.1l0.2,0l0.2,0.1c0,0,0,0.1,0,0.1
				c0,0.1,0,0.1,0,0.1l0,0.2l0,0.1L173,43L173,43v0.1l-0.2,0.3l-0.2,0.2c-0.1,0-0.1,0-0.1,0c0,0-0.1,0-0.1,0l-0.2-0.6
				c0-0.3-0.1-0.5-0.2-0.7c-0.1-0.2-0.3-0.4-0.6-0.5c-0.2-0.1-0.3-0.2-0.4-0.2c-0.1-0.1-0.3-0.1-0.4-0.1c-0.1,0-0.2-0.1-0.3-0.1
				c-0.1,0-0.2,0-0.4,0l-0.3,0c-0.1,0-0.1,0-0.2,0s-0.2,0-0.4,0h-0.7h-9.8c-0.1,0-0.2,0-0.3,0c-0.1,0-0.1-0.1-0.2-0.1
				c0,0,0-0.1-0.1-0.1c0-0.1-0.1-0.1-0.1-0.2c0-0.1,0.1-0.1,0.1-0.2c0-0.1,0-0.1,0.1-0.1c0,0,0,0,0.1,0s0.1,0,0.1,0c0,0,0.1,0,0.1,0
				c0.1,0,0.1,0,0.2,0h0.2l0.1,0c0.4,0,0.8-0.1,1.1-0.2c0.4-0.2,0.7-0.4,1-0.7c0.3-0.4,0.5-0.7,0.7-1.2c0.2-0.4,0.2-1,0.2-1.5V23.2
				c0-0.7-0.1-1.2-0.2-1.6c-0.2-0.4-0.4-0.7-0.7-0.8C160.6,20.6,160.3,20.5,160,20.4z"/>
			<path d="M182.7,21.5l-0.3-0.2c0,0,0-0.1-0.1-0.1c0,0,0-0.1-0.1-0.2c0,0,0-0.1,0-0.1c0,0,0,0,0-0.1s0,0,0,0c0,0,0,0,0,0l0.5-0.2
				l0.6-0.1l0.8-0.3c0,0,0.1,0,0.1-0.1c0,0,0.1,0,0.1-0.1c0.1-0.1,0.2-0.1,0.3-0.2c0.1-0.1,0.2-0.1,0.2-0.2c0.1-0.1,0.2-0.2,0.3-0.3
				s0.2-0.3,0.3-0.5l0.2-0.2l0.2-0.1c0,0,0,0,0.1,0c0,0,0,0,0.1,0c0,0,0,0,0.1,0.1c0,0,0,0,0.1,0.1l0.2,0.3l0.1,0.4l0,0.2l5.6,18
				c0.1,0.4,0.3,0.8,0.5,1.1s0.5,0.6,0.8,0.9c0.3,0.2,0.7,0.4,1,0.5c0.3,0.1,0.7,0.2,1.1,0.2c0.1,0,0.2,0,0.3,0
				c0.1,0,0.2,0.1,0.2,0.1c0,0,0.1,0.1,0.1,0.1c0,0,0.1,0.1,0.1,0.1c0,0,0,0,0,0c0,0,0,0,0,0c0,0.1,0,0.1-0.1,0.2
				c0,0.1-0.1,0.1-0.1,0.1c0,0-0.1,0-0.2,0.1c-0.1,0-0.2,0.1-0.4,0.1h-8.9c-0.1,0-0.2,0-0.3,0c-0.1,0-0.2,0-0.3-0.1
				c-0.1,0-0.1-0.1-0.2-0.1c-0.1-0.1-0.1-0.1-0.1-0.2v-0.1c0-0.1,0.1-0.1,0.1-0.2c0-0.1,0.1-0.1,0.1-0.1c0,0,0,0,0,0c0,0,0,0,0,0
				c0,0,0,0,0.1,0c0,0,0.1,0,0.1,0c0,0,0,0,0.1,0s0.1,0,0.1,0c0,0,0.1,0,0.1,0c0,0,0.1,0,0.2,0c0.3,0,0.6,0,0.9-0.1s0.6-0.1,0.8-0.2
				s0.5-0.3,0.6-0.4c0.1-0.2,0.2-0.4,0.2-0.7l0-0.2l-0.1-0.2l-1.5-5.2h-6.4l-1.2,3.9l-0.2,0.8l0,0.7c0,0.3,0.1,0.6,0.2,0.9
				c0.1,0.2,0.3,0.4,0.5,0.5c0.2,0.1,0.5,0.2,0.8,0.3c0.3,0.1,0.6,0.1,0.9,0.1c0.1,0,0.2,0,0.2,0c0.1,0,0.1,0.1,0.2,0.1
				c0.1,0,0.1,0.1,0.1,0.1c0,0.1,0,0.1,0.1,0.2v0.1c0,0.1,0,0.1-0.1,0.2c0,0,0,0.1-0.1,0.1l-0.4,0.1h-6.6c-0.1,0-0.2,0-0.3,0
				c-0.1,0-0.2-0.1-0.3-0.1c-0.1,0-0.1-0.1-0.2-0.2c0-0.1,0-0.1,0-0.2c0-0.1,0-0.1,0-0.2c0-0.1,0.1-0.1,0.2-0.1
				c0.1,0,0.1-0.1,0.2-0.1s0.2,0,0.4,0l0.4,0l0.4-0.1c0.2-0.1,0.5-0.2,0.7-0.3c0.2-0.1,0.5-0.3,0.7-0.6c0.2-0.2,0.4-0.6,0.7-0.9
				s0.4-0.8,0.5-1.3l4.6-13.9l0.2-0.5l0.1-0.4c0-0.1,0-0.2-0.1-0.2c0-0.1-0.1-0.1-0.1-0.2l-0.4-0.2l-0.1,0l-0.1-0.1l-0.1,0
				L182.7,21.5L182.7,21.5z M181.4,32.5h6l-3.1-9.8L181.4,32.5z"/>
			<path d="M200,22.9c0-0.4,0-0.8-0.1-1.1s-0.2-0.5-0.4-0.7c-0.2-0.2-0.4-0.3-0.6-0.4c-0.2-0.1-0.4-0.2-0.6-0.3l-0.7-0.1l-0.6,0
				l-0.2,0h-0.1c-0.1,0-0.2,0-0.3,0c-0.1,0-0.2-0.1-0.2-0.1c-0.1,0-0.1-0.1-0.1-0.2c0-0.1,0-0.1,0-0.2c0,0,0-0.1,0-0.1
				s0.1-0.1,0.2-0.1c0.1,0,0.2-0.1,0.3-0.1c0.1,0,0.3-0.1,0.4-0.1l10.2,0c1.3,0,2.5,0.1,3.4,0.4c1,0.3,1.8,0.7,2.4,1.3
				c0.6,0.6,1,1.2,1.3,1.8c0.3,0.6,0.4,1.3,0.4,2v0.1c0,0.7-0.1,1.3-0.4,1.9c-0.2,0.6-0.6,1.2-1.1,1.8c-0.5,0.6-1.1,1-1.8,1.3
				c-0.7,0.3-1.4,0.4-2.2,0.4l3.9,7.8c0.1,0.3,0.3,0.6,0.5,0.8c0.2,0.2,0.4,0.4,0.7,0.6c0.3,0.1,0.5,0.3,0.8,0.4
				c0.3,0.1,0.5,0.2,0.8,0.3l0.7,0.1l0.7,0c0.1,0,0.2,0,0.3,0c0.1,0,0.2,0.1,0.2,0.1c0.1,0.1,0.1,0.1,0.2,0.2c0,0.1,0.1,0.1,0.1,0.1
				c0,0.1,0,0.1,0,0.2c0,0.1-0.1,0.1-0.1,0.2c-0.1,0-0.2,0.1-0.3,0.1c-0.1,0-0.2,0-0.4,0h-5c-0.3,0-0.5,0-0.7,0
				c-0.2,0-0.3-0.1-0.4-0.1c-0.1-0.1-0.2-0.1-0.3-0.3c-0.1-0.1-0.2-0.2-0.2-0.4l-0.1-0.2l-0.1-0.2l-4.6-9.5h-2.9v6.6
				c0,0.3,0,0.5,0,0.7c0,0.2,0,0.4,0.1,0.5c0,0.1,0.1,0.3,0.2,0.4s0.2,0.3,0.3,0.4c0.2,0.2,0.3,0.4,0.5,0.5c0.2,0.1,0.4,0.3,0.6,0.4
				l0.8,0.2l0.6,0c0.1,0,0.2,0,0.3,0s0.1,0.1,0.2,0.1c0,0.1,0.1,0.1,0.1,0.2c0,0.1,0,0.1,0,0.1c0,0.1,0,0.1,0,0.2
				c0,0.1-0.1,0.1-0.1,0.1c-0.1,0-0.1,0.1-0.2,0.1c-0.1,0-0.2,0-0.3,0h-9.5c-0.1,0-0.2,0-0.3,0c-0.1,0-0.2-0.1-0.2-0.1
				c-0.1,0-0.1-0.1-0.1-0.1c0-0.1,0-0.1,0-0.2c0-0.1,0-0.1,0.1-0.2c0-0.1,0.1-0.1,0.1-0.1c0,0,0,0,0,0c0,0,0.1,0,0.1,0
				c0,0,0.1,0,0.2,0c0.1,0,0.1,0,0.2,0c0.6,0,1-0.1,1.5-0.2c0.4-0.1,0.8-0.3,1-0.5c0.3-0.2,0.5-0.6,0.6-1c0.1-0.5,0.2-1,0.2-1.7
				V23.2l0-0.2V22.9z M207.9,28.8c0.3-0.3,0.5-0.7,0.6-1.2c0-0.1,0-0.2,0.1-0.2c0-0.1,0.1-0.1,0.1-0.2l0.2-0.2l0.1,0c0,0,0,0,0,0
				c0,0,0,0,0,0c0,0,0,0,0,0s0,0,0,0c0,0,0,0.1,0,0.1c0,0.1,0,0.1,0,0.2l-0.1,0.6l-0.2,0.7c0.3,0,0.6-0.1,0.8-0.3
				c0.3-0.2,0.5-0.5,0.7-0.9c0.2-0.4,0.4-0.8,0.5-1.2c0.1-0.4,0.2-0.9,0.2-1.4v-0.2v-0.2c0-0.5-0.2-1-0.4-1.5s-0.5-0.9-0.9-1.4
				c-0.4-0.4-0.9-0.8-1.5-1c-0.6-0.2-1.3-0.3-2.1-0.3H206h-0.1l-0.1,0h-0.2l-0.4,0c-0.1,0-0.1,0-0.2,0s-0.1,0-0.1,0c0,0-0.1,0-0.1,0
				c0,0-0.1,0-0.1,0c0,0-0.1,0-0.1,0.1c-0.1,0-0.2,0.1-0.3,0.1c-0.1,0.1-0.3,0.1-0.4,0.2c-0.2,0.1-0.3,0.2-0.4,0.4
				c-0.1,0.1-0.2,0.3-0.3,0.5c-0.1,0.2-0.1,0.5-0.1,0.7v7.3c0.7,0,1.4,0,2-0.1c0.6-0.1,1.1-0.1,1.6-0.3
				C207.2,29.3,207.6,29.1,207.9,28.8z"/>
			<path d="M220.2,20.6c-0.2-0.1-0.4-0.2-0.7-0.2l-0.6,0l-0.5,0c-0.2,0-0.3,0-0.4,0s-0.2-0.1-0.2-0.1c0,0-0.1-0.1-0.1-0.2
				c0-0.1,0-0.1,0-0.2c0,0,0-0.1,0-0.1s0.1-0.1,0.1-0.1c0.1,0,0.1-0.1,0.2-0.1c0.1,0,0.2-0.1,0.3-0.1l9.1,0c0.1,0,0.2,0,0.3,0
				s0.2,0.1,0.2,0.1c0.1,0.1,0.1,0.1,0.1,0.2c0,0.1,0.1,0.1,0.1,0.2c0,0.1,0,0.1,0,0.2c0,0.1-0.1,0.1-0.1,0.1c0,0-0.1,0.1-0.2,0.1
				c-0.1,0-0.2,0.1-0.4,0.1c-0.5,0-0.9,0.1-1.2,0.2c-0.4,0.1-0.7,0.2-1,0.4c-0.3,0.2-0.5,0.4-0.7,0.7c-0.1,0.3-0.2,0.7-0.2,1.1v14.1
				c0,0.7,0.1,1.3,0.2,1.8c0.1,0.5,0.3,0.8,0.6,1c0.3,0.2,0.5,0.4,0.8,0.5c0.3,0.1,0.6,0.2,0.9,0.2l0.4,0h0.4c0.1,0,0.2,0,0.2,0
				s0.1,0.1,0.2,0.1s0.1,0.1,0.1,0.1c0,0.1,0.1,0.1,0.1,0.2c0,0,0,0,0,0.1s0,0.1,0,0.1c0,0,0,0.1,0,0.1c0,0,0,0.1,0,0.1
				c0,0-0.1,0-0.2,0.1c-0.1,0-0.2,0-0.4,0H218c-0.1,0-0.1,0-0.2,0c-0.1,0-0.1-0.1-0.1-0.1l-0.1-0.3c0-0.1,0-0.1,0.1-0.2
				c0-0.1,0-0.1,0.1-0.1c0,0,0,0,0,0s0,0,0.1,0c0,0,0.1,0,0.1,0c0,0,0.1,0,0.1,0h0.6c0.1,0,0.3,0,0.4,0c0.2,0,0.3,0,0.5-0.1
				c0.2,0,0.3-0.1,0.5-0.2c0.2-0.1,0.4-0.3,0.6-0.6c0.2-0.2,0.4-0.5,0.5-1c0.1-0.4,0.2-0.9,0.2-1.6V22.7c0-0.4-0.1-0.7-0.2-1
				s-0.2-0.5-0.4-0.7C220.6,20.9,220.4,20.7,220.2,20.6z"/>
			<path d="M231.6,20.6c-0.1,0-0.2,0-0.2-0.1c-0.1,0-0.2,0-0.3,0c-0.1,0-0.2,0-0.3-0.1c-0.2,0-0.4-0.1-0.6-0.1s-0.4,0-0.5,0
				c-0.1,0-0.1,0-0.1,0c0,0-0.1,0-0.1,0c0,0,0,0-0.1,0c0,0,0,0-0.1,0c0,0-0.1-0.1-0.1-0.1c0-0.1,0-0.1,0-0.2l0-0.1
				c0-0.1,0-0.1,0.1-0.2c0-0.1,0.1-0.1,0.1-0.1c0,0,0,0,0,0c0,0,0.1,0,0.1,0c0,0,0.1,0,0.1,0c0,0,0.1,0,0.2,0l9.8,0
				c0.1,0,0.2,0,0.3,0s0.2,0.1,0.3,0.1c0.1,0,0.1,0.1,0.2,0.2c0,0.1,0.1,0.1,0.1,0.2c0,0.1,0,0.1,0,0.2s0,0.1-0.1,0.1
				c0,0-0.1,0.1-0.2,0.1c-0.1,0-0.2,0.1-0.4,0.1c-0.6,0-1.1,0-1.6,0.1c-0.5,0.1-0.9,0.2-1.3,0.3c-0.4,0.1-0.6,0.3-0.8,0.6
				c-0.2,0.3-0.3,0.6-0.3,0.9v13.4c0,1,0.1,1.9,0.4,2.6c0.2,0.7,0.6,1.3,1.1,1.7c0.5,0.4,1,0.8,1.6,1c0.6,0.2,1.2,0.3,1.8,0.3h0.2
				l0.3,0c0.3,0,0.7,0,1-0.1s0.6-0.2,0.9-0.3c0.3-0.1,0.6-0.3,0.9-0.5c0.3-0.2,0.6-0.4,0.9-0.7c0.6-0.5,1-1,1.3-1.6s0.4-1.2,0.4-1.9
				v-0.2V23.2c0-0.4-0.1-0.7-0.2-1c-0.1-0.3-0.3-0.6-0.6-0.9s-0.6-0.5-1-0.7c-0.4-0.2-0.8-0.2-1.3-0.2c-0.1,0-0.2,0-0.2,0
				c-0.1,0-0.1-0.1-0.2-0.1c-0.1,0-0.1-0.1-0.1-0.2c0-0.1,0-0.1,0-0.2v-0.1c0-0.1,0-0.1,0-0.2c0-0.1,0-0.1,0.1-0.1
				c0,0,0.1-0.1,0.2-0.1c0.1,0,0.2-0.1,0.3-0.1l6.4,0c0.1,0,0.2,0,0.3,0c0.1,0,0.1,0.1,0.2,0.1c0,0,0.1,0,0.1,0.1c0,0,0,0.1,0,0.1
				c0,0,0,0.1,0,0.1c0,0,0,0.1,0,0.1c0,0.1,0,0.1,0,0.2s-0.1,0.1-0.1,0.1c0,0-0.1,0.1-0.2,0.1c-0.1,0-0.2,0.1-0.3,0.1
				c-0.4,0.1-0.7,0.2-1,0.3s-0.6,0.4-0.8,0.6c-0.2,0.2-0.4,0.6-0.5,0.9c-0.1,0.4-0.2,0.8-0.2,1.3v12.4c0,1-0.2,1.9-0.6,2.7
				c-0.4,0.8-0.9,1.4-1.7,2c-0.7,0.5-1.5,0.9-2.4,1.2c-0.8,0.3-1.7,0.4-2.6,0.4c-0.9,0-1.7-0.1-2.6-0.4s-1.6-0.6-2.4-1.2
				c-0.8-0.5-1.3-1.2-1.7-2c-0.4-0.8-0.6-1.8-0.6-2.9V22.7c0-0.6-0.1-1-0.3-1.4c-0.2-0.4-0.4-0.6-0.8-0.7
				C231.7,20.6,231.7,20.6,231.6,20.6z"/>
			<path d="M255.9,36.5l0,0.3l0,0.2l0,0.2c0,0.4,0.1,0.7,0.2,1s0.2,0.7,0.4,1c0.1,0.1,0.2,0.3,0.3,0.4c0.1,0.1,0.3,0.3,0.5,0.4
				c0.2,0.1,0.4,0.2,0.6,0.2s0.5,0.1,0.7,0.1c0.1,0,0.2,0,0.3,0s0.1,0.1,0.2,0.1c0.1,0,0.1,0.1,0.2,0.1c0.1,0.1,0.1,0.1,0.1,0.2
				c0,0.1,0,0.1,0,0.2c0,0.1,0,0.1-0.1,0.1c0,0,0,0-0.1,0c0,0,0,0,0,0c0,0,0,0-0.1,0c0,0,0,0-0.1,0c0,0-0.1,0-0.2,0
				c-0.1,0-0.1,0-0.2,0h-6.8c-0.1,0-0.3,0-0.4,0c-0.1,0-0.2-0.1-0.2-0.1c0,0,0-0.1,0-0.1c0-0.1,0-0.1,0-0.2c0,0,0,0,0-0.1
				c0,0,0,0,0-0.1c0,0,0-0.1,0-0.1c0,0,0.1-0.1,0.1-0.1c0,0,0,0,0.1,0s0.1,0,0.1,0c0,0,0.1,0,0.2,0c0.1,0,0.1,0,0.2,0l0.6-0.1
				c0.1,0,0.3-0.1,0.4-0.2c0.1-0.1,0.3-0.1,0.4-0.2c0.2-0.1,0.4-0.3,0.6-0.5c0.2-0.2,0.4-0.5,0.6-0.7c0.2-0.3,0.3-0.6,0.4-1.1
				c0.1-0.4,0.1-0.9,0.1-1.4V23c0-0.5-0.1-1-0.2-1.3c-0.1-0.3-0.3-0.6-0.5-0.8c-0.2-0.2-0.5-0.3-0.9-0.4c-0.4-0.1-0.8-0.1-1.3-0.1
				l-0.1,0h-0.1c-0.1,0-0.2,0-0.2,0c-0.1,0-0.1-0.1-0.2-0.1c0,0,0-0.1-0.1-0.1c0-0.1,0-0.1,0-0.2c0-0.1,0-0.1,0-0.2
				c0-0.1,0.1-0.1,0.1-0.2c0.1-0.1,0.1-0.1,0.3-0.1c0.1,0,0.2,0,0.4,0l6.2,0l5.4,14.2l5.6-14.2h6.4c0.1,0,0.2,0,0.3,0
				s0.1,0.1,0.2,0.1c0,0.1,0.1,0.1,0.1,0.2c0.1,0.1,0.1,0.1,0.1,0.2c0,0.1,0,0.1,0,0.2s-0.1,0.1-0.1,0.1c-0.1,0-0.1,0.1-0.2,0.1
				c-0.1,0-0.2,0.1-0.4,0.1l-0.7,0.1c-0.1,0-0.3,0-0.4,0s-0.2,0.1-0.4,0.1c-0.2,0.1-0.4,0.2-0.7,0.3s-0.4,0.3-0.6,0.5
				c-0.2,0.2-0.4,0.4-0.5,0.6c-0.1,0.2-0.2,0.5-0.2,0.8v13.8c0,0.7,0.1,1.4,0.2,1.8c0.1,0.5,0.3,0.9,0.5,1.1
				c0.2,0.2,0.5,0.4,0.7,0.5c0.2,0.1,0.5,0.2,0.8,0.3l0.2,0h0.2h0.2l0.2,0h0.2h0.2c0.1,0,0.2,0,0.3,0s0.2,0.1,0.2,0.1
				c0.1,0.1,0.1,0.1,0.1,0.2c0,0.1,0.1,0.1,0.1,0.1c0,0,0,0,0,0.1s0,0.1,0,0.1c0,0,0,0.1,0,0.1c0,0,0,0.1,0,0.1c0,0-0.1,0-0.2,0.1
				c-0.1,0-0.2,0-0.3,0H266c0,0,0,0-0.1,0s0,0-0.1,0c-0.1,0-0.1,0-0.2,0c-0.1,0-0.1,0-0.1-0.1c0,0-0.1-0.1-0.1-0.1
				c0-0.1-0.1-0.1-0.1-0.2c0-0.1,0-0.1,0-0.2c0-0.1,0.1-0.1,0.1-0.1c0,0,0.1-0.1,0.2-0.1s0.2,0,0.4,0c0.5,0,0.9-0.1,1.3-0.2
				c0.4-0.1,0.7-0.3,1.1-0.5c0.4-0.2,0.6-0.6,0.8-1.1s0.2-1.2,0.2-1.9V20.8l-5.4,13.7l0.2,0.2l0.4,0.1h0.2c0.1,0,0.2,0,0.3,0.1
				c0.1,0,0.1,0.1,0.2,0.1c0,0,0,0.1,0,0.1s-0.1,0.1-0.2,0.2c0,0-0.1,0.1-0.2,0.1s-0.2,0.2-0.3,0.3c-0.1,0-0.2,0.1-0.3,0.2
				c-0.1,0.1-0.2,0.2-0.3,0.3l-0.7,0.7l-0.3,0.5l-0.3,0.6c-0.1,0.3-0.3,0.5-0.4,0.7s-0.2,0.2-0.3,0.2c0,0,0,0-0.1,0
				c0,0-0.1-0.1-0.1-0.1c0,0-0.1-0.1-0.1-0.2c0-0.1-0.1-0.2-0.1-0.2l-6-16.9v14.9V36.5z"/>
		</g>
		
			<linearGradient id="SVGID_1_" gradientUnits="userSpaceOnUse" x1="0" y1="-1636.65" x2="52.2" y2="-1636.65" gradientTransform="matrix(1 0 0 -1 0 -1608)">
			<stop  offset="0" style="stop-color:#FFFFFF"/>
			<stop  offset="0.16" style="stop-color:#FFFFFF;stop-opacity:0.98"/>
			<stop  offset="0.33" style="stop-color:#FFFFFF;stop-opacity:0.93"/>
			<stop  offset="0.51" style="stop-color:#FFFFFF;stop-opacity:0.85"/>
			<stop  offset="0.68" style="stop-color:#FFFFFF;stop-opacity:0.74"/>
			<stop  offset="0.86" style="stop-color:#FFFFFF;stop-opacity:0.59"/>
			<stop  offset="1" style="stop-color:#FFFFFF;stop-opacity:0.45"/>
		</linearGradient>
		<path class="st5" d="M52.2,11.4c-0.5-2.3-1.3-6.6-1.8-8.9c-1.3,0.5-2.5,1.1-3.7,1.7c-8.8,4-16.9,0.5-20.5-4.2
			c-3.4,3.5-7.9,5.6-12.7,6c-3.1,0.2-5.8-1.1-7.9-1.8C4.2,3.7,3.1,2.9,1.8,2.5c-0.5,2.4-1.3,6.7-1.8,9c0.7,0.6,1.3,1.3,1.8,2.1
			c1.7,3,0.9,6.3,1,10.4c0.3,8.1,1.9,14.1,5,19.3c4.1,7,10.3,10.4,18.4,14c3.8-2.1,7.4-3.5,10.5-5.6C44.7,46,49,37.1,49.4,24
			c0.1-4.1-0.6-7.4,0.9-10.3C50.9,12.9,51.5,12.1,52.2,11.4z M48.5,13.4c-1.4,2.7-0.7,7.1-0.8,11c-0.4,12.1-4.4,20.3-11.8,25.5
			c-2.8,2-6.2,3.3-9.7,5.2c-7.5-3.3-13.2-6.5-17-12.9c-2.8-4.8-4.3-10.4-4.6-17.8c-0.2-3.9,0.6-8.4-1-11.1c-0.5-0.7-1-1.4-1.7-2
			c0.4-2.2,1.2-4,1.7-6.2C4.8,5.5,5.8,6.2,7,6.7c2.3,0.8,4.8,1.1,7.3,0.9c4.5-0.4,8.6-2.3,11.8-5.5c3.4,4.3,11.9,7,19,4.6
			c1.3-0.4,2.3-1.2,3.4-1.6c0.4,2.1,1.2,4,1.7,6C49.6,11.9,49,12.6,48.5,13.4L48.5,13.4z"/>
		<path class="st6" d="M26,55.6C18.5,52.2,12.6,49,8.8,42.5l0,0c-2.9-4.9-4.4-10.5-4.6-18l0,0c0-0.4,0-0.7,0-1.1l0,0
			c0-1.5,0.1-2.9,0.1-4.4l0,0c0.1-1.9-0.2-3.7-0.9-5.4l0,0c-0.4-0.7-1-1.3-1.6-1.9l0,0l-0.2-0.2v-0.2c0.4-2.2,1.3-4,1.7-6.2l0,0
			l0.1-0.5l0.5,0.2C5,5.3,6.1,6,7.2,6.4l0,0c1.9,0.7,3.9,1,5.9,1l0,0c0.4,0,0.8,0,1.3,0l0,0c4.4-0.4,8.5-2.3,11.5-5.5l0,0l0.3-0.3
			L26.5,2c2.4,3,7.6,5.4,13,5.3l0,0c1.9,0,3.7-0.3,5.5-0.9l0,0c1.2-0.4,2.2-1.2,3.5-1.6l0,0l0.4-0.2L49,5.2c0.4,2.1,1.2,3.9,1.7,6
			l0,0v0.2l-0.1,0.1c-0.6,0.7-1.2,1.4-1.8,2.1l0,0c-0.7,1.7-0.9,3.5-0.8,5.3l0,0c0,1.4,0.1,2.9,0.1,4.4l0,0c0,0.4,0,0.8,0,1.1l0,0
			c-0.4,12.2-4.4,20.6-12,25.9l0,0c-2.9,2-6.3,3.3-9.7,5.2l0,0l-0.2,0.1L26,55.6z M4,13.2C4.8,15,5.1,17,5,19l0,0c0,1.5,0,2.9,0,4.4
			l0,0c0,0.4,0,0.7,0,1l0,0C5.3,31.8,6.7,37.3,9.5,42l0,0c3.7,6.3,9.3,9.4,16.6,12.7l0,0c3.5-1.9,6.7-3.2,9.5-5.1l0,0
			c7.3-5.1,11.2-13.2,11.6-25.2l0,0c0-0.4,0-0.8,0-1.1l0,0c0-1.4-0.1-2.9-0.1-4.4l0,0C47,17,47.3,15,48,13.3l0,0
			c0.5-0.7,1.1-1.4,1.7-2.1l0,0c-0.4-1.8-1.1-3.5-1.5-5.4l0,0c-0.9,0.4-1.9,1-3,1.4l0,0c-1.9,0.6-3.8,1-5.8,1l0,0
			C34,8.2,28.8,6,26.1,2.9l0,0c-3.2,3.1-7.3,5-11.7,5.3l0,0c-0.4,0-0.9,0-1.3,0l0,0c-2.1,0-4.2-0.3-6.1-1l0,0c-1.1-0.4-2-1-3-1.4
			l0,0c-0.4,2-1.1,3.6-1.5,5.5l0,0C3,11.8,3.6,12.5,4,13.2z"/>
		<g>
			<g>
				<defs>
					<path id="SVGID_2_" d="M33.4,20.8c0-4-3.3-7.3-7.3-7.3s-7.3,3.3-7.3,7.3c0,2.8,1.6,5.3,4,6.5l-3.7,15.3h14.1l-3.8-15.3
						C31.9,26,33.4,23.5,33.4,20.8z"/>
				</defs>
				<clipPath id="SVGID_3_">
					<use xlink:href="#SVGID_2_"  style="overflow:visible;"/>
				</clipPath>
				<g class="st7">
					<path class="st8" d="M33.4,20.8c0-4-3.3-7.3-7.3-7.3s-7.3,3.3-7.3,7.3c0,2.8,1.6,5.3,4,6.5l-3.7,15.3h14.1l-3.8-15.3
						C31.9,26,33.4,23.5,33.4,20.8z"/>
					<path class="st9" d="M35.1,20.8c0-4-3.3-7.3-7.3-7.3s-7.3,3.3-7.3,7.3c0,2.8,1.6,5.3,4,6.5l-3.7,15.3h14.1L31,27.4
						C33.5,26.1,35.1,23.6,35.1,20.8z"/>
				</g>
			</g>
		</g>
	</g>
</g>
</svg>
