<?xml version="1.0" encoding="utf-8"?>
<!-- Generator: Adobe Illustrator 21.1.0, SVG Export Plug-In . SVG Version: 6.00 Build 0)  -->
<svg version="1.1" id="Layer_1" xmlns="http://www.w3.org/2000/svg" xmlns:xlink="http://www.w3.org/1999/xlink" x="0px" y="0px"
	 viewBox="0 0 310 57.3" style="enable-background:new 0 0 310 57.3;" xml:space="preserve">
<style type="text/css">
	.st0{fill:#E6E7E8;}
	.st1{font-family:'Tiffany-NormalTh';}
	.st2{font-size:30.97px;}
	.st3{letter-spacing:2;}
	.st4{display:none;fill:#E6E7E8;}
	.st5{fill:#FFFFFF;}
	.st6{fill:url(#SVGID_1_);}
	.st7{display:none;fill:url(#SVGID_2_);}
	.st8{clip-path:url(#SVGID_4_);}
	.st9{fill:#A7A9AC;}
	.st10{fill:#F1F2F2;}
</style>
<g id="Layer_2">
	<g id="Logo">
		<text transform="matrix(1 0 0 1 61.43 41.27)" class="st0 st1 st2 st3">PUZZALARIUM</text>
		<path class="st0" d="M52.2,11.4c-0.5-2.3-1.3-6.6-1.8-8.9c-1.3,0.5-2.5,1.1-3.7,1.7c-8.8,4-16.9,0.5-20.5-4.2
			c-3.4,3.5-7.9,5.6-12.7,6c-3.1,0.2-5.8-1.1-7.9-1.8C4.2,3.7,3.1,2.9,1.8,2.5c-0.5,2.4-1.3,6.7-1.8,9c0.7,0.6,1.3,1.3,1.8,2.1
			c1.7,3,0.9,6.3,1,10.4c0.3,8.1,1.9,14.1,5,19.3c4.1,7,10.3,10.4,18.4,14c3.8-2.1,7.4-3.5,10.5-5.6c8-5.7,12.3-14.6,12.7-27.7
			c0.1-4.1-0.6-7.4,0.9-10.3C50.9,12.9,51.5,12.1,52.2,11.4z M48.5,13.4c-1.4,2.7-0.7,7.1-0.8,11c-0.4,12.1-4.4,20.3-11.8,25.5
			c-2.8,2-6.2,3.3-9.7,5.2c-7.5-3.3-13.2-6.5-17-12.9c-2.8-4.8-4.3-10.4-4.6-17.8C4.4,20.5,5.2,16,3.6,13.3c-0.5-0.7-1-1.4-1.7-2
			c0.4-2.2,1.2-4,1.7-6.2c1.2,0.4,2.2,1.1,3.4,1.6c2.3,0.8,4.8,1.1,7.3,0.9c4.5-0.4,8.6-2.3,11.8-5.5c3.4,4.3,11.9,7,19,4.6
			c1.3-0.4,2.3-1.2,3.4-1.6c0.4,2.1,1.2,4,1.7,6C49.6,11.9,49,12.6,48.5,13.4L48.5,13.4z"/>
		<path class="st4" d="M3.7,12.8c1.5,2.8,0.8,7.2,0.9,11.1c0.3,7.5,1.8,13,4.6,17.8l0.3,0.5c1.3-1.3,2.6-2.7,3.9-4
			c13-13,26.3-22.9,36.7-27.9c-0.5-1.9-1.2-3.6-1.5-5.6c-1.1,0.4-2.2,1.1-3.4,1.6c-7,2.5-15.6-0.3-19-4.6c-3.1,3.2-7.3,5.1-11.8,5.5
			C12,7.3,9.5,7,7.1,6.2C5.9,5.8,4.9,5,3.7,4.6c-0.4,2.2-1.2,4-1.7,6.1C2.7,11.3,3.2,12,3.7,12.8z"/>
		<path class="st0" d="M26,55.6C18.5,52.2,12.6,49,8.8,42.5l0,0c-2.9-4.9-4.4-10.5-4.6-18l0,0c0-0.4,0-0.7,0-1.1l0,0
			c0-1.5,0.1-2.9,0.1-4.4l0,0c0.1-1.9-0.2-3.7-0.9-5.4l0,0c-0.4-0.7-1-1.3-1.6-1.9l0,0l-0.2-0.2v-0.2c0.4-2.2,1.3-4,1.7-6.2l0,0
			l0.1-0.5l0.5,0.2C5,5.3,6.1,6,7.2,6.4l0,0c1.9,0.7,3.9,1,5.9,1l0,0c0.4,0,0.8,0,1.3,0l0,0c4.4-0.4,8.5-2.3,11.5-5.5l0,0l0.3-0.3
			L26.5,2c2.4,3,7.6,5.4,13,5.3l0,0c1.9,0,3.7-0.3,5.5-0.9l0,0c1.2-0.4,2.2-1.2,3.5-1.6l0,0l0.4-0.2L49,5.2c0.4,2.1,1.2,3.9,1.7,6
			l0,0v0.2l-0.1,0.1c-0.6,0.7-1.2,1.4-1.8,2.1l0,0c-0.7,1.7-0.9,3.5-0.8,5.3l0,0c0,1.4,0.1,2.9,0.1,4.4l0,0c0,0.4,0,0.8,0,1.1l0,0
			c-0.4,12.2-4.4,20.6-12,25.9l0,0c-2.9,2-6.3,3.3-9.7,5.2l0,0l-0.2,0.1L26,55.6z M4,13.2C4.8,15,5.1,17,5,19l0,0c0,1.5,0,2.9,0,4.4
			l0,0c0,0.4,0,0.7,0,1l0,0c0.3,7.4,1.7,12.9,4.5,17.6l0,0c3.7,6.3,9.3,9.4,16.6,12.7l0,0c3.5-1.9,6.7-3.2,9.5-5.1l0,0
			c7.3-5.1,11.2-13.2,11.6-25.2l0,0c0-0.4,0-0.8,0-1.1l0,0c0-1.4-0.1-2.9-0.1-4.4l0,0c-0.1-1.9,0.2-3.9,0.9-5.6l0,0
			c0.5-0.7,1.1-1.4,1.7-2.1l0,0c-0.4-1.8-1.1-3.5-1.5-5.4l0,0c-0.9,0.4-1.9,1-3,1.4l0,0c-1.9,0.6-3.8,1-5.8,1l0,0
			c-5.4,0-10.6-2.2-13.3-5.3l0,0c-3.2,3.1-7.3,5-11.7,5.3l0,0c-0.4,0-0.9,0-1.3,0l0,0c-2.1,0-4.2-0.3-6.1-1l0,0c-1.1-0.4-2-1-3-1.4
			l0,0c-0.4,2-1.1,3.6-1.5,5.5l0,0C3,11.8,3.6,12.5,4,13.2z"/>
		<text transform="matrix(1 0 0 1 61.43 41.27)" class="st5 st1 st2 st3">PUZZALARIUM</text>
		
			<linearGradient id="SVGID_1_" gradientUnits="userSpaceOnUse" x1="0" y1="31.355" x2="52.2" y2="31.355" gradientTransform="matrix(1 0 0 -1 0 60)">
			<stop  offset="0" style="stop-color:#FFFFFF"/>
			<stop  offset="0.16" style="stop-color:#FFFFFF;stop-opacity:0.98"/>
			<stop  offset="0.33" style="stop-color:#FFFFFF;stop-opacity:0.93"/>
			<stop  offset="0.51" style="stop-color:#FFFFFF;stop-opacity:0.85"/>
			<stop  offset="0.68" style="stop-color:#FFFFFF;stop-opacity:0.74"/>
			<stop  offset="0.86" style="stop-color:#FFFFFF;stop-opacity:0.59"/>
			<stop  offset="1" style="stop-color:#FFFFFF;stop-opacity:0.45"/>
		</linearGradient>
		<path class="st6" d="M52.2,11.4c-0.5-2.3-1.3-6.6-1.8-8.9c-1.3,0.5-2.5,1.1-3.7,1.7c-8.8,4-16.9,0.5-20.5-4.2
			c-3.4,3.5-7.9,5.6-12.7,6c-3.1,0.2-5.8-1.1-7.9-1.8C4.2,3.7,3.1,2.9,1.8,2.5c-0.5,2.4-1.3,6.7-1.8,9c0.7,0.6,1.3,1.3,1.8,2.1
			c1.7,3,0.9,6.3,1,10.4c0.3,8.1,1.9,14.1,5,19.3c4.1,7,10.3,10.4,18.4,14c3.8-2.1,7.4-3.5,10.5-5.6c8-5.7,12.3-14.6,12.7-27.7
			c0.1-4.1-0.6-7.4,0.9-10.3C50.9,12.9,51.5,12.1,52.2,11.4z M48.5,13.4c-1.4,2.7-0.7,7.1-0.8,11c-0.4,12.1-4.4,20.3-11.8,25.5
			c-2.8,2-6.2,3.3-9.7,5.2c-7.5-3.3-13.2-6.5-17-12.9c-2.8-4.8-4.3-10.4-4.6-17.8C4.4,20.5,5.2,16,3.6,13.3c-0.5-0.7-1-1.4-1.7-2
			c0.4-2.2,1.2-4,1.7-6.2c1.2,0.4,2.2,1.1,3.4,1.6c2.3,0.8,4.8,1.1,7.3,0.9c4.5-0.4,8.6-2.3,11.8-5.5c3.4,4.3,11.9,7,19,4.6
			c1.3-0.4,2.3-1.2,3.4-1.6c0.4,2.1,1.2,4,1.7,6C49.6,11.9,49,12.6,48.5,13.4L48.5,13.4z"/>
		
			<linearGradient id="SVGID_2_" gradientUnits="userSpaceOnUse" x1="32.0294" y1="24.3361" x2="21.6514" y2="60.5188" gradientTransform="matrix(1 0 0 -1 0 60)">
			<stop  offset="0" style="stop-color:#565759"/>
			<stop  offset="2.000000e-02" style="stop-color:#535456;stop-opacity:0.95"/>
			<stop  offset="0.19" style="stop-color:#424143;stop-opacity:0.61"/>
			<stop  offset="0.36" style="stop-color:#343233;stop-opacity:0.34"/>
			<stop  offset="0.55" style="stop-color:#2B2728;stop-opacity:0.15"/>
			<stop  offset="0.75" style="stop-color:#252122;stop-opacity:4.000000e-02"/>
			<stop  offset="1" style="stop-color:#231F20;stop-opacity:0"/>
		</linearGradient>
		<path class="st7" d="M3.7,12.8c1.5,2.8,0.8,7.2,0.9,11.1c0.3,7.5,1.8,13,4.6,17.8l0.3,0.5c1.3-1.3,2.6-2.7,3.9-4
			c13-13,26.3-22.9,36.7-27.9c-0.5-1.9-1.2-3.6-1.5-5.6c-1.1,0.4-2.2,1.1-3.4,1.6c-7,2.5-15.6-0.3-19-4.6c-3.1,3.2-7.3,5.1-11.8,5.5
			C12,7.3,9.5,7,7.1,6.2C5.9,5.8,4.9,5,3.7,4.6c-0.4,2.2-1.2,4-1.7,6.1C2.7,11.3,3.2,12,3.7,12.8z"/>
		<path class="st5" d="M26,55.6C18.5,52.2,12.6,49,8.8,42.5l0,0c-2.9-4.9-4.4-10.5-4.6-18l0,0c0-0.4,0-0.7,0-1.1l0,0
			c0-1.5,0.1-2.9,0.1-4.4l0,0c0.1-1.9-0.2-3.7-0.9-5.4l0,0c-0.4-0.7-1-1.3-1.6-1.9l0,0l-0.2-0.2v-0.2c0.4-2.2,1.3-4,1.7-6.2l0,0
			l0.1-0.5l0.5,0.2C5,5.3,6.1,6,7.2,6.4l0,0c1.9,0.7,3.9,1,5.9,1l0,0c0.4,0,0.8,0,1.3,0l0,0c4.4-0.4,8.5-2.3,11.5-5.5l0,0l0.3-0.3
			L26.5,2c2.4,3,7.6,5.4,13,5.3l0,0c1.9,0,3.7-0.3,5.5-0.9l0,0c1.2-0.4,2.2-1.2,3.5-1.6l0,0l0.4-0.2L49,5.2c0.4,2.1,1.2,3.9,1.7,6
			l0,0v0.2l-0.1,0.1c-0.6,0.7-1.2,1.4-1.8,2.1l0,0c-0.7,1.7-0.9,3.5-0.8,5.3l0,0c0,1.4,0.1,2.9,0.1,4.4l0,0c0,0.4,0,0.8,0,1.1l0,0
			c-0.4,12.2-4.4,20.6-12,25.9l0,0c-2.9,2-6.3,3.3-9.7,5.2l0,0l-0.2,0.1L26,55.6z M4,13.2C4.8,15,5.1,17,5,19l0,0c0,1.5,0,2.9,0,4.4
			l0,0c0,0.4,0,0.7,0,1l0,0c0.3,7.4,1.7,12.9,4.5,17.6l0,0c3.7,6.3,9.3,9.4,16.6,12.7l0,0c3.5-1.9,6.7-3.2,9.5-5.1l0,0
			c7.3-5.1,11.2-13.2,11.6-25.2l0,0c0-0.4,0-0.8,0-1.1l0,0c0-1.4-0.1-2.9-0.1-4.4l0,0c-0.1-1.9,0.2-3.9,0.9-5.6l0,0
			c0.5-0.7,1.1-1.4,1.7-2.1l0,0c-0.4-1.8-1.1-3.5-1.5-5.4l0,0c-0.9,0.4-1.9,1-3,1.4l0,0c-1.9,0.6-3.8,1-5.8,1l0,0
			c-5.4,0-10.6-2.2-13.3-5.3l0,0c-3.2,3.1-7.3,5-11.7,5.3l0,0c-0.4,0-0.9,0-1.3,0l0,0c-2.1,0-4.2-0.3-6.1-1l0,0c-1.1-0.4-2-1-3-1.4
			l0,0c-0.4,2-1.1,3.6-1.5,5.5l0,0C3,11.8,3.6,12.5,4,13.2z"/>
		<g>
			<defs>
				<path id="SVGID_3_" d="M33.4,20.8c0-4-3.3-7.3-7.3-7.3s-7.3,3.3-7.3,7.3c0,2.8,1.6,5.3,4,6.5l-3.7,15.3h14.1l-3.8-15.3
					C31.9,26,33.4,23.5,33.4,20.8z"/>
			</defs>
			<clipPath id="SVGID_4_">
				<use xlink:href="#SVGID_3_"  style="overflow:visible;"/>
			</clipPath>
			<g class="st8">
				<path class="st9" d="M33.4,20.8c0-4-3.3-7.3-7.3-7.3s-7.3,3.3-7.3,7.3c0,2.8,1.6,5.3,4,6.5l-3.7,15.3h14.1l-3.8-15.3
					C31.9,26,33.4,23.5,33.4,20.8z"/>
				<path class="st10" d="M35.1,20.8c0-4-3.3-7.3-7.3-7.3s-7.3,3.3-7.3,7.3c0,2.8,1.6,5.3,4,6.5l-3.7,15.3h14.1L31,27.4
					C33.5,26.1,35.1,23.6,35.1,20.8z"/>
			</g>
		</g>
	</g>
</g>
</svg>
